<svg width="12" height="14" viewBox="0 0 12 14" fill="none" xmlns="http://www.w3.org/2000/svg">
    <path
        d="M8.22884 7.50421C8.48917 7.2439 8.91123 7.24391 9.17154 7.50423L11.2929 9.62564C11.6834 10.0162 11.6834 10.6493 11.2929 11.0398L9.17161 13.1611C8.91126 13.4215 8.48914 13.4215 8.22877 13.1611C7.9684 12.9008 7.96838 12.4787 8.22873 12.2183L9.448 10.9989L1.33337 10.9994C0.965167 10.9994 0.666667 10.7009 0.666667 10.3327C0.666667 9.96453 0.965119 9.66606 1.33329 9.66604L9.448 9.66554L8.22893 8.44705C7.9685 8.18674 7.96845 7.76457 8.22884 7.50421ZM2.82848 0.837563C3.0888 0.577242 3.51086 0.577243 3.77118 0.837564C4.03154 1.09793 4.03149 1.52007 3.77107 1.78037L2.552 2.99888L10.6667 2.99934C11.0349 2.99936 11.3333 3.29783 11.3333 3.66601C11.3333 4.03421 11.0348 4.33269 10.6666 4.33267L2.552 4.33221L3.77128 5.55166C4.03161 5.81202 4.0316 6.23412 3.77125 6.49446C3.51089 6.75482 3.08877 6.75482 2.82842 6.49446L0.707106 4.37315C0.316582 3.98263 0.316583 3.34946 0.707107 2.95894L2.82848 0.837563Z"
        fill="currentColor" />
</svg>