<svg viewBox="0 0 33 16" fill="none" xmlns="http://www.w3.org/2000/svg">
    <path fill-rule="evenodd" clip-rule="evenodd"
        d="M8.78033 4.80365C8.48744 4.51076 8.01256 4.51076 7.71967 4.80365C7.42678 5.09655 7.42678 5.57142 7.71967 5.86431L9.85601 8.00065L7.71967 10.137C7.42678 10.4299 7.42678 10.9048 7.71967 11.1976C8.01256 11.4905 8.48744 11.4905 8.78033 11.1976L11.0934 8.88453C11.5816 8.39638 11.5816 7.60492 11.0934 7.11677L8.78033 4.80365ZM13.447 4.80365C13.1541 4.51076 12.6792 4.51076 12.3863 4.80365C12.0934 5.09655 12.0934 5.57142 12.3863 5.86431L14.5227 8.00065L12.3863 10.137C12.0934 10.4299 12.0934 10.9048 12.3863 11.1976C12.6792 11.4905 13.1541 11.4905 13.447 11.1976L15.7601 8.88453C16.2483 8.39638 16.2483 7.60492 15.7601 7.11677L13.447 4.80365ZM18.4463 4.80365C18.1535 4.51076 17.6786 4.51076 17.3857 4.80365C17.0928 5.09655 17.0928 5.57142 17.3857 5.86431L19.522 8.00065L17.3857 10.137C17.0928 10.4299 17.0928 10.9048 17.3857 11.1976C17.6786 11.4905 18.1535 11.4905 18.4463 11.1976L20.7595 8.88453C21.2476 8.39638 21.2476 7.60492 20.7595 7.11677L18.4463 4.80365ZM23.113 4.80365C22.8201 4.51076 22.3452 4.51076 22.0524 4.80365C21.7595 5.09655 21.7595 5.57142 22.0524 5.86431L24.1887 8.00065L22.0524 10.137C21.7595 10.4299 21.7595 10.9048 22.0524 11.1976C22.3452 11.4905 22.8201 11.4905 23.113 11.1976L25.4261 8.88453C25.9143 8.39638 25.9143 7.60492 25.4261 7.11677L23.113 4.80365Z"
        fill="url(#paint0_linear_8139_3478)" />
    <defs>
        <linearGradient id="paint0_linear_8139_3478" x1="25.7495" y1="8.00044" x2="6.75002" y2="8.00044"
            gradientUnits="userSpaceOnUse">
            <stop stop-color="currentColor" />
            <stop offset="1" stop-color="currentColor" stop-opacity="0" />
        </linearGradient>
    </defs>
</svg>