<svg width="16" height="15" viewBox="0 0 16 15" fill="none" xmlns="http://www.w3.org/2000/svg">
    <path
        d="M0.22168 8.90278C0.22168 8.41953 0.613431 8.02778 1.09668 8.02778H4.01335C4.4966 8.02778 4.88835 8.41953 4.88835 8.90278V13.375C4.88835 13.8583 4.4966 14.25 4.01335 14.25H1.09668C0.61343 14.25 0.22168 13.8582 0.22168 13.375V8.90278ZM11.1106 5.01389C11.1106 4.53064 11.5023 4.13889 11.9856 4.13889H14.9022C15.3855 4.13889 15.7772 4.53064 15.7772 5.01389V13.375C15.7772 13.8582 15.3855 14.25 14.9022 14.25H11.9856C11.5023 14.25 11.1106 13.8582 11.1106 13.375V5.01389ZM5.66612 1.125C5.66612 0.641751 6.05787 0.25 6.54112 0.25H9.45779C9.94104 0.25 10.3328 0.641751 10.3328 1.125V13.375C10.3328 13.8582 9.94104 14.25 9.45779 14.25H6.54112C6.05787 14.25 5.66612 13.8582 5.66612 13.375V1.125ZM1.77724 9.58333V12.6944H3.33279V9.58333H1.77724ZM7.22168 1.80556V12.6944H8.77723V1.80556H7.22168ZM12.6661 5.69444V12.6944H14.2217V5.69444H12.6661Z"
        fill="currentColor" />
</svg>