<svg width="24" height="24" viewBox="0 0 24 24" fill="none" xmlns="http://www.w3.org/2000/svg">
    <path
        d="M5 13.7773C4.44772 13.7773 4 14.2251 4 14.7773V18.9996C4 19.5519 4.44771 19.9996 5 19.9996H6.33C6.88228 19.9996 7.33 19.5519 7.33 18.9996V14.7773C7.33 14.2251 6.88229 13.7773 6.33 13.7773H5Z"
        stroke="#8457FF" stroke-width="2" stroke-linecap="square" stroke-linejoin="round" />
    <path
        d="M11.33 9.33398C10.7777 9.33398 10.33 9.7817 10.33 10.334V19.0007C10.33 19.5529 10.7777 20.0007 11.33 20.0007H12.66C13.2123 20.0007 13.66 19.5529 13.66 19.0006V10.334C13.66 9.7817 13.2123 9.33398 12.66 9.33398H11.33Z"
        stroke="#8457FF" stroke-width="2" stroke-linecap="square" stroke-linejoin="round" />
    <path
        d="M17.67 4C17.1177 4 16.67 4.44772 16.67 5V19C16.67 19.5523 17.1177 20 17.67 20H19C19.5523 20 20 19.5523 20 19V5C20 4.44772 19.5523 4 19 4H17.67Z"
        stroke="#8457FF" stroke-width="2" stroke-linecap="square" stroke-linejoin="round" />
</svg>