<svg width="14" height="14" viewBox="0 0 14 14" fill="none" xmlns="http://www.w3.org/2000/svg">
    <path
        d="M6.99967 13.6673C3.31777 13.6673 0.333008 10.6825 0.333008 7.00065C0.333008 3.31875 3.31777 0.333984 6.99967 0.333984C10.6815 0.333984 13.6663 3.31875 13.6663 7.00065C13.6663 10.6825 10.6815 13.6673 6.99967 13.6673ZM5.62764 8.96022C6.01816 9.35074 6.65132 9.35074 7.04185 8.96022L10.5774 5.42467C10.8378 5.16432 10.8378 4.74222 10.5774 4.48187C10.3171 4.22152 9.89495 4.22152 9.63461 4.48187L6.33474 7.78172L4.92058 6.3675C4.66022 6.10713 4.23808 6.10713 3.97772 6.3675C3.71738 6.62786 3.71739 7.04997 3.97774 7.31032L5.62764 8.96022Z"
        fill="currentColor" />
</svg>