<svg width="17" height="17" viewBox="0 0 17 17" fill="none" xmlns="http://www.w3.org/2000/svg">
    <path
        d="M8.43987 16.3592C4.19341 16.3592 0.750977 12.9168 0.750977 8.67033C0.750977 4.42388 4.19341 0.981445 8.43987 0.981445C12.6863 0.981445 16.1288 4.42388 16.1288 8.67033C16.1288 12.9168 12.6863 16.3592 8.43987 16.3592ZM8.43987 14.8214C11.837 14.8214 14.591 12.0675 14.591 8.67033C14.591 5.27317 11.837 2.51922 8.43987 2.51922C5.0427 2.51922 2.28875 5.27317 2.28875 8.67033C2.28875 12.0675 5.0427 14.8214 8.43987 14.8214ZM9.20875 8.67033H11.5154C11.9401 8.67033 12.2843 9.01458 12.2843 9.43922C12.2843 9.86387 11.9401 10.2081 11.5154 10.2081H9.11264C8.31643 10.2081 7.67098 9.56266 7.67098 8.76645V5.59478C7.67098 5.17013 8.01522 4.82589 8.43987 4.82589C8.86451 4.82589 9.20875 5.17013 9.20875 5.59478V8.67033Z"
        fill="currentColor" />
</svg>