<svg width="10" height="12" viewBox="0 0 10 12" fill="none" xmlns="http://www.w3.org/2000/svg">
    <path
        d="M2.22211 2.66656V0.999891C2.22211 0.693069 2.47084 0.444336 2.77767 0.444336H9.44433C9.75117 0.444336 9.99989 0.693069 9.99989 0.999891V8.77767C9.99989 9.0845 9.75117 9.33322 9.44433 9.33322H7.77767V10.9994C7.77767 11.3065 7.52772 11.5554 7.21833 11.5554H0.559256C0.250328 11.5554 0 11.3084 0 10.9994L0.00144442 3.2226C0.00149997 2.91551 0.251467 2.66656 0.560789 2.66656H2.22211ZM1.11246 3.77767L1.11122 10.4443H6.66656V3.77767H1.11246ZM3.33322 2.66656H7.77767V8.22211H8.88878V1.55545H3.33322V2.66656Z"
        fill="currentColor" />
</svg>