<svg width="20" height="20" viewBox="0 0 20 20" fill="none" xmlns="http://www.w3.org/2000/svg">
<path d="M8 3.5H5.5C4.39543 3.5 3.5 4.39543 3.5 5.5V8V10.5C3.5 11.6046 4.39543 12.5 5.5 12.5H8H10.5C11.6046 12.5 12.5 11.6046 12.5 10.5V8V5.5C12.5 4.39543 11.6046 3.5 10.5 3.5H8Z" fill="#888A90" fill-opacity="0.2" stroke="#2A2B2E" stroke-linecap="round" stroke-linejoin="round"/>
<path d="M14.5 7.5V7.5C15.6046 7.5 16.5 8.39543 16.5 9.5V12V14.5C16.5 15.6046 15.6046 16.5 14.5 16.5H12H9.5C8.39543 16.5 7.5 15.6046 7.5 14.5V14.5" stroke="#2A2B2E" stroke-linecap="round" stroke-linejoin="round"/>
</svg>
