<svg width="18" height="18" viewBox="0 0 18 18" fill="none" xmlns="http://www.w3.org/2000/svg">
    <path
        d="M9.00315 17.8901C4.09395 17.8901 0.114258 13.9103 0.114258 9.00119C0.114258 4.09199 4.09395 0.112305 9.00315 0.112305C13.9123 0.112305 17.892 4.09199 17.892 9.00119C17.892 13.9103 13.9123 17.8901 9.00315 17.8901ZM9.00315 16.1123C12.9305 16.1123 16.1143 12.9286 16.1143 9.00119C16.1143 5.07383 12.9305 1.89008 9.00315 1.89008C5.07579 1.89008 1.89204 5.07383 1.89204 9.00119C1.89204 12.9286 5.07579 16.1123 9.00315 16.1123ZM12.7743 5.22996C13.1389 5.59437 13.0838 6.17762 12.7193 6.54209L6.54405 12.7174C6.17957 13.0819 5.59632 13.1369 5.23191 12.7724C4.86746 12.408 4.92247 11.8248 5.2869 11.4604L11.4623 5.28495C11.8268 4.92052 12.4099 4.86551 12.7743 5.22996Z"
        fill="currentColor" />
</svg>