<svg viewBox="0 0 16 16" fill="none" xmlns="http://www.w3.org/2000/svg">
  <path d="M12.8689 3.5581C11.9563 3.14068 10.987 2.83646 9.97527 2.66666C9.84793 2.88598 9.7064 3.18313 9.60733 3.4166C8.53127 3.26095 7.46293 3.26095 6.4017 3.4166C6.30265 3.18313 6.15407 2.88598 6.03379 2.66666C5.01501 2.83646 4.04574 3.14068 3.13943 3.5581C1.30702 6.26073 0.811772 8.89966 1.0594 11.5033C2.27629 12.3877 3.45075 12.9253 4.60467 13.2791C4.88767 12.8971 5.14237 12.4867 5.3617 12.0551C4.94427 11.8995 4.54807 11.7085 4.16603 11.4821C4.26508 11.4113 4.36413 11.3335 4.45611 11.2557C6.76253 12.3099 9.26073 12.3099 11.5388 11.2557C11.6379 11.3335 11.7299 11.4113 11.8289 11.4821C11.4469 11.7085 11.0507 11.8995 10.6333 12.0551C10.8526 12.4867 11.1073 12.8971 11.3903 13.2791C12.5435 12.9253 13.725 12.3877 14.9355 11.5033C15.2397 8.48939 14.4537 5.87164 12.8689 3.5581ZM5.68007 9.89726C4.98671 9.89726 4.42071 9.26759 4.42071 8.49646C4.42071 7.72526 4.97256 7.09559 5.68007 7.09559C6.38047 7.09559 6.95353 7.72526 6.9394 8.49646C6.9394 9.26759 6.38047 9.89726 5.68007 9.89726ZM10.3291 9.89726C9.63567 9.89726 9.06893 9.26759 9.06893 8.49646C9.06893 7.72526 9.62153 7.09559 10.3291 7.09559C11.0295 7.09559 11.6025 7.72526 11.5883 8.49646C11.5883 9.26759 11.0365 9.89726 10.3291 9.89726Z" fill="currentColor"/>
</svg>