<svg width="15" height="17" viewBox="0 0 15 17" fill="none" xmlns="http://www.w3.org/2000/svg">
    <path
        d="M14.2436 4.88204C14.4077 5.04614 14.5 5.26877 14.5 5.50092V15.2442C14.5 15.6773 14.154 16.0272 13.7274 16.0272H1.27264C0.846072 16.0272 0.5 15.6819 0.5 15.2558V1.24308C0.5 0.82581 0.848989 0.47168 1.2795 0.47168H9.46855C9.70053 0.47168 9.92302 0.563803 10.0871 0.727796L14.2436 4.88204ZM12.9444 5.91612H9.93056C9.44731 5.91612 9.05556 5.52437 9.05556 5.04112V2.02724H2.05556V14.4717H12.9444V5.91612ZM4.38889 5.13835C4.38889 4.70879 4.73711 4.36057 5.16667 4.36057H5.94444C6.374 4.36057 6.72222 4.70879 6.72222 5.13835C6.72222 5.5679 6.374 5.91612 5.94444 5.91612H5.16667C4.73711 5.91612 4.38889 5.5679 4.38889 5.13835ZM4.38889 8.24946C4.38889 7.8199 4.73711 7.47168 5.16667 7.47168H9.83333C10.2629 7.47168 10.6111 7.8199 10.6111 8.24946C10.6111 8.67901 10.2629 9.02723 9.83333 9.02723H5.16667C4.73711 9.02723 4.38889 8.67901 4.38889 8.24946ZM4.38889 11.3606C4.38889 10.931 4.73711 10.5828 5.16667 10.5828H9.83333C10.2629 10.5828 10.6111 10.931 10.6111 11.3606C10.6111 11.7901 10.2629 12.1383 9.83333 12.1383H5.16667C4.73711 12.1383 4.38889 11.7901 4.38889 11.3606Z"
        fill="currentColor" />
</svg>