<svg width="16" height="16" viewBox="0 0 16 16" fill="none" xmlns="http://www.w3.org/2000/svg">
    <path
        d="M2.19799 12.762L2.53848 12.0937L2.53848 12.0937L2.19799 12.762ZM1.90665 12.4706L1.23839 12.8111L1.23839 12.8111L1.90665 12.4706ZM14.0947 12.4706L13.4264 12.1301L13.4264 12.1301L14.0947 12.4706ZM13.8033 12.762L14.1438 13.4302L14.1438 13.4302L13.8033 12.762ZM14.0947 3.53198L13.4264 3.87247L13.4264 3.87247L14.0947 3.53198ZM13.8033 3.24063L14.1438 2.57238L14.1438 2.57238L13.8033 3.24063ZM1.90665 3.53198L1.23839 3.19148L1.23839 3.19148L1.90665 3.53198ZM2.19799 3.24063L1.8575 2.57238L1.8575 2.57238L2.19799 3.24063ZM7.57849 8.32257L7.10356 8.90304L7.10356 8.90304L7.57849 8.32257ZM8.42281 8.32257L8.89774 8.90304L8.89774 8.90304L8.42281 8.32257ZM13.4173 4.23464V11.768H14.9173V4.23464H13.4173ZM13.1007 12.0846H2.90065V13.5846H13.1007V12.0846ZM2.58398 11.768V4.23464H1.08398V11.768H2.58398ZM2.90065 3.91797H13.1007V2.41797H2.90065V3.91797ZM2.90065 12.0846C2.70159 12.0846 2.5974 12.0841 2.52386 12.078C2.45907 12.0727 2.48644 12.0672 2.53848 12.0937L1.8575 13.4302C2.05215 13.5294 2.24416 13.5602 2.40171 13.5731C2.55051 13.5852 2.72634 13.5846 2.90065 13.5846V12.0846ZM1.08398 11.768C1.08398 11.9423 1.0834 12.1181 1.09556 12.2669C1.10843 12.4245 1.13921 12.6165 1.23839 12.8111L2.5749 12.1301C2.60142 12.1822 2.59587 12.2095 2.59058 12.1448C2.58457 12.0712 2.58398 11.967 2.58398 11.768H1.08398ZM2.53848 12.0937C2.55416 12.1017 2.56691 12.1145 2.5749 12.1301L1.23839 12.8111C1.37421 13.0777 1.59093 13.2944 1.8575 13.4302L2.53848 12.0937ZM13.4173 11.768C13.4173 11.967 13.4167 12.0712 13.4107 12.1448C13.4054 12.2095 13.3999 12.1822 13.4264 12.1301L14.7629 12.8111C14.8621 12.6165 14.8929 12.4245 14.9057 12.2669C14.9179 12.1181 14.9173 11.9423 14.9173 11.768H13.4173ZM13.1007 13.5846C13.275 13.5846 13.4508 13.5852 13.5996 13.5731C13.7571 13.5602 13.9491 13.5294 14.1438 13.4302L13.4628 12.0937C13.5149 12.0672 13.5422 12.0727 13.4774 12.078C13.4039 12.0841 13.2997 12.0846 13.1007 12.0846V13.5846ZM13.4264 12.1301C13.4344 12.1145 13.4471 12.1017 13.4628 12.0937L14.1438 13.4302C14.4104 13.2944 14.6271 13.0777 14.7629 12.8111L13.4264 12.1301ZM14.9173 4.23464C14.9173 4.06033 14.9179 3.88449 14.9057 3.7357C14.8929 3.57815 14.8621 3.38614 14.7629 3.19148L13.4264 3.87247C13.3999 3.82042 13.4054 3.79306 13.4107 3.85784C13.4167 3.93139 13.4173 4.03558 13.4173 4.23464H14.9173ZM13.1007 3.91797C13.2997 3.91797 13.4039 3.91855 13.4774 3.92456C13.5422 3.92985 13.5149 3.93541 13.4628 3.90889L14.1438 2.57238C13.9491 2.47319 13.7571 2.44241 13.5996 2.42954C13.4508 2.41739 13.275 2.41797 13.1007 2.41797V3.91797ZM14.7629 3.19148C14.6271 2.92492 14.4104 2.7082 14.1438 2.57238L13.4628 3.90889C13.4471 3.9009 13.4344 3.88815 13.4264 3.87247L14.7629 3.19148ZM2.58398 4.23464C2.58398 4.03558 2.58457 3.93139 2.59058 3.85784C2.59587 3.79306 2.60142 3.82042 2.5749 3.87247L1.23839 3.19148C1.13921 3.38614 1.10843 3.57815 1.09556 3.7357C1.0834 3.88449 1.08398 4.06033 1.08398 4.23464H2.58398ZM2.90065 2.41797C2.72634 2.41797 2.55051 2.41739 2.40171 2.42954C2.24416 2.44241 2.05215 2.47319 1.8575 2.57238L2.53848 3.90889C2.48644 3.93541 2.45907 3.92985 2.52386 3.92456C2.5974 3.91855 2.70159 3.91797 2.90065 3.91797V2.41797ZM2.5749 3.87247C2.56691 3.88815 2.55416 3.9009 2.53848 3.90889L1.8575 2.57238C1.59093 2.7082 1.37421 2.92492 1.23839 3.19148L2.5749 3.87247ZM8.05342 7.7421L2.47558 3.17841L1.52572 4.33935L7.10356 8.90304L8.05342 7.7421ZM13.5257 3.17841L7.94788 7.7421L8.89774 8.90304L14.4756 4.33935L13.5257 3.17841ZM7.10356 8.90304C7.62542 9.33001 8.37589 9.33001 8.89774 8.90304L7.94788 7.7421C7.97858 7.71699 8.02272 7.71698 8.05342 7.7421L7.10356 8.90304Z"
        fill="currentColor" />
</svg>