<svg viewBox="0 0 24 24" fill="none" xmlns="http://www.w3.org/2000/svg">
    <g id=" verified">
        <path id="Vector"
            d="M10.6715 5.40243C9.73712 5.09996 8.72137 5.52069 8.27453 6.39529L7.73735 7.44674C7.67352 7.57167 7.57191 7.67328 7.44698 7.7371L6.39553 8.27429C5.52093 8.72112 5.1002 9.73688 5.40267 10.6713L5.76631 11.7946C5.80952 11.9281 5.80952 12.0718 5.76631 12.2053L5.40267 13.3286C5.1002 14.263 5.52093 15.2787 6.39553 15.7256L7.44698 16.2627C7.57191 16.3266 7.67352 16.4282 7.73735 16.5531L8.27453 17.6046C8.72137 18.4792 9.73712 18.8999 10.6715 18.5975L11.7948 18.2338C11.9283 18.1906 12.072 18.1906 12.2055 18.2338L13.3288 18.5975C14.2632 18.8999 15.279 18.4792 15.7258 17.6046L16.263 16.5531C16.3268 16.4282 16.4284 16.3266 16.5534 16.2627L17.6048 15.7256C18.4794 15.2787 18.9002 14.263 18.5977 13.3286L18.234 12.2053C18.1908 12.0718 18.1908 11.9281 18.234 11.7946L18.5977 10.6713C18.9002 9.73688 18.4794 8.72112 17.6048 8.27429L16.5534 7.7371C16.4284 7.67328 16.3268 7.57167 16.263 7.44674L15.7258 6.39529C15.279 5.52069 14.2632 5.09996 13.3288 5.40243L12.2055 5.76607C12.072 5.80927 11.9283 5.80928 11.7948 5.76607L10.6715 5.40243ZM8.97808 12.3095C8.71773 12.0492 8.71772 11.6271 8.97807 11.3667C9.23842 11.1063 9.66056 11.1063 9.92092 11.3667L11.3351 12.7809L14.635 9.48108C14.8953 9.22074 15.3174 9.22074 15.5778 9.48109C15.8381 9.74144 15.8381 10.1635 15.5778 10.4239L12.0422 13.9594C11.6517 14.3499 11.0185 14.3499 10.628 13.9594L8.97808 12.3095Z"
            fill="currentColor" />
    </g>
</svg>