<svg viewBox="0 0 24 24" fill="none" xmlns="http://www.w3.org/2000/svg">
  <path fill-rule="evenodd" clip-rule="evenodd" d="M11.4466 2.14352C11.8058 2.02378 12.1942 2.02378 12.5534 2.14352L19.8034 4.56018C20.518 4.79838 21 5.46712 21 6.22038V11.912C21 14.6493 19.8165 16.6697 18.1412 18.2593C16.4942 19.8221 14.3404 20.9971 12.3561 22.0676C12.1338 22.1875 11.8662 22.1875 11.6439 22.0676C9.65956 20.9971 7.5058 19.8221 5.85876 18.2593C4.18351 16.6697 3 14.6493 3 11.912V6.22038C3 5.46713 3.482 4.79838 4.1966 4.56018L11.4466 2.14352ZM13.6941 14.2785C13.9863 14.5721 14.4611 14.5734 14.7548 14.2812C15.0484 13.9891 15.0497 13.5142 14.7575 13.2206L13.046 11.5001L14.7576 9.77943C15.0497 9.48576 15.0484 9.01089 14.7548 8.71878C14.4611 8.42666 13.9862 8.42793 13.6941 8.7216L11.9881 10.4367L10.2817 8.72135C9.98958 8.42769 9.51471 8.42646 9.22105 8.71859C8.9274 9.01071 8.92616 9.48559 9.21829 9.77924L10.9303 11.5002L9.21826 13.2214C8.92615 13.5151 8.92741 13.9899 9.22109 14.282C9.51476 14.5742 9.98963 14.5729 10.2817 14.2792L11.9882 12.5636L13.6941 14.2785Z" fill="currentColor"/>
</svg>