<svg width="16" height="15" viewBox="0 0 16 15" fill="none" xmlns="http://www.w3.org/2000/svg">
    <path
        d="M9.55501 12.6944C9.98457 12.6944 10.3328 13.0427 10.3328 13.4722C10.3328 13.9018 9.98457 14.25 9.55501 14.25H0.999457C0.569902 14.25 0.22168 13.9018 0.22168 13.4722C0.22168 13.0427 0.569902 12.6944 0.999457 12.6944V1.02778C0.999457 0.598227 1.34768 0.25 1.77724 0.25H8.77723C9.2068 0.25 9.55501 0.598227 9.55501 1.02778V7.25H11.1106C11.9697 7.25 12.6661 7.94642 12.6661 8.80556V11.9167C12.6661 12.3462 13.0143 12.6944 13.4439 12.6944C13.8735 12.6944 14.2217 12.3462 14.2217 11.9167V6.47222H12.6661C12.2366 6.47222 11.8883 6.12401 11.8883 5.69444V2.9055L11.1497 2.16684C10.8459 1.86308 10.8459 1.37059 11.1497 1.06684C11.4534 0.763113 11.9459 0.763122 12.2496 1.06686L15.5494 4.36669C15.7013 4.51857 15.7772 4.71762 15.7772 4.91667V11.9167C15.7772 13.2054 14.7326 14.25 13.4439 14.25C12.1552 14.25 11.1106 13.2054 11.1106 11.9167V8.80556H9.55501V12.6944ZM2.55501 12.6944H7.99946V8.02778H2.55501V12.6944ZM2.55501 1.80556V6.47222H7.99946V1.80556H2.55501Z"
        fill="currentColor" />
</svg>