<svg width="16" height="17" viewBox="0 0 16 17" fill="none" xmlns="http://www.w3.org/2000/svg">
    <path
        d="M3.51613 3.93535C2.43962 5.05394 1.77772 6.5744 1.77772 8.24946C1.77772 11.6859 4.56351 14.4717 7.99995 14.4717C8.84057 14.4717 9.6423 14.305 10.3738 14.0028C10.4632 13.4191 10.267 12.859 10.1867 12.663C10.0082 12.2278 9.41869 11.4836 8.43464 10.4512C8.17199 10.1751 8.18887 9.96329 8.28275 9.33391L8.29356 9.26282C8.35733 8.8317 8.46436 8.57682 9.91499 8.34652C10.6519 8.2297 10.8458 8.52425 11.1144 8.93211C11.1441 8.9773 11.1738 9.02164 11.2042 9.06605C11.4594 9.43922 11.6485 9.52455 11.9341 9.65444C12.062 9.71246 12.2217 9.78565 12.4357 9.90721C12.9428 10.197 12.9428 10.5242 12.9428 11.2417V11.3231C12.9428 11.6277 12.913 11.8951 12.8662 12.1274C13.7149 11.0638 14.2222 9.71588 14.2222 8.24946C14.2222 5.68348 12.6689 3.48028 10.4514 2.52876C10.0212 2.81911 9.4309 3.23066 9.22495 3.51279C9.11963 3.65698 8.97077 4.39297 8.4866 4.45372C8.35975 4.46964 8.18957 4.45848 8.00928 4.44688C7.52589 4.41546 6.86454 4.37306 6.65283 4.94775C6.51843 5.31195 6.49479 6.3007 6.92965 6.81391C6.99926 6.89589 7.01271 7.04756 6.96542 7.21773C6.90328 7.44119 6.77775 7.57715 6.73862 7.60522C6.66365 7.56213 6.51408 7.38854 6.4128 7.27039C6.1687 6.98674 5.86421 6.63349 5.47059 6.52416C5.32746 6.48455 5.17013 6.45176 5.01754 6.41963C4.59048 6.33011 4.10672 6.22828 3.99433 5.98847C3.91227 5.81284 3.91263 5.57095 3.91295 5.3154C3.91295 4.9915 3.91295 4.62524 3.75428 4.26923C3.69297 4.13144 3.61086 4.02182 3.51613 3.93535ZM7.99995 16.0272C3.7044 16.0272 0.222168 12.545 0.222168 8.24946C0.222168 3.95391 3.7044 0.47168 7.99995 0.47168C12.2955 0.47168 15.7777 3.95391 15.7777 8.24946C15.7777 12.545 12.2955 16.0272 7.99995 16.0272Z"
        fill="currentColor" />
</svg>