<svg width="16" height="16" viewBox="0 0 16 16" fill="none" xmlns="http://www.w3.org/2000/svg">
    <path
        d="M8.00065 14.1654C11.4064 14.1654 14.1673 11.4045 14.1673 7.9987C14.1673 4.59294 11.4064 1.83203 8.00065 1.83203M8.00065 14.1654C4.5949 14.1654 1.83398 11.4045 1.83398 7.9987C1.83398 4.59294 4.5949 1.83203 8.00065 1.83203M8.00065 14.1654C6.43584 14.1654 5.16732 11.4045 5.16732 7.9987C5.16732 4.59294 6.43584 1.83203 8.00065 1.83203M8.00065 14.1654C9.56546 14.1654 10.834 11.4045 10.834 7.9987C10.834 4.59294 9.56546 1.83203 8.00065 1.83203M14.0007 7.9987H2.00065"
        stroke="currentColor" stroke-width="1.5" stroke-linecap="square" />
</svg>