<svg width="14" height="14" viewBox="0 0 14 14" fill="none" xmlns="http://www.w3.org/2000/svg">
    <path fill-rule="evenodd" clip-rule="evenodd"
        d="M13.1127 7.18192C13.1115 7.22323 13.0552 7.23414 13.039 7.19607C13.032 7.17964 13.0249 7.16315 13.0176 7.14667C13.0044 7.11651 13.0081 7.08143 13.0279 7.05505C13.032 7.04966 13.0403 7.03874 13.0502 7.02573C13.077 6.99078 13.1155 6.996 13.1155 7.03479C13.1155 7.08569 13.1143 7.12976 13.1127 7.18192ZM12.8168 6.37371C12.7712 6.45579 12.6544 6.45956 12.6037 6.38042C12.5959 6.36819 12.588 6.35596 12.58 6.34367C12.3976 6.06361 12.1877 5.78871 11.9533 5.52154C11.8957 5.45595 11.9428 5.353 12.0301 5.35294H12.0322C12.58 5.35294 12.8672 5.48827 12.9549 5.65351C13.028 5.79171 13.0056 6.03339 12.8168 6.37371ZM12.6943 9.23855C12.665 9.31332 12.6342 9.3876 12.6019 9.46117C12.5969 9.4713 12.5921 9.48156 12.5869 9.49163C12.3853 9.87973 12.0469 10.1853 11.5948 10.398C11.4934 10.4457 11.3824 10.3528 11.4126 10.2449C11.5627 9.70759 11.6763 9.12488 11.75 8.51398C11.7637 8.40006 11.8199 8.2955 11.9067 8.22043C12.0926 8.05957 12.2663 7.89894 12.426 7.73946L12.4277 7.73766C12.5063 7.65924 12.6404 7.69299 12.6724 7.79935C12.8302 8.32391 12.839 8.8125 12.6943 9.23855ZM11.4654 11.1785C11.4194 11.2277 11.3724 11.2762 11.3246 11.3241C11.2412 11.4073 11.1559 11.4878 11.0687 11.5656C11.0138 11.6146 10.9306 11.5533 10.9617 11.4865C10.9706 11.4674 10.9794 11.4483 10.9882 11.4289C11.0248 11.3481 11.0602 11.2653 11.0946 11.1808C11.1027 11.1609 11.1199 11.1461 11.1407 11.1407C11.2274 11.1187 11.312 11.0944 11.3943 11.0679C11.461 11.0464 11.5133 11.1273 11.4654 11.1785ZM10.5628 10.6935C10.3803 10.7199 10.1884 10.737 9.9876 10.7441C9.49769 10.7612 8.97967 10.7189 8.44755 10.621C8.38268 10.609 8.37021 10.5213 8.42903 10.4916C8.5451 10.4328 8.66124 10.3728 8.77732 10.3112C9.59153 9.87967 10.3512 9.40793 11.0163 8.92426C11.0662 8.88799 11.1349 8.9308 11.1247 8.99165C11.0325 9.54595 10.9048 10.0678 10.7444 10.5414C10.7171 10.6221 10.6472 10.6812 10.5628 10.6935ZM10.3746 11.4319C9.93808 12.2905 9.40044 12.7726 8.8793 12.7629C8.31289 12.7528 7.7481 12.1629 7.32984 11.1447L7.32936 11.1436C7.3028 11.0789 7.33332 11.0049 7.39735 10.9771C7.40179 10.9751 7.40623 10.9732 7.41066 10.9712C7.43812 10.9593 7.46894 10.9571 7.49784 10.9653C8.28022 11.1849 9.05108 11.2994 9.77332 11.2994C9.8518 11.2994 9.92974 11.2981 10.007 11.2954C10.0975 11.2922 10.1865 11.2871 10.274 11.2801C10.3551 11.2737 10.4116 11.3594 10.3746 11.4319ZM7.78953 13.0647C7.52998 13.098 7.26659 13.1151 7.00062 13.1151C5.81204 13.1151 4.6752 12.7783 3.69917 12.1497C3.63202 12.1065 3.66056 12.0023 3.74036 11.9986C3.75691 11.9978 3.77238 11.997 3.78599 11.9961C4.03403 11.98 4.30599 11.9437 4.60068 11.8869C5.22752 11.7663 5.92434 11.5595 6.65395 11.2809C6.71936 11.256 6.79239 11.2884 6.81901 11.3532L6.81949 11.3543C7.10225 12.0427 7.45024 12.5629 7.84097 12.8938C7.90555 12.9485 7.87347 13.0539 7.78953 13.0647ZM4.25335 8.78018C4.79218 8.34142 5.42352 7.90362 6.11608 7.48914C6.13095 8.37494 6.22808 9.22536 6.39998 9.99353C6.14312 9.88399 5.88705 9.76335 5.63319 9.63151C5.14149 9.37597 4.67886 9.08974 4.25335 8.78018ZM2.57762 11.1536C2.44907 10.9111 2.61521 10.3493 3.45922 9.49547L3.45964 9.49505C3.54778 9.40601 3.53933 9.2599 3.44094 9.18237C3.40712 9.15581 3.37355 9.12895 3.34021 9.10209C3.25615 9.03416 3.1345 9.0404 3.05817 9.11684C3.04145 9.13357 3.02897 9.14616 3.02532 9.14994C2.6034 9.583 2.30812 9.98387 2.1427 10.3445C2.09581 10.4466 1.95419 10.4577 1.8922 10.3639C1.23741 9.37405 0.885705 8.21419 0.885705 7.00013C0.885705 6.56611 0.930793 6.13898 1.01851 5.72408C1.03176 5.6613 1.12032 5.65728 1.1389 5.71868C1.26577 6.13754 1.47226 6.57078 1.75759 7.00889C2.14168 7.59874 2.64819 8.16575 3.24842 8.68587C3.45329 8.86341 3.66967 9.03512 3.89535 9.20078C4.35282 9.53648 4.84992 9.84627 5.37879 10.1211C5.61322 10.2429 5.84154 10.3591 6.07537 10.4644C6.20554 10.523 6.35369 10.5276 6.48655 10.4754C6.59681 10.4322 6.70785 10.3873 6.81955 10.3406C6.94102 10.29 7.00692 10.1575 6.97472 10.0299C6.9707 10.0139 6.96753 10.0011 6.96573 9.99353C6.7816 9.21865 6.67925 8.34634 6.6672 7.43266L6.66684 7.43284C6.66672 7.42199 6.66678 7.41096 6.66666 7.39998C6.66612 7.35004 6.66642 7.29974 6.66552 7.24991C6.66522 7.23402 6.6657 7.2071 6.66588 7.19115C6.666 7.1848 6.66588 7.1785 6.66588 7.17221L6.66612 7.17215C6.66642 7.11495 6.66684 7.05781 6.66786 7.00043C6.67068 6.84371 6.67632 6.68812 6.68441 6.53379L6.68411 6.53397C6.74089 5.43143 6.92783 4.39544 7.22528 3.52397C7.2528 3.44333 7.20981 3.35579 7.12917 3.32827C7.05056 3.30141 6.97202 3.27575 6.8936 3.25117C6.81428 3.22628 6.7295 3.26909 6.7027 3.34782C6.38031 4.29423 6.18137 5.41704 6.12831 6.6052C6.12154 6.75593 6.03952 6.89311 5.90971 6.97003C5.206 7.38709 4.55973 7.82921 4.00141 8.27487C3.8851 8.36774 3.71896 8.36421 3.60648 8.26666C3.0469 7.78149 2.57594 7.25453 2.21992 6.70778C1.52029 5.63348 1.35403 4.62141 1.7519 3.85853C1.75298 3.85673 1.75394 3.85487 1.75496 3.85313C1.80568 3.76895 1.85844 3.68591 1.91336 3.60401C2.37053 2.99887 3.22144 2.64818 4.34994 2.60855C4.42135 2.60603 4.49324 2.60477 4.56578 2.60477C5.25798 2.60477 6.00084 2.71899 6.75636 2.93699L6.75654 2.93681C6.77309 2.94161 6.78963 2.94659 6.80618 2.95144C6.81895 2.95522 6.83172 2.95876 6.84449 2.96259C7.01909 3.01476 7.19416 3.07261 7.36947 3.13569C7.37355 3.13713 7.37769 3.13863 7.38176 3.14007C7.42745 3.15655 7.47308 3.17346 7.51871 3.19067C7.53298 3.19606 7.54731 3.20152 7.56157 3.20704C7.57531 3.21231 7.58904 3.21741 7.60283 3.22275L7.60265 3.22299C7.97162 3.3658 8.34029 3.53188 8.70435 3.7211C9.40902 4.0872 10.054 4.51637 10.6153 4.98721C9.5441 5.23261 8.29892 5.70603 7.04697 6.34433C6.98923 6.37383 6.95122 6.43186 6.94756 6.49662C6.94318 6.5742 6.93743 6.73021 6.93329 6.8542C6.93071 6.93202 7.01303 6.98358 7.08198 6.94737L7.0827 6.94695C8.32224 6.29606 9.55933 5.80957 10.6217 5.55248C10.8203 5.50445 10.9488 5.31373 10.9209 5.11138C10.9014 4.97 10.8794 4.83084 10.8551 4.69414C10.8245 4.52243 10.7305 4.36888 10.5917 4.26323C10.0941 3.88419 9.54578 3.5365 8.95874 3.23144C8.56315 3.02591 8.16174 2.8458 7.75949 2.69219C7.67345 2.65933 7.63658 2.55765 7.68149 2.47725C8.09591 1.73588 8.58881 1.32068 9.069 1.32068C9.07398 1.32068 9.07896 1.32068 9.08393 1.3208C9.65034 1.33093 10.2151 1.92073 10.6334 2.93897C10.8451 3.45442 11.0091 4.04883 11.1213 4.6948C11.1207 4.69426 11.1201 4.69378 11.1195 4.69324C11.1674 4.96892 11.2059 5.25384 11.2345 5.54612C11.2321 5.54768 11.2294 5.54906 11.227 5.55062C11.2303 5.55404 11.2339 5.55746 11.2373 5.56093C11.2847 6.05138 11.3047 6.56209 11.2954 7.08323C11.2895 7.41287 11.2719 7.73796 11.2435 8.05603C10.4857 8.66843 9.54878 9.27788 8.5189 9.82367C8.18045 10.0031 7.84205 10.17 7.50695 10.3238C7.50174 10.3262 7.49658 10.3285 7.49137 10.3309C7.46576 10.3426 7.4401 10.3545 7.4145 10.366L7.4139 10.3659C7.13624 10.4915 6.86122 10.6077 6.59076 10.7138L6.59088 10.714C6.57559 10.72 6.56042 10.7258 6.54519 10.7317C6.52618 10.7391 6.50718 10.7465 6.48823 10.7538C6.44284 10.7712 6.39764 10.7883 6.35255 10.8052C6.34014 10.8098 6.32767 10.8146 6.31526 10.8192C6.26052 10.8395 6.20608 10.8592 6.15181 10.8787C6.14504 10.8811 6.13827 10.8836 6.13155 10.886L6.13131 10.8859C5.55171 11.0924 4.99957 11.2483 4.49641 11.3451C3.28055 11.5792 2.70803 11.3996 2.57762 11.1536ZM3.45089 2.01978C4.47998 1.28285 5.70969 0.885217 7.00062 0.885217C7.34135 0.885217 7.67771 0.913097 8.00729 0.967477C8.09555 0.982047 8.12517 1.09471 8.05478 1.14993C7.73539 1.4003 7.43866 1.77078 7.17605 2.25121C7.11196 2.36842 6.97604 2.42574 6.84749 2.38953C5.97746 2.14461 5.12146 2.02937 4.33057 2.05713C4.03882 2.06738 3.76254 2.09694 3.50299 2.14479C3.43008 2.15822 3.39063 2.06288 3.45089 2.01978ZM11.8447 6.47635C11.8429 6.40626 11.9328 6.37634 11.9735 6.43342C12.0234 6.50351 12.0716 6.57396 12.1177 6.64477C12.179 6.7389 12.236 6.83249 12.289 6.92549C12.322 6.98346 12.3141 7.05619 12.2691 7.10548C12.1977 7.1839 12.1203 7.26496 12.0361 7.34902C12.0054 7.37966 11.9741 7.41036 11.9422 7.44111C11.9027 7.47937 11.8363 7.45023 11.8385 7.39519C11.8424 7.29488 11.8452 7.19421 11.847 7.09307C11.8508 6.88586 11.8499 6.68014 11.8447 6.47635ZM11.2105 2.56514C11.249 2.6016 11.287 2.63865 11.3246 2.67624C11.9138 3.26549 12.3677 3.95404 12.6712 4.70391C12.7018 4.77952 12.6376 4.85866 12.5573 4.84421C12.3817 4.81267 12.1841 4.79859 11.9653 4.80224C11.8137 4.80476 11.6819 4.69852 11.6553 4.54923C11.5364 3.88257 11.3645 3.26675 11.1437 2.7293C11.1312 2.69866 11.1184 2.66839 11.1056 2.63841C11.0775 2.573 11.1589 2.5161 11.2105 2.56514ZM13.5233 5.61358C13.2599 4.36186 12.6404 3.21177 11.7147 2.28604C10.4555 1.02689 8.78139 0.333496 7.00062 0.333496C5.21991 0.333496 3.54574 1.02689 2.28659 2.28604C1.98033 2.5923 1.70795 2.9232 1.47046 3.27407C1.39983 3.36808 1.33658 3.46737 1.28034 3.57127C0.663446 4.59635 0.333984 5.77294 0.333984 7.00013C0.333984 8.7809 1.02744 10.455 2.28659 11.7142C3.54574 12.9733 5.21991 13.6668 7.00062 13.6668C8.78139 13.6668 10.4555 12.9733 11.7147 11.7142C12.3089 11.1199 12.777 10.4332 13.1058 9.68649C13.146 9.60375 13.1811 9.51903 13.2112 9.43263C13.5105 8.66783 13.6673 7.84606 13.6673 7.00013C13.6673 6.53451 13.6195 6.07638 13.527 5.63084C13.5257 5.62509 13.5246 5.61933 13.5233 5.61358Z"
        fill="currentColor" />
</svg>