<svg width="16" height="16" viewBox="0 0 16 16" fill="none" xmlns="http://www.w3.org/2000/svg">
    <path
        d="M1 16C0.447715 16 0 15.5523 0 15V9.88889C0 9.3366 0.447715 8.88889 1 8.88889H6.11111C6.6634 8.88889 7.11111 9.3366 7.11111 9.88889V15C7.11111 15.5523 6.6634 16 6.11111 16H1ZM1.77778 14.2222H5.33333V10.6667H1.77778V14.2222ZM8.88889 1C8.88889 0.447715 9.3366 0 9.88889 0H15C15.5523 0 16 0.447715 16 1V6.11111C16 6.6634 15.5523 7.11111 15 7.11111H9.88889C9.3366 7.11111 8.88889 6.6634 8.88889 6.11111V1ZM10.6667 1.77778V5.33333H14.2222V1.77778H10.6667Z"
        fill="currentColor" />
    <path
        d="M0 1C0 0.447715 0.447715 0 1 0H6.11111C6.6634 0 7.11111 0.447715 7.11111 1V6.11111C7.11111 6.6634 6.6634 7.11111 6.11111 7.11111H1C0.447715 7.11111 0 6.6634 0 6.11111V1ZM1.77778 1.77778V5.33333H5.33333V1.77778H1.77778Z"
        fill="currentColor" />
    <path
        d="M9.88889 16C9.3366 16 8.88889 15.5523 8.88889 15V9.88889C8.88889 9.3366 9.3366 8.88889 9.88889 8.88889H15C15.5523 8.88889 16 9.3366 16 9.88889V15C16 15.5523 15.5523 16 15 16H9.88889ZM10.6667 14.2222H14.2222V10.6667H10.6667V14.2222Z"
        fill="currentColor" />
</svg>