<svg viewBox="0 0 24 24" fill="none" xmlns="http://www.w3.org/2000/svg">
    <path
        d="M10.0197 3.4903L9.52457 2.92693L10.0197 3.4903ZM19.2303 8.10394L19.7254 7.54056L19.2303 8.10394ZM4.76966 8.10394L4.27457 7.54057L4.76966 8.10394ZM19.5 10.3574V17.25H21V10.3574H19.5ZM4.5 17.25V10.3574H3V17.25H4.5ZM5.26474 8.66731L10.5147 4.05368L9.52457 2.92693L4.27457 7.54057L5.26474 8.66731ZM13.4853 4.05368L18.7353 8.66731L19.7254 7.54056L14.4754 2.92693L13.4853 4.05368ZM13.5 17V19.25H15V17H13.5ZM10.5 19.25V17H9V19.25H10.5ZM8.75 19.5H6.75V21H8.75V19.5ZM15.25 21H17.25V19.5H15.25V21ZM9 19.25C9 19.3881 8.88807 19.5 8.75 19.5V21C9.7165 21 10.5 20.2165 10.5 19.25H9ZM13.5 19.25C13.5 20.2165 14.2835 21 15.25 21V19.5C15.1119 19.5 15 19.3881 15 19.25H13.5ZM12 15.5C12.8284 15.5 13.5 16.1716 13.5 17H15C15 15.3431 13.6569 14 12 14V15.5ZM12 14C10.3431 14 9 15.3431 9 17H10.5C10.5 16.1716 11.1716 15.5 12 15.5V14ZM10.5147 4.05368C11.3642 3.30717 12.6358 3.30717 13.4853 4.05368L14.4754 2.92693C13.0596 1.68275 10.9404 1.68275 9.52457 2.92693L10.5147 4.05368ZM3 17.25C3 19.3211 4.67893 21 6.75 21V19.5C5.50736 19.5 4.5 18.4926 4.5 17.25H3ZM19.5 17.25C19.5 18.4926 18.4926 19.5 17.25 19.5V21C19.3211 21 21 19.3211 21 17.25H19.5ZM21 10.3574C21 9.27887 20.5356 8.25254 19.7254 7.54056L18.7353 8.66731C19.2214 9.0945 19.5 9.7103 19.5 10.3574H21ZM4.5 10.3574C4.5 9.7103 4.77864 9.0945 5.26474 8.66731L4.27457 7.54057C3.4644 8.25254 3 9.27887 3 10.3574H4.5Z"
        fill="currentColor" />
</svg>