<svg viewBox="0 0 24 24" fill="none" xmlns="http://www.w3.org/2000/svg">
    <path
        d="M3.75 7.9061C3.75 7.19072 4.1321 6.52981 4.75207 6.17286L11.0021 2.57437C11.6198 2.2187 12.3802 2.2187 12.9979 2.57437L19.2479 6.17286C19.8679 6.52981 20.25 7.19072 20.25 7.9061V18.2498C20.25 19.3544 19.3546 20.2498 18.25 20.2498H5.75C4.64543 20.2498 3.75 19.3544 3.75 18.2498V7.9061Z"
        stroke="currentColor" stroke-width="1.5" stroke-linejoin="round" />
    <path
        d="M15 12.2498C15 13.9067 13.6569 15.2498 12 15.2498C10.3431 15.2498 9 13.9067 9 12.2498C9 10.593 10.3431 9.24981 12 9.24981C13.6569 9.24981 15 10.593 15 12.2498Z"
        stroke="currentColor" stroke-width="1.5" stroke-linejoin="round" />
</svg>