<svg width="12" height="13" viewBox="0 0 12 13" fill="none" xmlns="http://www.w3.org/2000/svg">
    <path
        d="M6.66667 11.6666H10.6667V5.6521L6 2.02247L1.33333 5.6521V11.6666H5.33333V8.33329C5.33333 7.9651 5.63181 7.66663 6 7.66663C6.36819 7.66663 6.66667 7.9651 6.66667 8.33329V11.6666ZM12 12.3333C12 12.7015 11.7015 13 11.3333 13H0.666667C0.29848 13 0 12.7015 0 12.3333V5.32604C0 5.12031 0.09498 4.92611 0.257373 4.79981L5.59073 0.65166C5.83147 0.46442 6.16853 0.46442 6.40927 0.65166L11.7426 4.79981C11.905 4.92611 12 5.12031 12 5.32604V12.3333Z"
        fill="currentColor" />
</svg>