<svg width="16" height="16" viewBox="0 0 16 16" fill="none" xmlns="http://www.w3.org/2000/svg">
    <path
        d="M4.44444 1.77816C4.44444 1.28724 4.84241 0.889269 5.33333 0.889269H15.1111C15.602 0.889269 16 1.28724 16 1.77816C16 2.26908 15.602 2.66705 15.1111 2.66705H5.33333C4.84241 2.66705 4.44444 2.26908 4.44444 1.77816ZM1.33333 3.11149C0.596951 3.11149 0 2.51454 0 1.77816C0 1.04178 0.596951 0.444824 1.33333 0.444824C2.06972 0.444824 2.66667 1.04178 2.66667 1.77816C2.66667 2.51454 2.06972 3.11149 1.33333 3.11149ZM1.33333 9.33371C0.596951 9.33371 0 8.73674 0 8.00038C0 7.26402 0.596951 6.66705 1.33333 6.66705C2.06972 6.66705 2.66667 7.26402 2.66667 8.00038C2.66667 8.73674 2.06972 9.33371 1.33333 9.33371ZM1.33333 15.467C0.596951 15.467 0 14.8701 0 14.1337C0 13.3974 0.596951 12.8004 1.33333 12.8004C2.06972 12.8004 2.66667 13.3974 2.66667 14.1337C2.66667 14.8701 2.06972 15.467 1.33333 15.467ZM4.44444 8.00038C4.44444 7.50946 4.84241 7.11149 5.33333 7.11149H15.1111C15.602 7.11149 16 7.50946 16 8.00038C16 8.4913 15.602 8.88927 15.1111 8.88927H5.33333C4.84241 8.88927 4.44444 8.4913 4.44444 8.00038ZM4.44444 14.2226C4.44444 13.7317 4.84241 13.3337 5.33333 13.3337H15.1111C15.602 13.3337 16 13.7317 16 14.2226C16 14.7135 15.602 15.1115 15.1111 15.1115H5.33333C4.84242 15.1115 4.44444 14.7135 4.44444 14.2226Z"
        fill="currentColor" />
</svg>