<svg width="20" height="20" viewBox="0 0 20 20" fill="none" xmlns="http://www.w3.org/2000/svg">
<path d="M10 16.5H15.5C16.0523 16.5 16.5 16.0523 16.5 15.5C16.5 14.9477 16.0523 14.5 15.5 14.5H4.5C3.94772 14.5 3.5 14.9477 3.5 15.5C3.5 16.0523 3.94772 16.5 4.5 16.5H10Z" stroke="#888A90" stroke-linecap="round" stroke-linejoin="round"/>
<path d="M10 11.5H15.5C16.0523 11.5 16.5 11.0523 16.5 10.5V9.5C16.5 8.94772 16.0523 8.5 15.5 8.5H4.5C3.94772 8.5 3.5 8.94772 3.5 9.5V10.5C3.5 11.0523 3.94772 11.5 4.5 11.5H10Z" fill="#888A90" fill-opacity="0.1" stroke="#888A90" stroke-linecap="round" stroke-linejoin="round"/>
<path d="M10 5.5H15.5C16.0523 5.5 16.5 5.05228 16.5 4.5C16.5 3.94772 16.0523 3.5 15.5 3.5H4.5C3.94772 3.5 3.5 3.94772 3.5 4.5C3.5 5.05228 3.94772 5.5 4.5 5.5H10Z" stroke="#888A90" stroke-linecap="round" stroke-linejoin="round"/>
</svg>
