<svg viewBox="0 0 24 24" fill="none" xmlns="http://www.w3.org/2000/svg">
    <path
        d="M6.34315 6.34309C6.73367 5.95257 6.73367 5.3194 6.34315 4.92888C5.95262 4.53836 5.31946 4.53836 4.92893 4.92888L6.34315 6.34309ZM9.17157 9.17152C9.5621 8.781 9.5621 8.14783 9.17157 7.75731C8.78105 7.36678 8.14788 7.36678 7.75736 7.75731L9.17157 9.17152ZM7.75736 16.2426C8.14788 16.6331 8.78105 16.6331 9.17157 16.2426C9.5621 15.8521 9.5621 15.2189 9.17157 14.8284L7.75736 16.2426ZM14.8284 14.8284C14.4379 15.2189 14.4379 15.8521 14.8284 16.2426C15.219 16.6331 15.8521 16.6331 16.2426 16.2426L14.8284 14.8284ZM16.2426 7.75731C15.8521 7.36678 15.219 7.36678 14.8284 7.75731C14.4379 8.14783 14.4379 8.781 14.8284 9.17152L16.2426 7.75731ZM4.92893 19.071C5.31946 19.4615 5.95262 19.4615 6.34315 19.071C6.73367 18.6805 6.73367 18.0473 6.34315 17.6568L4.92893 19.071ZM17.6569 17.6568C17.2663 18.0473 17.2663 18.6805 17.6569 19.071C18.0474 19.4615 18.6805 19.4615 19.0711 19.071L17.6569 17.6568ZM19.0711 4.92888C18.6805 4.53836 18.0474 4.53836 17.6569 4.92888C17.2663 5.3194 17.2663 5.95257 17.6569 6.34309L19.0711 4.92888ZM4 11.9999C4 9.79053 4.89434 7.7919 6.34315 6.34309L4.92893 4.92888C3.12038 6.73743 2 9.2388 2 11.9999H4ZM8 11.9999C8 10.8951 8.44662 9.89647 9.17157 9.17152L7.75736 7.75731C6.67267 8.842 6 10.3434 6 11.9999H8ZM9.17157 14.8284C8.44662 14.1034 8 13.1048 8 11.9999H6C6 13.6565 6.67267 15.1579 7.75736 16.2426L9.17157 14.8284ZM16 11.9999C16 13.1048 15.5534 14.1034 14.8284 14.8284L16.2426 16.2426C17.3273 15.1579 18 13.6565 18 11.9999H16ZM14.8284 9.17152C15.5534 9.89647 16 10.8951 16 11.9999H18C18 10.3434 17.3273 8.842 16.2426 7.75731L14.8284 9.17152ZM6.34315 17.6568C4.89434 16.208 4 14.2094 4 11.9999H2C2 14.7611 3.12038 17.2625 4.92893 19.071L6.34315 17.6568ZM20 11.9999C20 14.2094 19.1057 16.208 17.6569 17.6568L19.0711 19.071C20.8796 17.2625 22 14.7611 22 11.9999H20ZM17.6569 6.34309C19.1057 7.7919 20 9.79053 20 11.9999H22C22 9.2388 20.8796 6.73743 19.0711 4.92888L17.6569 6.34309ZM12 11.9999V13.9999C13.1046 13.9999 14 13.1045 14 11.9999H12ZM12 11.9999H10C10 13.1045 10.8954 13.9999 12 13.9999V11.9999ZM12 11.9999V9.99994C10.8954 9.99994 10 10.8954 10 11.9999H12ZM12 11.9999H14C14 10.8954 13.1046 9.99994 12 9.99994V11.9999Z"
        fill="currentColor" />
</svg>