<svg width="12" height="12" viewBox="0 0 12 12" fill="none" xmlns="http://www.w3.org/2000/svg">
<path d="M3.33333 1.3335C3.33333 0.965306 3.63181 0.666829 4 0.666829H11.3333C11.7015 0.666829 12 0.965306 12 1.3335C12 1.70169 11.7015 2.00016 11.3333 2.00016H4C3.63181 2.00016 3.33333 1.70169 3.33333 1.3335ZM1 2.3335C0.447713 2.3335 0 1.88578 0 1.3335C0 0.781209 0.447713 0.333496 1 0.333496C1.55229 0.333496 2 0.781209 2 1.3335C2 1.88578 1.55229 2.3335 1 2.3335ZM1 7.00016C0.447713 7.00016 0 6.55243 0 6.00016C0 5.4479 0.447713 5.00016 1 5.00016C1.55229 5.00016 2 5.4479 2 6.00016C2 6.55243 1.55229 7.00016 1 7.00016ZM1 11.6002C0.447713 11.6002 0 11.1524 0 10.6002C0 10.0479 0.447713 9.60016 1 9.60016C1.55229 9.60016 2 10.0479 2 10.6002C2 11.1524 1.55229 11.6002 1 11.6002ZM3.33333 6.00016C3.33333 5.63197 3.63181 5.3335 4 5.3335H11.3333C11.7015 5.3335 12 5.63197 12 6.00016C12 6.36835 11.7015 6.66683 11.3333 6.66683H4C3.63181 6.66683 3.33333 6.36835 3.33333 6.00016ZM3.33333 10.6668C3.33333 10.2986 3.63181 10.0002 4 10.0002H11.3333C11.7015 10.0002 12 10.2986 12 10.6668C12 11.035 11.7015 11.3335 11.3333 11.3335H4C3.63181 11.3335 3.33333 11.035 3.33333 10.6668Z" fill="#818898"/>
</svg>
