<svg width="20" height="20" viewBox="0 0 20 20" fill="none" xmlns="http://www.w3.org/2000/svg">
<path d="M5.52379 12.7387L6.01476 12.8333C6.04155 12.6943 6.00813 12.5504 5.9228 12.4374L5.52379 12.7387ZM4.5 15.4998L4.0578 15.2664C3.97601 15.4214 3.98133 15.6079 4.07182 15.758C4.16231 15.9081 4.32476 15.9998 4.5 15.9998V15.4998ZM7.9997 14.5655L8.17321 14.0966C8.03754 14.0464 7.88677 14.0574 7.75984 14.1268L7.9997 14.5655ZM15 9.71042C15 12.2868 12.7872 14.4208 10 14.4208V15.4208C13.2879 15.4208 16 12.8893 16 9.71042H15ZM10 5C12.7872 5 15 7.13406 15 9.71042H16C16 6.53151 13.2879 4 10 4V5ZM5 9.71042C5 7.13406 7.21275 5 10 5V4C6.71212 4 4 6.53151 4 9.71042H5ZM5.9228 12.4374C5.34028 11.666 5 10.7253 5 9.71042H4C4 10.9543 4.41831 12.1045 5.12479 13.04L5.9228 12.4374ZM4.5 15.4998C4.9422 15.7332 4.94223 15.7331 4.94226 15.7331C4.94228 15.733 4.94231 15.733 4.94234 15.7329C4.9424 15.7328 4.94247 15.7327 4.94255 15.7325C4.94272 15.7322 4.94293 15.7318 4.94319 15.7313C4.9437 15.7303 4.9444 15.729 4.94529 15.7273C4.94705 15.7239 4.94953 15.7192 4.9527 15.713C4.95903 15.7008 4.9681 15.6832 4.97957 15.6606C5.00251 15.6155 5.03512 15.5503 5.07484 15.4684C5.15419 15.3047 5.26235 15.0732 5.37858 14.7999C5.60862 14.259 5.88034 13.531 6.01476 12.8333L5.03282 12.6441C4.91808 13.2397 4.6779 13.8923 4.45834 14.4086C4.34977 14.6639 4.2487 14.8802 4.17502 15.0321C4.13822 15.108 4.10837 15.1676 4.08797 15.2078C4.07778 15.2279 4.06996 15.2431 4.06482 15.253C4.06225 15.2579 4.06036 15.2616 4.05917 15.2638C4.05858 15.265 4.05817 15.2657 4.05794 15.2662C4.05782 15.2664 4.05775 15.2665 4.05773 15.2666C4.05772 15.2666 4.05772 15.2666 4.05773 15.2666C4.05773 15.2666 4.05775 15.2665 4.05776 15.2665C4.05778 15.2665 4.0578 15.2664 4.5 15.4998ZM7.75984 14.1268C6.89487 14.5997 5.78346 14.9998 4.5 14.9998V15.9998C5.99391 15.9998 7.27027 15.5342 8.23955 15.0042L7.75984 14.1268ZM10 14.4208C9.35406 14.4208 8.73812 14.3056 8.17321 14.0966L7.82618 15.0345C8.50116 15.2842 9.23454 15.4208 10 15.4208V14.4208Z" fill="#888A90"/>
</svg>
