<svg width="20" height="20" viewBox="0 0 20 20" fill="none" xmlns="http://www.w3.org/2000/svg">
<path d="M16.0934 11.3514C15.3208 11.7653 14.4378 12 13.5 12C10.4624 12 8 9.53758 8 6.50001C8 5.56217 8.23473 4.67914 8.64866 3.90649C6.24386 4.66397 4.5 6.91167 4.5 9.56667C4.5 12.8435 7.15641 15.4999 10.4333 15.4999C13.0882 15.4999 15.3359 13.7561 16.0934 11.3514Z" fill="#888A90" fill-opacity="0.2" stroke="#2A2B2E" stroke-linecap="round" stroke-linejoin="round"/>
<path d="M11.5 6.5C13.5 6.5 13.5 3.5 13.5 3.5C13.5 3.5 13.5 6.5 15.5 6.5C13.5 6.5 13.5 9.5 13.5 9.5C13.5 9.5 13.5 6.5 11.5 6.5Z" fill="#2A2B2E" stroke="#2A2B2E" stroke-linecap="round" stroke-linejoin="round"/>
</svg>
