<svg width="24" height="24" viewBox="0 0 24 24" fill="none" xmlns="http://www.w3.org/2000/svg">
    <g id="Frame 6452">
        <g id="Icon">
            <path
                d="M15.1954 18.4715C15.4558 18.7318 15.8779 18.7318 16.1382 18.4715L17.6668 16.9429C18.1875 16.4222 18.1875 15.578 17.6668 15.0573L16.1382 13.5287C15.8779 13.2683 15.4558 13.2683 15.1954 13.5287C14.9351 13.789 14.9351 14.2111 15.1954 14.4715L16.0574 15.3334H8.66683C7.93045 15.3334 7.3335 14.7365 7.3335 14.0001V12.6667C7.3335 12.2986 7.03502 12.0001 6.66683 12.0001C6.29864 12.0001 6.00016 12.2986 6.00016 12.6667V14.0001C6.00016 15.4728 7.19407 16.6667 8.66683 16.6667H16.0574L15.1954 17.5287C14.9351 17.789 14.9351 18.2111 15.1954 18.4715Z"
                fill="currentColor" />
            <path
                d="M18.0002 11.3334C18.0002 11.7016 17.7017 12.0001 17.3335 12.0001C16.9653 12.0001 16.6668 11.7016 16.6668 11.3334V10.0001C16.6668 9.2637 16.0699 8.66675 15.3335 8.66675H7.94287L8.8048 9.52868C9.06515 9.78903 9.06515 10.2111 8.8048 10.4715C8.54445 10.7318 8.12234 10.7318 7.86199 10.4715L6.3334 8.94289C5.8127 8.42219 5.8127 7.57797 6.3334 7.05727L7.86199 5.52868C8.12234 5.26833 8.54445 5.26833 8.8048 5.52868C9.06515 5.78903 9.06515 6.21114 8.8048 6.47149L7.94287 7.33341H15.3335C16.8063 7.33341 18.0002 8.52732 18.0002 10.0001V11.3334Z"
                fill="currentColor" />
        </g>
    </g>
</svg>