<svg width="14" height="14" viewBox="0 0 14 14" fill="none" xmlns="http://www.w3.org/2000/svg">
    <path
        d="M6 0.333496C9.312 0.333496 12 3.0215 12 6.3335C12 9.6455 9.312 12.3335 6 12.3335C2.688 12.3335 0 9.6455 0 6.3335C0 3.0215 2.688 0.333496 6 0.333496ZM6 11.0002C8.57833 11.0002 10.6667 8.91183 10.6667 6.3335C10.6667 3.75516 8.57833 1.66683 6 1.66683C3.42167 1.66683 1.33333 3.75516 1.33333 6.3335C1.33333 8.91183 3.42167 11.0002 6 11.0002ZM11.1855 11.519C11.4458 11.2586 11.8679 11.2586 12.1283 11.519L13.0711 12.4618C13.3314 12.7221 13.3314 13.1442 13.0711 13.4046C12.8107 13.6649 12.3886 13.6649 12.1283 13.4046L11.1855 12.4618C10.9251 12.2014 10.9251 11.7793 11.1855 11.519Z"
        fill="currentColor" />
</svg>