<svg viewBox="0 0 16 16" fill="none" xmlns="http://www.w3.org/2000/svg">
    <path
        d="M9.33301 5.33464C9.33301 4.96645 9.03453 4.66797 8.66634 4.66797C8.29815 4.66797 7.99967 4.96645 7.99967 5.33464C7.99967 6.87362 7.65913 7.82959 7.07688 8.41184C6.49463 8.99409 5.53866 9.33463 3.99967 9.33463C3.63148 9.33463 3.33301 9.63311 3.33301 10.0013C3.33301 10.3695 3.63148 10.668 3.99967 10.668C5.53866 10.668 6.49463 11.0085 7.07688 11.5908C7.65913 12.173 7.99967 13.129 7.99967 14.668C7.99967 15.0362 8.29815 15.3346 8.66634 15.3346C9.03453 15.3346 9.33301 15.0362 9.33301 14.668C9.33301 13.129 9.67355 12.173 10.2558 11.5908C10.8381 11.0085 11.794 10.668 13.333 10.668C13.7012 10.668 13.9997 10.3695 13.9997 10.0013C13.9997 9.63311 13.7012 9.33463 13.333 9.33463C11.794 9.33463 10.8381 8.99409 10.2558 8.41184C9.67355 7.82959 9.33301 6.87362 9.33301 5.33464Z"
        fill="currentColor" />
    <path
        d="M3.99967 3.66797C3.99967 3.48387 3.85044 3.33464 3.66634 3.33464C3.48225 3.33464 3.33301 3.48387 3.33301 3.66797C3.33301 4.32172 3.1882 4.71637 2.95147 4.9531C2.71474 5.18983 2.3201 5.33464 1.66634 5.33464C1.48225 5.33464 1.33301 5.48387 1.33301 5.66797C1.33301 5.85206 1.48225 6.0013 1.66634 6.0013C2.3201 6.0013 2.71474 6.14611 2.95147 6.38284C3.1882 6.61957 3.33301 7.01421 3.33301 7.66797C3.33301 7.85206 3.48225 8.0013 3.66634 8.0013C3.85044 8.0013 3.99967 7.85206 3.99967 7.66797C3.99967 7.01421 4.14448 6.61957 4.38121 6.38284C4.61794 6.14611 5.01259 6.0013 5.66634 6.0013C5.85044 6.0013 5.99967 5.85206 5.99967 5.66797C5.99967 5.48387 5.85044 5.33464 5.66634 5.33464C5.01259 5.33464 4.61794 5.18983 4.38121 4.9531C4.14448 4.71637 3.99967 4.32172 3.99967 3.66797Z"
        fill="currentColor" />
    <path
        d="M7.33301 1.0013C7.33301 0.817207 7.18377 0.667969 6.99967 0.667969C6.81558 0.667969 6.66634 0.817207 6.66634 1.0013C6.66634 1.42357 6.57246 1.65156 6.44453 1.77949C6.3166 1.90742 6.08861 2.0013 5.66634 2.0013C5.48225 2.0013 5.33301 2.15054 5.33301 2.33464C5.33301 2.51873 5.48225 2.66797 5.66634 2.66797C6.08861 2.66797 6.3166 2.76185 6.44453 2.88978C6.57246 3.01771 6.66634 3.2457 6.66634 3.66797C6.66634 3.85206 6.81558 4.0013 6.99967 4.0013C7.18377 4.0013 7.33301 3.85206 7.33301 3.66797C7.33301 3.2457 7.42689 3.01771 7.55482 2.88978C7.68275 2.76185 7.91074 2.66797 8.33301 2.66797C8.5171 2.66797 8.66634 2.51873 8.66634 2.33464C8.66634 2.15054 8.5171 2.0013 8.33301 2.0013C7.91074 2.0013 7.68275 1.90742 7.55482 1.77949C7.42689 1.65156 7.33301 1.42357 7.33301 1.0013Z"
        fill="currentColor" />
</svg>