<svg viewBox="0 0 24 24" fill="none" xmlns="http://www.w3.org/2000/svg">
  <path d="M7.03018 5.53033C7.32307 5.23744 7.32307 4.76256 7.03018 4.46967C6.73729 4.17678 6.26241 4.17678 5.96952 4.46967L2.67663 7.76256C1.99321 8.44598 1.99321 9.55402 2.67663 10.2374L5.96952 13.5303C6.26241 13.8232 6.73729 13.8232 7.03018 13.5303C7.32307 13.2374 7.32307 12.7626 7.03018 12.4697L4.31051 9.75H17.25C19.0449 9.75 20.5 11.2051 20.5 13V14.25C20.5 16.0449 19.0449 17.5 17.25 17.5H11.75C11.3358 17.5 11 17.8358 11 18.25C11 18.6642 11.3358 19 11.75 19H17.25C19.8734 19 22 16.8734 22 14.25V13C22 10.3766 19.8734 8.25 17.25 8.25H4.31051L7.03018 5.53033Z" fill="currentColor"/>
</svg>