<svg width="17" height="17" viewBox="0 0 17 17" fill="none" xmlns="http://www.w3.org/2000/svg">
    <path
        d="M8.50387 16.0301C4.20831 16.0301 0.726074 12.548 0.726074 8.25236C0.726074 3.95684 4.20831 0.474609 8.50387 0.474609C12.7994 0.474609 16.2816 3.95684 16.2816 8.25236C16.2816 12.548 12.7994 16.0301 8.50387 16.0301ZM8.50387 14.4746C11.9403 14.4746 14.7261 11.6888 14.7261 8.25236C14.7261 4.81595 11.9403 2.03017 8.50387 2.03017C5.06741 2.03017 2.28163 4.81595 2.28163 8.25236C2.28163 11.6888 5.06741 14.4746 8.50387 14.4746ZM5.78163 10.5857C5.78163 10.1561 6.12985 9.80792 6.55941 9.80792H10.0594C10.2742 9.80792 10.4483 9.63385 10.4483 9.41903C10.4483 9.20429 10.2742 9.03014 10.0594 9.03014H6.94831C5.87441 9.03014 5.00385 8.15957 5.00385 7.0857C5.00385 6.01183 5.87441 5.14128 6.94831 5.14128H7.72609V4.3635C7.72609 3.93394 8.07431 3.58572 8.50387 3.58572C8.93342 3.58572 9.28165 3.93394 9.28165 4.3635V5.14128H10.4483C10.8779 5.14128 11.2261 5.48949 11.2261 5.91904C11.2261 6.34859 10.8779 6.69681 10.4483 6.69681H6.94831C6.73352 6.69681 6.55941 6.87095 6.55941 7.0857C6.55941 7.30052 6.73352 7.47459 6.94831 7.47459H10.0594C11.1333 7.47459 12.0039 8.34515 12.0039 9.41903C12.0039 10.4929 11.1333 11.3635 10.0594 11.3635H9.28165V12.1413C9.28165 12.5708 8.93342 12.919 8.50387 12.919C8.07431 12.919 7.72609 12.5708 7.72609 12.1413V11.3635H6.55941C6.12985 11.3635 5.78163 11.0153 5.78163 10.5857Z"
        fill="currentColor" />
</svg>