<svg width="361" height="80" viewBox="0 0 361 80" fill="none" xmlns="http://www.w3.org/2000/svg">
    <path
        d="M-200.999 -206.398L-105.624 -111.027M-200.999 -206.398L-200.999 -53.8054M-200.999 -206.398L-48.3994 -206.398M562 -206.398L409.4 -206.398M562 -206.398L466.625 -111.027M562 -206.398L562 -53.8053M-105.624 -111.027L-105.624 3.41677M-105.624 -111.027L8.82561 -111.027M-105.624 -111.027L-10.2494 -15.6572M466.625 -111.027L352.175 -111.027M466.625 -111.027L371.25 -15.6572M466.625 -111.027L466.625 3.41682M-10.2494 -15.6572L66.0505 -15.6572M-10.2494 -15.6572L85.1255 79.7129M-10.2494 -15.6572L-10.2494 60.6388M371.25 -15.6572L294.95 -15.6572M371.25 -15.6572L371.25 60.6389M371.25 -15.6572L315.986 39.6047L275.875 79.7129M85.1255 79.7129L123.275 79.7129M85.1255 79.7129L85.1255 117.861M275.875 79.7129L275.875 117.861M275.875 79.7129L237.725 79.7129M161.425 79.7129L199.575 79.7129M161.425 79.7129L123.275 79.7129M161.425 79.7129L142.35 -15.6572M199.575 79.7129L237.725 79.7129M199.575 79.7129L218.65 -15.6572M123.275 79.7129L66.0505 -15.6572M85.1255 117.861L85.1255 156.009M85.1255 117.861L-10.2494 60.6388M85.1255 156.009L85.1254 194.157M85.1255 156.009L-10.2494 136.935M85.1254 232.305L85.1254 194.157M85.1254 232.305L85.1254 270.453L123.275 270.453L161.425 270.453L199.575 270.453L237.725 270.453L275.875 270.453L275.875 232.305M85.1254 232.305L-10.2494 289.527L-10.2494 213.231M85.1254 194.157L-10.2494 213.231M275.875 232.305L275.875 194.157M275.875 232.305L371.25 289.527L371.25 213.231M275.875 194.157L275.875 156.009M275.875 194.157L371.25 213.231M275.875 117.861L275.875 156.009M275.875 117.861L371.25 60.6389M275.875 156.009L371.25 136.935M237.725 79.7129L294.95 -15.6572M294.95 -15.6572L352.175 -111.027M294.95 -15.6572L218.65 -15.6572M-10.2494 60.6388L-105.624 3.41677M-10.2494 60.6388L-10.2494 136.935M409.4 -206.398L352.175 -111.027M409.4 -206.398L256.8 -206.398M352.175 -111.027L237.725 -111.027M-105.624 3.41677L-200.999 -53.8054M-105.624 3.41677L-105.624 117.861M-200.999 -53.8054L-200.999 98.7869M66.0505 -15.6572L142.35 -15.6572M66.0505 -15.6572L8.82561 -111.027M218.65 -15.6572L142.35 -15.6572M218.65 -15.6572L237.725 -111.027M142.35 -15.6572L123.275 -111.027M-10.2494 136.935L-10.2494 213.231M-10.2494 136.935L-105.624 117.861M-10.2494 213.231L-105.624 232.305M371.25 213.231L371.25 136.935M371.25 213.231L466.625 232.305M371.25 60.6389L371.25 136.935M371.25 60.6389L466.625 3.41682M371.25 136.935L466.625 117.861M466.625 232.305L466.625 117.861M466.625 232.305L562 251.379L562 98.787M466.625 117.861L466.625 3.41682M466.625 117.861L562 98.787M-105.624 117.861L-105.624 232.305M-105.624 117.861L-200.999 98.7869M-105.624 232.305L-200.999 251.379L-200.999 98.7869M123.275 -111.027L8.82561 -111.027M123.275 -111.027L237.725 -111.027M123.275 -111.027L104.2 -206.398M8.82561 -111.027L-48.3994 -206.398M237.725 -111.027L256.8 -206.398M466.625 3.41682L562 -53.8053M256.8 -206.398L104.2 -206.398M104.2 -206.398L-48.3994 -206.398M562 98.787L562 -53.8053"
        stroke="url(#paint0_radial_7449_3115)" stroke-linejoin="round" />
    <defs>
        <radialGradient id="paint0_radial_7449_3115" cx="0" cy="0" r="1" gradientUnits="userSpaceOnUse"
            gradientTransform="translate(180.5 175.083) rotate(-90) scale(381.481 541.19)">
            <stop offset="0.341397" stop-color="#DFE1E7" stop-opacity="0" />
            <stop offset="0.615517" stop-color="#DFE1E7" />
        </radialGradient>
    </defs>
</svg>