<svg width="21" height="20" viewBox="0 0 21 20" fill="none" xmlns="http://www.w3.org/2000/svg">
<g id="White_on_Black_Square 1">
<g clip-path="url(#clip0_8402_7195)">
<path id="Vector" d="M21.2244 -0.722656H-0.223633V20.7253H21.2244V-0.722656Z" fill="black"/>
<path id="Vector_2" d="M13.3328 12.1129L16.1044 10.5125C16.2512 10.4277 16.342 10.2701 16.342 10.1005V6.90007C16.342 6.73087 16.2508 6.57287 16.1044 6.48807L13.3328 4.88767C13.186 4.80287 13.004 4.80327 12.8572 4.88767L10.0856 6.48807C9.93883 6.57287 9.84803 6.73087 9.84803 6.90007V12.6197L7.90443 13.7417L5.96083 12.6197V10.3753L7.90443 9.25327L9.18643 9.99327V8.48767L8.14203 7.88487C8.07003 7.84327 7.98763 7.82127 7.90403 7.82127C7.82043 7.82127 7.73803 7.84327 7.66643 7.88487L4.89483 9.48527C4.74803 9.57007 4.65723 9.72767 4.65723 9.89727V13.0977C4.65723 13.2669 4.74843 13.4249 4.89483 13.5097L7.66643 15.1101C7.81283 15.1945 7.99523 15.1945 8.14203 15.1101L10.9136 13.5101C11.0604 13.4253 11.1512 13.2673 11.1512 13.0981V7.37847L11.1864 7.35847L13.0948 6.25647L15.0384 7.37847V9.62287L13.0948 10.7449L11.8148 10.0057V11.5113L12.8572 12.1133C13.004 12.1977 13.186 12.1977 13.3328 12.1133V12.1129Z" fill="white"/>
</g>
</g>
<defs>
<clipPath id="clip0_8402_7195">
<rect x="0.5" width="20" height="20" rx="4" fill="white"/>
</clipPath>
</defs>
</svg>
