<svg width="16" height="16" viewBox="0 0 16 16" fill="none" xmlns="http://www.w3.org/2000/svg">
  <path fill-rule="evenodd" clip-rule="evenodd" d="M15.3345 8.21811C15.333 8.26768 15.2655 8.28078 15.246 8.23509C15.2376 8.21537 15.2291 8.19559 15.2204 8.1758C15.2045 8.13961 15.2089 8.09752 15.2327 8.06587C15.2376 8.05939 15.2476 8.0463 15.2595 8.03069C15.2916 7.98874 15.3379 7.995 15.3379 8.04155C15.3379 8.10263 15.3364 8.15551 15.3345 8.21811ZM14.9793 7.24825C14.9247 7.34675 14.7844 7.35128 14.7237 7.25631C14.7143 7.24163 14.7048 7.22695 14.6952 7.21221C14.4764 6.87614 14.2245 6.54626 13.9432 6.22566C13.8741 6.14694 13.9306 6.02341 14.0353 6.02334H14.0378C14.6952 6.02334 15.0399 6.18572 15.145 6.38401C15.2328 6.54985 15.2059 6.83987 14.9793 7.24825ZM14.8324 10.6861C14.7972 10.7758 14.7603 10.8649 14.7215 10.9532C14.7154 10.9654 14.7098 10.9777 14.7035 10.9898C14.4615 11.4555 14.0555 11.8222 13.513 12.0774C13.3912 12.1346 13.2581 12.0232 13.2943 11.8937C13.4745 11.2489 13.6108 10.5497 13.6992 9.81658C13.7157 9.67988 13.7831 9.5544 13.8872 9.46432C14.1104 9.27128 14.3187 9.07854 14.5104 8.88715L14.5125 8.885C14.6068 8.79089 14.7677 8.83139 14.8061 8.95903C14.9955 9.5885 15.006 10.1748 14.8324 10.6861ZM13.3576 13.014C13.3025 13.073 13.2461 13.1313 13.1887 13.1887C13.0887 13.2886 12.9863 13.3852 12.8817 13.4785C12.8157 13.5373 12.7159 13.4638 12.7533 13.3836C12.7639 13.3607 12.7745 13.3377 12.785 13.3145C12.829 13.2176 12.8714 13.1181 12.9127 13.0168C12.9225 12.9929 12.9431 12.9751 12.9681 12.9687C13.0721 12.9423 13.1736 12.9131 13.2724 12.8813C13.3525 12.8555 13.4152 12.9526 13.3576 13.014ZM12.2746 12.432C12.0556 12.4637 11.8253 12.4842 11.5843 12.4927C10.9965 12.5133 10.3748 12.4625 9.73628 12.345C9.65844 12.3307 9.64347 12.2254 9.71405 12.1897C9.85334 12.1192 9.99271 12.0471 10.132 11.9733C11.109 11.4554 12.0207 10.8893 12.8187 10.3089C12.8786 10.2654 12.9611 10.3168 12.9489 10.3898C12.8382 11.0549 12.685 11.6811 12.4925 12.2495C12.4597 12.3463 12.3758 12.4173 12.2746 12.432ZM12.0488 13.3181C11.5249 14.3484 10.8798 14.9269 10.2544 14.9152C9.57469 14.9032 8.89694 14.1953 8.39503 12.9734L8.39445 12.9721C8.36258 12.8945 8.3992 12.8057 8.47604 12.7723C8.48137 12.77 8.48669 12.7677 8.49202 12.7653C8.52497 12.751 8.56195 12.7484 8.59663 12.7582C9.53548 13.0216 10.4605 13.1591 11.3272 13.1591C11.4214 13.1591 11.5149 13.1576 11.6076 13.1543C11.7162 13.1504 11.8231 13.1443 11.928 13.136C12.0254 13.1283 12.0931 13.2311 12.0488 13.3181ZM8.94665 15.2774C8.63519 15.3174 8.31912 15.3379 7.99996 15.3379C6.57367 15.3379 5.20946 14.9337 4.03822 14.1795C3.95764 14.1276 3.99189 14.0025 4.08765 13.9981C4.10751 13.9972 4.12607 13.9962 4.1424 13.9952C4.44005 13.9758 4.76641 13.9322 5.12003 13.8641C5.87225 13.7194 6.70843 13.4712 7.58396 13.1369C7.66246 13.107 7.75009 13.1459 7.78203 13.2236L7.78261 13.225C8.12191 14.0511 8.5395 14.6753 9.00839 15.0724C9.08587 15.1381 9.04738 15.2645 8.94665 15.2774ZM4.70324 10.136C5.34983 9.60951 6.10744 9.08415 6.93852 8.58677C6.95636 9.64973 7.07291 10.6702 7.27919 11.592C6.97096 11.4606 6.66367 11.3158 6.35905 11.1576C5.769 10.851 5.21385 10.5075 4.70324 10.136ZM2.69236 12.9842C2.53811 12.6931 2.73748 12.019 3.75029 10.9944L3.75079 10.9939C3.85655 10.887 3.84641 10.7117 3.72834 10.6187C3.68776 10.5868 3.64747 10.5545 3.60747 10.5223C3.5066 10.4408 3.36062 10.4483 3.26903 10.54C3.24895 10.5601 3.23399 10.5752 3.2296 10.5797C2.7233 11.0994 2.36896 11.5805 2.17045 12.0131C2.11419 12.1357 1.94425 12.149 1.86985 12.0365C1.08411 10.8487 0.662065 9.45684 0.662065 7.99996C0.662065 7.47913 0.71617 6.96658 0.82143 6.4687C0.83733 6.39337 0.943597 6.38855 0.965901 6.46222C1.11814 6.96485 1.36593 7.48474 1.70833 8.01047C2.16923 8.71829 2.77705 9.3987 3.49732 10.0229C3.74316 10.2359 4.00282 10.4419 4.27364 10.6407C4.8226 11.0436 5.41912 11.4153 6.05377 11.7451C6.33509 11.8913 6.60907 12.0308 6.88966 12.1571C7.04586 12.2274 7.22365 12.2329 7.38308 12.1703C7.51539 12.1185 7.64864 12.0646 7.78268 12.0085C7.92845 11.9477 8.00752 11.7888 7.96888 11.6356C7.96406 11.6165 7.96025 11.6011 7.95809 11.592C7.73714 10.6622 7.61432 9.61541 7.59986 8.519L7.59943 8.51921C7.59929 8.50619 7.59936 8.49295 7.59921 8.47978C7.59857 8.41985 7.59893 8.35949 7.59785 8.2997C7.59749 8.28063 7.59806 8.24833 7.59828 8.22919C7.59842 8.22156 7.59828 8.21401 7.59828 8.20645L7.59857 8.20638C7.59893 8.13774 7.59943 8.06918 7.60065 8.00032C7.60403 7.81225 7.6108 7.62555 7.62051 7.44035L7.62015 7.44057C7.68828 6.11752 7.91262 4.87433 8.26955 3.82857C8.30258 3.7318 8.25099 3.62675 8.15422 3.59373C8.0599 3.5615 7.96564 3.5307 7.87154 3.5012C7.77635 3.47134 7.67461 3.52271 7.64245 3.61718C7.25559 4.75288 7.01687 6.10025 6.95319 7.52604C6.94506 7.70692 6.84664 7.87154 6.69087 7.96385C5.84642 8.46432 5.07089 8.99486 4.40091 9.52965C4.26133 9.6411 4.06196 9.63685 3.92699 9.51979C3.2555 8.93759 2.69035 8.30524 2.26312 7.64915C1.42356 6.35998 1.22405 5.1455 1.7015 4.23004C1.70279 4.22788 1.70394 4.22565 1.70517 4.22356C1.76603 4.12254 1.82935 4.0229 1.89525 3.92462C2.44386 3.19845 3.46494 2.77762 4.81915 2.73006C4.90484 2.72704 4.9911 2.72553 5.07816 2.72553C5.9088 2.72553 6.80023 2.86259 7.70685 3.1242L7.70706 3.12398C7.72692 3.12974 7.74678 3.13571 7.76664 3.14153C7.78196 3.14607 7.79729 3.15031 7.81261 3.15492C8.02212 3.21751 8.23221 3.28694 8.44259 3.36263C8.44748 3.36436 8.45244 3.36616 8.45734 3.36788C8.51216 3.38767 8.56691 3.40796 8.62167 3.42861C8.63879 3.43508 8.65598 3.44163 8.67311 3.44825C8.68958 3.45458 8.70606 3.4607 8.72261 3.4671L8.72239 3.46739C9.16516 3.63877 9.60757 3.83806 10.0444 4.06513C10.89 4.50444 11.6641 5.01945 12.3376 5.58446C11.0521 5.87894 9.55792 6.44704 8.05558 7.213C7.98629 7.2484 7.94068 7.31804 7.93629 7.39574C7.93104 7.48885 7.92413 7.67605 7.91917 7.82484C7.91607 7.91823 8.01486 7.98011 8.0976 7.93665L8.09846 7.93615C9.58591 7.15508 11.0704 6.57129 12.3453 6.26278C12.5836 6.20515 12.7378 5.97628 12.7044 5.73346C12.6809 5.56381 12.6545 5.39681 12.6253 5.23277C12.5886 5.02671 12.4758 4.84246 12.3093 4.71568C11.7122 4.26083 11.0542 3.8436 10.3497 3.47753C9.875 3.23089 9.39331 3.01476 8.91061 2.83043C8.80736 2.791 8.76312 2.66898 8.817 2.5725C9.31431 1.68286 9.90579 1.18462 10.482 1.18462C10.488 1.18462 10.494 1.18462 10.4999 1.18477C11.1796 1.19693 11.8574 1.90468 12.3593 3.12657C12.6133 3.74511 12.8102 4.4584 12.9447 5.23356C12.944 5.23292 12.9433 5.23234 12.9426 5.23169C13.0001 5.56251 13.0463 5.90441 13.0806 6.25515C13.0777 6.25702 13.0745 6.25868 13.0716 6.26055C13.0756 6.26465 13.0798 6.26875 13.0839 6.27292C13.1409 6.86146 13.1649 7.47431 13.1537 8.09968C13.1466 8.49525 13.1255 8.88535 13.0914 9.26704C12.1821 10.0019 11.0578 10.7333 9.8219 11.3882C9.41575 11.6035 9.00968 11.8039 8.60756 11.9883C8.60131 11.9912 8.59512 11.994 8.58886 11.9969C8.55814 12.0109 8.52734 12.0252 8.49662 12.039L8.4959 12.0388C8.16271 12.1896 7.83268 12.329 7.50813 12.4563L7.50827 12.4566C7.48992 12.4638 7.47172 12.4707 7.45345 12.4779C7.43064 12.4868 7.40783 12.4956 7.3851 12.5043C7.33063 12.5252 7.27638 12.5458 7.22228 12.566C7.20738 12.5715 7.19242 12.5774 7.17753 12.5828C7.11184 12.6072 7.04651 12.6309 6.9814 12.6542C6.97327 12.6571 6.96514 12.6602 6.95708 12.6631L6.95679 12.6629C6.26127 12.9106 5.5987 13.0978 4.99491 13.214C3.53588 13.4948 2.84885 13.2794 2.69236 12.9842ZM3.74029 2.02354C4.9752 1.13922 6.45085 0.662065 7.99996 0.662065C8.40884 0.662065 8.81247 0.695521 9.20797 0.760778C9.31388 0.778261 9.34942 0.913451 9.26495 0.979715C8.88169 1.28017 8.52562 1.72474 8.21048 2.30125C8.13357 2.44191 7.97046 2.5107 7.81621 2.46724C6.77217 2.17333 5.74497 2.03505 4.79591 2.06836C4.44581 2.08066 4.11427 2.11613 3.80281 2.17355C3.71532 2.18966 3.66798 2.07527 3.74029 2.02354ZM13.8129 7.37143C13.8107 7.28732 13.9186 7.25142 13.9674 7.31991C14.0273 7.40402 14.0851 7.48856 14.1404 7.57353C14.214 7.68649 14.2824 7.7988 14.346 7.91039C14.3856 7.97996 14.3761 8.06723 14.3222 8.12638C14.2365 8.22048 14.1435 8.31776 14.0426 8.41863C14.0057 8.45539 13.9682 8.49223 13.9299 8.52914C13.8824 8.57504 13.8028 8.54008 13.8054 8.47403C13.81 8.35366 13.8135 8.23286 13.8157 8.11148C13.8201 7.86283 13.819 7.61598 13.8129 7.37143ZM13.0519 2.67797C13.098 2.72172 13.1436 2.76618 13.1887 2.81129C13.8958 3.5184 14.4405 4.34465 14.8047 5.2445C14.8414 5.33523 14.7644 5.4302 14.668 5.41286C14.4573 5.37501 14.2202 5.35811 13.9576 5.3625C13.7757 5.36552 13.6175 5.23803 13.5856 5.05888C13.4429 4.25889 13.2366 3.51991 12.9717 2.87497C12.9566 2.8382 12.9413 2.80187 12.9259 2.76589C12.8922 2.6874 12.9899 2.61912 13.0519 2.67797ZM15.8272 6.3361C15.511 4.83404 14.7677 3.45393 13.6568 2.34306C12.1458 0.832078 10.1369 0 7.99996 0C5.86311 0 3.85411 0.832078 2.34313 2.34306C1.97562 2.71057 1.64876 3.10765 1.36377 3.52869C1.27902 3.6415 1.20311 3.76065 1.13563 3.88533C0.395354 5.11543 0 6.52733 0 7.99996C0 10.1369 0.83215 12.1458 2.34313 13.6568C3.85411 15.1678 5.86311 16 7.99996 16C10.1369 16 12.1458 15.1678 13.6568 13.6568C14.3699 12.9437 14.9316 12.1196 15.3262 11.2236C15.3744 11.1243 15.4165 11.0226 15.4527 10.919C15.8119 10.0012 16 9.01508 16 7.99996C16 7.44122 15.9426 6.89146 15.8316 6.35682C15.8301 6.34991 15.8287 6.343 15.8272 6.3361Z" fill="white"/>
</svg>