<svg width="20" height="20" viewBox="0 0 20 20" fill="none" xmlns="http://www.w3.org/2000/svg">
<g id="Group">
<path id="Vector" d="M19.7817 7.90958C18.6351 2.51504 13.3217 -0.932253 7.9245 0.223054C6.03221 0.623685 4.3077 1.5647 2.93742 2.92498C2.48066 3.38152 2.0705 3.87532 1.71628 4.40639C1.61374 4.54614 1.52053 4.69521 1.43663 4.8536C-1.4158 9.57732 0.112957 15.7265 4.83904 18.5682C9.56512 21.4099 15.7174 19.8912 18.5605 15.1675C18.7842 14.7948 18.98 14.4128 19.1571 14.0215C19.213 13.9004 19.269 13.77 19.3156 13.6395C20.024 11.8227 20.1825 9.84751 19.791 7.94685L19.7817 7.90958ZM16.314 3.34425C16.3699 3.40015 16.4259 3.45605 16.4818 3.51195C17.3487 4.37844 18.0385 5.41262 18.5046 6.5493C18.5326 6.62383 18.4953 6.717 18.4207 6.75427C18.3927 6.76359 18.3648 6.7729 18.3368 6.76359C18.0478 6.717 17.7495 6.68905 17.4512 6.69837C17.2275 6.69837 17.0318 6.53998 16.9852 6.31637C16.8267 5.38467 16.5657 4.47161 16.2208 3.58649C16.2021 3.53991 16.1835 3.49332 16.1648 3.44674C16.1369 3.40015 16.1462 3.34425 16.1835 3.30698C16.2208 3.26971 16.286 3.29766 16.314 3.34425ZM17.2648 9.20464C17.2648 9.14874 17.3114 9.09284 17.3673 9.09284C17.4046 9.09284 17.4326 9.11147 17.4606 9.13942C17.5351 9.24191 17.6097 9.35371 17.675 9.4562C17.7682 9.59595 17.8521 9.73571 17.936 9.87546C17.9826 9.95932 17.9733 10.0711 17.908 10.1457C17.8055 10.2668 17.6843 10.3879 17.5538 10.509L17.414 10.6488C17.3767 10.686 17.3207 10.6767 17.2834 10.6395C17.2648 10.6208 17.2555 10.6022 17.2555 10.5742C17.2648 10.4252 17.2648 10.2761 17.2648 10.1177C17.2741 9.81956 17.2741 9.5121 17.2648 9.20464ZM4.68057 2.52435C6.23729 1.41563 8.10162 0.819342 10.0032 0.828659C10.5066 0.828659 11.01 0.865927 11.5133 0.94978C11.5972 0.959097 11.6532 1.04295 11.6438 1.1268C11.6345 1.16407 11.6159 1.20134 11.5879 1.21997C11.1125 1.59265 10.6651 2.15167 10.2736 2.86908C10.1803 3.0461 9.97527 3.12996 9.77952 3.07406C8.55838 2.72001 7.28131 2.5523 6.00424 2.58026C5.58477 2.58957 5.17462 2.63616 4.76446 2.71069C4.70853 2.72001 4.6526 2.68274 4.64328 2.62684C4.63396 2.58957 4.6526 2.5523 4.68057 2.52435ZM3.37554 16.211C3.17978 15.8477 3.43147 15.0091 4.69921 13.7234C4.82039 13.6023 4.82039 13.3973 4.68989 13.2762C4.68057 13.2669 4.67125 13.2669 4.67125 13.2575L4.5221 13.1364C4.40092 13.0339 4.21449 13.0432 4.10263 13.155L4.05602 13.2016C3.42215 13.8538 2.98403 14.4501 2.73234 14.9905C2.67641 15.1023 2.55523 15.1396 2.44337 15.093C2.40608 15.0744 2.37812 15.0557 2.35948 15.0184C1.36206 13.537 0.840046 11.7854 0.840046 9.99659C0.840046 9.35371 0.905297 8.71084 1.0358 8.0866C1.04512 8.04002 1.10105 8.00275 1.14766 8.01206C1.17563 8.02138 1.20359 8.04002 1.21291 8.07728C1.42731 8.76674 1.74425 9.40961 2.13576 10.0152C2.76031 10.9562 3.51536 11.8041 4.37295 12.5308C4.68057 12.801 5.00683 13.0526 5.34241 13.3041C6.04153 13.8166 6.78726 14.2731 7.56096 14.6737C7.91518 14.8601 8.25076 15.0278 8.60499 15.1862C8.80074 15.27 9.02446 15.2793 9.22022 15.2048C9.38801 15.1396 9.55579 15.0744 9.72359 14.9998C9.91002 14.9253 10.0032 14.7296 9.95663 14.534C9.9473 14.506 9.9473 14.4874 9.9473 14.4781C9.65833 13.2203 9.50919 11.9345 9.49987 10.6395C9.49987 10.6208 9.49987 10.6022 9.49987 10.5929C9.49987 10.5183 9.49987 10.4438 9.49987 10.3693C9.49987 10.3413 9.49987 10.304 9.49987 10.2761V10.2481C9.49987 10.1643 9.49987 10.0804 9.49987 9.98727C9.50919 9.75434 9.50919 9.52142 9.52783 9.28849C9.61172 7.63938 9.89137 6.08345 10.3388 4.77907C10.3761 4.65795 10.3202 4.52751 10.199 4.49024C10.0778 4.45297 9.96595 4.4157 9.84477 4.37844C9.72358 4.34117 9.6024 4.40639 9.55579 4.52751C9.07107 5.94369 8.77278 7.63007 8.6982 9.40961C8.68888 9.63322 8.5677 9.8382 8.37194 9.95932C7.37453 10.5463 6.4144 11.1985 5.5102 11.9159C5.33308 12.0556 5.09072 12.0463 4.91361 11.9066C4.11195 11.2264 3.41282 10.4438 2.83488 9.568C1.79085 7.95616 1.53917 6.43749 2.13576 5.30082L2.14508 5.2915C2.21965 5.16106 2.30355 5.03994 2.38744 4.91882C3.07724 4.01507 4.34499 3.484 6.04153 3.4281C6.14407 3.4281 6.25593 3.41878 6.36779 3.41878C7.47707 3.4281 8.58634 3.59581 9.64901 3.91259L9.72359 3.93122L9.77952 3.94985C10.0405 4.02439 10.3015 4.11756 10.5625 4.21073L10.5812 4.22005L10.7863 4.29458L10.8515 4.32253L10.9168 4.34117C11.4761 4.55546 12.0354 4.80702 12.5667 5.08653C13.5921 5.6176 14.5522 6.25115 15.4284 6.9872C13.8251 7.35988 11.9608 8.06797 10.0778 9.02762C9.99391 9.0742 9.93798 9.15806 9.92866 9.25123C9.91934 9.36303 9.91002 9.60527 9.91002 9.79161C9.91002 9.87546 9.97527 9.95 10.0592 9.95C10.0871 9.95 10.1058 9.94068 10.1337 9.93137C11.9887 8.95308 13.8438 8.22636 15.4378 7.84436C15.7361 7.76982 15.9318 7.49031 15.8852 7.18285C15.8572 6.96856 15.8199 6.76359 15.7827 6.55861C15.7361 6.29774 15.5962 6.07413 15.3912 5.91574C14.6175 5.32877 13.8065 4.81633 12.9396 4.36912C12.3523 4.06166 11.7557 3.79146 11.1405 3.55854C11.0193 3.51195 10.9634 3.38152 11.01 3.26971C11.01 3.2604 11.0193 3.25108 11.0286 3.24176C11.6532 2.13304 12.3896 1.5088 13.1073 1.5088H13.126C13.9743 1.52743 14.8225 2.41255 15.4471 3.93122C15.7827 4.77907 16.0343 5.66418 16.1835 6.55861C16.2581 6.96856 16.314 7.39714 16.3606 7.83504L16.3513 7.84436L16.3699 7.86299C16.4445 8.61767 16.4725 9.38166 16.4538 10.1457C16.4445 10.6395 16.4165 11.1239 16.3792 11.5991C15.1022 12.6053 13.7412 13.4998 12.2964 14.2451C11.793 14.5153 11.2803 14.7669 10.7769 14.9905L10.7583 14.9998L10.6464 15.0557C10.227 15.2421 9.8168 15.4191 9.41597 15.5775L9.35072 15.6054L9.26682 15.6427L9.06175 15.7172L9.00582 15.7359C8.92192 15.7638 8.83803 15.7918 8.76345 15.829L8.73549 15.8383C7.93383 16.1272 7.11352 16.3601 6.28389 16.5278C4.42888 16.8539 3.57129 16.5837 3.37554 16.211ZM5.89238 12.6612C6.77794 11.9532 7.71011 11.301 8.68888 10.7233C8.70752 11.9811 8.84735 13.2389 9.11768 14.4781C8.73549 14.3104 8.3533 14.1333 7.97111 13.9377C7.24402 13.5557 6.5449 13.1364 5.89238 12.6612ZM11.1964 19.0807C10.8049 19.1272 10.4134 19.1552 10.0126 19.1552C8.26009 19.1645 6.53558 18.6614 5.06276 17.7111C5.00683 17.6738 4.98818 17.5993 5.02547 17.5434C5.04411 17.5061 5.0814 17.4875 5.12801 17.4875H5.19326C5.60341 17.4595 6.01357 17.4036 6.4144 17.3197C7.46774 17.1055 8.49313 16.798 9.49054 16.416C9.59308 16.3787 9.69562 16.4253 9.73291 16.5278C10.1617 17.562 10.6744 18.3353 11.2617 18.8384C11.3269 18.8943 11.3269 18.9875 11.271 19.0434C11.2523 19.0527 11.2244 19.0713 11.1964 19.0807ZM15.0649 16.6303C14.4124 17.916 13.6014 18.6428 12.8277 18.6241C11.9794 18.6055 11.1312 17.7297 10.5066 16.2017C10.4693 16.1085 10.5159 15.9967 10.6091 15.9501L10.6278 15.9408C10.6651 15.9222 10.7117 15.9222 10.7583 15.9315C11.8676 16.2483 13.0141 16.4253 14.17 16.4346C14.2912 16.4346 14.4031 16.4346 14.5242 16.4253C14.6641 16.416 14.7946 16.416 14.9251 16.4067C15.009 16.4067 15.0835 16.4719 15.0835 16.5558C15.0835 16.5837 15.0742 16.6117 15.0649 16.6303ZM15.3445 15.5216C15.0556 15.5588 14.7666 15.5868 14.487 15.5961C13.7133 15.6147 12.9396 15.5588 12.1752 15.4098C12.1193 15.4004 12.082 15.3445 12.0913 15.2886C12.1006 15.2607 12.1193 15.2327 12.1472 15.2141C12.3243 15.1303 12.4921 15.0371 12.6692 14.9439C13.8344 14.329 14.953 13.6395 16.025 12.8662C16.0716 12.829 16.1369 12.8383 16.1648 12.8849C16.1835 12.9035 16.1928 12.9408 16.1835 12.9687C16.053 13.7607 15.8666 14.534 15.6149 15.2886C15.5776 15.4191 15.475 15.5029 15.3445 15.5216ZM16.6962 16.2483C16.6309 16.3228 16.5564 16.3974 16.4818 16.4626C16.3606 16.5837 16.2301 16.7048 16.0996 16.8259C16.053 16.8632 15.9877 16.8539 15.9505 16.8166C15.9225 16.7887 15.9225 16.7421 15.9318 16.7048C15.9411 16.6769 15.9598 16.6489 15.9691 16.621C16.025 16.4999 16.081 16.3694 16.1276 16.2483C16.1369 16.2203 16.1649 16.1924 16.1928 16.1924C16.3233 16.1644 16.4538 16.1272 16.575 16.0806C16.6309 16.062 16.6869 16.0899 16.7055 16.1458C16.7335 16.1831 16.7241 16.2203 16.6962 16.2483ZM18.5419 13.3414C18.4953 13.4532 18.4487 13.565 18.402 13.6768L18.3834 13.7234C18.0851 14.301 17.5724 14.7669 16.8919 15.0837C16.7894 15.1303 16.6775 15.0837 16.6309 14.9905C16.6123 14.9439 16.603 14.8973 16.6216 14.8601C16.8547 14.0122 17.0224 13.1457 17.125 12.2699C17.1436 12.1022 17.2275 11.9438 17.358 11.832C17.6377 11.5898 17.8987 11.3476 18.141 11.1146C18.2249 11.0308 18.3648 11.0308 18.4487 11.1146C18.4766 11.1426 18.4953 11.1705 18.5046 11.2078C18.7469 11.9718 18.7563 12.7078 18.5419 13.3414ZM18.7283 9.05557C18.6817 9.14874 18.5605 9.17669 18.4766 9.13011C18.4487 9.11147 18.43 9.09284 18.4114 9.06489C18.402 9.04625 18.3927 9.02762 18.3741 9.00898C18.0944 8.5804 17.7775 8.16114 17.4326 7.77914C17.3767 7.71392 17.386 7.62075 17.4419 7.56485C17.4699 7.5369 17.5072 7.52758 17.5445 7.52758C18.3648 7.52758 18.7936 7.73255 18.9241 7.9748C19.0359 8.17977 19.008 8.54313 18.7283 9.05557ZM19.1757 10.2668C19.1757 10.2947 19.1478 10.3227 19.1198 10.3227C19.1012 10.3227 19.0732 10.304 19.0639 10.2854L19.0359 10.2109C19.0173 10.1643 19.0173 10.1177 19.0452 10.0711C19.0546 10.0618 19.0639 10.0432 19.0825 10.0245C19.1198 9.96863 19.1757 9.97795 19.1757 10.0339C19.1757 10.1177 19.1757 10.1829 19.1757 10.2668Z" fill="black"/>
</g>
</svg>
