<svg width="206" height="288" viewBox="0 0 206 288" fill="none" xmlns="http://www.w3.org/2000/svg">
<path d="M217.91 237.373C219.214 228.975 215.866 225.109 207.866 225.776C199.2 226.443 195.866 222.443 197.866 213.776C199.866 205.776 196.533 202.109 187.866 202.776" stroke="#D466FF" stroke-width="4" stroke-linecap="round"/>
<path d="M207.844 175.48V193.48H202.844V175.48H207.844Z" fill="#7366FF"/>
<path d="M218.844 204.48L204.844 146.48" stroke="#FF668F" stroke-width="2" stroke-linecap="round"/>
<path d="M192.844 231.48L216.844 235.48" stroke="#FF66B5" stroke-width="4" stroke-linecap="round"/>
<path d="M189.152 230.627L189.053 224.971L193.941 221.35L187.541 219.34L186.028 213.708L182.579 218.719L176.923 218.818L180.545 223.705L179.229 229.386L184.141 227.178L189.152 230.627Z" fill="#8AFF66"/>
<path d="M180.556 194.602L175.724 196.979L170.67 195.12L172.378 200.695L169.032 204.411L174.012 204.858L177.059 208.947L178.918 203.893L183.824 202.928L180.108 199.582L180.556 194.602Z" fill="#66BAFF"/>
<path d="M192.494 189.409C195.094 182.773 193.06 180.122 186.394 181.455C179.06 183.455 177.06 181.455 180.394 175.455C183.06 168.122 180.727 165.455 173.394 167.455" stroke="#FFDE66" stroke-width="4" stroke-linecap="round"/>
<path d="M216.552 179.434C218.904 171.676 216.08 168.131 208.08 168.797C199.413 170.131 196.08 166.797 198.08 158.797C200.08 150.797 197.413 147.464 190.08 148.797" stroke="#C466FF" stroke-width="4" stroke-linecap="round"/>
<path d="M206.505 258.596L213.413 252.914L221.128 255.255L218.088 247.333L223.575 239.925L214.64 240.325L209.872 233.823L207.125 242.452L199.203 245.493L206.105 249.66L206.505 258.596Z" fill="#D666FF"/>
<path d="M176.477 238.517L180.859 239.414L181.894 243.277L184.274 240.569L188.397 240.5L185.43 237.153L187.551 233.479L183.687 234.515L180.013 232.393L180.082 236.516L176.477 238.517Z" fill="#6666FF"/>
<path d="M176.844 215.48L172.844 224.48L162.844 220.48L166.844 210.48L176.844 215.48Z" fill="#E866FF"/>
<path d="M158.843 166.953C155.066 173.853 156.844 176.637 164.177 175.303C171.511 174.637 173.511 177.637 170.177 184.303C166.177 190.303 168.177 193.303 176.177 193.303" stroke="#66FFD1" stroke-width="3" stroke-linecap="round"/>
<path d="M206.434 153.641C201.727 147.348 198.041 147.868 195.374 155.201C192.707 162.534 189.041 163.201 184.374 157.201C179.707 150.534 176.041 150.868 173.374 158.201" stroke="#FF8A66" stroke-width="3" stroke-linecap="round"/>
<path d="M203.844 255.48L204.844 278.48L184.844 269.48L203.844 255.48Z" fill="#66FAFF"/>
<path d="M167.136 207.586C159.228 208.871 157.275 213.514 161.275 221.514C165.275 228.181 163.275 232.514 155.275 234.514C146.608 236.514 144.275 240.848 148.275 247.514" stroke="#BDFF66" stroke-width="3" stroke-linecap="round"/>
<path d="M153.065 188.602C151.476 190.137 151.432 192.669 152.967 194.258C154.501 195.847 157.034 195.891 158.623 194.357C160.212 192.822 160.256 190.29 158.721 188.701C157.187 187.112 154.654 187.067 153.065 188.602Z" fill="#66FF85"/>
<path d="M198.844 292.48L202.844 271.48L218.844 284.48L198.844 292.48Z" fill="#7A66FF"/>
<path d="M150.493 233.913L149.445 243.072L140.913 247.991L150.281 251.029L152.217 259.875L157.557 253.28L166.716 254.329L161.798 245.796L165.934 237.317L157.192 240.247L150.493 233.913Z" fill="#87FF66"/>
<path d="M144.844 199.48L147.844 207.48L140.844 211.48L136.844 202.48L144.844 199.48Z" fill="#66FFB2"/>
<path d="M169.327 152.288C164.445 146.151 161.005 146.749 159.005 154.082C155.672 160.749 152.005 161.082 148.005 155.082C143.338 149.082 139.672 149.749 137.005 157.082" stroke="#FF66DB" stroke-width="4" stroke-linecap="round"/>
<path d="M210.844 139.48L194.844 141.48L202.844 126.48L210.844 139.48Z" fill="#80FF66"/>
<path d="M163.889 268.57C160.095 269.308 157.445 272.103 157.972 274.814C158.499 277.525 162.003 279.124 165.798 278.386C169.593 277.649 172.242 274.853 171.715 272.143C171.188 269.432 167.684 267.833 163.889 268.57Z" fill="#A1FF66"/>
<path d="M130.844 241.48L134.844 221.48L150.844 235.48L130.844 241.48Z" fill="#6E66FF"/>
<path d="M124.624 168.189L130.705 168.344L134.511 173.869L136.647 167.509L143.44 165.545L137.792 161.289L137.948 155.209L132.423 159.015L125.925 155.888L127.89 162.681L124.624 168.189Z" fill="#66FFC2"/>
<path d="M167.645 140.667C175.289 138.584 176.444 134.21 171.111 127.543C165.777 122.21 167.111 118.21 175.111 115.543C182.444 113.543 183.777 109.21 179.111 102.543" stroke="#96FF66" stroke-width="3" stroke-linecap="round"/>
<path d="M122.189 238.083L121.452 242.261L117.602 243.736L120.961 245.046L121.617 249.47L124.32 246.357L127.679 247.667L126.204 243.817L128.907 240.703L124.483 241.359L122.189 238.083Z" fill="#A166FF"/>
<path d="M114.898 180.804C115.078 181.326 115.647 181.603 116.169 181.424C116.692 181.244 116.969 180.675 116.789 180.153C116.61 179.63 116.041 179.353 115.518 179.533C114.996 179.712 114.719 180.281 114.898 180.804Z" fill="#66FFD4"/>
<path d="M163.844 125.48L154.844 136.48L146.844 129.48L156.844 118.48L163.844 125.48Z" fill="#FF66FF"/>
<path d="M217.191 111.918L218.014 102.52L226.033 98.4344L217.509 94.9213L215.205 85.9943L209.439 92.2992L200.041 91.4761L205.472 99.9322L200.614 108.019L209.995 106.606L217.191 111.918Z" fill="#FF8266"/>
<path d="M126.844 267.48L141.844 273.48L139.844 277.48L125.844 270.48L126.844 267.48Z" fill="#FFDB66"/>
<path d="M111.299 210.748C113.305 206.811 112.936 202.603 110.476 201.35C108.015 200.096 104.395 202.271 102.389 206.208C100.383 210.145 100.751 214.352 103.212 215.606C105.672 216.86 109.293 214.685 111.299 210.748Z" fill="#FF6E66"/>
<path d="M119.519 142.29L125.03 136.406L132.457 138.093L129.145 130.742L133.038 123.683L125.466 125.598L120.17 119.277L117.895 127.513L111.353 131.413L119.001 134.497L119.519 142.29Z" fill="#66D4FF"/>
<path d="M80.8438 245.48L100.844 212.48" stroke="#669EFF" stroke-linecap="round"/>
<path d="M85.8945 146.876C88.5386 153.81 91.5272 153.944 94.8606 147.277C97.5272 140.611 100.194 140.611 102.861 147.277C106.194 153.944 109.194 153.944 111.861 147.277" stroke="#E6FF66" stroke-width="3" stroke-linecap="round"/>
<path d="M180.356 84.1903C174.35 78.3181 169.014 79.0486 164.348 86.382C160.348 93.7153 155.348 94.382 149.348 88.382C143.348 82.382 138.014 83.0486 133.348 90.382" stroke="#66FFFC" stroke-width="3" stroke-linecap="round"/>
<path d="M98.8438 258.48L106.844 270.48L93.8438 278.48L85.8438 266.48L98.8438 258.48Z" fill="#A8FF66"/>
<path d="M93.581 168.544C89.0309 162.294 85.7559 162.836 83.7559 170.169C80.4225 177.502 76.7559 177.836 72.7559 171.169C68.7559 165.169 65.0892 165.836 61.7559 173.169" stroke="#6694FF" stroke-width="3" stroke-linecap="round"/>
<path d="M137.785 98.6441C137.247 94.8158 134.151 92.0861 130.869 92.5473C127.588 93.0085 125.364 96.4858 125.902 100.314C126.44 104.143 129.536 106.872 132.818 106.411C136.099 105.95 138.323 102.473 137.785 98.6441Z" fill="#F066FF"/>
<path d="M104.311 293.03L99.2774 291.118L98.1728 285.136L94.2607 290.205L88.2441 289.31L91.3309 294.257L88.4361 300.308L94.4003 298.204L99.4693 302.116L99.3646 296.117L104.311 293.03Z" fill="#66FF7A"/>
<path d="M68.8438 211.48L59.8438 206.48L70.8438 203.48L68.8438 211.48Z" fill="#FFF266"/>
<path d="M87.4912 128.547C94.9812 126.073 96.3929 121.503 91.7262 114.836C86.3929 108.169 87.7262 103.503 95.7262 100.836C103.726 98.1693 105.06 93.1693 99.7262 85.8359" stroke="#E366FF" stroke-width="4" stroke-linecap="round"/>
<path d="M190.844 58.4805L182.844 68.4805L180.844 53.4805L190.844 58.4805Z" fill="#F566FF"/>
<path d="M55.1457 245.189C56.4679 248.822 59.6434 251.002 62.2383 250.057C64.8331 249.113 65.8648 245.402 64.5426 241.769C63.2203 238.136 60.0449 235.957 57.45 236.902C54.8551 237.846 53.8234 241.557 55.1457 245.189Z" fill="#FFBD66"/>
<path d="M83.42 128.089C78.2748 122.041 74.3688 122.683 71.7021 130.016C67.7021 137.35 63.3688 138.016 58.7021 132.016C53.3688 126.016 49.0355 126.35 45.7021 133.016" stroke="#6EFF66" stroke-width="3" stroke-linecap="round"/>
<path d="M126.567 56.7162C131.579 62.388 134.752 61.5572 136.085 54.2239C137.418 46.8906 140.418 45.8906 145.085 51.2239C150.418 56.5572 153.418 55.8906 154.085 49.2239" stroke="#FF66A6" stroke-width="3" stroke-linecap="round"/>
<path d="M74.8438 282.48L65.8438 300.48L54.8438 284.48L74.8438 282.48Z" fill="#6696FF"/>
<path d="M45.8963 165.172L43.775 161.497L44.8102 157.634L41.136 159.755L37.7899 156.788L37.7206 160.91L35.0123 163.291L38.876 164.326L39.7726 168.707L41.7738 165.102L45.8963 165.172Z" fill="#FF6966"/>
<path d="M102.844 81.4805L107.844 63.4805L120.844 76.4805L102.844 81.4805Z" fill="#FFBD66"/>
<path d="M26.3117 204.193C24.5367 206.308 23.7837 208.598 24.6299 209.308C25.476 210.018 27.6009 208.879 29.3759 206.764C31.1509 204.648 31.9039 202.358 31.0578 201.648C30.2116 200.938 28.0867 202.077 26.3117 204.193Z" fill="#D4FF66"/>
<path d="M78.8438 104.48L48.8438 62.4805" stroke="#94FF66" stroke-width="2" stroke-linecap="round"/>
<path d="M192.699 12.1345C186.986 6.06509 181.796 6.69706 177.129 14.0304C173.129 21.3637 167.796 22.3637 161.129 17.0304C155.129 11.0304 150.129 11.6971 146.129 19.0304" stroke="#66FFDE" stroke-width="4" stroke-linecap="round"/>
<path d="M16.2352 231.958L12.1173 240.207L3.38724 242.153L9.94 248.94L8.733 257.914L17.2185 252.816L25.4673 256.934L23.5215 248.204L29.3381 241.409L20.3635 240.202L16.2352 231.958Z" fill="#6699FF"/>
<path d="M39.0121 112.31L33.6024 110.656L30.7856 105.358L27.7793 110.355L22.4256 110.936L25.6559 114.881L24.4715 121.174L29.7691 118.357L34.7653 121.363L34.1839 116.01L39.0121 112.31Z" fill="#FF9666"/>
<path d="M125.529 24.1766C127.018 24.9029 128.814 24.2845 129.541 22.7954C130.267 21.3062 129.648 19.5102 128.159 18.7839C126.67 18.0575 124.874 18.676 124.148 20.1651C123.421 21.6543 124.04 23.4503 125.529 24.1766Z" fill="#9CFF66"/>
</svg>
