<svg width="206" height="288" viewBox="0 0 206 288" fill="none" xmlns="http://www.w3.org/2000/svg">
<path d="M27.9083 206.036L25.7849 201.51L28.1323 197.095L24.075 198.335L20.5992 194.222L20.0178 199.576L15.9605 200.816L19.0228 203.577L19.7938 208.517L23.0241 204.572L27.9083 206.036Z" fill="#66F0FF"/>
<path d="M27.8438 220.48L25.8438 223.48L15.8438 216.48L17.8438 213.48L27.8438 220.48Z" fill="#D466FF"/>
<path d="M16.0135 220.653C13.3727 219.846 10.7084 220.904 10.0625 223.017C9.4166 225.129 11.0338 227.496 13.6745 228.304C16.3153 229.111 18.9797 228.053 19.6255 225.94C20.2714 223.828 18.6543 221.461 16.0135 220.653Z" fill="#66DBFF"/>
<path d="M11.9105 237.373C13.2143 228.975 9.86621 225.109 1.86621 225.776C-6.80046 226.443 -10.1338 222.443 -8.13379 213.776C-6.13379 205.776 -9.46712 202.109 -18.1338 202.776" stroke="#D466FF" stroke-width="4" stroke-linecap="round"/>
<path d="M1.84375 175.48V193.48H-3.15625V175.48H1.84375Z" fill="#7366FF"/>
<path d="M12.8438 204.48L-1.15625 146.48" stroke="#FF668F" stroke-width="2" stroke-linecap="round"/>
<path d="M11.8027 170.249L15.7309 179.445L9.86491 187.605L19.7931 186.409L25.5873 194.373L28.3553 185.579L37.5514 181.651L29.3912 175.785L29.0611 166.357L21.963 172.651L11.8027 170.249Z" fill="#D4FF66"/>
<path d="M40.8438 209.48L27.8438 181.48" stroke="#F266FF" stroke-linecap="round"/>
<path d="M39.8438 226.48L31.8438 218.48L42.8438 216.48L39.8438 226.48Z" fill="#FFC966"/>
<path d="M6.40721 237.449L16.6045 237.326L23.1585 244.112L25.1999 234.477L34.5656 230.441L25.4929 226.236L25.3701 216.039L17.6063 222.8L7.97136 220.759L11.7989 229.147L6.40721 237.449Z" fill="#FF66D6"/>
<path d="M-13.1562 231.48L10.8438 235.48" stroke="#FF66B5" stroke-width="4" stroke-linecap="round"/>
<path d="M10.5521 179.434C12.9041 171.676 10.0801 168.131 2.08008 168.797C-6.58659 170.131 -9.91992 166.797 -7.91992 158.797C-5.91992 150.797 -8.58659 147.464 -15.9199 148.797" stroke="#C466FF" stroke-width="4" stroke-linecap="round"/>
<path d="M24.5131 165.735C24.1027 165.366 23.4704 165.399 23.1008 165.809C22.7313 166.22 22.7644 166.852 23.1748 167.221C23.5853 167.591 24.2175 167.558 24.5871 167.147C24.9566 166.737 24.9235 166.105 24.5131 165.735Z" fill="#6BFF66"/>
<path d="M41.8438 202.48L43.8438 164.48" stroke="#FF8C66" stroke-linecap="round"/>
<path d="M56.8438 221.48L46.8438 212.48L51.8438 206.48L61.8438 215.48L56.8438 221.48Z" fill="#66FF91"/>
<path d="M31.8438 257.48L43.8438 237.48L58.8438 252.48L31.8438 257.48Z" fill="#66E3FF"/>
<path d="M0.505228 258.596L7.4133 252.914L15.1284 255.255L12.0876 247.333L17.5753 239.925L8.63996 240.325L3.87209 233.823L1.12501 242.452L-6.79669 245.493L0.10494 249.66L0.505228 258.596Z" fill="#D666FF"/>
<path d="M0.433762 153.641C-4.27273 147.348 -7.95931 147.868 -10.626 155.201C-13.2926 162.534 -16.9593 163.201 -21.626 157.201C-26.2926 150.534 -29.9593 150.868 -32.626 158.201" stroke="#FF8A66" stroke-width="3" stroke-linecap="round"/>
<path d="M27.7933 149.567L21.9284 146.997L20.1167 140.236L15.3564 145.652L8.07726 145.532L11.8208 151.776L9.25124 157.641L16.0127 155.829L21.4293 160.589L21.8083 154.276L27.7933 149.567Z" fill="#66FF70"/>
<path d="M61.8438 181.48L47.8438 180.48L53.8438 168.48L61.8438 181.48Z" fill="#FA66FF"/>
<path d="M49.8438 241.48V231.48" stroke="#D966FF" stroke-linecap="round"/>
<path d="M27.8438 262.48L21.8438 269.48L19.8438 258.48L27.8438 262.48Z" fill="#E3FF66"/>
<path d="M10.5208 140.569C11.4232 139.179 11.4038 137.565 10.4774 136.964C9.55103 136.362 8.06853 137.001 7.16614 138.39C6.26376 139.78 6.2832 141.394 7.20957 141.996C8.13594 142.597 9.61844 141.958 10.5208 140.569Z" fill="#9C66FF"/>
<path d="M32.6299 154.131C38.0582 159.62 41.4391 158.698 42.7724 151.365C43.4391 144.031 46.1058 143.031 50.7724 148.365C56.1058 154.365 59.4391 153.698 60.7724 146.365" stroke="#66FFFA" stroke-width="4" stroke-linecap="round"/>
<path d="M46.8438 189.48L95.8438 183.48" stroke="#CF66FF" stroke-width="3" stroke-linecap="round"/>
<path d="M66.0824 245.731L70.942 237.644L80.923 236.47L74.8018 229.576L76.6269 219.543L67.6981 223.699L59.6121 218.839L60.769 227.821L52.8924 234.959L62.9257 236.784L66.0824 245.731Z" fill="#FFD466"/>
<path d="M33.8438 276.48L55.8438 267.48V290.48L33.8438 276.48Z" fill="#FF6666"/>
<path d="M-7.15625 292.48L-3.15625 271.48L12.8438 284.48L-7.15625 292.48Z" fill="#7A66FF"/>
<path d="M4.84375 139.48L-11.1562 141.48L-3.15625 126.48L4.84375 139.48Z" fill="#80FF66"/>
<path d="M50.8438 131.48V145.48L38.8438 140.48L50.8438 131.48Z" fill="#FF66FA"/>
<path d="M90.8438 172.48L63.8438 161.48" stroke="#FF66D6" stroke-width="3" stroke-linecap="round"/>
<path d="M91.1722 209.031L84.6364 213.307L77.2784 210.012L78.1007 217.583L73.1852 223.4L81.128 224.783L84.4476 231.026L87.7429 223.668L95.3142 222.846L89.7895 216.974L91.1722 209.031Z" fill="#FF6673"/>
<path d="M53.8438 268.48L59.8438 264.48L66.8438 275.48L60.8438 279.48L53.8438 268.48Z" fill="#FF667A"/>
<path d="M12.8438 291.48L10.8438 293.48L2.84375 286.48L4.84375 284.48L12.8438 291.48Z" fill="#FFD466"/>
<path d="M37.8438 130.48L25.8438 116.48L33.8438 109.48L46.8438 123.48L37.8438 130.48Z" fill="#66ABFF"/>
<path d="M80.3439 146.882C77.4741 148.539 75.8193 151.045 76.6477 152.48C77.4762 153.915 80.4741 153.735 83.3439 152.078C86.2136 150.421 87.8685 147.915 87.04 146.48C86.2116 145.045 83.2136 145.225 80.3439 146.882Z" fill="#80FF66"/>
<path d="M106.844 218.48L100.844 219.48L97.8438 202.48H103.844L106.844 218.48Z" fill="#EBFF66"/>
<path d="M100.844 269.48L88.8438 282.48L74.8438 269.48L85.8438 256.48L100.844 269.48Z" fill="#75FF66"/>
<path d="M11.1909 111.918L12.0141 102.52L20.0331 98.4344L11.5091 94.9213L9.20524 85.9943L3.43916 92.2992L-5.95884 91.4761L-0.527933 99.9322L-5.38603 108.019L3.995 106.606L11.1909 111.918Z" fill="#FF8266"/>
<path d="M66.6422 123.714L70.1777 123.007L72.2991 125.129L73.0062 121.593L75.8346 120.179L72.2991 119.472L71.5919 115.936L69.4706 118.058H66.6422L68.0564 120.886L66.6422 123.714Z" fill="#66EDFF"/>
<path d="M90.3633 177.941C94.1323 184.847 98.0168 184.967 102.017 178.301C106.017 171.634 110.017 171.634 114.017 178.301C118.017 184.967 122.017 184.967 126.017 178.301" stroke="#F566FF" stroke-width="4" stroke-linecap="round"/>
<path d="M122.844 267.48L99.8438 268.48L116.844 247.48L122.844 267.48Z" fill="#FF66D4"/>
<path d="M49.8438 93.4805L62.8438 100.48" stroke="#E366FF" stroke-width="2" stroke-linecap="round"/>
<path d="M112.109 156.914C113.099 159.492 115.573 160.94 117.635 160.148C119.698 159.356 120.568 156.625 119.578 154.047C118.588 151.469 116.114 150.021 114.052 150.812C111.989 151.604 111.12 154.336 112.109 156.914Z" fill="#66D4FF"/>
<path d="M121.844 235.48L128.844 223.48L135.844 228.48L128.844 240.48L121.844 235.48Z" fill="#66FF91"/>
<path d="M105.518 291.639C98.9962 285.79 93.7354 286.532 89.7354 293.865C84.402 301.199 78.7354 301.865 72.7354 295.865C66.7354 290.532 61.0687 291.532 55.7354 298.865" stroke="#66FF87" stroke-width="3" stroke-linecap="round"/>
<path d="M25.8138 64.8203L27.7055 74.8414L21.4119 80.6198L30.7024 82.2589L34.0738 90.6035L38.3165 82.4182L47.4104 80.9011L40.7048 74.982L43.271 65.3169L34.3738 69.9902L25.8138 64.8203Z" fill="#6673FF"/>
<path d="M112.844 142.48L101.844 99.4805" stroke="#FFCF66" stroke-width="4" stroke-linecap="round"/>
<path d="M151.58 199.478C147.031 193.478 143.756 193.811 141.756 200.478C139.089 207.811 135.756 208.478 131.756 202.478C127.089 196.478 123.756 196.811 121.756 203.478" stroke="#FF6691" stroke-width="3" stroke-linecap="round"/>
<path d="M104.941 292.707L110.733 288.651L116.468 290.678L114.555 284.248L117.567 278.687L111.311 279.614L107.255 273.822L105.055 280.542L99.6097 282.628L104.998 286.625L104.941 292.707Z" fill="#66E8FF"/>
<path d="M25.8438 80.4805L5.84375 77.4805L17.8438 61.4805L25.8438 80.4805Z" fill="#FF6685"/>
<path d="M79.8438 85.4805L108.844 95.4805" stroke="#FF66A1" stroke-width="4" stroke-linecap="round"/>
<path d="M166.844 182.48L148.844 187.48L149.844 170.48L166.844 182.48Z" fill="#668AFF"/>
<path d="M137.903 275.701L140.407 268.509L148.248 265.956L140.916 261.456L141.356 253.406L134.652 257.884L127.53 256.377L130.013 263.221L125.444 269.555L133.494 269.995L137.903 275.701Z" fill="#66FF94"/>
<path d="M82.5371 74.4232C85.3398 67.5586 83.0745 65.1263 75.7412 67.1263C68.4079 68.4596 66.4079 65.793 69.7412 59.1263C72.4079 52.4596 70.0745 49.793 62.7412 51.1263" stroke="#6666FF" stroke-width="4" stroke-linecap="round"/>
<path d="M164.236 131.4C159.617 125.658 155.641 126.12 152.308 132.786C148.974 140.12 144.641 140.786 139.308 134.786C134.641 128.786 130.641 129.453 127.308 136.786" stroke="#69FF66" stroke-width="4" stroke-linecap="round"/>
<path d="M157.844 237.48L166.844 235.48L168.844 246.48L159.844 247.48L157.844 237.48Z" fill="#CC66FF"/>
<path d="M42.8438 49.4805L49.8438 38.4805L54.8438 51.4805L42.8438 49.4805Z" fill="#FF66FC"/>
<path d="M136.851 100.689C136.966 102.341 138.4 103.588 140.053 103.472C141.706 103.356 142.952 101.923 142.836 100.27C142.721 98.6172 141.287 97.371 139.634 97.4866C137.981 97.6022 136.735 99.0358 136.851 100.689Z" fill="#66C9FF"/>
<path d="M169.844 209.48V204.48L183.844 206.48V211.48L169.844 209.48Z" fill="#6BFF66"/>
<path d="M22.8438 47.4805L4.84375 34.4805L23.8438 25.4805L22.8438 47.4805Z" fill="#66FFFF"/>
<path d="M121.844 58.4805V63.4805H120.844V58.4805H121.844Z" fill="#66FFA3"/>
<path d="M185.94 164.368L184.777 161.427L186.433 158.733L183.615 158.486L181.687 156.188L180.674 159.649L177.733 160.811L180.428 162.466L180.181 165.284L182.479 163.355L185.94 164.368Z" fill="#BFFF66"/>
<path d="M181.844 307.48L169.844 286.48L194.844 288.48L181.844 307.48Z" fill="#6669FF"/>
<path d="M93.8438 30.4805L89.8438 26.4805H90.8438L94.8438 29.4805L93.8438 30.4805Z" fill="#66FFA8"/>
<path d="M187.783 118.553C183.964 117.948 180.449 120.111 179.93 123.384C179.412 126.657 182.087 129.8 185.906 130.405C189.724 131.01 193.24 128.847 193.758 125.574C194.276 122.301 191.601 119.157 187.783 118.553Z" fill="#66FF82"/>
<path d="M203.626 248.176C202.727 245.565 200.305 244.031 198.216 244.75C196.127 245.47 195.163 248.169 196.062 250.78C196.961 253.391 199.383 254.925 201.472 254.206C203.56 253.486 204.525 250.787 203.626 248.176Z" fill="#D4FF66"/>
<path d="M55.1942 12.7198C58.9411 15.0612 63.1648 15.0608 64.6282 12.7189C66.0915 10.3771 64.2403 6.58068 60.4934 4.23935C56.7465 1.89802 52.5227 1.89842 51.0594 4.24024C49.5961 6.58206 51.4473 10.3785 55.1942 12.7198Z" fill="#66FF70"/>
<path d="M168.043 78.5564C169.23 81.65 171.447 83.6765 172.994 83.0828C174.541 82.489 174.832 79.4998 173.644 76.4062C172.457 73.3126 170.24 71.286 168.693 71.8798C167.147 72.4736 166.855 75.4628 168.043 78.5564Z" fill="#FF7566"/>
</svg>
