<svg width="32" height="32" viewBox="0 0 32 32" fill="none" xmlns="http://www.w3.org/2000/svg">
<g id="Frame 513383">
<path id="Union" fill-rule="evenodd" clip-rule="evenodd" d="M12.765 6L13.1445 6.22327L15.6917 7.72202L16.0613 7.93953V8.36842V11.4155V11.8498L15.6846 12.066L13.1374 13.5276L12.765 13.7413L12.3922 13.5283L9.83309 12.0667L9.45504 11.8508V11.4155V8.36842V7.93851L9.82602 7.72124L12.3851 6.2225L12.765 6ZM10.955 8.79834V10.9801L12.7633 12.0129L14.5613 10.9811V8.79732L12.7633 7.73935L10.955 8.79834ZM12.765 18.012L13.1445 18.2353L15.6917 19.734L16.0613 19.9515V20.3804V23.4275V23.8618L15.6846 24.078L13.1374 25.5396L12.765 25.7532L12.3922 25.5403L9.83309 24.0787L9.45504 23.8628V23.4275V20.3804V19.9505L9.82602 19.7332L12.3851 18.2345L12.765 18.012ZM10.955 20.8103V22.9921L12.7633 24.0248L14.5613 22.9931V20.8093L12.7633 19.7513L10.955 20.8103ZM9.68946 12.2293L9.31001 12.006L8.93009 12.2285L6.37098 13.7272L6 13.9445V14.3744V17.4215V17.8568L6.37804 18.0727L8.93716 19.5343L9.30999 19.7473L9.68239 19.5336L12.2295 18.072L12.6063 17.8558V17.4215V14.3744V13.9455L12.2366 13.728L9.68946 12.2293ZM7.5 16.9861V14.8043L9.30823 13.7453L11.1063 14.8033V16.9871L9.30824 18.0189L7.5 16.9861ZM19.6727 6L20.0522 6.22327L22.5994 7.72202L22.969 7.93953V8.36842V11.4155V11.8498L22.5923 12.066L20.0451 13.5276L19.6727 13.7413L19.2999 13.5283L16.7408 12.0667L16.3627 11.8508V11.4155V8.36842V7.93851L16.7337 7.72124L19.2928 6.2225L19.6727 6ZM17.8627 8.79834V10.9801L19.671 12.0129L21.469 10.9811V8.79732L19.671 7.73935L17.8627 8.79834ZM20.0522 18.2353L19.6727 18.012L19.2928 18.2345L16.7337 19.7332L16.3627 19.9505V20.3804V23.4275V23.8628L16.7408 24.0787L19.2999 25.5403L19.6727 25.7532L20.0451 25.5396L22.5923 24.078L22.969 23.8618V23.4275V20.3804V19.9515L22.5994 19.734L20.0522 18.2353ZM17.8627 22.9921V20.8103L19.671 19.7513L21.469 20.8093V22.9931L19.671 24.0248L17.8627 22.9921ZM16.2185 12.006L16.598 12.2293L19.1451 13.728L19.5148 13.9455V14.3744V17.4215V17.8558L19.138 18.072L16.5909 19.5336L16.2185 19.7473L15.8456 19.5343L13.2865 18.0727L12.9085 17.8568V17.4215V14.3744V13.9445L13.2795 13.7272L15.8386 12.2285L16.2185 12.006ZM14.4085 14.8043V16.9861L16.2167 18.0189L18.0148 16.9871V14.8033L16.2167 13.7453L14.4085 14.8043ZM23.3563 12.2293L22.9768 12.006L22.5969 12.2285L20.0378 13.7272L19.6668 13.9445V14.3744V17.4215V17.8568L20.0449 18.0727L22.604 19.5343L22.9768 19.7473L23.3492 19.5336L25.8964 18.072L26.2731 17.8558V17.4215V14.3744V13.9455L25.9035 13.728L23.3563 12.2293ZM21.1668 16.9861V14.8043L22.9751 13.7453L24.7731 14.8033V16.9871L22.9751 18.0189L21.1668 16.9861Z" fill="black"/>
</g>
</svg>
