<svg width="33" height="32" viewBox="0 0 33 32" fill="none" xmlns="http://www.w3.org/2000/svg">
<g id="Frame 513383">
<g id="Clip path group">
<mask id="mask0_7319_36636" style="mask-type:luminance" maskUnits="userSpaceOnUse" x="6" y="6" width="20" height="20">
<g id="clip0_4929_988">
<path id="Vector" d="M26 6H6V25.9369H26V6Z" fill="white"/>
</g>
</mask>
<g mask="url(#mask0_7319_36636)">
<g id="Group">
<path id="Vector_2" d="M7.08421 18.4313C6.63682 17.9853 6.33679 17.4701 6.18411 16.886C6.03498 16.2984 6.03498 15.7107 6.18411 15.123C6.33679 14.5318 6.63504 14.0149 7.07888 13.5724C7.52981 13.1228 8.04999 12.8237 8.6394 12.675C9.22882 12.5263 9.81823 12.5263 10.4076 12.675C10.997 12.8237 11.5154 13.121 11.9628 13.5671L13.0706 14.6717L14.7111 13.0361L13.6032 11.9316C13.1558 11.4855 12.8558 10.9704 12.7031 10.3863C12.554 9.79858 12.5523 9.21268 12.6978 8.62855C12.847 8.04088 13.147 7.52225 13.5979 7.07264C14.0453 6.62658 14.5637 6.32921 15.1531 6.18052C15.7425 6.03183 16.3302 6.0336 16.916 6.18582C17.5054 6.33451 18.0238 6.63189 18.4712 7.07795C18.9186 7.52402 19.2169 8.04088 19.366 8.62855C19.5187 9.21268 19.5204 9.79858 19.3713 10.3863C19.2257 10.9775 18.9293 11.4961 18.4819 11.9421L17.3794 13.0414L19.0145 14.6717L20.1169 13.5724C20.5644 13.1263 21.081 12.8272 21.6668 12.675C22.2562 12.5263 22.8439 12.528 23.4297 12.6803C24.0192 12.829 24.5393 13.1281 24.9902 13.5777C25.4376 14.0238 25.7359 14.5406 25.885 15.1283C26.0377 15.7125 26.0377 16.2966 25.885 16.8807C25.7359 17.4684 25.4376 17.9853 24.9902 18.4313C24.5393 18.8809 24.0192 19.1801 23.4297 19.3288C22.8439 19.4739 22.2562 19.4721 21.6668 19.3235C21.0845 19.1747 20.5697 18.8774 20.1223 18.4313L19.0198 17.3321L17.3794 18.9677L18.4819 20.0669C18.9293 20.5129 19.2257 21.0281 19.3713 21.6122C19.5204 22.1998 19.5204 22.7875 19.3713 23.3752C19.2222 23.9629 18.9222 24.4815 18.4712 24.9311C18.0274 25.3736 17.509 25.671 16.916 25.8232C16.3266 25.9719 15.7372 25.9719 15.1478 25.8232C14.5655 25.6745 14.0506 25.3772 13.6032 24.9311C13.1523 24.4815 12.8505 23.9646 12.6978 23.3805C12.5487 22.7928 12.5487 22.2052 12.6978 21.6175C12.8541 21.0298 13.1541 20.5147 13.5979 20.0722L14.7111 18.9623L13.076 17.3321L11.9628 18.4419C11.519 18.8845 10.9988 19.1801 10.4023 19.3288C9.8129 19.4774 9.2235 19.4774 8.63408 19.3288C8.04822 19.1765 7.53159 18.8774 7.08421 18.4313ZM8.41571 17.1038C8.61809 17.3055 8.85244 17.4401 9.11874 17.5073C9.38859 17.5782 9.65667 17.5799 9.92297 17.5126C10.1893 17.4454 10.4236 17.3108 10.626 17.1091L11.7391 15.9992L10.6313 14.8947C10.4289 14.6929 10.1928 14.5601 9.92297 14.4964C9.65667 14.4291 9.39037 14.4291 9.12407 14.4964C8.85777 14.5637 8.62165 14.7 8.41571 14.9053C8.21332 15.1071 8.07662 15.339 8.00561 15.6009C7.93815 15.8664 7.93815 16.132 8.00561 16.3975C8.07662 16.6665 8.21332 16.9019 8.41571 17.1038ZM14.9347 10.604L16.0426 11.7085L17.145 10.6093C17.351 10.404 17.4859 10.1703 17.5498 9.90833C17.6173 9.64281 17.6155 9.37553 17.5445 9.10647C17.477 8.84096 17.3421 8.60731 17.1397 8.40552C16.9373 8.20373 16.703 8.0692 16.4367 8.00194C16.1704 7.93467 15.9041 7.93467 15.6378 8.00194C15.375 8.06566 15.1407 8.20019 14.9347 8.40552C14.7323 8.60731 14.5939 8.84096 14.5193 9.10647C14.4518 9.37199 14.4518 9.6375 14.5193 9.90302C14.5939 10.1685 14.7323 10.4022 14.9347 10.604ZM20.0394 16.0045L21.1419 17.1038C21.3442 17.3055 21.5768 17.4418 21.8396 17.5126C22.1059 17.5799 22.6823 17.5782 22.9451 17.5073C23.2114 17.4401 23.4475 17.3038 23.6534 17.0984C23.8594 16.8931 23.9943 16.6595 24.0582 16.3975C24.1292 16.1355 24.131 15.8718 24.0635 15.6062C23.9961 15.3407 23.8611 15.1071 23.6588 14.9053C23.4528 14.7 23.2167 14.5637 22.9504 14.4964C22.6841 14.4291 22.1059 14.4291 21.8396 14.4964C21.5804 14.5637 21.3478 14.7 21.1419 14.9053L20.0394 16.0045ZM14.9347 23.6035C15.1372 23.8053 15.3715 23.9398 15.6378 24.0071C15.9041 24.0744 16.1686 24.0726 16.4314 24.0018C16.6977 23.9345 16.932 23.8 17.1344 23.5982C17.3403 23.3929 17.477 23.1575 17.5445 22.892C17.6155 22.63 17.6173 22.3662 17.5498 22.1007C17.4859 21.8317 17.3528 21.5963 17.1504 21.3944L16.0479 20.2952L14.9347 21.4051C14.7323 21.6068 14.5956 21.8387 14.5246 22.1007C14.4572 22.3662 14.4572 22.6318 14.5246 22.8973C14.5921 23.1627 14.7288 23.3982 14.9347 23.6035ZM14.4075 16.0045L16.0426 17.6348L17.683 15.9992L16.0479 14.369L14.4075 16.0045Z" fill="#24201F"/>
</g>
</g>
</g>
</g>
</svg>
