<svg width="16" height="16" viewBox="0 0 16 16" fill="none" xmlns="http://www.w3.org/2000/svg">
  <g clip-path="url(#clip0_805_1291)">
    <path d="M7.03608 13.3999C7.08353 13.3999 7.13052 13.3906 7.17436 13.3725C7.2182 13.3543 7.25803 13.3277 7.29159 13.2942C7.32514 13.2606 7.35176 13.2208 7.36992 13.177C7.38808 13.1332 7.39742 13.0863 7.39742 13.0388C7.39742 12.9914 7.38808 12.9444 7.36992 12.9006C7.35176 12.8568 7.32514 12.817 7.29159 12.7835C7.25803 12.7499 7.2182 12.7234 7.17436 12.7052C7.13052 12.6871 7.08353 12.6777 7.03608 12.6777C6.94025 12.6777 6.84834 12.7158 6.78057 12.7835C6.71281 12.8512 6.67474 12.9431 6.67474 13.0388C6.67474 13.1346 6.71281 13.2265 6.78057 13.2942C6.84834 13.3619 6.94025 13.3999 7.03608 13.3999ZM6.82507 14.8999C6.89483 14.9011 6.96414 14.8885 7.02895 14.8626C7.09375 14.8368 7.15276 14.7983 7.20253 14.7494C7.2523 14.7006 7.29182 14.6423 7.31881 14.578C7.34579 14.5137 7.35969 14.4446 7.35969 14.3749C7.35969 14.3052 7.34579 14.2361 7.31881 14.1718C7.29182 14.1075 7.2523 14.0492 7.20253 14.0004C7.15276 13.9515 7.09375 13.913 7.02895 13.8872C6.96414 13.8613 6.89483 13.8486 6.82507 13.8499C6.68732 13.8523 6.55603 13.9086 6.45947 14.0068C6.36291 14.105 6.3088 14.2372 6.3088 14.3749C6.3088 14.5126 6.36291 14.6448 6.45947 14.743C6.55603 14.8412 6.68732 14.8975 6.82507 14.8999ZM8.0471 14.2891C8.15463 14.2891 8.25776 14.2464 8.3338 14.1704C8.40984 14.0944 8.45255 13.9913 8.45255 13.8839C8.45255 13.7764 8.40984 13.6733 8.3338 13.5973C8.25776 13.5214 8.15463 13.4787 8.0471 13.4787C7.93957 13.4787 7.83644 13.5214 7.76041 13.5973C7.68437 13.6733 7.64165 13.7764 7.64165 13.8839C7.64165 13.9913 7.68437 14.0944 7.76041 14.1704C7.83644 14.2464 7.93957 14.2891 8.0471 14.2891ZM8.01236 15.9999C8.09291 16.0012 8.1729 15.9865 8.2477 15.9566C8.32249 15.9267 8.39058 15.8822 8.448 15.8258C8.50542 15.7693 8.55102 15.702 8.58215 15.6277C8.61328 15.5535 8.62931 15.4738 8.62931 15.3933C8.62931 15.3128 8.61328 15.2331 8.58215 15.1588C8.55102 15.0846 8.50542 15.0173 8.448 14.9608C8.39058 14.9043 8.32249 14.8599 8.2477 14.83C8.1729 14.8001 8.09291 14.7853 8.01236 14.7867C7.85308 14.7892 7.70119 14.8543 7.58947 14.9678C7.47774 15.0813 7.41513 15.2341 7.41513 15.3933C7.41513 15.5525 7.47774 15.7053 7.58947 15.8188C7.70119 15.9323 7.85308 15.9973 8.01236 15.9999ZM5.17958 12.6504C5.27541 12.6504 5.36732 12.6123 5.43508 12.5446C5.50285 12.4769 5.54092 12.385 5.54092 12.2892C5.54092 12.1935 5.50285 12.1016 5.43508 12.0339C5.36732 11.9662 5.27541 11.9281 5.17958 11.9281C5.08374 11.9281 4.99183 11.9662 4.92407 12.0339C4.8563 12.1016 4.81823 12.1935 4.81823 12.2892C4.81823 12.385 4.8563 12.4769 4.92407 12.5446C4.99183 12.6123 5.08374 12.6504 5.17958 12.6504ZM4.4729 13.9668C4.54267 13.968 4.61197 13.9554 4.67678 13.9295C4.74159 13.9037 4.80059 13.8652 4.85036 13.8163C4.90013 13.7675 4.93966 13.7092 4.96664 13.6449C4.99362 13.5805 5.00752 13.5115 5.00752 13.4418C5.00752 13.3721 4.99362 13.303 4.96664 13.2387C4.93966 13.1744 4.90013 13.1161 4.85036 13.0672C4.80059 13.0184 4.74159 12.9799 4.67678 12.9541C4.61197 12.9282 4.54267 12.9155 4.4729 12.9168C4.33516 12.9192 4.20386 12.9755 4.1073 13.0737C4.01074 13.1719 3.95663 13.3041 3.95663 13.4418C3.95663 13.5795 4.01074 13.7116 4.1073 13.8098C4.20386 13.908 4.33516 13.9644 4.4729 13.9668ZM5.79019 13.8615C5.89773 13.8615 6.00085 13.8189 6.07689 13.7429C6.15293 13.6669 6.19564 13.5638 6.19564 13.4563C6.19564 13.3489 6.15293 13.2458 6.07689 13.1698C6.00085 13.0938 5.89773 13.0512 5.79019 13.0512C5.68266 13.0512 5.57953 13.0938 5.5035 13.1698C5.42746 13.2458 5.38474 13.3489 5.38474 13.4563C5.38474 13.5638 5.42746 13.6669 5.5035 13.7429C5.57953 13.8189 5.68266 13.8615 5.79019 13.8615ZM5.18038 15.4438C5.26092 15.4451 5.34092 15.4303 5.41571 15.4004C5.4905 15.3706 5.5586 15.3261 5.61602 15.2696C5.67344 15.2132 5.71904 15.1458 5.75017 15.0716C5.7813 14.9973 5.79733 14.9176 5.79733 14.8371C5.79733 14.7566 5.7813 14.6769 5.75017 14.6027C5.71904 14.5284 5.67344 14.4611 5.61602 14.4047C5.5586 14.3482 5.4905 14.3037 5.41571 14.2738C5.34092 14.2439 5.26092 14.2292 5.18038 14.2305C5.02109 14.2331 4.86921 14.2981 4.75748 14.4116C4.64576 14.5251 4.58314 14.6779 4.58314 14.8371C4.58314 14.9963 4.64576 15.1492 4.75748 15.2626C4.86921 15.3761 5.02109 15.4412 5.18038 15.4438ZM3.75166 11.247C3.84749 11.247 3.9394 11.209 4.00717 11.1412C4.07493 11.0735 4.113 10.9817 4.113 10.8859C4.113 10.7901 4.07493 10.6983 4.00717 10.6305C3.9394 10.5628 3.84749 10.5248 3.75166 10.5248C3.65582 10.5248 3.56391 10.5628 3.49615 10.6305C3.42839 10.6983 3.39032 10.7901 3.39032 10.8859C3.39032 10.9817 3.42839 11.0735 3.49615 11.1412C3.56391 11.209 3.65582 11.247 3.75166 11.247ZM2.65674 12.2062C2.72651 12.2074 2.79581 12.1947 2.86062 12.1689C2.92543 12.1431 2.98444 12.1046 3.0342 12.0557C3.08397 12.0068 3.1235 11.9485 3.15048 11.8842C3.17746 11.8199 3.19136 11.7509 3.19136 11.6812C3.19136 11.6114 3.17746 11.5424 3.15048 11.4781C3.1235 11.4138 3.08397 11.3555 3.0342 11.3066C2.98444 11.2578 2.92543 11.2193 2.86062 11.1934C2.79581 11.1676 2.72651 11.1549 2.65674 11.1561C2.519 11.1585 2.3877 11.2149 2.29114 11.3131C2.19458 11.4113 2.14047 11.5435 2.14047 11.6812C2.14047 11.8188 2.19458 11.951 2.29114 12.0492C2.3877 12.1474 2.519 12.2038 2.65674 12.2062ZM3.86869 12.6027C3.97622 12.6027 4.07935 12.56 4.15539 12.484C4.23142 12.408 4.27414 12.3049 4.27414 12.1975C4.27414 12.09 4.23142 11.9869 4.15539 11.911C4.07935 11.835 3.97622 11.7923 3.86869 11.7923C3.76116 11.7923 3.65803 11.835 3.58199 11.911C3.50596 11.9869 3.46324 12.09 3.46324 12.1975C3.46324 12.3049 3.50596 12.408 3.58199 12.484C3.65803 12.56 3.76116 12.6027 3.86869 12.6027ZM2.77666 13.847C2.8572 13.8483 2.9372 13.8336 3.01199 13.8037C3.08678 13.7738 3.15488 13.7293 3.2123 13.6728C3.26972 13.6164 3.31532 13.5491 3.34645 13.4748C3.37758 13.4006 3.39361 13.3209 3.39361 13.2403C3.39361 13.1598 3.37758 13.0801 3.34645 13.0059C3.31532 12.9316 3.26972 12.8643 3.2123 12.8079C3.15488 12.7514 3.08678 12.7069 3.01199 12.677C2.9372 12.6471 2.8572 12.6324 2.77666 12.6337C2.61737 12.6363 2.46549 12.7013 2.35376 12.8148C2.24204 12.9283 2.17942 13.0811 2.17942 13.2403C2.17942 13.3996 2.24204 13.5524 2.35376 13.6659C2.46549 13.7793 2.61737 13.8444 2.77666 13.847ZM2.96958 9.40399C3.06541 9.40399 3.15732 9.36594 3.22508 9.29822C3.29285 9.2305 3.33092 9.13864 3.33092 9.04287C3.33092 8.9471 3.29285 8.85524 3.22508 8.78752C3.15732 8.7198 3.06541 8.68175 2.96958 8.68175C2.87374 8.68175 2.78183 8.7198 2.71407 8.78752C2.6463 8.85524 2.60823 8.9471 2.60823 9.04287C2.60823 9.13864 2.6463 9.2305 2.71407 9.29822C2.78183 9.36594 2.87374 9.40399 2.96958 9.40399ZM1.65357 9.8843C1.79292 9.8843 1.92657 9.82898 2.02511 9.7305C2.12365 9.63202 2.17901 9.49846 2.17901 9.35919C2.17901 9.21992 2.12365 9.08635 2.02511 8.98787C1.92657 8.8894 1.79292 8.83407 1.65357 8.83407C1.51421 8.83407 1.38056 8.8894 1.28202 8.98787C1.18348 9.08635 1.12812 9.21992 1.12812 9.35919C1.12812 9.49846 1.18348 9.63202 1.28202 9.7305C1.38056 9.82898 1.51421 9.8843 1.65357 9.8843ZM2.57509 10.7054C2.68263 10.7054 2.78575 10.6627 2.86179 10.5867C2.93783 10.5107 2.98054 10.4077 2.98054 10.3002C2.98054 10.1928 2.93783 10.0897 2.86179 10.0137C2.78575 9.93771 2.68263 9.89502 2.57509 9.89502C2.46756 9.89502 2.36443 9.93771 2.2884 10.0137C2.21236 10.0897 2.16964 10.1928 2.16964 10.3002C2.16964 10.4077 2.21236 10.5107 2.2884 10.5867C2.36443 10.6627 2.46756 10.7054 2.57509 10.7054ZM1.16735 11.4521C1.24789 11.4534 1.32789 11.4387 1.40268 11.4088C1.47747 11.3789 1.54556 11.3344 1.60299 11.278C1.66041 11.2215 1.70601 11.1542 1.73714 11.0799C1.76827 11.0057 1.7843 10.926 1.7843 10.8455C1.7843 10.765 1.76827 10.6853 1.73714 10.611C1.70601 10.5368 1.66041 10.4695 1.60299 10.413C1.54556 10.3566 1.47747 10.3121 1.40268 10.2822C1.32789 10.2523 1.24789 10.2376 1.16735 10.2389C1.00806 10.2414 0.85618 10.3065 0.744453 10.42C0.632727 10.5335 0.570111 10.6863 0.570111 10.8455C0.570111 11.0047 0.632727 11.1575 0.744453 11.271C0.85618 11.3845 1.00806 11.4495 1.16735 11.4521ZM2.95229 7.40273C3.04812 7.40273 3.14003 7.36468 3.20779 7.29696C3.27556 7.22924 3.31363 7.13738 3.31363 7.04161C3.31363 6.94584 3.27556 6.85398 3.20779 6.78626C3.14003 6.71854 3.04812 6.68049 2.95229 6.68049C2.85645 6.68049 2.76454 6.71854 2.69678 6.78626C2.62901 6.85398 2.59094 6.94584 2.59094 7.04161C2.59094 7.13738 2.62901 7.22924 2.69678 7.29696C2.76454 7.36468 2.85645 7.40273 2.95229 7.40273ZM1.6161 7.35585C1.75544 7.35585 1.88907 7.30053 1.98759 7.20207C2.08612 7.1036 2.14147 6.97006 2.14147 6.83081C2.14147 6.69156 2.08612 6.55802 1.98759 6.45956C1.88907 6.36109 1.75544 6.30578 1.6161 6.30578C1.47677 6.30578 1.34314 6.36109 1.24461 6.45956C1.14609 6.55802 1.09074 6.69156 1.09074 6.83081C1.09074 6.97006 1.14609 7.1036 1.24461 7.20207C1.34314 7.30053 1.47677 7.35585 1.6161 7.35585ZM2.10761 8.45712C2.21512 8.45712 2.31822 8.41443 2.39425 8.33846C2.47027 8.26249 2.51298 8.15944 2.51298 8.052C2.51298 7.94456 2.47027 7.84151 2.39425 7.76554C2.31822 7.68957 2.21512 7.64688 2.10761 7.64688C2.00009 7.64688 1.89699 7.68957 1.82097 7.76554C1.74494 7.84151 1.70224 7.94456 1.70224 8.052C1.70224 8.15944 1.74494 8.26249 1.82097 8.33846C1.89699 8.41443 2.00009 8.45712 2.10761 8.45712ZM0.597235 8.62399C0.677779 8.6253 0.757778 8.61058 0.83257 8.58068C0.907363 8.55078 0.975453 8.5063 1.03287 8.44984C1.0903 8.39338 1.1359 8.32606 1.16703 8.25181C1.19816 8.17756 1.21419 8.09786 1.21419 8.01736C1.21419 7.93686 1.19816 7.85716 1.16703 7.78291C1.1359 7.70866 1.0903 7.64134 1.03287 7.58488C0.975453 7.52842 0.907363 7.48394 0.83257 7.45404C0.757778 7.42414 0.677779 7.40942 0.597235 7.41073C0.437953 7.41331 0.286069 7.47836 0.174342 7.59185C0.0626158 7.70533 0 7.85816 0 8.01736C0 8.17656 0.0626158 8.32939 0.174342 8.44287C0.286069 8.55636 0.437953 8.62141 0.597235 8.62399ZM3.70315 5.54722C3.75123 5.54824 3.79903 5.53965 3.84375 5.52196C3.88846 5.50427 3.9292 5.47784 3.96356 5.44421C3.99792 5.41058 4.02522 5.37044 4.04386 5.32614C4.0625 5.28183 4.0721 5.23425 4.0721 5.18619C4.0721 5.13813 4.0625 5.09055 4.04386 5.04624C4.02522 5.00194 3.99792 4.96179 3.96356 4.92817C3.9292 4.89454 3.88846 4.86811 3.84375 4.85042C3.79903 4.83273 3.75123 4.82414 3.70315 4.82515C3.60731 4.82515 3.51541 4.8632 3.44764 4.93092C3.37988 4.99864 3.34181 5.09049 3.34181 5.18627C3.34181 5.28204 3.37988 5.37389 3.44764 5.44162C3.51541 5.50934 3.60731 5.54738 3.70315 5.54738V5.54722ZM2.54916 5.00499C2.61892 5.00621 2.68823 4.99353 2.75303 4.96769C2.81784 4.94185 2.87685 4.90337 2.92662 4.85449C2.97638 4.80562 3.01591 4.74733 3.04289 4.68302C3.06988 4.61872 3.08377 4.54969 3.08377 4.47996C3.08377 4.41022 3.06988 4.34119 3.04289 4.27689C3.01591 4.21258 2.97638 4.15429 2.92662 4.10542C2.87685 4.05654 2.81784 4.01806 2.75303 3.99222C2.68823 3.96638 2.61892 3.9537 2.54916 3.95492C2.41141 3.95732 2.28012 4.0137 2.18356 4.1119C2.08699 4.2101 2.03289 4.34227 2.03289 4.47996C2.03289 4.61764 2.08699 4.74981 2.18356 4.84801C2.28012 4.94621 2.41141 5.00259 2.54916 5.00499ZM2.53539 6.20162C2.6429 6.20162 2.74601 6.15894 2.82203 6.08296C2.89805 6.00699 2.94076 5.90395 2.94076 5.7965C2.94076 5.68906 2.89805 5.58602 2.82203 5.51004C2.74601 5.43407 2.6429 5.39139 2.53539 5.39139C2.42786 5.39139 2.32473 5.43408 2.24869 5.51007C2.17266 5.58605 2.12994 5.68912 2.12994 5.79658C2.12994 5.90405 2.17266 6.00711 2.24869 6.0831C2.32473 6.15909 2.42786 6.20178 2.53539 6.20178V6.20162ZM1.15358 5.79362C1.23412 5.79493 1.31412 5.7802 1.38891 5.75031C1.46371 5.72041 1.5318 5.67593 1.58922 5.61947C1.64664 5.56301 1.69224 5.49569 1.72337 5.42144C1.7545 5.34719 1.77053 5.26749 1.77053 5.18699C1.77053 5.10648 1.7545 5.02679 1.72337 4.95254C1.69224 4.87828 1.64664 4.81097 1.58922 4.75451C1.5318 4.69805 1.46371 4.65357 1.38891 4.62367C1.31412 4.59377 1.23412 4.57905 1.15358 4.58035C0.994295 4.58294 0.842411 4.64799 0.730685 4.76147C0.618958 4.87496 0.556343 5.02778 0.556343 5.18699C0.556343 5.34619 0.618958 5.49902 0.730685 5.6125C0.842411 5.72599 0.994295 5.79104 1.15358 5.79362ZM5.10737 4.12036C5.20321 4.12036 5.29512 4.08231 5.36288 4.01459C5.43065 3.94687 5.46872 3.85502 5.46872 3.75924C5.46872 3.66347 5.43065 3.57162 5.36288 3.50389C5.29512 3.43617 5.20321 3.39813 5.10737 3.39813C5.01154 3.39813 4.91963 3.43617 4.85186 3.50389C4.7841 3.57162 4.74603 3.66347 4.74603 3.75924C4.74603 3.85502 4.7841 3.94687 4.85186 4.01459C4.91963 4.08231 5.01154 4.12036 5.10737 4.12036ZM4.31168 3.19013C4.38145 3.19135 4.45075 3.17866 4.51556 3.15283C4.58037 3.12699 4.63938 3.08851 4.68914 3.03963C4.73891 2.99076 4.77844 2.93247 4.80542 2.86816C4.8324 2.80386 4.8463 2.73482 4.8463 2.66509C4.8463 2.59536 4.8324 2.52633 4.80542 2.46203C4.77844 2.39772 4.73891 2.33943 4.68914 2.29055C4.63938 2.24168 4.58037 2.2032 4.51556 2.17736C4.45075 2.15152 4.38145 2.13884 4.31168 2.14006C4.17394 2.14246 4.04264 2.19883 3.94608 2.29704C3.84952 2.39524 3.79541 2.52741 3.79541 2.66509C3.79541 2.80277 3.84952 2.93495 3.94608 3.03315C4.04264 3.13135 4.17394 3.18772 4.31168 3.19013ZM3.79488 4.28132C3.9024 4.28132 4.0055 4.23864 4.08152 4.16266C4.15755 4.08669 4.20025 3.98364 4.20025 3.8762C4.20025 3.76876 4.15755 3.66571 4.08152 3.58974C4.0055 3.51377 3.9024 3.47109 3.79488 3.47109C3.68737 3.47109 3.58427 3.51377 3.50824 3.58974C3.43222 3.66571 3.38951 3.76876 3.38951 3.8762C3.38951 3.98364 3.43222 4.08669 3.50824 4.16266C3.58427 4.23864 3.68737 4.28132 3.79488 4.28132ZM2.75136 3.39157C2.83191 3.39287 2.9119 3.37815 2.9867 3.34825C3.06149 3.31835 3.12958 3.27387 3.187 3.21741C3.24442 3.16095 3.29003 3.09364 3.32115 3.01939C3.35228 2.94513 3.36831 2.86544 3.36831 2.78493C3.36831 2.70443 3.35228 2.62473 3.32115 2.55048C3.29003 2.47623 3.24442 2.40891 3.187 2.35245C3.12958 2.29599 3.06149 2.25151 2.9867 2.22162C2.9119 2.19172 2.83191 2.17699 2.75136 2.1783C2.59208 2.18088 2.4402 2.24593 2.32847 2.35942C2.21674 2.4729 2.15413 2.62573 2.15413 2.78493C2.15413 2.94414 2.21674 3.09696 2.32847 3.21045C2.4402 3.32393 2.59208 3.38898 2.75136 3.39157ZM6.95075 3.33893C7.04658 3.33893 7.13849 3.30088 7.20626 3.23316C7.27402 3.16544 7.31209 3.07358 7.31209 2.97781C7.31209 2.88204 7.27402 2.79018 7.20626 2.72246C7.13849 2.65474 7.04658 2.61669 6.95075 2.61669C6.85491 2.61669 6.76301 2.65474 6.69524 2.72246C6.62748 2.79018 6.58941 2.88204 6.58941 2.97781C6.58941 3.07358 6.62748 3.16544 6.69524 3.23316C6.76301 3.30088 6.85491 3.33893 6.95075 3.33893ZM6.63503 2.18758C6.7048 2.1888 6.7741 2.17611 6.83891 2.15028C6.90372 2.12444 6.96273 2.08596 7.01249 2.03708C7.06226 1.98821 7.10179 1.92992 7.12877 1.86561C7.15575 1.80131 7.16965 1.73227 7.16965 1.66254C7.16965 1.59281 7.15575 1.52378 7.12877 1.45948C7.10179 1.39517 7.06226 1.33688 7.01249 1.288C6.96273 1.23913 6.90372 1.20065 6.83891 1.17481C6.7741 1.14897 6.7048 1.13629 6.63503 1.13751C6.49729 1.13991 6.36599 1.19628 6.26943 1.29449C6.17287 1.39269 6.11876 1.52486 6.11876 1.66254C6.11876 1.80023 6.17287 1.9324 6.26943 2.0306C6.36599 2.1288 6.49729 2.18517 6.63503 2.18758ZM5.69333 2.98853C5.80084 2.98853 5.90395 2.94585 5.97997 2.86987C6.05599 2.7939 6.0987 2.69086 6.0987 2.58341C6.0987 2.47597 6.05599 2.37293 5.97997 2.29695C5.90395 2.22098 5.80084 2.1783 5.69333 2.1783C5.58582 2.1783 5.48272 2.22098 5.40669 2.29695C5.33067 2.37293 5.28796 2.47597 5.28796 2.58341C5.28796 2.69086 5.33067 2.7939 5.40669 2.86987C5.48272 2.94585 5.58582 2.98853 5.69333 2.98853ZM5.14772 1.78326C5.22826 1.78457 5.30826 1.76984 5.38305 1.73994C5.45784 1.71005 5.52594 1.66557 5.58336 1.60911C5.64078 1.55265 5.68638 1.48533 5.71751 1.41108C5.74864 1.33683 5.76467 1.25713 5.76467 1.17663C5.76467 1.09612 5.74864 1.01643 5.71751 0.942175C5.68638 0.867925 5.64078 0.800608 5.58336 0.744147C5.52594 0.687687 5.45784 0.643211 5.38305 0.613311C5.30826 0.583412 5.22826 0.568687 5.14772 0.569994C4.98843 0.57258 4.83655 0.63763 4.72482 0.751114C4.6131 0.864599 4.55048 1.01742 4.55048 1.17663C4.55048 1.33583 4.6131 1.48866 4.72482 1.60214C4.83655 1.71563 4.98843 1.78068 5.14772 1.78326ZM8.95326 3.32165C9.04912 3.32165 9.14105 3.28359 9.20883 3.21585C9.27661 3.14812 9.31468 3.05625 9.31468 2.96045C9.31468 2.86466 9.27661 2.77278 9.20883 2.70505C9.14105 2.63731 9.04912 2.59925 8.95326 2.59925C8.85743 2.59925 8.76552 2.6373 8.69775 2.70502C8.62999 2.77274 8.59192 2.8646 8.59192 2.96037C8.59192 3.05614 8.62999 3.148 8.69775 3.21572C8.76552 3.28344 8.85743 3.32165 8.95326 3.32165ZM9.16507 2.15014C9.23483 2.15136 9.30414 2.13867 9.36895 2.11284C9.43376 2.087 9.49276 2.04852 9.54253 1.99964C9.5923 1.95077 9.63182 1.89248 9.65881 1.82817C9.68579 1.76387 9.69969 1.69483 9.69969 1.6251C9.69969 1.55537 9.68579 1.48634 9.65881 1.42204C9.63182 1.35773 9.5923 1.29944 9.54253 1.25057C9.49276 1.20169 9.43376 1.16321 9.36895 1.13737C9.30414 1.11153 9.23483 1.09885 9.16507 1.10007C9.02732 1.10247 8.89603 1.15884 8.79947 1.25705C8.70291 1.35525 8.6488 1.48742 8.6488 1.6251C8.6488 1.76279 8.70291 1.89496 8.79947 1.99316C8.89603 2.09136 9.02732 2.14774 9.16507 2.15014ZM7.94224 2.52133C8.04977 2.52133 8.1529 2.47864 8.22893 2.40266C8.30497 2.32667 8.34769 2.2236 8.34769 2.11614C8.34769 2.00867 8.30497 1.90561 8.22893 1.82962C8.1529 1.75363 8.04977 1.71094 7.94224 1.71094C7.83471 1.71094 7.73158 1.75363 7.65554 1.82962C7.57951 1.90561 7.53679 2.00867 7.53679 2.11614C7.53679 2.2236 7.57951 2.32667 7.65554 2.40266C7.73158 2.47864 7.83471 2.52133 7.94224 2.52133ZM7.97698 1.21335C8.05752 1.21466 8.13752 1.19993 8.21231 1.17003C8.28711 1.14013 8.3552 1.09566 8.41262 1.03919C8.47004 0.982734 8.51564 0.915417 8.54677 0.841167C8.5779 0.766917 8.59393 0.687218 8.59393 0.606714C8.59393 0.52621 8.5779 0.446511 8.54677 0.372261C8.51564 0.298011 8.47004 0.230694 8.41262 0.174233C8.3552 0.117772 8.28711 0.0732965 8.21231 0.0433972C8.13752 0.0134978 8.05752 -0.00122727 7.97698 8.00052e-05C7.8177 0.00266528 7.66581 0.0677153 7.55409 0.1812C7.44236 0.294685 7.37974 0.44751 7.37974 0.606714C7.37974 0.765918 7.44236 0.918743 7.55409 1.03223C7.66581 1.14571 7.8177 1.21076 7.97698 1.21335ZM10.8106 4.07204C10.9064 4.07204 10.9983 4.03398 11.0661 3.96625C11.1339 3.89851 11.172 3.80664 11.172 3.71084C11.172 3.61505 11.1339 3.52318 11.0661 3.45544C10.9983 3.3877 10.9064 3.34965 10.8106 3.34965C10.7147 3.34965 10.6228 3.38769 10.5551 3.45542C10.4873 3.52314 10.4492 3.61499 10.4492 3.71076C10.4492 3.80654 10.4873 3.89839 10.5551 3.96611C10.6228 4.03383 10.7147 4.07188 10.8106 4.07188V4.07204ZM11.5172 3.08245C11.587 3.08367 11.6563 3.07099 11.7211 3.04515C11.7859 3.01931 11.8449 2.98083 11.8947 2.93195C11.9445 2.88308 11.984 2.82479 12.011 2.76048C12.038 2.69618 12.0519 2.62714 12.0519 2.55741C12.0519 2.48768 12.038 2.41865 12.011 2.35435C11.984 2.29004 11.9445 2.23175 11.8947 2.18288C11.8449 2.134 11.7859 2.09552 11.7211 2.06968C11.6563 2.04384 11.587 2.03116 11.5172 2.03238C11.3795 2.03478 11.2482 2.09116 11.1516 2.18936C11.0551 2.28756 11.001 2.41973 11.001 2.55741C11.001 2.6951 11.0551 2.82727 11.1516 2.92547C11.2482 3.02367 11.3795 3.08005 11.5172 3.08245ZM10.1999 2.94885C10.3075 2.94885 10.4106 2.90617 10.4866 2.83019C10.5626 2.75422 10.6053 2.65118 10.6053 2.54373C10.6053 2.43629 10.5626 2.33325 10.4866 2.25727C10.4106 2.1813 10.3075 2.13862 10.1999 2.13862C10.0924 2.13862 9.98933 2.1813 9.91331 2.25727C9.83729 2.33325 9.79458 2.43629 9.79458 2.54373C9.79458 2.65118 9.83729 2.75422 9.91331 2.83019C9.98933 2.90617 10.0924 2.94885 10.1999 2.94885ZM10.8099 1.7695C10.8905 1.77081 10.9705 1.75608 11.0453 1.72619C11.1201 1.69629 11.1881 1.65181 11.2456 1.59535C11.303 1.53889 11.3486 1.47157 11.3797 1.39732C11.4108 1.32307 11.4269 1.24337 11.4269 1.16287C11.4269 1.08236 11.4108 1.00267 11.3797 0.928415C11.3486 0.854165 11.303 0.786848 11.2456 0.730388C11.1881 0.673927 11.1201 0.629451 11.0453 0.599552C10.9705 0.569652 10.8905 0.554927 10.8099 0.556234C10.6506 0.55882 10.4988 0.62387 10.387 0.737354C10.2753 0.850839 10.2127 1.00366 10.2127 1.16287C10.2127 1.32207 10.2753 1.4749 10.387 1.58838C10.4988 1.70187 10.6506 1.76692 10.8099 1.7695ZM12.2385 5.47523C12.3343 5.47523 12.4262 5.43718 12.494 5.36946C12.5618 5.30173 12.5998 5.20988 12.5998 5.11411C12.5998 5.01833 12.5618 4.92648 12.494 4.85876C12.4262 4.79104 12.3343 4.75299 12.2385 4.75299C12.1426 4.75299 12.0507 4.79104 11.983 4.85876C11.9152 4.92648 11.8771 5.01833 11.8771 5.11411C11.8771 5.20988 11.9152 5.30173 11.983 5.36946C12.0507 5.43718 12.1426 5.47523 12.2385 5.47523ZM13.3328 4.84387C13.4025 4.84509 13.4718 4.83241 13.5366 4.80657C13.6014 4.78073 13.6605 4.74225 13.7102 4.69338C13.76 4.6445 13.7995 4.58621 13.8265 4.5219C13.8535 4.4576 13.8674 4.38857 13.8674 4.31884C13.8674 4.24911 13.8535 4.18007 13.8265 4.11577C13.7995 4.05146 13.76 3.99317 13.7102 3.9443C13.6605 3.89542 13.6014 3.85694 13.5366 3.8311C13.4718 3.80527 13.4025 3.79258 13.3328 3.7938C13.195 3.79621 13.0637 3.85258 12.9672 3.95078C12.8706 4.04898 12.8165 4.18116 12.8165 4.31884C12.8165 4.45652 12.8706 4.58869 12.9672 4.68689C13.0637 4.7851 13.195 4.84147 13.3328 4.84387ZM12.1215 4.20772C12.229 4.20772 12.3321 4.16503 12.4081 4.08904C12.4842 4.01305 12.5269 3.90999 12.5269 3.80252C12.5269 3.69506 12.4842 3.59199 12.4081 3.51601C12.3321 3.44002 12.229 3.39733 12.1215 3.39733C12.0139 3.39733 11.9108 3.44002 11.8348 3.51601C11.7587 3.59199 11.716 3.69506 11.716 3.80252C11.716 3.90999 11.7587 4.01305 11.8348 4.08904C11.9108 4.16503 12.0139 4.20772 12.1215 4.20772ZM13.2135 3.36645C13.3745 3.36645 13.5289 3.30252 13.6428 3.18874C13.7566 3.07496 13.8206 2.92064 13.8206 2.75973C13.8206 2.59882 13.7566 2.4445 13.6428 2.33072C13.5289 2.21694 13.3745 2.15302 13.2135 2.15302C13.0542 2.1556 12.9023 2.22065 12.7906 2.33414C12.6789 2.44762 12.6162 2.60045 12.6162 2.75965C12.6162 2.91886 12.6789 3.07168 12.7906 3.18517C12.9023 3.29865 13.0542 3.3637 13.2135 3.36629V3.36645ZM13.0206 7.31745C13.1164 7.31745 13.2083 7.2794 13.2761 7.21168C13.3438 7.14396 13.3819 7.0521 13.3819 6.95633C13.3819 6.86056 13.3438 6.76871 13.2761 6.70098C13.2083 6.63326 13.1164 6.59521 13.0206 6.59521C12.9247 6.59521 12.8328 6.63326 12.7651 6.70098C12.6973 6.76871 12.6592 6.86056 12.6592 6.95633C12.6592 7.0521 12.6973 7.14396 12.7651 7.21168C12.8328 7.2794 12.9247 7.31745 13.0206 7.31745ZM14.3366 7.16577C14.4063 7.16699 14.4756 7.1543 14.5405 7.12847C14.6053 7.10263 14.6643 7.06415 14.714 7.01527C14.7638 6.9664 14.8033 6.90811 14.8303 6.8438C14.8573 6.7795 14.8712 6.71046 14.8712 6.64073C14.8712 6.571 14.8573 6.50197 14.8303 6.43767C14.8033 6.37336 14.7638 6.31507 14.714 6.26619C14.6643 6.21732 14.6053 6.17884 14.5405 6.153C14.4756 6.12716 14.4063 6.11448 14.3366 6.1157C14.1988 6.1181 14.0675 6.17447 13.971 6.27268C13.8744 6.37088 13.8203 6.50305 13.8203 6.64073C13.8203 6.77842 13.8744 6.91059 13.971 7.00879C14.0675 7.10699 14.1988 7.16336 14.3366 7.16577ZM13.4144 6.10498C13.5219 6.10498 13.6251 6.06229 13.7011 5.9863C13.7771 5.91031 13.8199 5.80725 13.8199 5.69978C13.8199 5.59232 13.7771 5.48926 13.7011 5.41327C13.6251 5.33728 13.5219 5.29459 13.4144 5.29459C13.3069 5.29459 13.2037 5.33728 13.1277 5.41327C13.0517 5.48926 13.009 5.59232 13.009 5.69978C13.009 5.80725 13.0517 5.91031 13.1277 5.9863C13.2037 6.06229 13.3069 6.10498 13.4144 6.10498ZM14.8228 5.76114C14.9033 5.76245 14.9833 5.74772 15.0581 5.71782C15.1329 5.68793 15.201 5.64345 15.2584 5.58699C15.3159 5.53053 15.3615 5.46321 15.3926 5.38896C15.4237 5.31471 15.4397 5.23501 15.4397 5.15451C15.4397 5.074 15.4237 4.99431 15.3926 4.92006C15.3615 4.84581 15.3159 4.77849 15.2584 4.72203C15.201 4.66557 15.1329 4.62109 15.0581 4.59119C14.9833 4.56129 14.9033 4.54657 14.8228 4.54787C14.6635 4.55046 14.5116 4.61551 14.3999 4.72899C14.2882 4.84248 14.2256 4.9953 14.2256 5.15451C14.2256 5.31371 14.2882 5.46654 14.3999 5.58002C14.5116 5.69351 14.6635 5.75856 14.8228 5.76114ZM13.0371 9.31871C13.1329 9.31871 13.2248 9.28066 13.2926 9.21294C13.3603 9.14522 13.3984 9.05336 13.3984 8.95759C13.3984 8.86182 13.3603 8.76997 13.2926 8.70224C13.2248 8.63452 13.1329 8.59647 13.0371 8.59647C12.9412 8.59647 12.8493 8.63452 12.7815 8.70224C12.7138 8.76997 12.6757 8.86182 12.6757 8.95759C12.6757 9.05336 12.7138 9.14522 12.7815 9.21294C12.8493 9.28066 12.9412 9.31871 13.0371 9.31871ZM14.374 9.69438C14.5134 9.69438 14.647 9.63906 14.7456 9.54058C14.8441 9.4421 14.8995 9.30854 14.8995 9.16927C14.8995 9.03 14.8441 8.89643 14.7456 8.79796C14.647 8.69948 14.5134 8.64415 14.374 8.64415C14.2363 8.64656 14.105 8.70293 14.0084 8.80113C13.9119 8.89933 13.8578 9.03151 13.8578 9.16919C13.8578 9.30687 13.9119 9.43904 14.0084 9.53725C14.105 9.63545 14.2363 9.69198 14.374 9.69438ZM13.8825 8.35248C13.9901 8.35248 14.0932 8.30979 14.1692 8.2338C14.2453 8.15781 14.288 8.05475 14.288 7.94728C14.288 7.83982 14.2453 7.73675 14.1692 7.66076C14.0932 7.58477 13.9901 7.54208 13.8825 7.54208C13.775 7.54208 13.6719 7.58477 13.5958 7.66076C13.5198 7.73675 13.4771 7.83982 13.4771 7.94728C13.4771 8.05475 13.5198 8.15781 13.5958 8.2338C13.6719 8.30979 13.775 8.35248 13.8825 8.35248ZM15.3929 8.58863C15.5539 8.58863 15.7083 8.52471 15.8222 8.41093C15.936 8.29715 16 8.14283 16 7.98192C16 7.82101 15.936 7.66669 15.8222 7.55291C15.7083 7.43913 15.5539 7.37521 15.3929 7.37521C15.2319 7.37521 15.0775 7.43913 14.9636 7.55291C14.8498 7.66669 14.7858 7.82101 14.7858 7.98192C14.7858 8.14283 14.8498 8.29715 14.9636 8.41093C15.0775 8.52471 15.2319 8.58863 15.3929 8.58863ZM12.2862 11.1748C12.3336 11.1748 12.3806 11.1655 12.4245 11.1474C12.4683 11.1292 12.5081 11.1026 12.5417 11.0691C12.5753 11.0355 12.6019 10.9957 12.62 10.9519C12.6382 10.9081 12.6475 10.8612 12.6475 10.8137C12.6475 10.7663 12.6382 10.7194 12.62 10.6755C12.6019 10.6317 12.5753 10.5919 12.5417 10.5584C12.5081 10.5249 12.4683 10.4983 12.4245 10.4801C12.3806 10.462 12.3336 10.4526 12.2862 10.4526C12.1904 10.4526 12.0985 10.4907 12.0307 10.5584C11.9629 10.6261 11.9249 10.718 11.9249 10.8137C11.9249 10.9095 11.9629 11.0014 12.0307 11.0691C12.0985 11.1368 12.1904 11.1748 12.2862 11.1748ZM13.4403 12.0451C13.5101 12.0463 13.5794 12.0336 13.6442 12.0078C13.709 11.9819 13.768 11.9435 13.8178 11.8946C13.8676 11.8457 13.9071 11.7874 13.9341 11.7231C13.9611 11.6588 13.975 11.5898 13.975 11.52C13.975 11.4503 13.9611 11.3813 13.9341 11.317C13.9071 11.2527 13.8676 11.1944 13.8178 11.1455C13.768 11.0966 13.709 11.0582 13.6442 11.0323C13.5794 11.0065 13.5101 10.9938 13.4403 10.995C13.3026 10.9974 13.1713 11.0538 13.0747 11.152C12.9782 11.2502 12.9241 11.3824 12.9241 11.52C12.9241 11.6577 12.9782 11.7899 13.0747 11.8881C13.1713 11.9863 13.3026 12.0427 13.4403 12.0451ZM13.4548 10.6086C13.5623 10.6086 13.6654 10.5659 13.7414 10.4899C13.8175 10.4139 13.8602 10.3109 13.8602 10.2034C13.8602 10.096 13.8175 9.99289 13.7414 9.9169C13.6654 9.84091 13.5623 9.79822 13.4548 9.79822C13.3472 9.79822 13.2441 9.84091 13.1681 9.9169C13.092 9.99289 13.0493 10.096 13.0493 10.2034C13.0493 10.3109 13.092 10.4139 13.1681 10.4899C13.2441 10.5659 13.3472 10.6086 13.4548 10.6086ZM14.8366 11.4196C14.9171 11.421 14.9971 11.4062 15.0719 11.3763C15.1467 11.3464 15.2148 11.302 15.2722 11.2455C15.3296 11.189 15.3752 11.1217 15.4064 11.0475C15.4375 10.9732 15.4535 10.8935 15.4535 10.813C15.4535 10.7325 15.4375 10.6528 15.4064 10.5786C15.3752 10.5043 15.3296 10.437 15.2722 10.3805C15.2148 10.3241 15.1467 10.2796 15.0719 10.2497C14.9971 10.2198 14.9171 10.2051 14.8366 10.2064C14.6773 10.209 14.5254 10.274 14.4137 10.3875C14.3019 10.501 14.2393 10.6538 14.2393 10.813C14.2393 10.9722 14.3019 11.125 14.4137 11.2385C14.5254 11.352 14.6773 11.4171 14.8366 11.4196ZM10.8828 12.6019C10.9786 12.6019 11.0705 12.5638 11.1383 12.4961C11.206 12.4284 11.2441 12.3365 11.2441 12.2408C11.2441 12.145 11.206 12.0531 11.1383 11.9854C11.0705 11.9177 10.9786 11.8796 10.8828 11.8796C10.7869 11.8796 10.695 11.9177 10.6273 11.9854C10.5595 12.0531 10.5214 12.145 10.5214 12.2408C10.5214 12.3365 10.5595 12.4284 10.6273 12.4961C10.695 12.5638 10.7869 12.6019 10.8828 12.6019ZM11.6785 13.8591C11.7485 13.8609 11.8182 13.8486 11.8835 13.823C11.9487 13.7974 12.0082 13.759 12.0584 13.7101C12.1085 13.6611 12.1484 13.6027 12.1756 13.5381C12.2028 13.4736 12.2169 13.4042 12.2169 13.3342C12.2169 13.2641 12.2028 13.1948 12.1756 13.1302C12.1484 13.0657 12.1085 13.0072 12.0584 12.9583C12.0082 12.9094 11.9487 12.871 11.8835 12.8454C11.8182 12.8198 11.7485 12.8075 11.6785 12.8092C11.5407 12.8116 11.4094 12.868 11.3129 12.9662C11.2163 13.0644 11.1622 13.1966 11.1622 13.3343C11.1622 13.4719 11.2163 13.6041 11.3129 13.7023C11.4094 13.8005 11.5407 13.8567 11.6785 13.8591ZM12.1953 12.5289C12.3028 12.5289 12.4059 12.4862 12.4819 12.4103C12.5579 12.3343 12.6006 12.2312 12.6006 12.1238C12.6006 12.0164 12.5579 11.9133 12.4819 11.8373C12.4059 11.7614 12.3028 11.7187 12.1953 11.7187C12.0877 11.7187 11.9846 11.7614 11.9086 11.8373C11.8326 11.9133 11.7899 12.0164 11.7899 12.1238C11.7899 12.2312 11.8326 12.3343 11.9086 12.4103C11.9846 12.4862 12.0877 12.5289 12.1953 12.5289ZM13.2388 13.8217C13.3193 13.823 13.3993 13.8083 13.4741 13.7784C13.5489 13.7485 13.617 13.704 13.6744 13.6475C13.7318 13.5911 13.7774 13.5238 13.8086 13.4495C13.8397 13.3753 13.8557 13.2956 13.8557 13.2151C13.8557 13.1346 13.8397 13.0549 13.8086 12.9806C13.7774 12.9064 13.7318 12.839 13.6744 12.7826C13.617 12.7261 13.5489 12.6817 13.4741 12.6518C13.3993 12.6219 13.3193 12.6071 13.2388 12.6084C13.0795 12.611 12.9276 12.6761 12.8159 12.7896C12.7042 12.903 12.6415 13.0559 12.6415 13.2151C12.6415 13.3743 12.7042 13.5271 12.8159 13.6406C12.9276 13.7541 13.0795 13.8191 13.2388 13.8217ZM9.03859 13.3833C9.13443 13.3833 9.22634 13.3453 9.2941 13.2775C9.36187 13.2098 9.39994 13.118 9.39994 13.0222C9.39994 12.9264 9.36187 12.8346 9.2941 12.7668C9.22634 12.6991 9.13443 12.6611 9.03859 12.6611C8.94276 12.6611 8.85085 12.6991 8.78308 12.7668C8.71532 12.8346 8.67725 12.9264 8.67725 13.0222C8.67725 13.118 8.71532 13.2098 8.78308 13.2775C8.85085 13.3453 8.94276 13.3833 9.03859 13.3833ZM9.35511 14.8623C9.42487 14.8635 9.49418 14.8509 9.55899 14.825C9.62379 14.7992 9.6828 14.7607 9.73257 14.7118C9.78233 14.663 9.82186 14.6047 9.84884 14.5404C9.87583 14.4761 9.88972 14.407 9.88972 14.3373C9.88972 14.2676 9.87583 14.1985 9.84884 14.1342C9.82186 14.0699 9.78233 14.0116 9.73257 13.9628C9.6828 13.9139 9.62379 13.8754 9.55899 13.8496C9.49418 13.8237 9.42487 13.811 9.35511 13.8123C9.21575 13.8123 9.0821 13.8676 8.98356 13.9661C8.88502 14.0645 8.82967 14.1981 8.82967 14.3374C8.82967 14.4766 8.88502 14.6102 8.98356 14.7087C9.0821 14.8072 9.21575 14.8623 9.35511 14.8623ZM10.2968 13.8211C10.4043 13.8211 10.5075 13.7784 10.5835 13.7024C10.6595 13.6264 10.7023 13.5233 10.7023 13.4159C10.7023 13.3084 10.6595 13.2053 10.5835 13.1293C10.5075 13.0534 10.4043 13.0107 10.2968 13.0107C10.1893 13.0107 10.0861 13.0534 10.0101 13.1293C9.93408 13.2053 9.89136 13.3084 9.89136 13.4159C9.89136 13.5233 9.93408 13.6264 10.0101 13.7024C10.0861 13.7784 10.1893 13.8211 10.2968 13.8211ZM10.8424 15.4302C11.0034 15.4302 11.1579 15.3662 11.2717 15.2525C11.3856 15.1387 11.4495 14.9844 11.4495 14.8235C11.4495 14.6625 11.3856 14.5082 11.2717 14.3944C11.1579 14.2807 11.0034 14.2167 10.8424 14.2167C10.6814 14.2167 10.527 14.2807 10.4131 14.3944C10.2993 14.5082 10.2353 14.6625 10.2353 14.8235C10.2353 14.9844 10.2993 15.1387 10.4131 15.2525C10.527 15.3662 10.6814 15.4302 10.8424 15.4302Z" fill="white"/>
  </g>
  <defs>
    <clipPath id="clip0_805_1291">
      <rect width="16" height="16" fill="white"/>
    </clipPath>
  </defs>
</svg>