<svg width="432" height="419" viewBox="0 0 432 419" fill="none" xmlns="http://www.w3.org/2000/svg">
<path d="M573.315 465.932L483.9 376.522M573.315 465.932V322.876M573.315 465.932H430.252M-142 465.932H1.06297M-142 465.932L-52.5857 376.522M-142 465.932V322.876M483.9 376.522V269.23M483.9 376.522H376.603M483.9 376.522L394.486 287.112M-52.5857 376.522H54.7116M-52.5857 376.522L36.8287 287.112M-52.5857 376.522V269.23M394.486 287.112H322.955M394.486 287.112L305.072 197.702M394.486 287.112V215.584M36.8287 287.112H108.36M36.8287 287.112V215.584M36.8287 287.112L88.6395 235.303L126.243 197.702M305.072 197.702H269.306M305.072 197.702V161.938M126.243 197.702V161.938M126.243 197.702H162.009M233.54 197.702H197.775M233.54 197.702H269.306M233.54 197.702L251.423 287.112M197.775 197.702H162.009M197.775 197.702L179.892 287.112M269.306 197.702L322.955 287.112M305.072 161.938V126.174M305.072 161.938L394.486 215.584M305.072 126.174V90.4099M305.072 126.174L394.486 144.056M305.072 54.646V90.4099M305.072 54.646V18.882H269.306H233.54H197.775H162.009H126.243V54.646M305.072 54.646L394.486 1V72.528M305.072 90.4099L394.486 72.528M126.243 54.646V90.4099M126.243 54.646L36.8287 1V72.528M126.243 90.4099V126.174M126.243 90.4099L36.8287 72.528M126.243 161.938V126.174M126.243 161.938L36.8287 215.584M126.243 126.174L36.8287 144.056M162.009 197.702L108.36 287.112M108.36 287.112L54.7116 376.522M108.36 287.112H179.892M394.486 215.584L483.9 269.23M394.486 215.584V144.056M1.06297 465.932L54.7116 376.522M1.06297 465.932H144.126M54.7116 376.522H162.009M483.9 269.23L573.315 322.876M483.9 269.23V161.938M573.315 322.876V179.82M322.955 287.112H251.423M322.955 287.112L376.603 376.522M179.892 287.112H251.423M179.892 287.112L162.009 376.522M251.423 287.112L269.306 376.522M394.486 144.056V72.528M394.486 144.056L483.9 161.938M394.486 72.528L483.9 54.646M36.8287 72.528V144.056M36.8287 72.528L-52.5857 54.646M36.8287 215.584V144.056M36.8287 215.584L-52.5857 269.23M36.8287 144.056L-52.5857 161.938M-52.5857 54.646V161.938M-52.5857 54.646L-142 36.764V179.82M-52.5857 161.938V269.23M-52.5857 161.938L-142 179.82M483.9 161.938V54.646M483.9 161.938L573.315 179.82M483.9 54.646L573.315 36.764V179.82M269.306 376.522H376.603M269.306 376.522H162.009M269.306 376.522L287.189 465.932M376.603 376.522L430.252 465.932M162.009 376.522L144.126 465.932M-52.5857 269.23L-142 322.876M144.126 465.932H287.189M287.189 465.932H430.252M-142 179.82V322.876" stroke="url(#paint0_radial_5029_1315)" stroke-linejoin="round"/>
<defs>
<radialGradient id="paint0_radial_5029_1315" cx="0" cy="0" r="1" gradientUnits="userSpaceOnUse" gradientTransform="translate(215.657 108.292) rotate(90) scale(357.64 507.368)">
<stop offset="0.341397" stop-color="#DFE1E7" stop-opacity="0"/>
<stop offset="0.615517" stop-color="#DFE1E7"/>
</radialGradient>
</defs>
</svg>
