<svg width="1440" height="800" viewBox="0 0 1440 800" fill="none" xmlns="http://www.w3.org/2000/svg">
<mask id="mask0_1288_12536" style="mask-type:alpha" maskUnits="userSpaceOnUse" x="0" y="-46" width="1440" height="880">
<rect y="-46" width="1440" height="880" fill="url(#paint0_radial_1288_12536)"/>
</mask>
<g mask="url(#mask0_1288_12536)">
<rect x="-22.5" y="-46.5" width="135" height="135" stroke="black" stroke-opacity="0.06"/>
<rect x="112.5" y="-46.5" width="135" height="135" stroke="black" stroke-opacity="0.06"/>
<rect x="247.5" y="-46.5" width="135" height="135" stroke="black" stroke-opacity="0.06"/>
<rect x="382.5" y="-46.5" width="135" height="135" stroke="black" stroke-opacity="0.06"/>
<rect x="517.5" y="-46.5" width="135" height="135" stroke="black" stroke-opacity="0.06"/>
<rect x="652.5" y="-46.5" width="135" height="135" stroke="black" stroke-opacity="0.06"/>
<rect x="787.5" y="-46.5" width="135" height="135" stroke="black" stroke-opacity="0.06"/>
<rect x="922.5" y="-46.5" width="135" height="135" stroke="black" stroke-opacity="0.06"/>
<rect x="1057.5" y="-46.5" width="135" height="135" stroke="black" stroke-opacity="0.06"/>
<rect x="1192.5" y="-46.5" width="135" height="135" stroke="black" stroke-opacity="0.06"/>
<rect x="1327.5" y="-46.5" width="135" height="135" stroke="black" stroke-opacity="0.06"/>
<rect x="-22.5" y="88.5" width="135" height="135" stroke="black" stroke-opacity="0.06"/>
<rect x="112.5" y="88.5" width="135" height="135" stroke="black" stroke-opacity="0.06"/>
<rect x="247.5" y="88.5" width="135" height="135" stroke="black" stroke-opacity="0.06"/>
<rect x="382.5" y="88.5" width="135" height="135" stroke="black" stroke-opacity="0.06"/>
<rect x="517.5" y="88.5" width="135" height="135" stroke="black" stroke-opacity="0.06"/>
<rect x="652.5" y="88.5" width="135" height="135" stroke="black" stroke-opacity="0.06"/>
<rect x="787.5" y="88.5" width="135" height="135" stroke="black" stroke-opacity="0.06"/>
<rect x="922.5" y="88.5" width="135" height="135" stroke="black" stroke-opacity="0.06"/>
<rect x="1057.5" y="88.5" width="135" height="135" stroke="black" stroke-opacity="0.06"/>
<rect x="1192.5" y="88.5" width="135" height="135" stroke="black" stroke-opacity="0.06"/>
<rect x="1327.5" y="88.5" width="135" height="135" stroke="black" stroke-opacity="0.06"/>
<rect x="-22.5" y="223.5" width="135" height="135" stroke="black" stroke-opacity="0.06"/>
<rect x="112.5" y="223.5" width="135" height="135" stroke="black" stroke-opacity="0.06"/>
<rect x="247.5" y="223.5" width="135" height="135" stroke="black" stroke-opacity="0.06"/>
<rect x="382.5" y="223.5" width="135" height="135" stroke="black" stroke-opacity="0.06"/>
<rect x="517.5" y="223.5" width="135" height="135" stroke="black" stroke-opacity="0.06"/>
<rect x="652.5" y="223.5" width="135" height="135" stroke="black" stroke-opacity="0.06"/>
<rect x="787.5" y="223.5" width="135" height="135" stroke="black" stroke-opacity="0.06"/>
<rect x="922.5" y="223.5" width="135" height="135" stroke="black" stroke-opacity="0.06"/>
<rect x="1057.5" y="223.5" width="135" height="135" stroke="black" stroke-opacity="0.06"/>
<rect x="1192.5" y="223.5" width="135" height="135" stroke="black" stroke-opacity="0.06"/>
<rect x="1327.5" y="223.5" width="135" height="135" stroke="black" stroke-opacity="0.06"/>
<rect x="-22.5" y="358.5" width="135" height="135" stroke="black" stroke-opacity="0.06"/>
<rect x="112.5" y="358.5" width="135" height="135" stroke="black" stroke-opacity="0.06"/>
<rect x="247.5" y="358.5" width="135" height="135" stroke="black" stroke-opacity="0.06"/>
<rect x="382.5" y="358.5" width="135" height="135" stroke="black" stroke-opacity="0.06"/>
<rect x="517.5" y="358.5" width="135" height="135" stroke="black" stroke-opacity="0.06"/>
<rect x="652.5" y="358.5" width="135" height="135" stroke="black" stroke-opacity="0.06"/>
<rect x="787.5" y="358.5" width="135" height="135" stroke="black" stroke-opacity="0.06"/>
<rect x="922.5" y="358.5" width="135" height="135" stroke="black" stroke-opacity="0.06"/>
<rect x="1057.5" y="358.5" width="135" height="135" stroke="black" stroke-opacity="0.06"/>
<rect x="1192.5" y="358.5" width="135" height="135" stroke="black" stroke-opacity="0.06"/>
<rect x="1327.5" y="358.5" width="135" height="135" stroke="black" stroke-opacity="0.06"/>
<rect x="-22.5" y="493.5" width="135" height="135" stroke="black" stroke-opacity="0.06"/>
<rect x="112.5" y="493.5" width="135" height="135" stroke="black" stroke-opacity="0.06"/>
<rect x="247.5" y="493.5" width="135" height="135" stroke="black" stroke-opacity="0.06"/>
<rect x="382.5" y="493.5" width="135" height="135" stroke="black" stroke-opacity="0.06"/>
<rect x="517.5" y="493.5" width="135" height="135" stroke="black" stroke-opacity="0.06"/>
<rect x="652.5" y="493.5" width="135" height="135" stroke="black" stroke-opacity="0.06"/>
<rect x="787.5" y="493.5" width="135" height="135" stroke="black" stroke-opacity="0.06"/>
<rect x="922.5" y="493.5" width="135" height="135" stroke="black" stroke-opacity="0.06"/>
<rect x="1057.5" y="493.5" width="135" height="135" stroke="black" stroke-opacity="0.06"/>
<rect x="1192.5" y="493.5" width="135" height="135" stroke="black" stroke-opacity="0.06"/>
<rect x="1327.5" y="493.5" width="135" height="135" stroke="black" stroke-opacity="0.06"/>
<rect x="-22.5" y="628.5" width="135" height="135" stroke="black" stroke-opacity="0.06"/>
<rect x="112.5" y="628.5" width="135" height="135" stroke="black" stroke-opacity="0.06"/>
<rect x="247.5" y="628.5" width="135" height="135" stroke="black" stroke-opacity="0.06"/>
<rect x="382.5" y="628.5" width="135" height="135" stroke="black" stroke-opacity="0.06"/>
<rect x="517.5" y="628.5" width="135" height="135" stroke="black" stroke-opacity="0.06"/>
<rect x="652.5" y="628.5" width="135" height="135" stroke="black" stroke-opacity="0.06"/>
<rect x="787.5" y="628.5" width="135" height="135" stroke="black" stroke-opacity="0.06"/>
<rect x="922.5" y="628.5" width="135" height="135" stroke="black" stroke-opacity="0.06"/>
<rect x="1057.5" y="628.5" width="135" height="135" stroke="black" stroke-opacity="0.06"/>
<rect x="1192.5" y="628.5" width="135" height="135" stroke="black" stroke-opacity="0.06"/>
<rect x="1327.5" y="628.5" width="135" height="135" stroke="black" stroke-opacity="0.06"/>
<rect x="-22.5" y="763.5" width="135" height="135" stroke="black" stroke-opacity="0.06"/>
<rect x="112.5" y="763.5" width="135" height="135" stroke="black" stroke-opacity="0.06"/>
<rect x="247.5" y="763.5" width="135" height="135" stroke="black" stroke-opacity="0.06"/>
<rect x="382.5" y="763.5" width="135" height="135" stroke="black" stroke-opacity="0.06"/>
<rect x="517.5" y="763.5" width="135" height="135" stroke="black" stroke-opacity="0.06"/>
<rect x="652.5" y="763.5" width="135" height="135" stroke="black" stroke-opacity="0.06"/>
<rect x="787.5" y="763.5" width="135" height="135" stroke="black" stroke-opacity="0.06"/>
<rect x="922.5" y="763.5" width="135" height="135" stroke="black" stroke-opacity="0.06"/>
<rect x="1057.5" y="763.5" width="135" height="135" stroke="black" stroke-opacity="0.06"/>
<rect x="1192.5" y="763.5" width="135" height="135" stroke="black" stroke-opacity="0.06"/>
<rect x="1327.5" y="763.5" width="135" height="135" stroke="black" stroke-opacity="0.06"/>
</g>
<defs>
<radialGradient id="paint0_radial_1288_12536" cx="0" cy="0" r="1" gradientUnits="userSpaceOnUse" gradientTransform="translate(720 -46) rotate(90) scale(880 1440)">
<stop stop-color="#D9D9D9"/>
<stop offset="0.656818" stop-color="#D9D9D9" stop-opacity="0"/>
</radialGradient>
</defs>
</svg>
