<svg width="24" height="24" viewBox="0 0 24 24" fill="none" xmlns="http://www.w3.org/2000/svg">
<g id="image-8 1" clip-path="url(#clip0_766_3187)">
<g id="Group">
<path id="Vector" d="M11.1314 0.240976V0.289169H10.6529H10.1743V0.337362V0.385555H9.8888H9.60408L9.60167 0.431337L9.59925 0.477924L9.50515 0.480333L9.41105 0.482742L9.40864 0.528526L9.40623 0.57431L9.21561 0.576719L9.02499 0.578325L9.02258 0.624912L9.02017 0.670694L8.82955 0.673105L8.63813 0.674711V0.722904V0.771097H8.4451H8.25207V0.81929V0.867481H8.1073H7.96253V0.959049V1.04981L7.89657 1.05463C7.85958 1.05784 7.79443 1.06025 7.7518 1.06025H7.67298V1.10443V1.1478L7.62714 1.15021L7.58049 1.15262L7.57807 1.19841L7.57566 1.24499H7.48397H7.39228L7.38907 1.19841L7.38665 1.15262L7.38505 1.20242L7.38344 1.25303H7.33518H7.28692V1.2972V1.34138H7.23866H7.19041V1.38957V1.43776H7.06816C7.0006 1.43776 6.91534 1.44017 6.87915 1.44339L6.8132 1.4482L6.81078 1.49319L6.80837 1.53816L6.71025 1.54058L6.61132 1.54298V1.58555V1.62893L6.51883 1.63455L6.42633 1.64017V1.68274V1.72451L6.35234 1.73013C6.31212 1.73254 6.24698 1.73495 6.20757 1.73495H6.13679V1.78314V1.83134H6.08853H6.04027V1.87551V1.91969H5.99202H5.94376V1.96788V2.01608H5.84724H5.75073V2.06427V2.11246H5.65824H5.56574V2.16065V2.20885H5.51346H5.46118V2.25704V2.30523H5.36467H5.26816V2.34941V2.39359H5.22392H5.18049L5.17807 2.44339L5.17566 2.49399L5.08156 2.4964L4.98665 2.49881V2.5462V2.59439H4.9384H4.89014V2.63776V2.68114L4.79362 2.68676L4.69711 2.69238V2.73977V2.78716H4.64885H4.60059V2.83535V2.88355H4.55234H4.50408V2.93174V2.97993H4.45582H4.40757V3.02812V3.07632H4.35931H4.31105V3.11969V3.16306L4.21454 3.16869L4.11802 3.17431V3.2217V3.26909H4.06976H4.02151V3.31728V3.36547H3.97325H3.92499V3.41367V3.46186H3.88076H3.83732L3.83491 3.50764L3.8325 3.55423L3.78263 3.55664L3.73196 3.55905V3.60242V3.6458L3.68612 3.6482L3.63947 3.65061L3.63706 3.6964L3.63464 3.74298H3.59121H3.54778L3.54537 3.79278L3.54295 3.84339L3.49711 3.84579L3.45046 3.84821V3.89158V3.93575H3.4022H3.35395V3.98395V4.03214H3.30569H3.25743V4.08033V4.12853H3.20917H3.16092V4.17672V4.22491H3.11346H3.06601L3.06038 4.3213L3.05475 4.41768H3.01132H2.96869L2.96628 4.46347L2.96387 4.51005L2.91802 4.51246L2.87137 4.51487V4.56226V4.61045H2.82311H2.77486V4.65865V4.70684H2.7274H2.67995L2.67432 4.79921L2.66869 4.89158H2.62526H2.58263L2.58022 4.94138L2.57781 4.99198L2.53196 4.99439L2.48531 4.9968V5.04419V5.09238H2.43706H2.3888V5.14057V5.18877H2.34054H2.29228V5.28114V5.37351H2.24403H2.19577V5.46989V5.56628H2.14751H2.09925V5.61447V5.66266H2.051H2.00274V5.71487V5.76708H1.95448H1.90622V5.85945V5.95182H1.85797H1.80971V6.0482V6.14459H1.76145H1.7132V6.24098V6.33736H1.66494H1.61668V6.38555V6.43375H1.57325H1.52982L1.52419 6.53013L1.51856 6.62652H1.47593H1.4333L1.42767 6.7229L1.42204 6.81929H1.37941H1.33679L1.33116 6.91567L1.32553 7.01206H1.2829H1.24108L1.23545 7.08596C1.23303 7.12612 1.23062 7.18957 1.23062 7.22652V7.29318H1.18719H1.14376L1.13813 7.38957L1.1325 7.48596H1.08987H1.04805L1.04161 7.58234L1.03598 7.67873H0.992552H0.94912V7.74941C0.94912 7.78877 0.946707 7.85383 0.944294 7.89399L0.938664 7.96788H0.896037H0.852605V8.03857C0.852605 8.07792 0.850192 8.14298 0.847779 8.18314L0.842149 8.25704H0.799522H0.75609V8.32772C0.75609 8.36708 0.753678 8.43214 0.751265 8.4723L0.745635 8.5462H0.703007H0.659576V8.61206C0.659576 8.64901 0.657163 8.71407 0.653946 8.75664L0.64912 8.83535H0.605688H0.563061V8.95744C0.563061 9.02491 0.560648 9.11005 0.557431 9.1462L0.552605 9.21286H0.509978H0.466546V9.40563V9.5984H0.418289H0.370031V9.79278C0.370031 9.90041 0.367619 10.0506 0.364401 10.1261L0.359576 10.2651H0.316144H0.273517V10.5084C0.273517 10.6426 0.271104 10.8185 0.267887 10.898L0.263061 11.0442H0.219629H0.177002V12.0964V13.1486H0.220434H0.263061L0.268691 13.2225C0.271104 13.2627 0.273517 13.4362 0.273517 13.608V13.9197H0.316948H0.359576L0.365206 13.9936C0.367619 14.0337 0.370031 14.1422 0.370031 14.2345V14.4016H0.413463H0.45609L0.46172 14.4755C0.464133 14.5157 0.466546 14.6241 0.466546 14.7165V14.8835H0.509978H0.552605L0.557431 14.9494C0.560648 14.9864 0.563061 15.0731 0.563061 15.1422V15.2691H0.606493H0.64912L0.65475 15.343C0.657163 15.3831 0.659576 15.4466 0.659576 15.4835V15.5502H0.702203H0.745635L0.75046 15.6281C0.753678 15.6715 0.75609 15.7366 0.75609 15.7727V15.8394H0.799522H0.842149L0.847779 15.9133C0.850192 15.9534 0.852605 16.0185 0.852605 16.0578V16.1285H0.896037H0.938664L0.944294 16.2024C0.946707 16.2426 0.94912 16.3076 0.94912 16.347V16.4177H0.992552H1.03598L1.04161 16.5141L1.04724 16.6105H1.09067H1.1333L1.13572 16.7052L1.13813 16.7992L1.18397 16.8016L1.23062 16.804V16.8707C1.23062 16.9076 1.23303 16.9703 1.23545 17.0105L1.24108 17.0843H1.2829H1.32553L1.33116 17.1807L1.33679 17.2771H1.37941H1.42124L1.42767 17.3735L1.4333 17.4699H1.47593H1.51775L1.52419 17.5663L1.52982 17.6627H1.57244H1.61588L1.61829 17.7125L1.6207 17.7631L1.66655 17.7655L1.7132 17.7679V17.8594V17.9518H1.76145H1.80971V18.0482V18.1446H1.85797H1.90622V18.241V18.3374H1.95448H2.00274V18.3856V18.4337H2.051H2.09925V18.5261V18.6177L2.1459 18.6201L2.19175 18.6225L2.19416 18.6723L2.19657 18.7229H2.24403H2.29228V18.8153V18.9076H2.34054H2.3888V18.9599V19.0121H2.43706H2.48531V19.1044V19.1968H2.53357H2.58183V19.245V19.2932H2.63009H2.67834V19.3414V19.3888L2.72499 19.3912L2.77084 19.3936L2.77325 19.4394L2.77566 19.486H2.81909H2.86252L2.86494 19.5358L2.86735 19.5864L2.9132 19.5888L2.95824 19.5912L2.96387 19.6827L2.9695 19.7751H3.01695H3.0644V19.8233V19.8707L3.11105 19.8731L3.15689 19.8755L3.15931 19.9221L3.16172 19.9679H3.20515H3.24939V20.0161V20.0643H3.29765H3.3459V20.1125V20.1607H3.39416H3.44242V20.2088V20.257H3.49067H3.53893V20.3052V20.3534H3.58719H3.63545V20.4016V20.4498H3.6837H3.73196V20.498V20.5462H3.78022H3.82848V20.5944V20.6426H3.87673H3.92499V20.6908V20.739H3.97325H4.02151V20.7872V20.8354H4.06976H4.11802V20.8795V20.9237H4.16628H4.21454V20.9719V21.0201H4.26279H4.31105V21.0675V21.1149L4.40354 21.1205L4.49523 21.1261L4.49765 21.1711L4.50006 21.2169L4.55073 21.2193L4.60059 21.2217V21.2651V21.3084L4.64724 21.3109L4.69309 21.3133L4.6955 21.3599L4.69791 21.4056H4.74537H4.79362V21.453V21.5004L4.88612 21.506L4.97861 21.5117V21.555V21.5976L5.02928 21.6L5.07915 21.6024L5.08156 21.6474L5.08397 21.6932L5.17566 21.6988L5.26816 21.7044V21.7478V21.7912H5.31641H5.36467V21.8394V21.8876H5.41695H5.46923V21.9358V21.9839H5.56172H5.65421V22.0321V22.0803H5.75073H5.84724V22.1285V22.1767H5.8955H5.94376V22.2249V22.2731H6.04027H6.13679V22.3213V22.3695H6.22928H6.32097L6.32338 22.4153L6.3258 22.4619L6.37647 22.4643L6.42633 22.4667V22.5092V22.5518L6.50033 22.5574C6.54054 22.5599 6.60328 22.5623 6.64027 22.5623H6.70703L6.70944 22.6088L6.71185 22.6546L6.80596 22.657L6.90006 22.6594L6.90247 22.7052L6.90488 22.751L6.99899 22.7534L7.09309 22.7558L7.0955 22.8016L7.09791 22.8474L7.19282 22.8498L7.28692 22.8522V22.8948V22.9382L7.38344 22.9438L7.47995 22.9494V22.992V23.0337L7.55877 23.0386C7.6014 23.0418 7.66655 23.0442 7.70354 23.0442H7.7695V23.0876V23.1309L7.86601 23.1366L7.96253 23.1422V23.1856V23.2289H8.0333C8.07271 23.2289 8.13786 23.2313 8.17807 23.2337L8.25207 23.2394V23.2819V23.3253H8.32285C8.36226 23.3253 8.4274 23.3277 8.46762 23.3301L8.54161 23.3358V23.3783V23.4217H8.68639H8.83116V23.4699V23.5181H8.99443C9.08451 23.5181 9.19148 23.5205 9.23169 23.5229L9.30569 23.5285V23.5711V23.6145H9.40059C9.45368 23.6145 9.56226 23.6169 9.64188 23.6201L9.78826 23.6249V23.6683V23.7109H9.95555C10.048 23.7109 10.1566 23.7133 10.1968 23.7157L10.2708 23.7213V23.7639V23.8072L10.607 23.8088L10.9424 23.8113L10.9448 23.857L10.9472 23.9036H12.0483H13.1502V23.8611V23.8177L13.229 23.8129C13.2716 23.8096 13.4237 23.8072 13.5668 23.8072H13.8258V23.7639V23.7213L13.8998 23.7157C13.94 23.7133 14.0687 23.7109 14.1853 23.7109H14.3968V23.6683V23.6249L14.4757 23.6201C14.5183 23.6169 14.6269 23.6145 14.7161 23.6145H14.8786L14.881 23.5687L14.8834 23.5221L15.0741 23.5197L15.2647 23.5181L15.2671 23.4715L15.2695 23.4257L15.4609 23.4233L15.6515 23.4217V23.3735V23.3253H15.748H15.8446V23.2819V23.2394L15.9186 23.2337C15.9588 23.2313 16.0239 23.2289 16.0633 23.2289H16.1341V23.1856V23.143L16.2081 23.1374C16.2483 23.135 16.3119 23.1325 16.3489 23.1325H16.4156V23.0892V23.0458L16.5161 23.0402L16.6167 23.0345V22.992V22.9502L16.6907 22.9446C16.7309 22.9422 16.7944 22.9398 16.8314 22.9398H16.8982V22.8964V22.853L16.9947 22.8474L17.0912 22.8418V22.7992V22.7566L17.1877 22.751L17.2842 22.7454V22.7028V22.6603L17.3808 22.6546L17.4773 22.649V22.6056V22.5623H17.5738H17.6703V22.5149V22.4675L17.7668 22.4619L17.8633 22.4562V22.4129V22.3695H17.9116H17.9598V22.3213V22.2731H18.0564H18.1529V22.2249V22.1775L18.2478 22.1751L18.3419 22.1727L18.3443 22.1269L18.3467 22.0803H18.3942H18.4424V22.0321V21.9839H18.5389H18.6354V21.9358V21.8876H18.6837H18.732V21.8394V21.7912H18.8245H18.917V21.743V21.6948H18.9692H19.0215V21.6466V21.5984H19.114H19.2065V21.5502V21.502H19.2548H19.3022L19.3046 21.4562L19.307 21.4096L19.3537 21.4072L19.3995 21.4048V21.3615V21.3181L19.4502 21.3157L19.5001 21.3133L19.5025 21.2675L19.5049 21.2225L19.5966 21.2169L19.6891 21.2113V21.1639V21.1165H19.7373H19.7848L19.7872 21.0699L19.7896 21.0241L19.8363 21.0217L19.8821 21.0193V20.9759V20.9317H19.9304H19.9786V20.8835V20.8354H20.0269H20.0751V20.7872V20.739H20.1234H20.1716V20.6908V20.6426H20.2199H20.2682V20.5944V20.5462H20.3164H20.3647V20.4988V20.4514L20.4564 20.4458L20.548 20.4402L20.5537 20.3486L20.5593 20.257H20.6068H20.6542V20.2088V20.1607H20.7025H20.7507V20.1125V20.0643H20.799H20.8472V20.0161V19.9679H20.8955H20.9438V19.9197V19.8715H20.988H21.0314L21.0338 19.8249L21.0363 19.7791L21.0821 19.7767L21.1279 19.7743L21.1304 19.7285L21.1328 19.6827L21.1794 19.6803L21.2253 19.6779V19.6305V19.5823H21.2727H21.3202L21.3258 19.49L21.3314 19.3976H21.3749H21.4175L21.4199 19.347L21.4223 19.2972L21.469 19.2948L21.5148 19.2924V19.245V19.1968H21.5623H21.6097L21.6153 19.1044L21.621 19.0121H21.6644H21.707L21.7094 18.9615L21.7119 18.9117L21.7585 18.9092L21.8043 18.9068V18.8594V18.8113H21.8526H21.9009V18.7189V18.6265H21.9491H21.9974V18.5743V18.5221H22.0456H22.0939V18.4297V18.3374H22.1422H22.1904V18.241V18.1446H22.2387H22.2869V18.0964V18.0482H22.3352H22.3834V17.9518V17.8554H22.4317H22.48V17.7631V17.6715L22.5266 17.6691L22.5724 17.6667L22.5749 17.5679L22.5773 17.4699H22.6247H22.673V17.3775V17.286L22.7196 17.2835L22.7655 17.2811L22.7679 17.1864L22.7703 17.0924H22.8137H22.8572L22.8596 17.0418L22.862 16.992L22.9086 16.9896L22.9545 16.9872V16.9205C22.9545 16.8835 22.9569 16.8209 22.9593 16.7807L22.9649 16.7068H23.0068H23.0494L23.055 16.6064L23.0606 16.506H23.1041H23.1475V16.4394C23.1475 16.4024 23.1499 16.339 23.1523 16.2988L23.158 16.2249H23.2006H23.244V16.1542C23.244 16.1149 23.2464 16.0498 23.2489 16.0097L23.2545 15.9358H23.2971H23.3397L23.3422 15.841L23.3446 15.747L23.3912 15.7446L23.4371 15.7422V15.6201C23.4371 15.5526 23.4395 15.4683 23.4427 15.4313L23.4475 15.3655H23.4901H23.5336V15.2466C23.5336 15.1807 23.536 15.094 23.5384 15.0538L23.544 14.9799H23.5867H23.6301V14.857C23.6301 14.7888 23.6325 14.7004 23.6349 14.6603L23.6405 14.5864H23.6832H23.7266V14.4233C23.7266 14.3333 23.729 14.2265 23.7314 14.1864L23.7371 14.1125H23.7797H23.8231V13.8715V13.6305H23.8714H23.9196V12.9117V12.1928H23.9598H24.0001V12.0482V11.9036H23.9598H23.9196V11.1848V10.4659H23.8762H23.8336L23.8279 10.392C23.8255 10.3518 23.8231 10.2217 23.8231 10.1028V9.88756H23.7749H23.7266V9.69479V9.50202H23.6832H23.6405L23.6349 9.42812C23.6325 9.38796 23.6301 9.27953 23.6301 9.18716V9.02009H23.5867H23.544L23.5392 8.95343C23.536 8.91728 23.5336 8.83294 23.5336 8.76547V8.64338L23.4877 8.64098L23.4411 8.63857L23.4387 8.49559L23.4371 8.35343H23.3936H23.351L23.3454 8.27953C23.343 8.23937 23.3405 8.17431 23.3405 8.13495V8.06427H23.2971H23.2537L23.248 7.96788L23.2424 7.8715H23.1998H23.158L23.1523 7.7976C23.1499 7.75744 23.1475 7.69238 23.1475 7.65302V7.58234H23.1041H23.0615L23.0558 7.50845C23.0534 7.46828 23.051 7.40483 23.051 7.36788V7.30122H23.0076H22.9641L22.9585 7.20082L22.9529 7.10041H22.9102H22.8676L22.862 7.00804L22.8564 6.91567H22.8137H22.7719L22.7655 6.81929L22.7598 6.7229H22.7172H22.6746L22.669 6.62652L22.6633 6.53013H22.6199H22.5765V6.43375V6.33736H22.529H22.4816L22.4759 6.24098L22.4703 6.14459H22.4269H22.3834V6.0964V6.0482H22.3352H22.2869V5.95182V5.85543H22.2387H22.1912L22.1888 5.76065L22.1864 5.66668L22.1405 5.66427L22.0939 5.66186V5.61447V5.56628H22.0456H21.9974V5.47391V5.38154H21.9491H21.9009V5.32933V5.27712H21.8526H21.8043V5.18475V5.09238H21.7561H21.7078V5.04419V4.9968L21.662 4.99439L21.6153 4.99198L21.6129 4.94138L21.6105 4.89158H21.5679H21.5245L21.5188 4.79921L21.5132 4.70684H21.4657H21.4183V4.65865V4.61045H21.37H21.3218V4.56226V4.51487L21.2759 4.51246L21.2293 4.51005L21.2269 4.45945L21.2245 4.40965H21.1818H21.1384L21.1328 4.31728L21.1271 4.22491H21.0797H21.0322V4.17672V4.12853H20.984H20.9357V4.08033V4.03214H20.8875H20.8392V3.98395V3.93575H20.7909H20.7427V3.88756V3.83937H20.6944H20.6462V3.79118V3.74298H20.6019H20.5577V3.69479V3.6466H20.5094H20.462L20.4596 3.60001L20.4572 3.55423L20.4113 3.55182L20.3655 3.54941L20.3631 3.50363L20.3606 3.45784L20.3148 3.45543L20.2682 3.45302V3.40965V3.36547H20.2199H20.1716V3.31728V3.26909H20.1234H20.0751V3.2209V3.1727H20.0269H19.9786V3.12531V3.07792L19.8869 3.0723L19.7952 3.06668L19.7896 2.97592L19.784 2.88515L19.6883 2.87953L19.5926 2.87391V2.83053V2.78716H19.5443H19.496V2.73977V2.69238L19.4035 2.68676L19.3119 2.68114L19.3094 2.63616L19.307 2.59037L19.2612 2.58796L19.2145 2.58555V2.54218V2.49881L19.1647 2.4964L19.114 2.49399L19.1116 2.4474L19.1092 2.40162H19.0617H19.0135V2.35343V2.30523H18.921H18.8285V2.25784V2.21126L18.732 2.20483L18.6354 2.19921V2.15584V2.11246H18.5872H18.5389V2.06427V2.01608H18.4867H18.4344V1.96788V1.91969H18.3419H18.2494V1.8715V1.82331H18.1529H18.0564V1.77511V1.72692H17.9598H17.8633V1.67873V1.63054H17.8151H17.7668V1.58716V1.54379L17.6703 1.53816L17.5738 1.53254V1.48997V1.4474L17.4773 1.44178L17.3808 1.43616V1.39359V1.35102L17.2842 1.34539L17.1877 1.33977V1.2972V1.25543L17.1137 1.24981C17.0735 1.2474 17.01 1.24499 16.973 1.24499H16.9062V1.20162V1.15825L16.8097 1.15262L16.7132 1.147V1.10443V1.06266L16.6167 1.05624L16.5202 1.05062V1.00724V0.963867H16.4494C16.41 0.963867 16.3448 0.961458 16.3046 0.959049L16.2306 0.953426V0.910856V0.867481H16.1598C16.1204 0.867481 16.0553 0.865072 16.0151 0.862663L15.9411 0.85704V0.81447V0.771097H15.8703C15.8309 0.771097 15.7657 0.768686 15.7255 0.766277L15.6515 0.760654V0.718887V0.676317L15.4625 0.670694L15.2735 0.665073V0.621698V0.579128L15.1754 0.576719L15.0765 0.57431L15.0741 0.527723L15.0716 0.481939H14.9011C14.807 0.481939 14.7009 0.47953 14.6647 0.476318L14.5979 0.471498V0.428928V0.385555H14.3566H14.1153V0.337362V0.289169H13.681H13.2467V0.240976V0.192783H12.1891H11.1314V0.240976ZM12.6017 3.84499L12.6676 3.84981V3.89238V3.93575H13.1019H13.5363V3.98395V4.03214H13.7775H14.0188V4.08033V4.12853H14.1596H14.3003V4.1719V4.21447L14.3743 4.22009C14.4145 4.2225 14.4813 4.22491 14.5231 4.22491H14.5979V4.2731V4.3213H14.7387H14.8794V4.36467V4.40724L14.9534 4.41286C14.9936 4.41527 15.0588 4.41768 15.0974 4.41768H15.1682L15.1706 4.46347L15.173 4.51005L15.2719 4.51246L15.37 4.51487V4.55744V4.60081L15.4625 4.60644L15.555 4.61206V4.65463V4.6972L15.6515 4.70282L15.748 4.70845V4.75102V4.79359L15.8446 4.79921L15.9411 4.80483V4.8474V4.88997L16.0376 4.89559L16.1341 4.90122V4.94379V4.98636L16.2266 4.99198L16.3183 4.9976L16.3207 5.04258L16.3231 5.08837L16.3738 5.09077L16.4237 5.09319V5.13656V5.18073H16.4719H16.5202V5.22893V5.27632L16.6151 5.27873L16.7092 5.28114L16.7116 5.32692L16.714 5.37351H16.7615H16.8097V5.4217V5.46989H16.9022H16.9947V5.51808V5.56547L17.0454 5.56788L17.0952 5.57029L17.0976 5.61608L17.1001 5.66266H17.1475H17.1958V5.71086V5.75905H17.244H17.2923V5.80724V5.85543H17.3405H17.3888V5.90363V5.95182H17.433H17.4773V6.04338V6.13495L17.3848 6.14057L17.2931 6.1462L17.2907 6.19198L17.2883 6.23696L12.0025 6.23937L6.71668 6.24098L6.71427 6.19118L6.71185 6.14057L6.66601 6.13816L6.61936 6.13576V6.04419V5.95182H6.6636H6.70783V5.90363V5.85543H6.75609H6.80435V5.80724V5.75905H6.85261H6.90086V5.71086V5.66266H6.94912H6.99738V5.61447V5.56628H7.04564H7.09309L7.0955 5.51969L7.09791 5.47391L7.14858 5.4715L7.19845 5.46909V5.42652V5.38314L7.29094 5.37752L7.38344 5.3719V5.32451V5.27712H7.43572H7.48799V5.23375V5.19037L7.58049 5.18475L7.67298 5.17913V5.13174V5.08435H7.72124H7.7695V5.04098V4.9976L7.86601 4.99198L7.96253 4.98636V4.94379V4.90122L8.05904 4.89559L8.15555 4.88997V4.8474V4.80483L8.25207 4.79921L8.34858 4.79278V4.75102V4.70845L8.44108 4.70282L8.53357 4.6972V4.65383V4.61045H8.58585H8.63813V4.56226V4.51407H8.71293C8.75314 4.51407 8.81668 4.51166 8.85368 4.50845L8.91963 4.50363V4.46106V4.41768H8.99041C9.02982 4.41768 9.09496 4.41527 9.13518 4.41286L9.20917 4.40724V4.36467V4.3213H9.27995C9.31936 4.3213 9.38451 4.31889 9.42472 4.31648L9.49872 4.31086V4.26829V4.22491H9.5695C9.60891 4.22491 9.67405 4.2225 9.71427 4.22009L9.78826 4.21447V4.1719V4.12853H9.85904C9.89845 4.12853 9.9636 4.12612 10.0038 4.12371L10.0778 4.11808V4.07551V4.03214H10.3191H10.5604V3.98395V3.93575H10.9907H11.421V3.89158V3.84821L11.4716 3.84499C11.5649 3.84017 12.5341 3.83937 12.6017 3.84499ZM18.1714 6.72049L18.2494 6.72531V6.76869V6.81126H18.2976H18.3459V6.85945V6.90684L18.3926 6.90925L18.4384 6.91166L18.4408 6.96146L18.4432 7.01206H18.4907H18.5389V7.06025V7.10845H18.5824H18.6258L18.6314 7.20082L18.6371 7.29238L18.6829 7.29479L18.7279 7.2972L18.7304 7.347L18.7328 7.3976H18.7754H18.8188L18.8245 7.48997L18.8301 7.58234H18.8735H18.917V7.63053V7.67873H18.9644H19.0119L19.0175 7.77511L19.0231 7.8715H19.0657H19.1084L19.114 7.96788L19.1196 8.06427H19.1623H19.2049L19.2105 8.16065L19.2161 8.25704H19.2588H19.3014L19.307 8.34941L19.3127 8.44178H19.3553H19.3971L19.4035 8.53816L19.4092 8.63455H19.4518H19.4936L19.5001 8.73094L19.5057 8.82732H19.5491H19.5917L19.5942 8.92531L19.5966 9.02411L19.6424 9.02652L19.6891 9.02893L19.6907 9.1711L19.6931 9.31326L19.7397 9.31567L19.7856 9.31808V9.55423V9.79118H19.7373H19.6891V9.83937V9.88756H17.4813H15.2743L15.2719 9.84098L15.2695 9.79519L15.2196 9.79278L15.169 9.79037V9.74298V9.69479H15.1207H15.0724V9.65061V9.60724L15.0266 9.60483L14.98 9.60242L14.9775 9.55182L14.9751 9.50202H14.9277H14.8794V9.45383V9.40563H14.8352H14.7917L14.7893 9.35905L14.7869 9.31326L14.7411 9.31085L14.6952 9.30845L14.6928 9.26266L14.6904 9.21688L14.6446 9.21447L14.5979 9.21206V9.16869V9.12451H14.5497H14.5014V9.07712V9.02973L14.4049 9.02411L14.3084 9.01849V8.9711V8.92371H14.2601H14.2119V8.87953V8.83535H14.1636H14.1153V8.78716V8.73897H14.0188H13.9223V8.69158V8.64419L13.8258 8.63857L13.7293 8.63294V8.58957V8.5462H13.6328H13.5363V8.498V8.44981H13.4655C13.4261 8.44981 13.3609 8.4474 13.3207 8.44499L13.2467 8.43937V8.3968V8.35343L13.1043 8.35182L12.9612 8.34941L12.9588 8.30282L12.9564 8.25704H12.7376C12.6169 8.25704 12.4891 8.25463 12.4529 8.25142L12.3861 8.2466V8.20403V8.16065H12.0523H11.7194L11.7169 8.20644L11.7145 8.25302L11.4274 8.25543L11.1403 8.25704L11.1379 8.30363L11.1354 8.34941L11.0373 8.35182L10.9384 8.35423V8.3968V8.43937L10.8644 8.44499C10.8242 8.4474 10.759 8.44981 10.7196 8.44981H10.6489V8.49318V8.53576L10.5829 8.54057C10.5459 8.54379 10.4824 8.5462 10.4422 8.5462H10.3674V8.59439V8.64258H10.2708H10.1743V8.69077V8.73897H10.1261H10.0778V8.78234V8.82572L9.98129 8.83134L9.88478 8.83696V8.88435V8.93174H9.83652H9.78826V8.97511V9.01849L9.69577 9.02411L9.60408 9.02973L9.60167 9.07471L9.59925 9.12049L9.55341 9.1229L9.50757 9.12531L9.50515 9.1711L9.50274 9.21688L9.45689 9.21929L9.41105 9.2217L9.40864 9.26748L9.40623 9.31326L9.36038 9.31567L9.31454 9.31808L9.31212 9.36387L9.30971 9.40965L9.26387 9.41206L9.21802 9.41447L9.21561 9.46025L9.2132 9.50604L9.16735 9.50845L9.12231 9.51085L9.11668 9.60242L9.11105 9.69479H9.0636H9.01614V9.74218V9.78957L8.92365 9.79519L8.83116 9.80081V9.84419V9.88756H6.61936H4.40837L4.40596 9.84098L4.40354 9.79519L4.3577 9.79278L4.31105 9.79037V9.55423V9.31808L4.3577 9.31567L4.40354 9.31326L4.40596 9.1711L4.40757 9.02893L4.45421 9.02652L4.50006 9.02411L4.50247 8.92531L4.50488 8.82732H4.54751H4.59094L4.59657 8.73094L4.60301 8.63455H4.64483H4.68746L4.69309 8.53816L4.69872 8.44178H4.74135H4.78397L4.7896 8.34539L4.79523 8.24901H4.83866H4.8821V8.15664V8.06427H4.92955H4.977L4.98263 7.96788L4.98826 7.8715H5.03089H5.07352L5.07915 7.77511L5.08478 7.67873H5.12821H5.17164V7.63053V7.58234H5.21909H5.26655L5.27218 7.48596L5.27781 7.38957H5.32124H5.36467V7.34138V7.29318H5.41293H5.46118V7.20082V7.10845H5.50944H5.5569L5.55931 7.05784L5.56172 7.00804L5.60837 7.00563L5.65421 7.00323V6.95584V6.90764H5.70247H5.75073V6.85945V6.81126H5.79899H5.84724V6.76306V6.71487H11.9703C15.3371 6.71487 18.1279 6.71728 18.1714 6.72049ZM8.53759 10.4691C8.54081 10.5237 8.54081 10.6088 8.53759 10.6578L8.53196 10.747H8.48853H8.4451V10.8217C8.4451 10.8635 8.44269 10.9301 8.44027 10.9703L8.43464 11.0442H8.39202H8.34858V11.1663C8.34858 11.2337 8.34617 11.3189 8.34295 11.355L8.33813 11.4217H8.2955H8.25207V12V12.5783H8.2955H8.33813L8.34376 12.6522C8.34617 12.6924 8.34858 12.7791 8.34858 12.845V12.9639H8.39202H8.43464L8.44027 13.0378C8.44269 13.0779 8.4451 13.143 8.4451 13.1823V13.253H8.48934H8.53357V13.3454V13.437L8.48773 13.4394L8.44108 13.4418L8.43866 13.4876L8.43625 13.5341H6.3258H4.21454V13.4908V13.4474L4.11802 13.4418L4.02151 13.4362V13.1518V12.8675H3.97325H3.92499V11.9076V10.9478H3.97325H4.02151V10.7068V10.4659H4.06976H4.11802V10.4177V10.3695H6.32499H8.53196L8.53759 10.4691ZM19.9786 10.4177V10.4659H20.0269H20.0751V10.7068V10.9478H20.1186H20.1612L20.166 11.0137C20.1733 11.1012 20.1733 12.8835 20.1668 12.9783L20.1612 13.0522H20.1186H20.0751V13.2442V13.4362L19.9786 13.4418L19.8821 13.4474V13.4908V13.5341H17.8151H15.748V13.49V13.4466L15.7022 13.4442L15.6556 13.4418V13.2972V13.1526L15.7022 13.1502L15.748 13.1478V12.9599V12.7711H15.7963H15.8446V12V11.2289H15.7963H15.748V11.0402V10.8514H15.6998H15.6515V10.751V10.6506H15.6073H15.5631V10.5582V10.4659H15.6073H15.6515V10.4177V10.3695H17.8151H19.9786V10.4177ZM8.82312 14.0643V14.1125H8.87539H8.92767V14.1607V14.2088H8.97191H9.01614V14.257V14.3052H9.0636H9.11105L9.11668 14.3976L9.12231 14.4892L9.16735 14.4916L9.2132 14.494L9.21561 14.5398L9.21802 14.5856L9.26387 14.588L9.30971 14.5904L9.31212 14.6362L9.31454 14.6819L9.36038 14.6843L9.40623 14.6868L9.40864 14.7325L9.41105 14.7791H9.45448H9.49872V14.8273V14.8747L9.54939 14.8771L9.59925 14.8795L9.60167 14.9253L9.60408 14.9703L9.69577 14.9759L9.78746 14.9815L9.78987 15.0273L9.79228 15.0723L9.83893 15.0747L9.88478 15.0771V15.1205V15.1647H9.93303H9.98129V15.2129V15.2611H10.0778H10.1743V15.3092V15.3566L10.2692 15.359L10.3633 15.3615L10.3657 15.4072L10.3682 15.4538H10.4422C10.4832 15.4538 10.5459 15.4562 10.5829 15.4594L10.6489 15.4643V15.506V15.5486L10.7494 15.5542L10.8499 15.5599V15.6032V15.6466H10.9907H11.1314V15.6948V15.743L11.3751 15.7446L11.618 15.747L11.6204 15.7928L11.6228 15.8394H12.0523H12.4826V15.7912V15.743H12.7239H12.9652V15.6996V15.657L13.032 15.6522C13.0682 15.649 13.1333 15.6466 13.1767 15.6466H13.2548V15.6032V15.5607L13.3215 15.5558C13.3577 15.5526 13.4204 15.5502 13.4615 15.5502H13.5354L13.5379 15.5036L13.5403 15.4578L13.6352 15.4554L13.7293 15.453V15.4105V15.3671L13.8258 15.3615L13.9223 15.3558V15.3133V15.2707L14.0188 15.2651L14.1153 15.2594V15.2121V15.1647H14.1636H14.2119V15.1213V15.0779L14.3043 15.0723L14.396 15.0667L14.3985 15.0217L14.4009 14.9759L14.4515 14.9735L14.5014 14.9711V14.9237V14.8755H14.5497H14.5979V14.8313V14.788L14.6446 14.7856L14.6904 14.7831L14.6928 14.7374L14.6952 14.6916L14.7411 14.6892L14.7869 14.6868L14.7893 14.6402L14.7917 14.5944H14.8352H14.8794V14.5462V14.498H14.9277H14.9759V14.4498V14.4016H15.0234H15.0708L15.0765 14.3052L15.0821 14.2088H15.1295H15.177V14.1607V14.1125H15.2253H15.2735V14.0643V14.0161H17.5296H19.7856V14.1125V14.2088H19.8338H19.8821V14.257V14.3052H19.8387H19.796L19.7912 14.3711C19.788 14.408 19.7856 14.4932 19.7856 14.5599V14.6827H19.7373H19.6891V14.7831V14.8835H19.6456H19.603L19.5982 14.9494C19.595 14.9864 19.5926 15.049 19.5926 15.09V15.1639L19.5467 15.1663L19.5001 15.1687L19.4976 15.2667L19.4952 15.3655H19.4526H19.4092L19.4035 15.4578L19.3979 15.5502H19.3553H19.3127L19.307 15.6466L19.3014 15.743H19.2588H19.2161L19.2105 15.8394L19.2049 15.9358H19.1623H19.1196L19.114 16.0321L19.1084 16.1285H19.0657H19.0231L19.0175 16.2209L19.0119 16.3125L18.9668 16.3149L18.921 16.3173L18.9186 16.3671L18.9161 16.4177H18.8727H18.8285V16.4659V16.5141H18.7802H18.7328L18.7304 16.608L18.7279 16.7028L18.6821 16.7052L18.6354 16.7076V16.755V16.8032H18.588H18.5405L18.5349 16.8956L18.5293 16.988H18.4858H18.4424V17.0362V17.0843H18.3942H18.3459V17.1325V17.1807H18.2976H18.2494V17.2329V17.2852H18.2011H18.1529V17.3333V17.3815H18.1046H18.0564V17.4297V17.4779H18.0081H17.9598V17.5261V17.5743H17.9164H17.873L17.8674 17.6667L17.8617 17.759H17.8143H17.7668V17.8064V17.8538L17.6743 17.8594L17.5818 17.8651V17.9084V17.9518H17.5336H17.4853V18V18.0482H17.4371H17.3888V18.0964V18.1446H17.3405H17.2931L17.2907 18.1904L17.2883 18.237L17.2384 18.2394L17.1877 18.2418V18.2892V18.3374H17.1395H17.0912V18.3807V18.4241L16.9987 18.4297L16.9062 18.4354V18.4827V18.5301H16.858H16.8105L16.8081 18.5759L16.8057 18.6225L16.7558 18.6249L16.7052 18.6273V18.6699V18.7133L16.6127 18.7189L16.521 18.7245L16.5186 18.7703L16.5161 18.8153L16.4663 18.8177L16.4156 18.8201V18.8627V18.906L16.3231 18.9117L16.2306 18.9173V18.9599V19.0024L16.1341 19.008L16.0376 19.0137V19.057V19.1004H15.9893H15.9411V19.1486V19.1968H15.8671C15.8261 19.1968 15.7625 19.1992 15.7263 19.2024L15.6596 19.2072V19.249V19.2916L15.5631 19.2972L15.4665 19.3028V19.3454V19.3872L15.37 19.3936L15.2735 19.3992V19.4418V19.4835L15.177 19.49L15.0805 19.4956V19.539V19.5823H15.0025C14.959 19.5823 14.8939 19.5848 14.8577 19.588L14.7909 19.5928V19.6354V19.6787H14.6462H14.5014V19.7269V19.7751H14.3824C14.3164 19.7751 14.2295 19.7775 14.1893 19.7799L14.1153 19.7856V19.8281V19.8715H13.9706H13.8258V19.9197V19.9679H13.5845H13.3432V20.0161V20.0643H12.0483H10.7534V20.0161V19.9679H10.5121H10.2708V19.9197V19.8715H10.1261H9.98129V19.8281V19.7856L9.9073 19.7799C9.86708 19.7775 9.78022 19.7751 9.71427 19.7751H9.59523V19.7269V19.6787H9.45046H9.30569V19.6354V19.5928L9.23974 19.588C9.20274 19.5848 9.14001 19.5823 9.09899 19.5823H9.02499L9.02258 19.5358L9.02017 19.49L8.92606 19.4876L8.83116 19.4852V19.4426V19.3992L8.73464 19.3936L8.63813 19.388V19.3454V19.3028L8.54161 19.2972L8.4451 19.2916V19.249V19.2064L8.34858 19.2008L8.25207 19.1952V19.1526V19.1101L8.15555 19.1044L8.05904 19.0988V19.0562V19.0137L7.96253 19.008L7.86601 19.0024V18.959V18.9157H7.81775H7.7695V18.8683V18.8209L7.67298 18.8153L7.57647 18.8096V18.7671V18.7245L7.48397 18.7189L7.39148 18.7133V18.6699V18.6273L7.34161 18.6249L7.29094 18.6225L7.28853 18.5759L7.28612 18.5301H7.23866H7.19041V18.4819V18.4337H7.14215H7.09389V18.3856V18.3374H7.0014H6.90891V18.2892V18.241H6.86065H6.81239V18.1928V18.1454L6.76253 18.143L6.71185 18.1406L6.70944 18.094L6.70703 18.0482H6.6636H6.61936V18V17.9518H6.5711H6.52365L6.52124 17.9052L6.51883 17.8594L6.47298 17.857L6.42714 17.8546L6.42472 17.8088L6.42231 17.7631L6.37244 17.7607L6.32177 17.7582V17.7149V17.6707H6.27754H6.23411L6.23169 17.6201L6.22928 17.5703L6.18344 17.5679L6.13759 17.5655L6.13518 17.5197L6.13277 17.4739L6.08692 17.4715L6.04027 17.4691V17.4257V17.3815H5.99202H5.94376V17.3293V17.2771H5.8955H5.84724V17.2289V17.1807H5.79899H5.75073V17.1325V17.0843H5.7073H5.66387L5.65824 16.992L5.65261 16.8996H5.60515H5.5577V16.8514V16.804L5.51185 16.8016L5.46521 16.7992L5.46279 16.7486L5.46038 16.6988H5.41775H5.37432L5.36869 16.6064L5.36306 16.5141H5.31561H5.26816V16.4619V16.4096H5.22472H5.18129L5.17566 16.3173L5.17003 16.2249H5.1266H5.08397L5.08156 16.1743L5.07915 16.1245L5.0333 16.1221L4.98826 16.1197L4.98263 16.0281L4.977 15.9358H4.93437H4.89175L4.88612 15.8394L4.88049 15.743H4.83786H4.79523L4.7896 15.6466L4.78397 15.5502H4.74135H4.69872L4.69309 15.4538L4.68746 15.3574H4.64403H4.6014L4.59899 15.2627L4.59657 15.1687L4.55073 15.1663L4.50408 15.1639V15.09C4.50408 15.049 4.50167 14.9864 4.49845 14.9494L4.49362 14.8835H4.451H4.40757V14.8129C4.40757 14.7735 4.40515 14.7084 4.40274 14.6683L4.39711 14.5944H4.35529H4.31266L4.30944 14.4193C4.30783 14.3237 4.30783 14.1936 4.30944 14.1301L4.31266 14.0161H6.56789H8.82312V14.0643Z" fill="#8457ff"/>
</g>
</g>
<defs>
<clipPath id="clip0_766_3187">
<rect width="24" height="24" fill="white"/>
</clipPath>
</defs>
</svg>
