<svg width="32" height="32" viewBox="0 0 32 32" fill="none" xmlns="http://www.w3.org/2000/svg">
<g id="image-9 1">
<g clip-path="url(#clip0_766_2964)">
<g id="Group">
<path id="Vector" d="M1.56123 0.00754738C0.798911 0.0829163 0.184106 0.642809 0.0301356 1.40189L0.00537109 1.52356V16V30.4765L0.0290588 30.5949C0.173339 31.3023 0.696623 31.8267 1.40187 31.9699L1.52354 31.9946H16H30.4764L30.5949 31.9709C31.3023 31.8267 31.8266 31.3034 31.9698 30.5981L31.9946 30.4765V16V1.52356L31.9709 1.40512C31.8277 0.699875 31.3109 0.179821 30.6046 0.0301571L30.4872 0.00539398L16.0431 0.00431633C8.09905 0.00431633 1.58168 0.00539398 1.56123 0.00754738ZM17.5957 6.16098L17.5989 6.23958L17.6754 6.24281L17.7529 6.24604L17.7604 6.40109L17.768 6.55721H17.8423H17.9165V6.6778C17.9165 6.74456 17.9198 6.85438 17.9241 6.92006L17.9305 7.04173H18.0048H18.0781V7.19786V7.35398H18.1588H18.2396V7.51549V7.67592L18.3182 7.67915L18.3957 7.68238L18.3989 7.92141L18.4011 8.16152H18.4818H18.5626V8.32302V8.48453H18.6369H18.7112L18.7187 8.64604L18.7273 8.80755H18.8005H18.8748V8.92276C18.8748 8.98736 18.8781 9.09395 18.8824 9.15963L18.8888 9.2813H18.962H19.0353L19.0385 9.43958L19.0417 9.59893L19.1192 9.60216L19.1968 9.60539L19.2 9.76367L19.2032 9.92195L19.2818 9.92518L19.3593 9.92841V10.1642V10.4011H19.4401H19.5209V10.5626V10.7241H19.6016H19.6824V10.8856V11.0471H19.7577H19.8331V11.1623C19.8331 11.2269 19.8363 11.3335 19.8406 11.3992L19.8471 11.5209H19.9214H19.9946V12V12.4791H19.9203H19.846L19.8385 12.6407L19.8309 12.8022H19.7567H19.6834L19.6802 12.8797L19.677 12.9583L19.5995 12.9615L19.5209 12.9647V13.0444V13.1252H19.4401H19.3593V13.2059V13.2867H19.285H19.2108L19.2032 13.4428L19.1957 13.5989H19.116H19.0363V13.6797V13.7604H18.9556H18.8748V13.8412V13.9219H18.7941H18.7133V13.9973V14.0727H18.6379H18.5626V14.1534V14.2342H18.4818H18.4011V14.315V14.3957H18.3203H18.2396V14.4765V14.5572H18.1588H18.0781V14.638V14.7187H17.9973H17.9165V14.7995V14.8802H17.8358H17.755V14.961V15.0417H17.6797H17.6054L17.6021 15.1193L17.5989 15.1979L17.5214 15.2011L17.4439 15.2043L17.4406 15.2818L17.4374 15.3594L17.3599 15.3626L17.2813 15.3658V15.4401V15.5155H17.2005H17.1198V15.5962V15.6759L17.0422 15.6791L16.9636 15.6824L16.9604 15.7599L16.9572 15.8385H16.8829H16.8075V15.9193V16H16.7268H16.646V16.0808V16.1615H12.646H8.64602V16.0808V16H8.56526H8.48559L8.48236 15.9214L8.47913 15.8439L8.4016 15.8407L8.323 15.8374V15.5962V15.354H8.40376H8.48451V15.1979V15.0417H8.56526H8.64602V14.961V14.8802H8.72139H8.79676V14.7995V14.7187H8.87751H8.95827V14.638V14.5572H9.03902H9.11977V14.4765V14.3957H9.20053H9.28128V14.315V14.2342H9.36203H9.44279V14.1534V14.0727H9.51816H9.59245L9.59568 13.9941L9.59891 13.9166L9.67536 13.9133L9.75288 13.9101L9.76042 13.7604L9.76796 13.6108L9.84548 13.6075L9.92193 13.6043L9.92516 13.5257L9.92839 13.4482H10.0027H10.0781V13.3674V13.2867H10.1588H10.2396V13.2059V13.1252H10.3203H10.4011V13.0444V12.9637H10.4818H10.5626V12.8829V12.8022H10.6433H10.7241V12.7214V12.6407H10.8048H10.8856V12.5599V12.4791H10.961H11.0353L11.0385 12.4005L11.0417 12.323L11.1192 12.3198L11.1968 12.3166L11.2 12.239L11.2032 12.1615L11.2818 12.1583L11.3593 12.1551V12.0808V12.0054H11.4401H11.5209V11.9246V11.8439H11.6016H11.6824V11.7631V11.6835L11.761 11.6802L11.8385 11.677L11.8417 11.5984L11.8449 11.5209H11.9192H11.9946V11.4401V11.3594H12.0754H12.1561V11.2786V11.1979H12.2369H12.3176V11.1171V11.0364H12.3984H12.4791V10.9556V10.8748H12.5599H12.6406V10.7187V10.5626H12.7214H12.8021V10.4818V10.4011H12.8829H12.9636V10.3203V10.2396H13.0444H13.1252V10.1588V10.0781H13.2059H13.2867V10.0027V9.92733H13.362H13.4374V9.84658V9.76583H13.5182H13.5989V9.68507V9.60432H13.6797H13.7604V9.52356V9.44281H13.8412H13.9219V9.36206V9.2813H14.0027H14.0834V9.20055V9.11979H14.1642H14.2449V9.03904V8.95829H14.3203H14.3946L14.3978 8.87969L14.4011 8.80216L14.4786 8.79893L14.5561 8.7957L14.5593 8.71818L14.5626 8.64066L14.6412 8.63743L14.7187 8.6342V8.5599V8.48453H14.7995H14.8802V8.40378V8.32302H14.961H15.0417V8.24227V8.16259L15.1203 8.15936L15.1978 8.15613L15.2011 8.07753L15.2043 8.00001H15.2786H15.354V7.91926V7.8385H15.4347H15.5155V7.75775V7.677H15.5962H15.677V7.59624V7.51549H15.7567H15.8363L15.8439 7.35936L15.8514 7.20324H15.9257H16V7.12249V7.04173H16.0807H16.1615V6.96098V6.88023H16.2423H16.323V6.79947V6.71872H16.4038H16.4845V6.63796V6.55721H16.5653H16.646V6.48184V6.40647H16.7214H16.7968V6.32572V6.24496H16.8775H16.9583V6.16421V6.08346H17.2759H17.5925L17.5957 6.16098ZM7.19245 17.0444V17.1198H7.11708H7.04171V17.0444V16.9691H7.11708H7.19245V17.0444ZM7.35396 17.2005V17.2813H7.51547H7.67697V17.3621V17.4428H7.9946H8.31224V17.5182V17.5936H14.9534C18.6067 17.5936 21.7055 17.5968 21.839 17.6011L22.0834 17.6075V17.6808V17.7529L22.2396 17.7604L22.3957 17.768V17.8423V17.9166H22.4764H22.5572V17.9973V18.0781H22.6379H22.7187V18.1588V18.2396H22.7995H22.8802V18.4765V18.7123L22.9588 18.7155L23.0363 18.7187L23.0396 18.877L23.0428 19.0353L23.1203 19.0385L23.1978 19.0417L23.2011 19.2L23.2043 19.3594H23.2786H23.354V19.48C23.354 19.5467 23.3572 19.6565 23.3615 19.7222L23.368 19.8439H23.4412H23.5144L23.5176 20.0022L23.5209 20.1615L23.5995 20.1647L23.677 20.168V20.2832C23.677 20.3467 23.6802 20.4533 23.6845 20.519L23.691 20.6407H23.7642H23.8374L23.8406 20.7989L23.8439 20.9583L23.9225 20.9615L24 20.9647V21.1252V21.2867H24.0807H24.1615V21.5236V21.7604H24.2423H24.323V21.9219V22.0835H24.3973H24.4716L24.4791 22.245L24.4867 22.4065H24.561H24.6353V22.5217C24.6353 22.5863 24.6385 22.6929 24.6428 22.7586L24.6493 22.8802H24.7235H24.7968V23.0417V23.2032H24.8775H24.9583V23.6016V24H24.8021H24.646V24.0808V24.1615L17.8444 24.1594L11.0417 24.1561L11.0385 24.0775L11.0353 24H10.7187H10.4011V23.9193V23.8385H10.3203H10.2396V23.7642V23.6899L10.0834 23.6824L9.92731 23.6748V23.5952V23.5155H9.84763H9.76796L9.76042 23.3594L9.75288 23.2032H9.67859H9.6043V23.0417V22.8802H9.52354H9.44279V22.7586C9.44279 22.6907 9.43956 22.5841 9.43525 22.5217L9.42879 22.4065H9.3545H9.28128V22.245V22.0835H9.20053H9.11977V21.9219V21.7604H9.04656H8.97226L8.9658 21.6452C8.9615 21.5828 8.95827 21.474 8.95827 21.403V21.2759H8.87751H8.79676V21.1144V20.9529H8.72139H8.64602V20.8366C8.64602 20.7731 8.64279 20.6665 8.63848 20.5997L8.63202 20.4791H8.55988H8.48666L8.47913 20.3176L8.47159 20.1561H8.3973H8.32408L8.32085 19.9968L8.31762 19.8385L8.2401 19.8353L8.1615 19.832V19.7104C8.1615 19.6436 8.15827 19.537 8.15396 19.4746L8.1475 19.3594H8.0732H7.99999V19.1979V19.0364H7.91923H7.83848V18.8748V18.7133H7.76526H7.69097L7.68451 18.5981C7.6802 18.5357 7.67697 18.4291 7.67697 18.3612V18.2396H7.60268H7.52839L7.52085 18.0781L7.51331 17.9166H7.43902H7.3658L7.36257 17.7572L7.35934 17.5989L7.28182 17.5957L7.20322 17.5925V17.3567V17.1198H7.27859H7.35396V17.2005Z" fill="#8457ff"/>
</g>
</g>
</g>
<defs>
<clipPath id="clip0_766_2964">
<rect width="32" height="32" rx="16" fill="white"/>
</clipPath>
</defs>
</svg>
