<svg width="32" height="32" viewBox="0 0 32 32" fill="none" xmlns="http://www.w3.org/2000/svg">
<g id="Group 11">
<path id="Ellipse 36" d="M16 0C11.7565 -5.06028e-08 7.68687 1.68571 4.68629 4.68629C1.68571 7.68687 3.70975e-07 11.7565 0 16C-3.70975e-07 20.2435 1.68571 24.3131 4.68629 27.3137C7.68687 30.3143 11.7565 32 16 32L16 25.6C13.4539 25.6 11.0121 24.5886 9.21177 22.7882C7.41142 20.9879 6.4 18.5461 6.4 16C6.4 13.4539 7.41143 11.0121 9.21177 9.21177C11.0121 7.41143 13.4539 6.4 16 6.4V0Z" fill="#24201f"/>
<path id="Ellipse 37" d="M15.9999 6.39996C17.2606 6.39996 18.5089 6.64827 19.6737 7.13072C20.8384 7.61317 21.8967 8.3203 22.7881 9.21174C23.6796 10.1032 24.3867 11.1615 24.8691 12.3262C25.3516 13.4909 25.5999 14.7393 25.5999 16C25.5999 17.2607 25.3516 18.509 24.8691 19.6737C24.3867 20.8385 23.6796 21.8967 22.7881 22.7882C21.8967 23.6796 20.8384 24.3868 19.6737 24.8692C18.5089 25.3517 17.2606 25.6 15.9999 25.6L15.9999 16V6.39996Z" fill="#24201f"/>
</g>
</svg>
