<svg width="22" height="20" viewBox="0 0 22 20" fill="none" xmlns="http://www.w3.org/2000/svg">
<g id="Group">
<g id="Group_2">
<g id="Group_3">
<path id="Vector" d="M9.62052 0.469735C8.53661 0.632847 7.66844 0.916976 6.64768 1.44314C5.11653 2.23239 3.89583 3.33208 2.95399 4.77903L2.64355 5.25258L3.1592 5.49988C3.44333 5.63668 3.70115 5.75244 3.73272 5.75244C3.76429 5.75244 3.88004 5.60511 3.9958 5.42096C5.23755 3.48993 7.36853 2.09559 9.68366 1.70096C10.5045 1.5589 11.6305 1.5589 12.4513 1.70096C14.7664 2.09559 16.8974 3.48993 18.1391 5.42096C18.2549 5.60511 18.3707 5.75244 18.4022 5.75244C18.4338 5.75244 18.6916 5.63668 18.9757 5.49988L19.4914 5.25258L19.181 4.77903C18.5285 3.77406 17.634 2.83748 16.6922 2.16399C15.7977 1.52207 14.4981 0.916976 13.4457 0.653893C12.3987 0.385549 10.6886 0.306623 9.62052 0.469735Z" fill="#24201f"/>
</g>
<g id="Group_4">
<path id="Vector_2" d="M0.905105 5.32901C1.08926 6.59707 1.76276 7.51786 3.1571 8.38604C3.42018 8.54389 4.38832 9.05953 5.31438 9.52782C7.05072 10.4013 7.65582 10.7485 8.40297 11.301C9.55527 12.1534 10.5287 13.4478 10.897 14.6158C10.9496 14.7842 11.0075 14.921 11.0233 14.921C11.0391 14.921 11.0969 14.7842 11.1496 14.6158C11.5179 13.4478 12.4913 12.1534 13.6436 11.301C14.3907 10.7485 14.9958 10.4013 16.7322 9.52782C17.6582 9.05953 18.6316 8.54389 18.8895 8.38604C20.2838 7.51786 20.9573 6.59707 21.1414 5.32901L21.173 5.12907L20.8573 5.41846C20.4153 5.82887 19.9944 6.10248 19.3157 6.42344C17.6688 7.20216 15.1379 7.72833 12.4808 7.84935L11.6547 7.88618L11.4021 8.15452C11.2601 8.30185 11.118 8.47022 11.0864 8.5281L11.0233 8.63334L10.9601 8.5281C10.9286 8.47022 10.7865 8.30185 10.6444 8.15452L10.3919 7.88618L9.5658 7.84935C6.90866 7.72833 4.3778 7.20216 2.7309 6.42344C2.05215 6.10248 1.63121 5.82887 1.18923 5.41846L0.873535 5.12907L0.905105 5.32901Z" fill="#24201f"/>
</g>
<g id="Group_5">
<path id="Vector_3" d="M1.47051 8.88445C1.27057 10.4524 1.39685 11.8731 1.85988 13.2674C2.69122 15.7614 4.50649 17.8135 6.90055 18.95C10.5942 20.7074 14.9719 19.9497 17.8711 17.0506C20.0284 14.8933 20.9965 11.9941 20.6019 8.88445C20.5703 8.63189 20.5282 8.42669 20.5072 8.42669C20.4809 8.42669 20.3599 8.51088 20.2336 8.61611C20.1126 8.72134 19.8758 8.90024 19.718 9.00547L19.4233 9.20542L19.4654 9.69475C19.518 10.2946 19.4443 11.2996 19.297 11.9678C19.0602 13.0517 18.5762 14.1672 17.9553 15.0616C17.5238 15.6825 16.3926 16.798 15.7717 17.2084C12.8462 19.1552 9.2262 19.1552 6.30072 17.2084C5.67984 16.798 4.54859 15.6825 4.11713 15.0616C3.49625 14.1672 3.01218 13.0517 2.77541 11.9678C2.62808 11.2996 2.55442 10.2946 2.60703 9.69475L2.64913 9.20542L2.35447 9.00547C2.19662 8.90024 1.95985 8.72134 1.83883 8.61611C1.71255 8.51088 1.59153 8.42669 1.56522 8.42669C1.54418 8.42669 1.50208 8.63189 1.47051 8.88445Z" fill="#24201f"/>
</g>
<g id="Group_6">
<path id="Vector_4" d="M5.23926 10.5823C5.23926 11.8662 6.26528 13.1447 7.58596 13.4973C8.14896 13.6499 9.3644 13.5762 9.56434 13.3763C9.59591 13.3447 9.51173 13.2026 9.33283 12.9922L9.05396 12.6659L8.44887 12.6607C7.88061 12.6554 7.82273 12.6449 7.48599 12.487C6.84933 12.1819 6.29685 11.5189 6.20214 10.9348C6.17057 10.7033 6.03903 10.5928 5.58127 10.3929C5.42342 10.3192 5.27609 10.2614 5.26557 10.2614C5.24978 10.2614 5.23926 10.4034 5.23926 10.5823Z" fill="#24201f"/>
</g>
<g id="Group_7">
<path id="Vector_5" d="M16.8591 10.3931C16.4118 10.5983 16.2855 10.7088 16.254 10.9351C16.1593 11.5191 15.6068 12.1821 14.9701 12.4873C14.6334 12.6451 14.5755 12.6557 14.0072 12.6609L13.4021 12.6662L13.1233 12.9924C12.9444 13.2029 12.8602 13.3449 12.8918 13.3765C13.0917 13.5764 14.3072 13.6501 14.8702 13.4975C15.9435 13.2081 16.8591 12.2926 17.1327 11.2297C17.2169 10.8983 17.2484 10.2616 17.18 10.2669C17.1537 10.2669 17.0116 10.3247 16.8591 10.3931Z" fill="#24201f"/>
</g>
</g>
</g>
</svg>
