<svg width="24" height="24" viewBox="0 0 24 24" fill="none" xmlns="http://www.w3.org/2000/svg">
<g id="image-11 1" clip-path="url(#clip0_766_3177)">
<g id="Group">
<path id="Vector" d="M11.1314 0.048193V0.096386H10.7493H10.3673V0.139759V0.182329L10.2933 0.187952C10.2531 0.190361 10.1445 0.19277 10.052 0.19277H9.88472V0.236145V0.278715L9.81072 0.284336C9.77051 0.286747 9.66193 0.289156 9.56944 0.289156H9.40214V0.332529V0.375099L9.32815 0.380722C9.28794 0.383133 9.18177 0.385542 9.09169 0.385542H8.92842L8.92601 0.431324L8.92359 0.477911L8.73298 0.48032L8.54155 0.481928V0.530121V0.578312H8.39678H8.25201V0.621687V0.66506L8.1555 0.670683L8.05898 0.676304V0.718876V0.760643L7.98499 0.766264C7.94477 0.768675 7.87962 0.771084 7.84021 0.771084H7.76944V0.814457V0.857027L7.69544 0.86265C7.65523 0.865059 7.59008 0.86747 7.55067 0.86747H7.47989V0.910843V0.954216L7.38338 0.959839L7.28686 0.966265V1.00803V1.0498L7.21287 1.05542C7.17265 1.05783 7.10912 1.06024 7.07212 1.06024H7.00536V1.10442V1.14779L6.9555 1.1502L6.90483 1.15261L6.90241 1.19839L6.9 1.24418L6.8059 1.24659L6.7118 1.24899L6.70938 1.29478L6.70697 1.34137H6.64021C6.60322 1.34137 6.54048 1.34377 6.50027 1.34618L6.42627 1.35181V1.39357V1.43614L6.32976 1.44177L6.23324 1.44739V1.49076V1.53414H6.18499H6.13673V1.58233V1.63052H6.04021H5.9437V1.67871V1.7261L5.8496 1.72851L5.75469 1.73092L5.75228 1.77671L5.74987 1.82329H5.70241H5.65416V1.87148V1.91968H5.55764H5.46113V1.96787V2.01606H5.36863H5.27614V2.06426V2.11245H5.22788H5.17962V2.16064V2.20884H5.12735H5.07507V2.25703V2.30522H4.98257H4.89008V2.35341V2.40161H4.84182H4.79437L4.79196 2.44739L4.78954 2.49397L4.73968 2.49639L4.68901 2.49879V2.54136V2.58474L4.59651 2.59036L4.50402 2.59598V2.64337V2.69076H4.45576H4.40751V2.73895V2.78715H4.35925H4.31099V2.83133V2.8755H4.26273H4.21448V2.92369V2.97189H4.16622H4.11796V3.02008V3.06827H4.06971H4.02145V3.11566V3.16305L3.92895 3.16867L3.83727 3.1743L3.83485 3.21928L3.83244 3.26506L3.78257 3.26747L3.7319 3.26988V3.31727V3.36546H3.68365H3.63539V3.41365V3.46185H3.59115H3.54772L3.54531 3.50763L3.5429 3.55422L3.49705 3.55663L3.4504 3.55904V3.60241V3.64659H3.40214H3.35389V3.69478V3.74297H3.30563H3.25818L3.25576 3.79277L3.25335 3.84337L3.20751 3.84578L3.16247 3.84819L3.15684 3.93976L3.15121 4.03213H3.10375H3.0563V4.08032V4.12851H3.00804H2.95979V4.17671V4.2249H2.91153H2.86327V4.27309V4.32129H2.81903H2.7748V4.36948V4.41767H2.72654H2.67828V4.46586V4.51406H2.63083H2.58338L2.57775 4.60643L2.57212 4.6988H2.52869H2.48606L2.48365 4.74859L2.48123 4.7992L2.43458 4.80161L2.38874 4.80402V4.85141V4.8996H2.34048H2.29223V4.99197V5.08434H2.24397H2.19651L2.1941 5.13414L2.19169 5.18474L2.14504 5.18715L2.0992 5.18956V5.23695V5.28514H2.05094H2.00268V5.37751V5.46988H1.95442H1.90617V5.56627V5.66265H1.85791H1.80965V5.71084V5.75823L1.763 5.76064L1.71716 5.76305L1.71475 5.85703L1.71233 5.95181H1.66488H1.61662V6.04418V6.13574L1.57078 6.13815L1.52413 6.14056L1.52172 6.19036L1.5193 6.24096H1.47668H1.43324L1.42761 6.33735L1.42198 6.43373H1.37936H1.33673L1.3311 6.53012L1.32547 6.6265H1.28284H1.24102L1.23539 6.7004C1.23298 6.74056 1.23056 6.80321 1.23056 6.84016V6.90683L1.18472 6.90924L1.13807 6.91165L1.13566 6.96144L1.13324 7.01205H1.08981H1.04638L1.04397 7.10602L1.04155 7.2008L0.99571 7.20321L0.949062 7.20562V7.27952C0.949062 7.32048 0.946649 7.38313 0.943432 7.41928L0.938606 7.48594H0.895979H0.852547V7.55663C0.852547 7.59598 0.850134 7.66104 0.847721 7.7012L0.842091 7.7751H0.799464H0.756032V7.84578C0.756032 7.88514 0.753619 7.9502 0.751206 7.99036L0.745576 8.06426H0.703753H0.661126L0.655496 8.16064L0.649866 8.25703H0.606434H0.563003V8.40161V8.54618H0.514745H0.466488L0.464879 8.73655L0.462466 8.92771L0.416622 8.93012L0.369973 8.93253V9.09558C0.369973 9.18554 0.36756 9.29157 0.365147 9.33173L0.359517 9.40562H0.31689H0.273458V9.57269C0.273458 9.66506 0.271046 9.77349 0.268633 9.81365L0.263003 9.88755H0.220375H0.176944V10.0546C0.176944 10.147 0.174531 10.2554 0.172118 10.2956L0.166488 10.3695H0.123861H0.080429V10.751V11.1325H0.0402145H0V12V12.8675H0.0402145H0.080429V13.249V13.6305H0.123861H0.166488L0.172118 13.7044C0.174531 13.7446 0.176944 13.853 0.176944 13.9454V14.1124H0.220375H0.263003L0.268633 14.1863C0.271046 14.2265 0.273458 14.3349 0.273458 14.4273V14.5944H0.31689H0.359517L0.365147 14.6683C0.36756 14.7084 0.369973 14.8145 0.369973 14.9044V15.0675L0.416622 15.0699L0.462466 15.0723L0.464879 15.2627L0.466488 15.4538H0.514745H0.563003V15.5984V15.743H0.606434H0.649866L0.655496 15.8394L0.661126 15.9357H0.703753H0.745576L0.751206 16.0096C0.753619 16.0498 0.756032 16.1149 0.756032 16.1542V16.2249H0.799464H0.842091L0.847721 16.2988C0.850134 16.339 0.852547 16.404 0.852547 16.4434V16.5141H0.895979H0.938606L0.943432 16.5799C0.946649 16.6169 0.949062 16.6795 0.949062 16.7205V16.7944L0.99571 16.7968L1.04155 16.7992L1.04397 16.8932L1.04638 16.988H1.08981H1.13324L1.13566 17.0378L1.13807 17.0884L1.18391 17.0908L1.23056 17.0932V17.1598C1.23056 17.1968 1.23298 17.2594 1.23539 17.2996L1.24102 17.3735H1.28284H1.32547L1.3311 17.4699L1.33673 17.5663H1.37936H1.42198L1.42761 17.6627L1.43324 17.759H1.47668H1.5193L1.52172 17.8088L1.52413 17.8594L1.57078 17.8618L1.61662 17.8643V17.9558V18.0482H1.66488H1.71233L1.71475 18.1422L1.71716 18.2369L1.763 18.2394L1.80965 18.2418V18.2892V18.3373H1.85791H1.90617V18.4337V18.5301H1.95442H2.00268V18.6225V18.7149H2.05094H2.0992V18.7631V18.8104L2.14584 18.8129L2.19169 18.8153L2.1941 18.8651L2.19651 18.9157H2.24397H2.29223V19.008V19.1004H2.34048H2.38874V19.1486V19.196L2.43539 19.1984L2.48123 19.2008L2.48365 19.2506L2.48606 19.3012H2.52869H2.57212L2.57775 19.3936L2.58338 19.4859H2.63083H2.67828V19.5341V19.5823H2.72654H2.7748V19.6305V19.6787H2.81903H2.86327V19.7269V19.7751H2.91153H2.95979V19.8233V19.8715H3.00804H3.0563V19.9197V19.9679H3.10375H3.15121L3.15684 20.0643L3.16247 20.1606H3.20992H3.25737V20.2088V20.257H3.30563H3.35389V20.3052V20.3534H3.40214H3.4504V20.3976V20.441L3.49705 20.4434L3.5429 20.4458L3.54531 20.4916L3.54772 20.5382H3.59115H3.63539V20.5863V20.6345H3.68365H3.7319V20.6827V20.7301L3.78177 20.7325L3.83244 20.7349L3.83485 20.7807L3.83727 20.8257L3.92895 20.8313L4.02145 20.8369V20.8843V20.9317H4.06971H4.11796V20.9799V21.0281H4.16622H4.21448V21.0763V21.1245H4.26273H4.31099V21.1687V21.2129H4.35925H4.40751V21.261V21.3092H4.45576H4.50402V21.3566V21.404L4.59651 21.4096L4.68901 21.4153V21.4586V21.5012L4.73968 21.5036L4.78954 21.506L4.79196 21.5518L4.79437 21.5984H4.84182H4.89008V21.6466V21.6948H4.98257H5.07507V21.743V21.7904L5.12574 21.7928L5.1756 21.7952L5.17802 21.841L5.18043 21.8876H5.22788H5.27614V21.9357V21.9839H5.36863H5.46113V22.0321V22.0803H5.55764H5.65416V22.1285V22.1767H5.70241H5.74987L5.75228 22.2225L5.75469 22.2691L5.8496 22.2715L5.9437 22.2739V22.3213V22.3695H6.04021H6.13673V22.4177V22.4659H6.18499H6.23324V22.5092V22.5526L6.32976 22.5582L6.42627 22.5639V22.6064V22.649L6.52279 22.6546L6.6193 22.6602V22.7028V22.7454L6.71582 22.751L6.81233 22.7566V22.7992V22.8418L6.90885 22.8474L7.00536 22.853V22.8964V22.9398H7.07212C7.10912 22.9398 7.17265 22.9422 7.21287 22.9446L7.28686 22.9502V22.992V23.0337L7.38338 23.0402L7.47989 23.0458V23.0892V23.1325H7.55067C7.59008 23.1325 7.65523 23.1349 7.69544 23.1373L7.76944 23.143V23.1855V23.2289H7.84021C7.87962 23.2289 7.94477 23.2313 7.98499 23.2337L8.05898 23.2394V23.2811V23.3237L8.1555 23.3293L8.25201 23.3349V23.3783V23.4217H8.39678H8.54155V23.4699V23.5181L8.73298 23.5197L8.92359 23.5221L8.92601 23.5687L8.92842 23.6145H9.09169C9.18177 23.6145 9.28794 23.6169 9.32815 23.6193L9.40214 23.6249V23.6675V23.7108H9.56944C9.66193 23.7108 9.77051 23.7133 9.81072 23.7157L9.88472 23.7213V23.7639V23.8072H10.052C10.1445 23.8072 10.2531 23.8096 10.2933 23.812L10.3673 23.8177V23.8602V23.9036H10.7493H11.1314V23.9518V24H12H12.8686V23.9518V23.9036H13.2507H13.6327V23.8602V23.8177L13.7067 23.812C13.7469 23.8096 13.8555 23.8072 13.948 23.8072H14.1153V23.7639V23.7213L14.1893 23.7157C14.2295 23.7133 14.3381 23.7108 14.4306 23.7108H14.5979V23.6675V23.6249L14.6718 23.6193C14.7121 23.6169 14.8182 23.6145 14.9083 23.6145H15.0716L15.074 23.5679L15.0764 23.5221L15.2678 23.5197L15.4584 23.5181V23.4699V23.4217H15.6032H15.748V23.3783V23.3349L15.8445 23.3293L15.941 23.3237V23.2811V23.2394L16.015 23.2337C16.0552 23.2313 16.1204 23.2289 16.1598 23.2289H16.2306V23.1855V23.143L16.3046 23.1373C16.3448 23.1349 16.4099 23.1325 16.4493 23.1325H16.5201V23.0892V23.0458L16.6166 23.0402L16.7131 23.0337V22.992V22.9502L16.7871 22.9446C16.8273 22.9422 16.8909 22.9398 16.9279 22.9398H16.9946V22.8964V22.853L17.0912 22.8474L17.1877 22.8418V22.7984V22.7558L17.2383 22.7534L17.2882 22.751L17.2906 22.7052L17.293 22.6586H17.3598C17.3968 22.6586 17.4595 22.6562 17.4997 22.6538L17.5737 22.6482V22.6064V22.5639L17.6702 22.5582L17.7668 22.5526V22.5092V22.4659H17.815H17.8633V22.4177V22.3695H17.9598H18.0563V22.3221V22.2747L18.1528 22.2691L18.2493 22.2635V22.2201V22.1767H18.2976H18.3458V22.1285V22.0803H18.4424H18.5389V22.0321V21.9839H18.6314H18.7239V21.9357V21.8876H18.7721H18.8204V21.8394V21.7912H18.8727H18.9249V21.743V21.6948H19.0174H19.1099V21.6466V21.5984H19.1582H19.2056L19.208 21.5518L19.2105 21.506L19.2611 21.5036L19.311 21.5012V21.4586V21.4153L19.4035 21.4096L19.496 21.404V21.3566V21.3092H19.5442H19.5925V21.261V21.2129H19.6408H19.689V21.1687V21.1245H19.7373H19.7855V21.0763V21.0281H19.8338H19.882V20.9799V20.9317H19.9303H19.9786V20.8843V20.8369L20.071 20.8313L20.1627 20.8257L20.1651 20.7807L20.1676 20.7349L20.2182 20.7325L20.2681 20.7301V20.6827V20.6345H20.3164H20.3646V20.5863V20.5382H20.4088H20.4523L20.4547 20.4916L20.4571 20.4458L20.5038 20.4434L20.5496 20.441V20.3976V20.3534H20.5979H20.6461V20.3052V20.257H20.6944H20.7426V20.2088V20.1606H20.7901H20.8375L20.8432 20.0643L20.8488 19.9679H20.8962H20.9437V19.9197V19.8715H20.992H21.0402V19.8233V19.7751H21.0885H21.1367V19.7269V19.6787H21.181H21.2252V19.6305V19.5823H21.2735H21.3217V19.5341V19.4859H21.3692H21.4166L21.4223 19.3936L21.4279 19.3012H21.4713H21.5139L21.5164 19.2506L21.5188 19.2008L21.5654 19.1984L21.6113 19.196V19.1486V19.1004H21.6595H21.7078V19.008V18.9157H21.756H21.8035L21.8059 18.8651L21.8083 18.8153L21.855 18.8129L21.9008 18.8104V18.7631V18.7149H21.9491H21.9973V18.6225V18.5301H22.0456H22.0938V18.4337V18.3373H22.1421H22.1903V18.2892V18.2418L22.237 18.2394L22.2828 18.2369L22.2853 18.143L22.2877 18.0482H22.3351H22.3834V17.9558V17.8643L22.43 17.8618L22.4759 17.8594L22.4783 17.8088L22.4807 17.759H22.5233H22.5668L22.5724 17.6627L22.578 17.5663H22.6206H22.6633L22.6689 17.4699L22.6745 17.3735H22.7172H22.759L22.7646 17.2996C22.767 17.2594 22.7694 17.1968 22.7694 17.1598V17.0932L22.8161 17.0908L22.8619 17.0884L22.8643 17.0378L22.8668 16.988H22.9102H22.9536L22.956 16.8932L22.9584 16.7992L23.0051 16.7968L23.0509 16.7944V16.7205C23.0509 16.6795 23.0534 16.6169 23.0566 16.5799L23.0614 16.5141H23.104H23.1475V16.4434C23.1475 16.404 23.1499 16.339 23.1523 16.2988L23.1579 16.2249H23.2005H23.244V16.1542C23.244 16.1149 23.2464 16.0498 23.2488 16.0096L23.2544 15.9357H23.2962H23.3389L23.3445 15.8394L23.3501 15.743H23.3936H23.437V15.5984V15.4538H23.4853H23.5335L23.5351 15.2627L23.5375 15.0723L23.5842 15.0699L23.63 15.0675V14.9044C23.63 14.8145 23.6324 14.7084 23.6349 14.6683L23.6405 14.5944H23.6831H23.7265V14.4273C23.7265 14.3349 23.729 14.2265 23.7314 14.1863L23.737 14.1124H23.7796H23.8231V13.9454C23.8231 13.853 23.8255 13.7446 23.8279 13.7044L23.8335 13.6305H23.8761H23.9196V13.249V12.8675H23.9598H24V12V11.1325H23.9598H23.9196V10.751V10.3695H23.8761H23.8335L23.8279 10.2956C23.8255 10.2554 23.8231 10.147 23.8231 10.0546V9.88755H23.7796H23.737L23.7314 9.81365C23.729 9.77349 23.7265 9.66506 23.7265 9.57269V9.40562H23.6831H23.6405L23.6349 9.33173C23.6324 9.29157 23.63 9.18554 23.63 9.09558V8.93253L23.5842 8.93012L23.5375 8.92771L23.5351 8.73655L23.5335 8.54618H23.4853H23.437V8.40161V8.25703H23.3936H23.3501L23.3445 8.16064L23.3389 8.06426H23.2962H23.2544L23.2488 7.99036C23.2464 7.9502 23.244 7.88514 23.244 7.84578V7.7751H23.2005H23.1579L23.1523 7.7012C23.1499 7.66104 23.1475 7.59598 23.1475 7.55663V7.48594H23.104H23.0614L23.0566 7.41928C23.0534 7.38313 23.0509 7.32048 23.0509 7.27952V7.20562L23.0051 7.20321L22.9584 7.2008L22.956 7.10602L22.9536 7.01205H22.9102H22.8668L22.8643 6.96144L22.8619 6.91165L22.8161 6.90924L22.7694 6.90683V6.84016C22.7694 6.80321 22.767 6.74056 22.7646 6.7004L22.759 6.6265H22.7172H22.6745L22.6689 6.53012L22.6633 6.43373H22.6206H22.578L22.5724 6.33735L22.5668 6.24096H22.5233H22.4807L22.4783 6.19036L22.4759 6.14056L22.43 6.13815L22.3834 6.13574V6.04418V5.95181H22.3351H22.2877L22.2853 5.85703L22.2828 5.76305L22.237 5.76064L22.1903 5.75823V5.71084V5.66265H22.1421H22.0938V5.56627V5.46988H22.0456H21.9973V5.37751V5.28514H21.9491H21.9008V5.23695V5.18956L21.855 5.18715L21.8083 5.18474L21.8059 5.13414L21.8035 5.08434H21.756H21.7078V4.99197V4.8996H21.6595H21.6113V4.85141V4.80402L21.5654 4.80161L21.5188 4.7992L21.5164 4.74859L21.5139 4.6988H21.4713H21.4279L21.4223 4.60643L21.4166 4.51406H21.3692H21.3217V4.46586V4.41767H21.2735H21.2252V4.36948V4.32129H21.181H21.1367V4.27309V4.2249H21.0885H21.0402V4.17671V4.12851H20.992H20.9437V4.08032V4.03213H20.8962H20.8488L20.8432 3.93976L20.8375 3.84819L20.7925 3.84578L20.7466 3.84337L20.7442 3.79277L20.7418 3.74297H20.6944H20.6461V3.69478V3.64659H20.5979H20.5496V3.60241V3.55904L20.5038 3.55663L20.4571 3.55422L20.4547 3.50763L20.4523 3.46185H20.4088H20.3646V3.41365V3.36546H20.3164H20.2681V3.31727V3.26988L20.2182 3.26747L20.1676 3.26506L20.1651 3.21928L20.1627 3.1743L20.071 3.16867L19.9786 3.16305V3.11566V3.06827H19.9303H19.882V3.02008V2.97189H19.8338H19.7855V2.92369V2.8755H19.7373H19.689V2.83133V2.78715H19.6408H19.5925V2.73895V2.69076H19.5442H19.496V2.64337V2.59598L19.4035 2.59036L19.311 2.58474V2.54136V2.49879L19.2611 2.49639L19.2105 2.49397L19.208 2.44739L19.2056 2.40161H19.1582H19.1099V2.35341V2.30522H19.0174H18.9249V2.25703V2.20964L18.8751 2.20723L18.8244 2.20482L18.822 2.15823L18.8196 2.11245H18.7721H18.7239V2.06426V2.01606H18.6314H18.5389V1.96787V1.91968H18.4424H18.3458V1.87148V1.82329H18.2976H18.2501L18.2477 1.77671L18.2453 1.73092L18.1512 1.72851L18.0563 1.7261V1.67871V1.63052H17.9598H17.8633V1.58233V1.53414H17.815H17.7668V1.49076V1.44739L17.6702 1.44177L17.5737 1.43614V1.39357V1.351L17.4772 1.34538L17.3807 1.33976V1.29719V1.25462L17.2842 1.24899L17.1877 1.24337V1.2008V1.15823L17.0912 1.15261L16.9946 1.14699V1.10361V1.06024H16.9279C16.8909 1.06024 16.8273 1.05783 16.7871 1.05542L16.7131 1.0498V1.00803V0.966265L16.6166 0.959839L16.5201 0.954216V0.910843V0.86747H16.4493C16.4099 0.86747 16.3448 0.865059 16.3046 0.86265L16.2306 0.857027V0.814457V0.771084H16.1598C16.1204 0.771084 16.0552 0.768675 16.015 0.766264L15.941 0.760643V0.718876V0.676304L15.8445 0.670683L15.748 0.66506V0.621687V0.578312H15.6032H15.4584V0.530121V0.481928L15.2678 0.48032L15.0764 0.477911L15.074 0.431324L15.0716 0.385542H14.9083C14.8182 0.385542 14.7121 0.383133 14.6718 0.380722L14.5979 0.375099V0.332529V0.289156H14.4306C14.3381 0.289156 14.2295 0.286747 14.1893 0.284336L14.1153 0.278715V0.236145V0.19277H13.948C13.8555 0.19277 13.7469 0.190361 13.7067 0.187952L13.6327 0.182329V0.139759V0.096386H13.2507H12.8686V0.048193V0H12H11.1314V0.048193ZM12.6756 2.73333V2.77671L12.822 2.78153C12.9016 2.78474 13.0086 2.78715 13.0592 2.78715H13.1501V2.82972V2.87309L13.229 2.87791C13.2716 2.88112 13.3367 2.88353 13.3737 2.88353H13.4397V2.92691V2.97028L13.5362 2.9759L13.6327 2.98153V3.0241V3.06667L13.7292 3.07229L13.8257 3.07791V3.12128V3.16466H13.874H13.9223V3.21285V3.26104H13.9705H14.0188V3.30843V3.35582L14.1153 3.36144L14.2118 3.36707V3.41044V3.45301L14.2584 3.45542L14.3043 3.45783L14.3067 3.50361L14.3091 3.5494L14.355 3.55181L14.4008 3.55422L14.4032 3.6L14.4056 3.64659H14.4483H14.4917L14.4973 3.74297L14.5029 3.83936H14.5504H14.5979V3.88755V3.93574H14.6461H14.6944V3.98393V4.03213H14.7378H14.7812L14.7869 4.12851L14.7925 4.2249H14.8351H14.8777L14.8834 4.32129L14.889 4.41767H14.9316H14.9735L14.9791 4.49157C14.9815 4.53173 14.9839 4.59518 14.9839 4.63213V4.6988H15.0273H15.07L15.0756 4.77269C15.078 4.81285 15.0804 4.87791 15.0804 4.91727V4.98795H15.1231H15.1665L15.1713 5.21044C15.1745 5.33333 15.1769 6.11245 15.1769 6.94136V8.4498H16.4718H17.7668V8.49237V8.53574L17.9131 8.54056C17.9928 8.54377 18.1013 8.54618 18.1544 8.54618H18.2493V8.58956V8.63213L18.3233 8.63775C18.3635 8.64016 18.4287 8.64257 18.4681 8.64257H18.5389V8.68594V8.72932L18.6354 8.73494L18.7319 8.74056V8.78313V8.8257L18.8244 8.83132L18.9169 8.83695V8.88032V8.92289L18.9676 8.9253L19.0174 8.92771L19.0198 8.97269L19.0223 9.01847L19.1139 9.0241L19.2056 9.02972L19.208 9.0747L19.2105 9.12048L19.2571 9.12289L19.3029 9.1253V9.16867V9.21285H19.3512H19.3995V9.26104V9.30924H19.4477H19.496V9.35743V9.40562H19.5442H19.5925V9.45381V9.50201H19.6408H19.6882L19.6906 9.55181L19.693 9.60241L19.7397 9.60482L19.7855 9.60723V9.6988V9.79116H19.8338H19.882V9.83936V9.88755H19.9303H19.9786V9.98394V10.0803H20.0268H20.0751V10.1767V10.2731H20.1185H20.1611L20.1668 10.347C20.1692 10.3871 20.1716 10.4715 20.1716 10.5349V10.6498L20.2182 10.6522L20.2641 10.6546L20.2665 10.9414L20.2681 11.2289H20.3123H20.3566V11.4217V11.6145H20.3123H20.2681V11.8554V12.0964H20.2198H20.1716V12.241V12.3855H20.1233H20.0751V12.5261V12.6667H20.0268H19.9786V12.7631V12.8594H19.9303H19.882V12.9116V12.9639H19.8338H19.7855V13.012V13.0602H19.7421H19.6987L19.693 13.1526L19.6874 13.2442L19.6416 13.2466L19.5965 13.249L19.5941 13.2948L19.5917 13.3406L19.5458 13.343L19.5 13.3454L19.4976 13.3952L19.4952 13.4458H19.4517H19.4083L19.4059 13.4916L19.4035 13.5382L19.3576 13.5406L19.3126 13.543L19.307 13.6345L19.3013 13.7269H19.2539H19.2064V13.7751V13.8233H19.1622H19.118V13.8715V13.9197H19.0697H19.0214V13.9679V14.0161H18.974H18.9265L18.9209 14.1084L18.9153 14.2L18.8702 14.2024L18.8244 14.2048L18.822 14.2546L18.8196 14.3052H18.7761H18.7327L18.7303 14.351L18.7279 14.3976L18.682 14.4L18.6354 14.4024V14.4498V14.498H18.5871H18.5389V14.5462V14.5944H18.4914H18.444L18.4383 14.6867L18.4327 14.7791H18.3893H18.3458V14.8273V14.8755H18.2976H18.2493V14.9277V14.9799H18.2011H18.1528V15.0281V15.0763H18.1046H18.0563V15.1687V15.261H18.008H17.9598V15.3092V15.3574H17.9115H17.8633V15.4056V15.4538H17.815H17.7668V15.502V15.5494L17.7209 15.5518L17.6743 15.5542L17.6719 15.604L17.6694 15.6546H17.6268H17.5834L17.5777 15.747L17.5721 15.8394H17.5247H17.4772V15.8876V15.9357H17.429H17.3807V15.9839V16.0321H17.3365H17.293L17.2906 16.0779L17.2882 16.1245L17.2432 16.1269L17.1973 16.1293L17.1917 16.2209L17.1861 16.3124L17.141 16.3149L17.0952 16.3173L17.0928 16.3671L17.0903 16.4177H17.0429H16.9946V16.4659V16.5141H16.9504H16.907L16.9046 16.5598L16.9021 16.6064L16.8563 16.6088L16.8097 16.6112V16.6586V16.7068H16.7622H16.7147L16.7091 16.7992L16.7035 16.8916H16.6601H16.6166V16.9398V16.988H16.5684H16.5209L16.5185 17.0386L16.5161 17.0884L16.4702 17.0908L16.4244 17.0932L16.422 17.139L16.4196 17.1847L16.3737 17.1871L16.3271 17.1896V17.2369V17.2851H16.2788H16.2306V17.3775V17.4699H16.1823H16.134V17.5181V17.5663H16.0858H16.0375V17.6145V17.6627H15.9893H15.941V17.7108V17.7582L15.8952 17.7606L15.8485 17.7631L15.8461 17.857L15.8437 17.9518H15.7962H15.748V18V18.0482H15.6997H15.6515V18.0964V18.1446H15.6032H15.555V18.1928V18.241H15.5067H15.4584V18.2892V18.3373H15.415H15.3716L15.366 18.4297L15.3603 18.5213L15.3153 18.5237L15.2694 18.5261L15.267 18.5759L15.2646 18.6265H15.2172H15.1689V18.6747V18.7229H15.1247H15.0812L15.0788 18.7687L15.0764 18.8153L15.0306 18.8177L14.9847 18.8201L14.9823 18.8659L14.9799 18.9116L14.9349 18.9141L14.889 18.9165L14.8834 19.008L14.8777 19.1004H14.8343H14.7909V19.1486V19.1968H14.7426H14.6952L14.6928 19.2466L14.6903 19.2972L14.6445 19.2996L14.5987 19.302L14.5962 19.3478L14.5938 19.3936L14.5488 19.396L14.5029 19.3984L14.4973 19.49L14.4917 19.5823H14.4483H14.4048V19.6305V19.6787H14.3566H14.3083V19.7269V19.7751H14.2601H14.2118V19.8233V19.8715H14.1635H14.1153V19.9197V19.9679H14.067H14.0188V20.0643V20.1606H13.9705H13.9223V20.2088V20.257H13.874H13.8257V20.3052V20.3534H13.7775H13.7292V20.4016V20.4498H13.681H13.6327V20.498V20.5462H13.5845H13.5362V20.5896V20.6329L13.4437 20.6386L13.352 20.6442L13.3496 20.69L13.3472 20.7349L13.2973 20.7373L13.2466 20.7398V20.7823V20.8257L13.1542 20.8313L13.0617 20.8369V20.8795V20.9221L12.9651 20.9277L12.8686 20.9333V20.9759V21.0177L12.7946 21.0233C12.7544 21.0257 12.6893 21.0281 12.6499 21.0281H12.5791V21.0715V21.1141L12.5051 21.1197C12.4649 21.1221 12.378 21.1245 12.3121 21.1245H12.193V21.1687V21.2129H11.7105H11.2279V21.1687V21.1245H11.1137C11.0501 21.1245 10.9633 21.1221 10.9206 21.1189L10.8418 21.1141V21.0707V21.0281H10.7751C10.7381 21.0281 10.6745 21.0257 10.6343 21.0233L10.5603 21.0177V20.9759V20.9333L10.4638 20.9277L10.3673 20.9221V20.8795V20.8369L10.2708 20.8313L10.1743 20.8257V20.7823V20.739H10.126H10.0777V20.6916V20.6442L9.98123 20.6386L9.88472 20.6329V20.5896V20.5462H9.83646H9.7882V20.498V20.4498H9.73995H9.69169V20.4016V20.3534H9.64343H9.59517V20.3052V20.2578L9.54933 20.2554L9.50268 20.253L9.50027 20.2064L9.49786 20.1606H9.45523H9.4118L9.40617 20.0643L9.40054 19.9679H9.35308H9.30563V19.9197V19.8715H9.2622H9.21877L9.21314 19.7751L9.2067 19.6787H9.16488H9.12225L9.11662 19.5823L9.11019 19.4859H9.06836H9.02574L9.02011 19.3896L9.01448 19.2932H8.97185H8.92922L8.92359 19.1044L8.91796 18.9157H8.87533H8.83351L8.82869 18.6972C8.82547 18.5775 8.82306 17.7984 8.82306 16.9663V15.4538H7.52815H6.23324V15.4112V15.3679L6.08686 15.3631C6.00724 15.3598 5.89866 15.3574 5.84558 15.3574H5.75067V15.3141V15.2715L5.67668 15.2659C5.63646 15.2635 5.57292 15.261 5.53592 15.261H5.46917V15.2177V15.1743L5.37265 15.1687L5.27614 15.1631V15.1205V15.0779L5.17962 15.0723L5.08391 15.0667L5.0815 15.0209L5.07909 14.9759L5.02922 14.9735L4.97855 14.9711V14.9285V14.8851L4.88606 14.8795L4.79437 14.8739L4.79196 14.8289L4.78954 14.7831L4.7437 14.7807L4.69705 14.7783V14.7349V14.6908H4.64879H4.60054V14.6426V14.5944H4.55228H4.50402V14.5462V14.498H4.45576H4.40751V14.4498V14.4016H4.35925H4.3118L4.30938 14.351L4.30697 14.3012L4.26113 14.2988L4.21448 14.2964V14.2048V14.1124H4.16622H4.11796V14.0643V14.0161H4.06971H4.02145V13.9197V13.8233H3.97319H3.92493V13.6827V13.5422H3.87668H3.82842V13.3976V13.2538L3.78177 13.2514L3.73592 13.249L3.73351 12.9614L3.7319 12.6747H3.68847H3.64584L3.64102 12.6C3.63861 12.5598 3.63861 12.4924 3.64102 12.4514L3.64584 12.3775H3.68928H3.7319V12.0924V11.8072H3.78016H3.82842V11.6843C3.82842 11.6177 3.83083 11.5325 3.83405 11.4956L3.83887 11.4297H3.8815H3.92493V11.3293V11.2289H3.97319H4.02145V11.1365V11.0442H4.06971H4.11796V10.992V10.9398H4.16622H4.21448V10.8474V10.755H4.26273H4.31099V10.7068V10.6594L4.35764 10.657L4.40349 10.6546L4.4059 10.6088L4.40831 10.5631L4.45416 10.5606L4.5 10.5582L4.50241 10.5076L4.50483 10.4578H4.54745H4.59088L4.59651 10.3655L4.60214 10.2731H4.6496H4.69705V10.2249V10.1767H4.74531H4.79357V10.1285V10.0803H4.8378H4.88204V10.0321V9.98394H4.93029H4.97855V9.93574V9.88755H5.02601H5.07346L5.07909 9.79116L5.08472 9.69478H5.13217H5.17962V9.64659V9.59839H5.22386H5.26729L5.2697 9.55181L5.27212 9.50602L5.31877 9.50361L5.36461 9.5012V9.45381V9.40562H5.41206H5.45952L5.46515 9.31325L5.47078 9.22169L5.51582 9.21928L5.56166 9.21687L5.56407 9.17028L5.56649 9.1245H5.60992H5.65416V9.0763V9.02811H5.70241H5.75067V8.9759V8.92369H5.79893H5.84719V8.8755V8.82731H5.89544H5.9437V8.73494V8.64257H5.99196H6.04021V8.59438V8.54618H6.08847H6.13673V8.49799V8.4498H6.18499H6.23324V8.40161V8.35422L6.27989 8.35181L6.32574 8.3494L6.32815 8.29879L6.33056 8.249H6.37319H6.41662L6.42225 8.15663L6.42788 8.06426H6.47534H6.52279V8.01606V7.96787H6.57105H6.6193V7.91968V7.87148H6.66354H6.70697L6.70938 7.8249L6.7118 7.77912L6.75684 7.77671L6.80268 7.7743L6.80831 7.68273L6.81394 7.59116L6.85898 7.58875L6.90483 7.58635L6.90724 7.53574L6.90965 7.48594H6.9571H7.00536V7.43775V7.38956H7.0496H7.09303L7.09544 7.34297L7.09786 7.29719L7.1445 7.29478L7.19035 7.29237V7.24498V7.19679H7.2378H7.28525L7.29088 7.10442L7.29651 7.01205H7.33995H7.38338V6.96386V6.91566H7.43164H7.47989V6.86747V6.81928H7.52815H7.5756L7.57802 6.76867L7.58043 6.71888L7.62708 6.71646L7.67292 6.71406V6.66667V6.61847H7.72118H7.76944V6.5261V6.43373H7.81769H7.86595V6.38554V6.33735H7.91421H7.96247V6.28916V6.24096H8.01072H8.05898V6.19277V6.14538L8.10563 6.14297L8.15147 6.14056L8.15389 6.04578L8.1563 5.95181H8.20375H8.25201V5.90361V5.85542H8.30027H8.34853V5.80723V5.75904H8.39678H8.44504V5.71084V5.66265H8.4933H8.54155V5.61446V5.56627H8.58499H8.62842L8.63405 5.4739L8.63968 5.38233L8.68472 5.37992L8.73056 5.37751L8.73298 5.32691L8.73539 5.27711H8.78284H8.8311V5.22892V5.18072H8.87533H8.91877L8.92118 5.13414L8.92359 5.08835L8.96944 5.08594L9.01528 5.08353L9.01769 5.03775L9.02011 4.99197L9.06515 4.98956L9.11099 4.98715L9.11662 4.89558L9.12225 4.80402L9.16729 4.80161L9.21314 4.7992L9.21555 4.75261L9.21796 4.70683H9.26139H9.30563V4.65863V4.61044H9.35389H9.40134L9.40375 4.55984L9.40617 4.51004L9.45201 4.50763L9.49786 4.50522L9.50027 4.45944L9.50268 4.41365L9.54772 4.41125L9.59357 4.40883L9.5992 4.31727L9.60483 4.2249H9.64826H9.69169V4.17671V4.12851H9.73995H9.7882V4.08032V4.03213H9.83646H9.88472V3.98393V3.93574H9.93298H9.98123V3.84337V3.751H10.0295H10.0777V3.6988V3.64659H10.126H10.1743V3.59839V3.5502H10.2225H10.2708V3.50201V3.45382H10.319H10.3673V3.41044V3.36707L10.4598 3.36144L10.5515 3.35582L10.5539 3.31004L10.5563 3.26506L10.607 3.26265L10.6568 3.26024V3.21285V3.16466H10.7051H10.7534V3.12128V3.07791L10.8499 3.07229L10.9464 3.06667V3.0241V2.98153L11.0429 2.9759L11.1394 2.97028V2.92691V2.88353H11.2062C11.2424 2.88353 11.3075 2.88112 11.3509 2.87791L11.429 2.87309V2.82972V2.78715H11.5198C11.5705 2.78715 11.6775 2.78474 11.7571 2.78153L11.9035 2.77671V2.73333V2.69076H12.2895H12.6756V2.73333Z" fill="#8457ff"/>
<path id="Vector_2" d="M12.1931 5.04016V5.08434H12.0966H12.0001V5.13253V5.18072H11.9518H11.9036V5.22892V5.27711H11.8553H11.807V5.3253V5.37349H11.7588H11.7105V5.42169V5.46988H11.6623H11.614V5.51807V5.56546L11.5682 5.56787L11.5215 5.57028L11.5191 5.62008L11.5167 5.67068H11.4741H11.4306L11.425 5.76305L11.4194 5.85542H11.3719H11.3245V5.90361V5.95181H11.2762H11.228V6V6.04819H11.1837H11.1403L11.1379 6.09398L11.1355 6.14056L11.0896 6.14297L11.043 6.14538V6.19277V6.24096H10.9955H10.9481L10.9424 6.33735L10.9368 6.43373H10.8934H10.8507L10.8483 6.47952L10.8459 6.5261L10.8001 6.52851L10.7542 6.53092L10.7518 6.57671L10.7494 6.62249L10.7036 6.6249L10.6569 6.62731V6.6747V6.72289H10.6095H10.562L10.5564 6.81526L10.5507 6.90763H10.5073H10.4639V6.95582V7.00401H10.4156H10.3682L10.3658 7.05381L10.3633 7.10442L10.3175 7.10683L10.2717 7.10924L10.2692 7.15502L10.2668 7.2008L10.221 7.20321L10.1743 7.20562V7.25301V7.3012H10.1261H10.0778V7.39357V7.48594H10.0296H9.9813V7.53414V7.58233H9.93304H9.88479V7.63052V7.67871H9.83653H9.78827V7.72691V7.7743L9.74243 7.77671L9.69578 7.77912L9.69337 7.82891L9.69095 7.87952H9.64833H9.60489L9.59926 7.97189L9.59363 8.06426H9.54618H9.49873V8.11245V8.16064H9.45047H9.40221V8.20883V8.25703H9.35798H9.31374V8.30522V8.35341H9.26629H9.21884L9.21321 8.44578L9.20758 8.53735L9.16254 8.53976L9.11669 8.54217L9.11428 8.59197L9.11187 8.64257H9.06441H9.01615V8.69076V8.73895H8.97192H8.92849L8.92607 8.78474L8.92366 8.83132L8.87782 8.83373L8.83117 8.83614V8.88353V8.93173H8.78371H8.73626L8.73063 9.0241L8.725 9.11646H8.68157H8.63814V9.16466V9.21285H8.58988H8.54243L8.54001 9.26265L8.5376 9.31325L8.49176 9.31566L8.44591 9.31807L8.4435 9.36385L8.44109 9.40964L8.39605 9.41205L8.3502 9.41446L8.34457 9.50602L8.33894 9.59839H8.29551H8.25208V9.64659V9.69478H8.20382H8.15556V9.74297V9.79116H8.10731H8.05905V9.83936V9.88755H8.01079H7.96254V9.93574V9.98393H7.9191H7.87567L7.87004 10.0763L7.86441 10.1679L7.81937 10.1703L7.77353 10.1727L7.77111 10.2225L7.7687 10.2731H7.72125H7.67299V10.3213V10.3695H7.62473H7.57648V10.4177V10.4659H7.53304H7.48961L7.48398 10.5582L7.47835 10.6498L7.43251 10.6522L7.38747 10.6546L7.38506 10.7004L7.38264 10.7462L7.3368 10.7486L7.29095 10.751L7.28854 10.8008L7.28613 10.8514H7.23867H7.19042V10.8996V10.9478H7.14618H7.10275L7.10034 10.9936L7.09792 11.0402L7.05208 11.0426L7.00704 11.045L7.00141 11.1365L6.99578 11.2281L6.94993 11.2305L6.90489 11.2329L6.90248 11.2787L6.90007 11.3253H6.85664H6.8124V11.3735V11.4217H6.76414H6.71669L6.71428 11.4715L6.71186 11.5221L6.66682 11.5245L6.62098 11.5269L6.61535 11.6185L6.60972 11.71L6.56468 11.7124L6.51884 11.7149L6.51642 11.7606L6.51401 11.8072H6.47058H6.42634V11.8554V11.9036H6.37808H6.32983V11.9518V12H6.28157H6.23331V12.0482V12.0964H6.18506H6.1368V12.1928V12.2892H6.08854H6.04028V12.5301V12.7711H6.08854H6.1368V12.8193V12.8675H6.18103H6.22447L6.22688 12.9133L6.22929 12.9598L6.27996 12.9622L6.32983 12.9647V13.0072V13.0498L6.40382 13.0554C6.44404 13.0578 7.39551 13.0602 8.5191 13.0602H10.5604V13.1044V13.1478L10.6553 13.1502L10.7494 13.1526L10.7518 13.1984L10.7542 13.245H10.8017H10.8499V13.2932V13.3414H10.8982H10.9464V13.3896V13.4377H10.9947H11.043V13.49V13.5422H11.0856H11.129L11.1338 13.6803C11.1371 13.7566 11.1395 14.8578 11.1395 16.1261V18.4337H11.1829H11.2263L11.232 18.5301L11.2376 18.6265H11.281H11.3237L11.3261 18.6723L11.3285 18.7189L11.3751 18.7213L11.421 18.7237V18.7663V18.8088L11.495 18.8145C11.5891 18.8209 11.832 18.8209 11.9261 18.8145L12.0001 18.8088V18.7663V18.7229H12.0483H12.0966V18.6747V18.6265H12.1448H12.1931V18.5783V18.5301H12.2414H12.2896V18.4819V18.4345L12.3363 18.4321L12.3821 18.4297L12.3845 18.3839L12.3869 18.3373H12.4304H12.4738L12.4762 18.2875L12.4786 18.2369L12.5245 18.2345L12.5695 18.2321L12.5751 18.1406L12.5808 18.0482H12.6282H12.6757V18V17.9518H12.7239H12.7722V17.9036V17.8554H12.8164H12.8599L12.8623 17.8088L12.8647 17.7631L12.9097 17.7606L12.9556 17.7582L12.9612 17.6667L12.9668 17.5751L13.0119 17.5727L13.0577 17.5703L13.0601 17.5197L13.0625 17.4699H13.106H13.1494L13.1518 17.4233L13.1542 17.3775L13.2001 17.3751L13.2459 17.3727L13.2483 17.3269L13.2507 17.2811L13.2974 17.2787L13.3432 17.2763V17.2289V17.1807H13.3907H13.4381L13.4438 17.0884L13.4494 16.996H13.4928H13.5363V16.9478V16.8996H13.5845H13.6328V16.8514V16.8032H13.681H13.7293V16.751V16.6988H13.7775H13.8258V16.6506V16.6024H13.8741H13.9223V16.51V16.4177H13.9706H14.0188V16.3695V16.3213H14.0671H14.1153V16.2731V16.2249H14.1636H14.2119V16.1727V16.1205H14.2553H14.2987L14.3044 16.0281L14.31 15.9357H14.3574H14.4049V15.8875V15.8394H14.4532H14.5014V15.7912V15.743H14.5497H14.5979V15.6948V15.6466H14.6422H14.6864V15.5984V15.5502H14.7338H14.7813L14.7869 15.4578L14.7926 15.3663L14.8376 15.3639L14.8834 15.3614L14.8859 15.3108L14.8883 15.261H14.9317H14.9751L14.9775 15.2145L14.98 15.1687L15.0258 15.1663L15.0717 15.1639L15.0741 15.1181L15.0765 15.0723L15.1215 15.0699L15.1674 15.0675L15.173 14.9759L15.1786 14.8843L15.2237 14.8819L15.2695 14.8795L15.2719 14.8329L15.2743 14.7871H15.3178H15.362V14.739V14.6908H15.4103H15.4577L15.4601 14.6402L15.4625 14.5904L15.5084 14.588L15.5542 14.5855L15.5566 14.5398L15.559 14.494L15.6041 14.4916L15.6499 14.4892L15.6556 14.3976L15.6612 14.3052H15.7046H15.7481V14.257V14.2088H15.7963H15.8446V14.1606V14.1124H15.8928H15.9411V14.0643V14.0161H15.9893H16.0376V13.9237V13.8321L16.0843 13.8297L16.1301 13.8273L16.1325 13.7767L16.1349 13.7269H16.1824H16.2306V13.6787V13.6305H16.2789H16.3271V13.5823V13.5341H16.3714H16.4148L16.4172 13.4875L16.4196 13.4418L16.4655 13.4394L16.5105 13.4369L16.5162 13.3454L16.5218 13.2538L16.5676 13.2514L16.6127 13.249L16.6151 13.2032L16.6175 13.1574L16.6633 13.155L16.7092 13.1526L16.7116 13.102L16.714 13.0522H16.7574H16.8009L16.8033 13.0056L16.8057 12.9598L16.8515 12.9574L16.8966 12.955L16.9022 12.8635L16.9078 12.7719L16.9537 12.7695L16.9987 12.7671L17.0011 12.7213L17.0036 12.6755L17.0494 12.6731L17.0952 12.6707L17.0977 12.6241L17.1001 12.5783H17.1435H17.1877V12.5301V12.4819H17.236H17.2834L17.2859 12.4313L17.2883 12.3815L17.3341 12.3791L17.3792 12.3767L17.3848 12.2851L17.3904 12.1928H17.4338H17.4773V12.1446V12.0964H17.5255H17.5738V12.0482V12H17.6221H17.6703V11.9518V11.9036H17.7178H17.7652L17.7708 11.8112L17.7765 11.7189H17.8199H17.8633V11.6667V11.6145H17.9116H17.9599V11.3735V11.1325H17.9116H17.8633V11.0843V11.0361H17.8191H17.7757L17.7733 10.9896L17.7708 10.9438L17.721 10.9414L17.6703 10.939V10.8964V10.8538L17.5963 10.8482C17.5561 10.8458 16.6062 10.8434 15.4851 10.8434H13.4478V10.8V10.7566L13.3473 10.751L13.2467 10.7454V10.702V10.6586H13.1985H13.1502V10.6104V10.5622H13.1019H13.0537V10.5141V10.4667L13.0078 10.4643L12.9612 10.4618L12.9588 10.4112L12.9564 10.3614H12.9137H12.8711L12.8663 10.2153C12.8631 10.1357 12.8607 9.01526 12.8607 7.7253V5.38153H12.8164H12.773L12.7706 5.33092L12.7682 5.28112L12.7223 5.27871L12.6757 5.2763V5.22892V5.18072H12.6274H12.58L12.5775 5.13414L12.5751 5.08835L12.481 5.08594L12.3861 5.08353V5.04016V4.99598H12.2896H12.1931V5.04016Z" fill="#8457ff"/>
</g>
</g>
<defs>
<clipPath id="clip0_766_3177">
<rect width="24" height="24" fill="white"/>
</clipPath>
</defs>
</svg>
