<svg width="24" height="24" viewBox="0 0 24 24" fill="none" xmlns="http://www.w3.org/2000/svg">
<g id="Frame">
<g clip-path="url(#clip0_812_350)">
<g id="Group">
<g id="svg_2">
<path id="svg_3" d="M4.70601 7.27397C3.91394 9.20834 3.25119 10.841 3.23502 10.9056C3.21886 10.9649 3.28891 11.1966 3.39667 11.4498C3.50443 11.6923 3.59065 11.9132 3.59065 11.9455C3.59065 12.0048 3.00872 13.2818 0.874984 17.9265C0.346939 19.0634 -0.067954 20.0063 -0.0517893 20.0171C-0.0248483 20.0494 3.08415 19.8339 3.29968 19.7908C3.36434 19.7746 3.64992 19.4891 3.94088 19.1388C4.37733 18.6162 4.45276 18.503 4.39349 18.4437C4.35038 18.406 4.0217 18.1797 3.66069 17.9372C3.29429 17.6948 2.99794 17.4631 2.99794 17.42C2.99794 17.3014 3.31585 16.4339 3.53676 15.9652C3.96782 15.0222 4.87843 13.5674 5.83753 12.285C6.11772 11.9078 6.36019 11.5845 6.37097 11.563C6.38713 11.5414 6.17699 11.2559 5.90219 10.9272L5.41186 10.3291L6.01534 8.59408C6.34941 7.64036 6.6296 6.83752 6.64576 6.81597C6.66193 6.78903 6.74814 6.85907 6.83974 6.97761C6.93673 7.09077 7.29235 7.47872 7.6372 7.83434C8.40232 8.63719 8.61785 9.00897 8.61246 9.53702C8.60708 9.72561 8.60169 9.92497 8.59091 9.97885C8.58013 10.0597 8.71484 10.1728 9.19439 10.4746C9.53385 10.6901 9.84636 10.9218 9.87869 10.9918C9.91641 11.0565 10.3852 12.8615 10.9186 14.9953C11.4521 17.129 11.9101 18.9179 11.9316 18.9772C11.9639 19.0472 12.298 17.8079 12.9661 15.1515C13.5104 12.9909 13.9737 11.1481 14.0007 11.0619C14.0384 10.9326 14.1677 10.8194 14.7119 10.48L15.3801 10.0543L15.3262 9.89264C15.24 9.65556 15.31 9.20295 15.4771 8.84733C15.5848 8.62641 15.8057 8.34622 16.226 7.90978C16.5547 7.57032 16.9157 7.17159 17.0342 7.0315C17.1959 6.82674 17.2498 6.78903 17.2875 6.85369C17.3252 6.91834 17.7455 8.11453 18.3544 9.88186L18.5052 10.3237L18.0257 10.9164C17.7617 11.2397 17.5461 11.5199 17.5461 11.536C17.5461 11.5522 17.7724 11.8647 18.0472 12.2311C18.9848 13.4812 19.8631 14.8767 20.3534 15.9059C20.5797 16.3801 20.9407 17.3284 20.9407 17.4469C20.9407 17.4685 20.6012 17.7109 20.1864 17.9857C19.432 18.4868 19.432 18.4868 19.529 18.6C19.6152 18.697 20.445 19.6992 20.4935 19.7585C20.5096 19.7854 23.5324 20.0279 23.8396 20.0333H24.012L23.9366 19.8555C23.8934 19.7639 23.1391 18.1204 22.2608 16.2076C21.3772 14.2948 20.5797 12.5544 20.4773 12.3389L20.2995 11.9509L20.515 11.466L20.7306 10.9757L19.2704 7.40867C18.4621 5.44736 17.7886 3.82012 17.7724 3.79318C17.7563 3.76624 17.6916 3.80396 17.6323 3.87939C17.5677 3.95482 16.6571 5.0163 15.6064 6.23404L13.6989 8.4486H11.9639H10.2289L8.42926 6.36336C7.44322 5.21567 6.538 4.16496 6.41946 4.02487C6.30092 3.88478 6.19315 3.76624 6.17699 3.76624C6.16083 3.76085 5.49807 5.34498 4.70601 7.27397Z" fill="#24201f"/>
<path id="svg_4" d="M6.79122 16.7572C6.88821 17.032 7.02291 17.42 7.08757 17.6193C7.20611 17.9696 7.21689 17.9857 7.43242 18.0396C8.33764 18.2713 9.20514 18.67 9.6362 19.058C9.88406 19.2789 9.911 19.2897 9.87867 19.1711C9.8625 19.0957 9.75474 18.6377 9.64697 18.1474C9.53921 17.657 9.42067 17.2314 9.38834 17.199C9.33985 17.1452 6.7535 16.2615 6.65113 16.2615C6.62957 16.2615 6.69423 16.4878 6.79122 16.7572Z" fill="#24201f"/>
<path id="svg_5" d="M15.8167 16.7249L14.4966 17.1829L14.2703 18.1636C14.1463 18.7024 14.0439 19.1765 14.0439 19.2143C14.0439 19.252 14.1463 19.1873 14.2703 19.0634C14.642 18.7078 15.7358 18.2067 16.5764 18.0127C16.6949 17.9858 16.7434 17.8834 16.9967 17.156C17.1476 16.7034 17.2769 16.3154 17.2769 16.2992C17.2769 16.2292 17.1368 16.2723 15.8167 16.7249Z" fill="#24201f"/>
</g>
</g>
</g>
</g>
<defs>
<clipPath id="clip0_812_350">
<rect width="24" height="24" rx="12" fill="white"/>
</clipPath>
</defs>
</svg>
