<svg width="24" height="24" viewBox="0 0 24 24" fill="none" xmlns="http://www.w3.org/2000/svg">
<g id="image-7 1" clip-path="url(#clip0_766_3171)">
<g id="Group">
<path id="Vector" d="M11.2966 0.635225V0.664394L11.059 0.66954C10.9277 0.672974 10.769 0.675547 10.7072 0.675547H10.5931V0.705574V0.7356H10.3658H10.1384V0.764769V0.793938L9.94968 0.799944L9.76094 0.805948V0.835117V0.864286H9.63226H9.50357V0.894314V0.924341H9.43665C9.39891 0.924341 9.3277 0.926914 9.27794 0.930346L9.18614 0.935493V0.964663V0.992973H9.08749H8.98883V1.023V1.05303H8.9099C8.86615 1.05303 8.81038 1.0556 8.7855 1.05817C8.74346 1.06332 8.74089 1.06504 8.73832 1.09077L8.73574 1.11737L8.63966 1.11994L8.54271 1.12252V1.15169V1.18171H8.44834H8.35397V1.21088C8.35397 1.23919 8.35312 1.23919 8.30936 1.2452C8.28448 1.24777 8.23987 1.25035 8.2107 1.25035H8.15665V1.28037V1.3104H8.06228H7.96791V1.33957V1.36874L7.90357 1.37474L7.83923 1.38075V1.40992V1.43909H7.74486H7.65049V1.46825V1.49742L7.58614 1.50343L7.5218 1.50943V1.5386V1.56777H7.45317H7.38454V1.5978V1.62782H7.32448H7.26443V1.66214V1.69646H7.17006H7.07569V1.72563V1.7548L7.01135 1.7608L6.947 1.76681V1.79598V1.82514H6.88266H6.81832V1.85431V1.88348L6.75397 1.88949L6.68963 1.89549V1.92466V1.95383H6.62529H6.56094V1.98386C6.56094 2.01303 6.56009 2.01389 6.52663 2.01389C6.49317 2.01389 6.49231 2.01474 6.49231 2.04305V2.07222L6.42797 2.07823L6.36362 2.08423V2.1134V2.14257H6.30443H6.24438L6.2418 2.17431C6.23923 2.2052 6.23751 2.20691 6.20749 2.20949C6.1766 2.21206 6.17488 2.21378 6.17488 2.24209V2.27126H6.11054H6.0462V2.30043V2.3296L5.98185 2.3356L5.91751 2.34161V2.37078C5.91751 2.39909 5.91665 2.39994 5.8832 2.39994C5.84974 2.39994 5.84888 2.4008 5.84888 2.42911V2.45828L5.78883 2.46429L5.72877 2.47029V2.49946C5.72877 2.52777 5.72791 2.52863 5.69446 2.52863C5.661 2.52863 5.66014 2.52949 5.66014 2.5578V2.58697L5.60094 2.59297C5.54175 2.59898 5.54089 2.59898 5.53832 2.62557C5.53574 2.65045 5.53231 2.65303 5.504 2.6556C5.47311 2.65817 5.4714 2.65989 5.4714 2.68649V2.71565L5.40706 2.72166L5.34271 2.72766V2.75683C5.34271 2.78429 5.341 2.786 5.31269 2.786C5.28438 2.786 5.28266 2.78772 5.28266 2.81603C5.28266 2.8452 5.2818 2.84606 5.24834 2.84606C5.21488 2.84606 5.21403 2.84691 5.21403 2.87523V2.90439L5.15397 2.9104L5.09392 2.9164V2.94557C5.09392 2.97388 5.09306 2.97474 5.0596 2.97474H5.02529V3.00906V3.04338H4.99097C4.95751 3.04338 4.95665 3.04423 4.95665 3.0734C4.95665 3.10171 4.95494 3.10343 4.92663 3.10343C4.89832 3.10343 4.8966 3.10514 4.8966 3.1326V3.16177L4.83226 3.16777L4.76791 3.17378V3.20295C4.76791 3.23126 4.76706 3.23211 4.7336 3.23211H4.69928V3.26643C4.69928 3.29989 4.69842 3.30075 4.66925 3.30075C4.64094 3.30075 4.63923 3.30246 4.63923 3.33077C4.63923 3.35994 4.63837 3.3608 4.60491 3.3608C4.57145 3.3608 4.57059 3.36166 4.57059 3.38997V3.41914L4.5114 3.42514L4.4522 3.43115L4.4462 3.48949L4.44019 3.54782L4.381 3.55383L4.3218 3.55984V3.589C4.3218 3.61646 4.32009 3.61817 4.29177 3.61817C4.26346 3.61817 4.26175 3.61989 4.26175 3.6482C4.26175 3.67737 4.26089 3.67823 4.22743 3.67823H4.19311V3.71254V3.74686H4.1588C4.12534 3.74686 4.12448 3.74772 4.12448 3.77689C4.12448 3.8052 4.12277 3.80691 4.09446 3.80691C4.06529 3.80691 4.06443 3.80777 4.06443 3.84123V3.87555H4.03011C3.99665 3.87555 3.9958 3.87641 3.9958 3.90557C3.9958 3.93389 3.99408 3.9356 3.96577 3.9356C3.93746 3.9356 3.93574 3.93732 3.93574 3.96563C3.93574 3.99394 3.93403 3.99566 3.90572 3.99566C3.87655 3.99566 3.87569 3.99651 3.87569 4.02997V4.06429H3.84137C3.80791 4.06429 3.80706 4.06515 3.80706 4.09431C3.80706 4.12263 3.80534 4.12434 3.77703 4.12434C3.74786 4.12434 3.747 4.1252 3.747 4.15866V4.19297H3.71269C3.67923 4.19297 3.67837 4.19383 3.67837 4.223C3.67837 4.25131 3.67665 4.25303 3.64834 4.25303C3.61917 4.25303 3.61832 4.25389 3.61832 4.28734C3.61832 4.3208 3.61746 4.32166 3.58915 4.32166H3.55998L3.55397 4.38086L3.54797 4.44005L3.48963 4.44606L3.43129 4.45206L3.42529 4.51126L3.41928 4.57045H3.39011C3.3618 4.57045 3.36094 4.57131 3.36094 4.60477C3.36094 4.63823 3.36009 4.63909 3.33092 4.63909C3.30261 4.63909 3.30089 4.6408 3.30089 4.66911C3.30089 4.69828 3.30003 4.69914 3.26657 4.69914H3.23226V4.73346C3.23226 4.76691 3.2314 4.76777 3.20309 4.76777H3.17392L3.16791 4.83212L3.16191 4.89646H3.13274C3.10529 4.89646 3.10357 4.89817 3.10357 4.92649C3.10357 4.9548 3.10185 4.95651 3.0744 4.95651C3.04609 4.95651 3.04437 4.95823 3.0418 4.98825C3.03923 5.01914 3.03751 5.02085 3.00748 5.02343C2.97574 5.026 2.97488 5.02686 2.97488 5.06032C2.97488 5.09292 2.97403 5.09378 2.94572 5.09378H2.91655L2.91054 5.15383L2.90454 5.21388H2.87537C2.84706 5.21388 2.8462 5.21474 2.8462 5.2482C2.8462 5.28166 2.84534 5.28252 2.81617 5.28252C2.78786 5.28252 2.78614 5.28423 2.78614 5.31254C2.78614 5.34085 2.78443 5.34257 2.75698 5.34257H2.72781L2.7218 5.40691L2.7158 5.47126H2.68663C2.65832 5.47126 2.65746 5.47211 2.65746 5.50557C2.65746 5.53903 2.6566 5.53989 2.62829 5.53989H2.59912L2.59311 5.59994L2.58711 5.66H2.55794C2.52963 5.66 2.52877 5.66086 2.52877 5.69431C2.52877 5.72777 2.52791 5.72863 2.4996 5.72863H2.47043L2.46443 5.79297L2.45842 5.85732H2.42925C2.40094 5.85732 2.40009 5.85818 2.40009 5.89163C2.40009 5.92509 2.39923 5.92595 2.37092 5.92595H2.34175L2.33574 5.986L2.32974 6.04606H2.30057H2.2714V6.1104V6.17474H2.24223C2.21392 6.17474 2.2122 6.17646 2.20963 6.20649C2.20706 6.23737 2.20534 6.23909 2.17446 6.24166L2.14271 6.24423V6.30429V6.36348H2.11354H2.08437L2.07837 6.42697L2.07236 6.49131L2.04577 6.49389C2.02089 6.49646 2.01832 6.49903 2.01574 6.5282C2.01317 6.55909 2.01145 6.5608 1.98314 6.5608H1.95397V6.62514V6.68949H1.9248H1.89563L1.88963 6.75383L1.88362 6.81817H1.85446H1.82529V6.88252V6.94686H1.79612H1.76695L1.76094 7.0112L1.75494 7.07555H1.72577H1.6966V7.13989V7.20423H1.66743C1.63912 7.20423 1.63912 7.20509 1.63311 7.24884C1.63054 7.27372 1.62797 7.31662 1.62797 7.34321V7.39297H1.59794H1.56791V7.45732V7.52166H1.53874H1.50958L1.50357 7.586L1.49757 7.65035H1.4684H1.43923V7.74472V7.83909H1.4092H1.37917V7.90343V7.96777H1.34486H1.31054V8.06214V8.15651H1.28051H1.25049V8.2097C1.25049 8.23973 1.24791 8.28434 1.24534 8.30836C1.23933 8.35297 1.23933 8.35383 1.21102 8.35383H1.18185V8.4482V8.54257H1.15183H1.12266L1.12009 8.63866L1.11751 8.7356L1.09092 8.73817C1.06518 8.74075 1.06346 8.74332 1.05832 8.78536C1.05574 8.81024 1.05317 8.866 1.05317 8.9089V8.98868H1.02314H0.993115V9.0719C0.993115 9.11823 0.990541 9.17657 0.987967 9.20059C0.98282 9.24263 0.980246 9.24606 0.958798 9.24606C0.937351 9.24606 0.934777 9.24949 0.929629 9.29067C0.927056 9.31555 0.924482 9.37389 0.924482 9.41935V9.50343H0.894455H0.864428V9.63212V9.7608H0.835259H0.806091L0.800085 9.95383L0.79408 10.1469H0.764911H0.735742V10.3656V10.5844H0.705715H0.675688V10.7157C0.675688 10.7886 0.673115 10.9353 0.669683 11.0417L0.664536 11.2364H0.641372C0.619924 11.2364 0.617351 11.2398 0.612203 11.281C0.609629 11.3059 0.607056 11.6362 0.607056 12.0145V12.7034H0.635367H0.664536L0.669683 12.9411C0.673115 13.0723 0.675688 13.2328 0.675688 13.2971V13.4155H0.705715H0.735742V13.6386V13.8616H0.764911H0.79408L0.800085 14.0503L0.806091 14.2391H0.835259H0.864428V14.3678V14.4965H0.894455H0.924482V14.5634C0.924482 14.6011 0.927056 14.6723 0.930487 14.7221L0.935635 14.8139H0.964804H0.993115V14.9125V15.0112H1.02314H1.05317V15.0901C1.05317 15.1339 1.05574 15.1896 1.05832 15.2145C1.06346 15.2566 1.06518 15.2591 1.09092 15.2617L1.11751 15.2643L1.12009 15.3604L1.12266 15.4573H1.15183H1.18185V15.5517V15.6461H1.21102C1.23933 15.6461 1.23933 15.6469 1.24534 15.6907C1.24791 15.7155 1.25049 15.7602 1.25049 15.7893V15.8434H1.28051H1.31054V15.9377V16.0321H1.33971H1.36888L1.37488 16.0965L1.38089 16.1608H1.41006H1.43923V16.2552V16.3495H1.4684H1.49757L1.50357 16.4139L1.50958 16.4782H1.53874H1.56791V16.5469V16.6155H1.59794H1.62797V16.6755V16.7356H1.66228H1.6966V16.83V16.9243H1.72577H1.75494L1.76094 16.9887L1.76695 17.053H1.79612H1.82529V17.1174V17.1817H1.85446H1.88362L1.88963 17.2461L1.89563 17.3104H1.9248C1.95311 17.3104 1.95397 17.3113 1.95397 17.3447C1.95397 17.3782 1.95483 17.379 1.984 17.379H2.01403V17.4434V17.5077H2.0432H2.07236L2.07837 17.5721L2.08437 17.6364H2.11354H2.14271V17.6956V17.7557L2.17531 17.7582C2.20534 17.7608 2.20706 17.7625 2.20963 17.7925C2.2122 17.8234 2.21392 17.8251 2.24223 17.8251H2.2714V17.8895V17.9538H2.30057H2.32974L2.33574 18.0182L2.34175 18.0825H2.37092C2.39923 18.0825 2.40009 18.0834 2.40009 18.1168C2.40009 18.1503 2.40094 18.1512 2.42925 18.1512H2.45842L2.46443 18.2112L2.47043 18.2713H2.4996C2.52791 18.2713 2.52877 18.2721 2.52877 18.3056C2.52877 18.339 2.52963 18.3399 2.55794 18.3399H2.58711L2.59311 18.3991C2.59912 18.4583 2.59912 18.4591 2.62572 18.4617C2.65059 18.4643 2.65317 18.4677 2.65574 18.496C2.65832 18.5269 2.66003 18.5286 2.68663 18.5286H2.7158L2.7218 18.593L2.72781 18.6573H2.75698C2.78443 18.6573 2.78614 18.659 2.78614 18.6873C2.78614 18.7157 2.78786 18.7174 2.81617 18.7174C2.84534 18.7174 2.8462 18.7182 2.8462 18.7517C2.8462 18.7851 2.84706 18.786 2.87537 18.786H2.90454L2.91054 18.8461L2.91655 18.9061H2.94572C2.97403 18.9061 2.97488 18.907 2.97488 18.9404V18.9747H3.0092H3.04352V19.0091C3.04352 19.0425 3.04437 19.0434 3.07354 19.0434C3.10185 19.0434 3.10357 19.0451 3.10357 19.0734C3.10357 19.1017 3.10529 19.1034 3.13274 19.1034H3.16191L3.16791 19.1678L3.17392 19.2321H3.20309C3.2314 19.2321 3.23226 19.233 3.23226 19.2664C3.23226 19.2999 3.23311 19.3007 3.26143 19.3007C3.28888 19.3007 3.29145 19.3033 3.29403 19.3282C3.2966 19.3539 3.29917 19.3565 3.32834 19.3591C3.36009 19.3617 3.36094 19.3625 3.36094 19.396C3.36094 19.4286 3.3618 19.4294 3.39011 19.4294H3.41928L3.42529 19.4895L3.43129 19.5495H3.46046C3.48791 19.5495 3.48963 19.5513 3.48963 19.5787C3.48963 19.607 3.49135 19.6087 3.52137 19.6113C3.55226 19.6139 3.55397 19.6156 3.55655 19.6456C3.55912 19.6765 3.56084 19.6782 3.58915 19.6782C3.61746 19.6782 3.61832 19.6791 3.61832 19.7125C3.61832 19.746 3.61917 19.7469 3.64834 19.7469C3.67665 19.7469 3.67837 19.7486 3.67837 19.7769C3.67837 19.8061 3.67923 19.8069 3.71269 19.8069H3.747V19.8412C3.747 19.8747 3.74786 19.8755 3.77703 19.8755C3.80534 19.8755 3.80706 19.8773 3.80706 19.9056C3.80706 19.9347 3.80791 19.9356 3.84137 19.9356H3.87569V19.9699C3.87569 20.0034 3.87655 20.0042 3.90572 20.0042C3.93403 20.0042 3.93574 20.006 3.93574 20.0343C3.93574 20.0626 3.93746 20.0643 3.96577 20.0643C3.99408 20.0643 3.9958 20.066 3.9958 20.0943C3.9958 20.1235 3.99665 20.1243 4.03011 20.1243H4.06443V20.1587C4.06443 20.1921 4.06529 20.193 4.09446 20.193C4.12277 20.193 4.12448 20.1947 4.12448 20.223C4.12448 20.2522 4.12534 20.253 4.1588 20.253H4.19311V20.2873C4.19311 20.3208 4.19397 20.3217 4.22314 20.3217C4.25145 20.3217 4.25317 20.3234 4.25317 20.3517C4.25317 20.3809 4.25403 20.3817 4.28748 20.3817C4.32094 20.3817 4.3218 20.3826 4.3218 20.4109V20.4401L4.381 20.4461L4.44019 20.4521L4.4462 20.5104L4.4522 20.5687L4.5114 20.5747L4.57059 20.5807V20.6099C4.57059 20.6382 4.57145 20.6391 4.60491 20.6391C4.63837 20.6391 4.63923 20.6399 4.63923 20.6691C4.63923 20.6974 4.64094 20.6991 4.66925 20.6991C4.69842 20.6991 4.69928 20.7 4.69928 20.7335V20.7678H4.7336C4.76706 20.7678 4.76791 20.7686 4.76791 20.7969C4.76791 20.8253 4.76963 20.827 4.80051 20.8295C4.83054 20.8321 4.83226 20.8338 4.83483 20.8639L4.8374 20.8965H4.89746H4.95665V20.9265C4.95665 20.9557 4.95751 20.9565 4.99097 20.9565H5.02529V20.9908V21.0251H5.0596C5.09306 21.0251 5.09392 21.026 5.09392 21.0543V21.0835L5.15397 21.0895L5.21403 21.0955V21.1247C5.21403 21.153 5.21488 21.1538 5.24834 21.1538C5.2818 21.1538 5.28266 21.1547 5.28266 21.1839C5.28266 21.2122 5.28438 21.2139 5.31269 21.2139C5.341 21.2139 5.34271 21.2156 5.34271 21.2431V21.2722L5.40706 21.2782L5.4714 21.2842V21.3134C5.4714 21.34 5.47311 21.3417 5.504 21.3443C5.53231 21.3469 5.53574 21.3494 5.53832 21.3743C5.54089 21.4009 5.54175 21.4009 5.60094 21.4069L5.66014 21.4129V21.4421C5.66014 21.4704 5.661 21.4713 5.69446 21.4713C5.72791 21.4713 5.72877 21.4721 5.72877 21.5004V21.5296L5.79312 21.5356L5.85746 21.5416V21.5708C5.85746 21.5982 5.85917 21.5999 5.88749 21.5999C5.9158 21.5999 5.91751 21.6017 5.91751 21.6291V21.6583L5.98185 21.6643L6.0462 21.6703V21.6995C6.0462 21.7278 6.04706 21.7286 6.08051 21.7286C6.11397 21.7286 6.11483 21.7295 6.11483 21.7587V21.7878L6.17746 21.7904L6.23923 21.793L6.2418 21.8247L6.24438 21.8573H6.30443H6.36362V21.8865V21.9157L6.42797 21.9217L6.49231 21.9277V21.9568V21.986H6.55665H6.621V22.016C6.621 22.0452 6.62186 22.0461 6.65531 22.0461C6.68877 22.0461 6.68963 22.0469 6.68963 22.0752V22.1044L6.75397 22.1104L6.81832 22.1164V22.1456V22.1747H6.88266H6.947V22.2039V22.2331L7.01135 22.2391L7.07569 22.2451V22.2743V22.3034H7.14003H7.20438V22.3326C7.20438 22.3609 7.20523 22.3609 7.24984 22.3669C7.27387 22.3695 7.31676 22.3721 7.34421 22.3721H7.39312V22.4021V22.4321H7.45746H7.5218V22.4613V22.4905L7.58614 22.4965L7.65049 22.5025V22.5316V22.5608H7.74486H7.83923V22.5908V22.6209H7.90357H7.96791V22.6552V22.6895H8.06657H8.16523V22.7195V22.7495H8.21499C8.24159 22.7495 8.28448 22.7521 8.30936 22.7547C8.35312 22.7607 8.35397 22.7607 8.35397 22.789V22.8182H8.44834H8.54271V22.8482V22.8774L8.63966 22.8799L8.73574 22.8825L8.73832 22.9091C8.74089 22.9349 8.74346 22.9366 8.7855 22.9417C8.81038 22.9443 8.86615 22.9469 8.9099 22.9469H8.98883V22.9769V23.0069H9.08749H9.18614V23.0352V23.0644L9.27794 23.0695C9.3277 23.073 9.39891 23.0755 9.43665 23.0755H9.50357V23.1056V23.1356H9.63226H9.76094V23.1648V23.1939L9.94968 23.1999L10.1384 23.206V23.2351V23.2643H10.3615H10.5845V23.2943V23.3243H10.7158C10.7887 23.3243 10.9354 23.3269 11.0418 23.3303L11.2365 23.3355V23.3587C11.2365 23.3801 11.24 23.3827 11.282 23.3878C11.306 23.3904 11.6363 23.393 12.0155 23.393H12.7036V23.3647V23.3355L12.9421 23.3303C13.0725 23.3269 13.2312 23.3243 13.2938 23.3243H13.4071V23.2943V23.2643H13.6344H13.8617V23.2351V23.206L14.0505 23.1999L14.2392 23.1939V23.1648V23.1356H14.3679H14.4966V23.1056V23.0755H14.5635C14.6013 23.0755 14.6725 23.073 14.7222 23.0695L14.814 23.0644V23.0352V23.0069H14.9127H15.0113V22.9769V22.9469H15.0911C15.134 22.9469 15.1898 22.9443 15.2147 22.9417C15.2567 22.9366 15.2593 22.9349 15.2619 22.9091L15.2644 22.8825L15.3614 22.8799L15.4575 22.8774V22.8482V22.8182H15.5518H15.6462V22.789C15.6462 22.7607 15.6471 22.7607 15.6917 22.7547C15.7157 22.7521 15.7586 22.7495 15.786 22.7495H15.8349V22.7195V22.6895H15.889C15.9182 22.6895 15.9628 22.6869 15.9876 22.6843C16.0297 22.6792 16.0323 22.6766 16.0323 22.6543C16.0323 22.6312 16.0331 22.6312 16.0966 22.6251L16.1609 22.6191V22.59V22.5608H16.2553H16.3497V22.5316V22.5025L16.414 22.4965L16.4784 22.4905V22.4613V22.4321H16.547H16.6156V22.4021V22.3721H16.6611C16.6851 22.3721 16.7263 22.3695 16.7512 22.3669C16.7949 22.3609 16.7958 22.3609 16.7958 22.3326V22.3034H16.8601H16.9245V22.2743V22.2451L16.9888 22.2391L17.0532 22.2331V22.2039V22.1747H17.1175H17.1819V22.1447C17.1819 22.1155 17.1827 22.1147 17.2162 22.1147C17.2496 22.1147 17.2505 22.1138 17.2505 22.0855C17.2505 22.0572 17.2513 22.0572 17.296 22.0512C17.32 22.0486 17.3629 22.0461 17.3903 22.0461H17.4392V22.016C17.4392 21.9869 17.4401 21.986 17.4735 21.986C17.507 21.986 17.5079 21.9851 17.5079 21.9568V21.9277L17.5722 21.9217L17.6365 21.9157V21.8865V21.8573H17.6957H17.7558L17.7584 21.8247C17.7609 21.7947 17.7627 21.793 17.7935 21.7904C17.8236 21.7878 17.8253 21.7861 17.8253 21.7578V21.7286H17.8896H17.954V21.6995V21.6703L18.014 21.6643L18.0741 21.6583V21.6291C18.0741 21.6008 18.0749 21.5999 18.1084 21.5999C18.1419 21.5999 18.1427 21.5991 18.1427 21.5708V21.5416L18.2071 21.5356L18.2714 21.5296V21.5004C18.2714 21.4721 18.2723 21.4713 18.3057 21.4713C18.3392 21.4713 18.34 21.4704 18.34 21.4421V21.4129L18.4001 21.4069L18.4601 21.4009V21.3717C18.4601 21.3434 18.461 21.3426 18.4945 21.3426C18.5279 21.3426 18.5288 21.3417 18.5288 21.3134V21.2842L18.5931 21.2782L18.6575 21.2722V21.2431C18.6575 21.2156 18.6592 21.2139 18.6875 21.2139C18.7158 21.2139 18.7175 21.2122 18.7175 21.1839C18.7175 21.1547 18.7184 21.1538 18.7518 21.1538C18.7853 21.1538 18.7861 21.153 18.7861 21.1247V21.0955L18.8462 21.0895L18.9063 21.0835V21.0543C18.9063 21.026 18.9071 21.0251 18.9406 21.0251H18.9749V20.9908V20.9565H19.0092C19.0427 20.9565 19.0435 20.9557 19.0435 20.9265C19.0435 20.8982 19.0452 20.8965 19.0735 20.8965C19.1019 20.8965 19.1036 20.8947 19.1036 20.8673V20.8381L19.1679 20.8321L19.2323 20.8261V20.7969C19.2323 20.7695 19.234 20.7678 19.2623 20.7678C19.2906 20.7678 19.2923 20.7661 19.2923 20.7386C19.2923 20.7103 19.294 20.7086 19.3249 20.706C19.3549 20.7034 19.3567 20.7017 19.3592 20.6708C19.3618 20.6399 19.3627 20.6391 19.3961 20.6391C19.4287 20.6391 19.4296 20.6382 19.4296 20.6091C19.4296 20.5807 19.4313 20.579 19.4596 20.579C19.4888 20.579 19.4896 20.5782 19.4896 20.5447V20.5104H19.5488H19.6089L19.6115 20.4778C19.614 20.4478 19.6157 20.4461 19.6466 20.4435C19.6767 20.4409 19.6784 20.4392 19.6784 20.4109C19.6784 20.3834 19.6801 20.3817 19.7084 20.3817C19.7367 20.3817 19.7384 20.38 19.7384 20.3517C19.7384 20.3225 19.7393 20.3217 19.7727 20.3217H19.8071V20.2873V20.253H19.8414C19.8748 20.253 19.8757 20.2522 19.8757 20.223C19.8757 20.1947 19.8774 20.193 19.9057 20.193C19.9349 20.193 19.9357 20.1921 19.9357 20.1587V20.1243H19.9701C20.0035 20.1243 20.0044 20.1235 20.0044 20.0943C20.0044 20.066 20.0061 20.0643 20.0344 20.0643C20.0627 20.0643 20.0644 20.0626 20.0644 20.0343C20.0644 20.006 20.0661 20.0042 20.0945 20.0042C20.1236 20.0042 20.1245 20.0034 20.1245 19.9699V19.9356H20.1588C20.1923 19.9356 20.1931 19.9347 20.1931 19.9056C20.1931 19.8773 20.1948 19.8755 20.2231 19.8755C20.2523 19.8755 20.2532 19.8747 20.2532 19.8412V19.8069H20.2875H20.3218V19.7726C20.3218 19.7391 20.3227 19.7383 20.3518 19.7383C20.3801 19.7383 20.3819 19.7366 20.3819 19.7083C20.3819 19.6799 20.3836 19.6782 20.411 19.6782C20.4393 19.6782 20.4411 19.6765 20.4436 19.6456C20.4462 19.6156 20.4479 19.6139 20.4788 19.6113C20.5088 19.6087 20.5105 19.607 20.5105 19.5787C20.5105 19.5513 20.5123 19.5495 20.5397 19.5495H20.5689L20.5749 19.4895L20.5809 19.4294H20.6101C20.6384 19.4294 20.6392 19.4286 20.6392 19.396C20.6392 19.3625 20.6401 19.3617 20.6718 19.3591C20.701 19.3565 20.7036 19.3539 20.7061 19.3282C20.7087 19.3033 20.7113 19.3007 20.7387 19.3007C20.7671 19.3007 20.7679 19.2999 20.7679 19.2664C20.7679 19.233 20.7688 19.2321 20.7971 19.2321H20.8263L20.8323 19.1678L20.8383 19.1034H20.8674C20.8949 19.1034 20.8966 19.1017 20.8966 19.0734C20.8966 19.0451 20.8983 19.0434 20.9266 19.0434C20.9558 19.0434 20.9567 19.0425 20.9567 19.0091V18.9747H20.991H21.0253V18.9404C21.0253 18.907 21.0261 18.9061 21.0545 18.9061H21.0836L21.0896 18.8461L21.0956 18.786H21.1248C21.1531 18.786 21.154 18.7851 21.154 18.7517C21.154 18.7182 21.1548 18.7174 21.1831 18.7174C21.2115 18.7174 21.2132 18.7157 21.2157 18.6848C21.2183 18.6556 21.2209 18.653 21.2458 18.6505C21.2732 18.6479 21.2732 18.6479 21.2792 18.5878L21.2852 18.5286H21.3135C21.3419 18.5286 21.3427 18.5278 21.3427 18.4943C21.3427 18.4609 21.3436 18.46 21.3719 18.46H21.4011L21.4071 18.3999L21.4131 18.3399H21.4422C21.4705 18.3399 21.4714 18.339 21.4714 18.3056C21.4714 18.2721 21.4723 18.2713 21.5006 18.2713H21.5297L21.5357 18.2069L21.5417 18.1426H21.5709C21.5984 18.1426 21.6001 18.1409 21.6001 18.1125C21.6001 18.0842 21.6018 18.0825 21.6293 18.0825H21.6584L21.6644 18.0182L21.6704 17.9538H21.6996H21.7288V17.8895V17.8251H21.7579C21.7863 17.8251 21.788 17.8234 21.7905 17.7925C21.7931 17.7642 21.7957 17.7608 21.8206 17.7582C21.8472 17.7557 21.8472 17.7548 21.8532 17.6956L21.8592 17.6364H21.8875H21.9158L21.9218 17.5729L21.9278 17.5086L21.9544 17.506L21.9819 17.5034L21.9844 17.4408L21.987 17.379H22.0162C22.0453 17.379 22.0462 17.3782 22.0462 17.3447C22.0462 17.3113 22.0471 17.3104 22.0754 17.3104H22.1045L22.1105 17.2461L22.1165 17.1817H22.1457H22.1749V17.1174V17.053H22.2041H22.2332L22.2392 16.9887L22.2452 16.9243H22.2744H22.3036V16.83V16.7356H22.3327H22.3619L22.3679 16.6713L22.3739 16.6069H22.4031H22.4323V16.5426V16.4782H22.4614H22.4906L22.4966 16.4139L22.5026 16.3495H22.5318H22.5609V16.2552V16.1608H22.591H22.621V16.111C22.621 16.0844 22.6236 16.0416 22.6261 16.0167C22.6322 15.9729 22.6322 15.9721 22.6605 15.9721H22.6896V15.9034V15.8348H22.7197H22.7488L22.7514 15.7421L22.754 15.6503L22.7806 15.6478C22.8063 15.6452 22.808 15.6426 22.8132 15.6006C22.8157 15.5757 22.8183 15.5337 22.8183 15.5062V15.4573H22.8483H22.8775L22.8801 15.3604L22.8827 15.2643L22.9093 15.2617C22.935 15.2591 22.9367 15.2566 22.9419 15.2145C22.9444 15.1896 22.947 15.1339 22.947 15.0901V15.0112H22.977H23.0071V14.8825V14.7538H23.0362C23.0645 14.7538 23.0645 14.753 23.0705 14.7084C23.0731 14.6843 23.0757 14.626 23.0757 14.5797V14.4965H23.1057H23.1357V14.3377V14.179H23.1641H23.1932L23.1984 14.0744C23.2018 14.0177 23.2044 13.944 23.2044 13.9114V13.853H23.2344H23.2644V13.63V13.4069H23.2945H23.3245V13.2499C23.3245 13.1633 23.3271 13.0046 23.3305 12.8982L23.3356 12.7034H23.3588C23.3811 12.7034 23.382 12.7009 23.388 12.6511C23.3948 12.5825 23.3948 11.4011 23.388 11.3411C23.3828 11.2999 23.3802 11.2965 23.3588 11.2965H23.3356L23.3305 11.1017C23.3271 10.9953 23.3245 10.8366 23.3245 10.75V10.593H23.2945H23.2644V10.3699V10.1469H23.2344H23.2044V10.0885C23.2044 10.0559 23.2018 9.98214 23.1984 9.92552L23.1932 9.82086H23.1641H23.1357V9.66214V9.50343H23.1057H23.0757V9.42708C23.0757 9.3859 23.0731 9.32756 23.0705 9.29839C23.0645 9.24863 23.0637 9.24606 23.0414 9.24606C23.0199 9.24606 23.0174 9.24263 23.0122 9.20059C23.0096 9.17657 23.0071 9.11823 23.0071 9.0719V8.98868H22.977H22.947V8.9089C22.947 8.866 22.9444 8.81024 22.9419 8.78536C22.9367 8.74332 22.935 8.74075 22.9093 8.73817L22.8827 8.7356L22.8801 8.63866L22.8775 8.54257H22.8483H22.8183V8.49281C22.8183 8.46622 22.8157 8.42418 22.8132 8.3993C22.808 8.35726 22.8063 8.35469 22.7806 8.35212L22.754 8.34954L22.7514 8.25689L22.7488 8.16509H22.7197H22.6896V8.09646V8.02783H22.6605C22.6322 8.02783 22.6322 8.02697 22.6261 7.98236C22.6236 7.95834 22.621 7.91544 22.621 7.88799V7.83909H22.591H22.5609V7.77474V7.7104H22.5309H22.5009V7.66064C22.5009 7.63405 22.4983 7.59115 22.4957 7.56627C22.4897 7.52252 22.4897 7.52166 22.4614 7.52166H22.4323V7.45732V7.39297H22.4022H22.3722V7.32863V7.26429H22.3379H22.3036V7.19994V7.1356H22.2735H22.2435V7.08584C22.2435 7.05925 22.2409 7.01635 22.2384 6.99147C22.2324 6.94772 22.2324 6.94686 22.2041 6.94686H22.1749V6.88252V6.81817H22.1449C22.1157 6.81817 22.1148 6.81732 22.1148 6.78386C22.1148 6.7504 22.114 6.74954 22.0857 6.74954H22.0565L22.0505 6.6852L22.0445 6.62086H22.0153H21.987L21.9844 6.55823L21.9819 6.49646L21.9501 6.49389L21.9175 6.49131V6.43126V6.37206H21.8883H21.8592L21.8532 6.30858L21.8472 6.24423L21.8206 6.24166C21.7957 6.23909 21.7931 6.23651 21.7905 6.20649C21.788 6.17646 21.7863 6.17474 21.7579 6.17474H21.7288V6.1104V6.04606H21.6996H21.6704L21.6644 5.986L21.6584 5.92595H21.6293C21.6009 5.92595 21.6001 5.92509 21.6001 5.89163C21.6001 5.85818 21.5992 5.85732 21.5709 5.85732H21.5417L21.5357 5.79297L21.5297 5.72863H21.5006C21.4723 5.72863 21.4714 5.72777 21.4714 5.69431C21.4714 5.66086 21.4705 5.66 21.4422 5.66H21.4131L21.4071 5.59994L21.4011 5.53989H21.3719C21.3436 5.53989 21.3427 5.53903 21.3427 5.50557C21.3427 5.47211 21.3419 5.47126 21.3135 5.47126H21.2844L21.2784 5.40691L21.2724 5.34257H21.2432C21.2157 5.34257 21.214 5.34085 21.214 5.31254C21.214 5.28423 21.2123 5.28252 21.184 5.28252C21.1548 5.28252 21.154 5.28166 21.154 5.2482C21.154 5.21474 21.1531 5.21388 21.1248 5.21388H21.0956L21.0896 5.15383L21.0836 5.09378H21.0545C21.0261 5.09378 21.0253 5.09292 21.0253 5.05946V5.02514H20.991H20.9567V4.99083C20.9567 4.95737 20.9558 4.95651 20.9266 4.95651C20.8983 4.95651 20.8966 4.9548 20.8966 4.92649C20.8966 4.89817 20.8949 4.89646 20.8674 4.89646H20.8383L20.8323 4.83212L20.8263 4.76777H20.7971C20.7696 4.76777 20.7679 4.76606 20.7679 4.73775C20.7679 4.70943 20.7662 4.70772 20.7387 4.70772C20.7104 4.70772 20.7087 4.706 20.7061 4.67512C20.7036 4.64509 20.7019 4.64338 20.6718 4.6408C20.6401 4.63823 20.6392 4.63737 20.6392 4.60391C20.6392 4.57131 20.6384 4.57045 20.6092 4.57045C20.5809 4.57045 20.5792 4.56874 20.5792 4.54043C20.5792 4.51126 20.5783 4.5104 20.5449 4.5104H20.5105V4.4512V4.39115L20.4788 4.38858C20.4479 4.386 20.4462 4.38429 20.4436 4.3534C20.4411 4.32338 20.4393 4.32166 20.411 4.32166C20.3836 4.32166 20.3819 4.31994 20.3819 4.29163C20.3819 4.26332 20.3801 4.26161 20.3518 4.26161C20.3227 4.26161 20.3218 4.26075 20.3218 4.22729V4.19297H20.2875H20.2532V4.15866C20.2532 4.1252 20.2523 4.12434 20.2231 4.12434C20.1948 4.12434 20.1931 4.12263 20.1931 4.09431C20.1931 4.06515 20.1923 4.06429 20.1588 4.06429H20.1245V4.02997C20.1245 3.99651 20.1236 3.99566 20.0945 3.99566C20.0661 3.99566 20.0644 3.99394 20.0644 3.96563C20.0644 3.93732 20.0627 3.9356 20.0344 3.9356C20.0061 3.9356 20.0044 3.93389 20.0044 3.90557C20.0044 3.87641 20.0035 3.87555 19.9701 3.87555H19.9357V3.84123C19.9357 3.80777 19.9349 3.80691 19.9057 3.80691C19.8774 3.80691 19.8757 3.8052 19.8757 3.77689C19.8757 3.74772 19.8748 3.74686 19.8414 3.74686H19.8071V3.71254V3.67823H19.7727C19.7393 3.67823 19.7384 3.67737 19.7384 3.6482C19.7384 3.61989 19.7367 3.61817 19.7084 3.61817C19.6801 3.61817 19.6784 3.61646 19.6784 3.589C19.6784 3.56069 19.6767 3.55898 19.6466 3.5564C19.6157 3.55383 19.614 3.55211 19.6115 3.52123C19.6089 3.4912 19.6072 3.48949 19.5789 3.48949C19.5514 3.48949 19.5497 3.48777 19.5497 3.46032V3.43115L19.4896 3.42514L19.4296 3.41914V3.38997C19.4296 3.36166 19.4287 3.3608 19.3953 3.3608C19.3618 3.3608 19.3609 3.35994 19.3609 3.33077C19.3609 3.30246 19.3592 3.30075 19.3309 3.30075C19.3017 3.30075 19.3009 3.29989 19.3009 3.26643V3.23211H19.2666C19.2331 3.23211 19.2323 3.23126 19.2323 3.20295C19.2323 3.17463 19.2305 3.17292 19.2005 3.17035C19.1696 3.16777 19.1679 3.16606 19.1653 3.13517L19.1628 3.10343H19.1027H19.0435V3.0734C19.0435 3.04423 19.0427 3.04338 19.0092 3.04338H18.9749V3.00906V2.97474H18.9406C18.9071 2.97474 18.9063 2.97388 18.9063 2.94557V2.9164L18.8462 2.9104L18.7861 2.90439V2.87523C18.7861 2.84691 18.7853 2.84606 18.7518 2.84606C18.7184 2.84606 18.7175 2.8452 18.7175 2.81603C18.7175 2.78772 18.7158 2.786 18.6875 2.786C18.6592 2.786 18.6575 2.78429 18.6575 2.75683V2.72766L18.5931 2.72166L18.5288 2.71565V2.68649C18.5288 2.65817 18.5279 2.65732 18.4945 2.65732C18.461 2.65732 18.4601 2.65646 18.4601 2.62815V2.59898L18.4001 2.59297L18.34 2.58697V2.5578C18.34 2.52949 18.3392 2.52863 18.3057 2.52863C18.2723 2.52863 18.2714 2.52777 18.2714 2.49946V2.47029L18.2071 2.46429L18.1427 2.45828V2.42911C18.1427 2.40166 18.141 2.39994 18.1127 2.39994C18.0844 2.39994 18.0827 2.39823 18.0827 2.37078V2.34161L18.0183 2.3356L17.954 2.3296V2.30043C17.954 2.27212 17.9531 2.27126 17.9197 2.27126C17.8862 2.27126 17.8853 2.2704 17.8853 2.24123V2.21206L17.8236 2.20949L17.7609 2.20691L17.7584 2.17946C17.7558 2.15287 17.7549 2.15287 17.6957 2.14686L17.6365 2.14086V2.11255V2.08423L17.5731 2.07823L17.5087 2.07222L17.5061 2.04563L17.5036 2.01817L17.4418 2.0156L17.3792 2.01303V1.98386C17.3792 1.95469 17.3783 1.95383 17.3449 1.95383C17.3114 1.95383 17.3105 1.95297 17.3105 1.92466V1.89549L17.2462 1.88949L17.1819 1.88348V1.85431V1.82514H17.1175H17.0532V1.79598V1.76681L16.9888 1.7608L16.9245 1.7548V1.72563V1.69646H16.8301H16.7357V1.66729V1.63812L16.6714 1.63211L16.6071 1.62611V1.59694V1.56777H16.5427H16.4784V1.5386V1.50943L16.414 1.50343L16.3497 1.49742V1.46825V1.43909H16.2553H16.1609V1.40906V1.37903H16.0966H16.0323V1.34472V1.3104H15.9379H15.8435V1.28037V1.25035H15.7903C15.7603 1.25035 15.7157 1.24777 15.6917 1.2452C15.6471 1.23919 15.6462 1.23919 15.6462 1.21088V1.18171H15.5518H15.4575V1.15169V1.12252L15.3614 1.11994L15.2644 1.11737L15.2619 1.09077C15.2593 1.06504 15.2567 1.06332 15.2147 1.05817C15.1898 1.0556 15.134 1.05303 15.0911 1.05303H15.0113V1.023V0.992973H14.9281C14.8818 0.992973 14.8235 0.990398 14.7994 0.987825C14.7574 0.982677 14.754 0.980104 14.754 0.958656C14.754 0.937208 14.7505 0.934635 14.7094 0.929487C14.6845 0.926914 14.6261 0.924341 14.5807 0.924341H14.4966V0.894314V0.864286H14.3679H14.2392V0.835117V0.805948L14.0462 0.799944L13.8532 0.793938V0.764769V0.7356H13.6301H13.4071V0.705574V0.675547H13.2801C13.2097 0.675547 13.0648 0.672974 12.9584 0.66954L12.7636 0.664394V0.64123V0.618067L12.6718 0.612919C12.6221 0.609488 12.2918 0.606915 11.9383 0.606915H11.2966V0.635225ZM9.53617 7.07297L9.821 7.07812V7.10729V7.1356H9.97971H10.1384V7.16477V7.19394L10.2671 7.19994L10.3958 7.20595V7.23512V7.26429H10.4945H10.5931V7.29431V7.32348L10.6557 7.32606L10.7175 7.32863L10.7201 7.36037L10.7227 7.39297H10.817H10.9105V7.42214V7.45131L10.9749 7.45732L11.0392 7.46332V7.49249V7.52166H11.1036H11.1679V7.55083C11.1679 7.57914 11.1696 7.58086 11.2005 7.58343C11.2288 7.586 11.2323 7.58858 11.2348 7.61346C11.2374 7.64005 11.2383 7.64005 11.2975 7.64606L11.3567 7.65206V7.68123C11.3567 7.70954 11.3575 7.7104 11.391 7.7104C11.4244 7.7104 11.4253 7.71126 11.4253 7.73957V7.76874L11.4853 7.77474L11.5454 7.78075V7.80992C11.5454 7.83823 11.5463 7.83909 11.5789 7.83909C11.6123 7.83909 11.6132 7.83994 11.6157 7.87083C11.6183 7.90171 11.62 7.90343 11.6509 7.906C11.6809 7.90858 11.6827 7.91029 11.6827 7.9386C11.6827 7.96606 11.6844 7.96777 11.7127 7.96777C11.741 7.96777 11.7427 7.96949 11.7427 7.99694C11.7427 8.02525 11.7444 8.02697 11.7753 8.02954C11.8053 8.03212 11.8071 8.03383 11.8096 8.06386C11.8122 8.09474 11.8139 8.09646 11.8422 8.09646C11.8697 8.09646 11.8714 8.09818 11.8714 8.12563C11.8714 8.15394 11.8731 8.15565 11.904 8.15823C11.934 8.1608 11.9357 8.16252 11.9383 8.19254C11.9409 8.22343 11.9426 8.22515 11.9709 8.22515C11.9992 8.22515 12.0001 8.226 12.0001 8.25946C12.0001 8.29292 12.0009 8.29378 12.0293 8.29378H12.0584L12.0644 8.35383L12.0704 8.41389H12.0996C12.1271 8.41389 12.1288 8.41217 12.1288 8.38386C12.1288 8.35555 12.1305 8.35383 12.1579 8.35383C12.1863 8.35383 12.188 8.35212 12.1905 8.32123C12.1931 8.2912 12.1948 8.28949 12.2257 8.28691C12.2557 8.28434 12.2575 8.28263 12.2575 8.25431C12.2575 8.22686 12.2592 8.22515 12.2875 8.22515C12.3167 8.22515 12.3175 8.22429 12.3175 8.19083C12.3175 8.15737 12.3184 8.15651 12.3475 8.15651C12.3759 8.15651 12.3776 8.1548 12.3776 8.12649C12.3776 8.09732 12.3784 8.09646 12.411 8.09646H12.4445L12.4505 8.03212L12.4565 7.96777H12.5157H12.5749V7.93346C12.5749 7.9 12.5757 7.89914 12.6041 7.89914C12.6315 7.89914 12.6341 7.89657 12.6367 7.87083C12.6392 7.84595 12.6418 7.84338 12.6718 7.8408C12.7019 7.83823 12.7036 7.83651 12.7036 7.80906C12.7036 7.78161 12.7053 7.77989 12.7362 7.77732C12.7662 7.77474 12.7679 7.77303 12.7705 7.74214L12.7731 7.7104H12.8331H12.8923V7.68037C12.8923 7.6512 12.8932 7.65035 12.9266 7.65035H12.9609V7.61603V7.58171H13.0253H13.0896V7.55254C13.0896 7.52423 13.0913 7.52252 13.1222 7.51994C13.1514 7.51737 13.154 7.5148 13.1565 7.48992L13.1591 7.46332L13.2235 7.45732L13.2869 7.45131V7.42214V7.39383L13.3496 7.39126L13.4113 7.38868L13.4139 7.36209C13.4165 7.33635 13.4191 7.33463 13.4611 7.32949C13.486 7.32691 13.528 7.32434 13.5555 7.32434H13.6044V7.29431V7.26429H13.6987H13.7931V7.23512V7.20595L13.9218 7.19994L14.0505 7.19394V7.16477V7.1356H14.2735H14.4966V7.10557V7.07555H15.0414H15.5861V7.10557V7.1356H15.8092H16.0323V7.16477V7.19394L16.1609 7.19994L16.2896 7.20595V7.23512V7.26429H16.3883H16.4869V7.29431V7.32434H16.5324C16.5564 7.32434 16.5968 7.32691 16.6216 7.32949C16.6637 7.33463 16.6663 7.33635 16.6688 7.36209L16.6714 7.38868L16.7383 7.39126L16.8044 7.39383V7.423V7.45303H16.8636H16.9236L16.9262 7.48477L16.9288 7.51737L16.9914 7.51994L17.0532 7.52252V7.55169C17.0532 7.58086 17.054 7.58171 17.0875 7.58171C17.1209 7.58171 17.1218 7.58257 17.1218 7.61088V7.64005L17.1819 7.64606L17.2419 7.65206V7.68123C17.2419 7.70954 17.2428 7.7104 17.2762 7.7104H17.3105V7.74472V7.77903H17.3449C17.3783 7.77903 17.3792 7.77989 17.3792 7.8082C17.3792 7.83651 17.3809 7.83823 17.4118 7.8408C17.4401 7.84338 17.4435 7.84595 17.4461 7.87083C17.4487 7.89742 17.4495 7.89742 17.5087 7.90343L17.5679 7.90943V7.9386C17.5679 7.96606 17.5696 7.96777 17.5971 7.96777C17.6254 7.96777 17.6271 7.96949 17.6297 7.99952C17.6323 8.0304 17.634 8.03212 17.6649 8.03469C17.6949 8.03726 17.6966 8.03898 17.6966 8.06729C17.6966 8.09474 17.6983 8.09646 17.7258 8.09646C17.7541 8.09646 17.7558 8.09818 17.7584 8.1282C17.7609 8.15909 17.7627 8.1608 17.7935 8.16338C17.8236 8.16595 17.8253 8.16767 17.8253 8.19598C17.8253 8.22343 17.827 8.22515 17.8545 8.22515H17.8828L17.8888 8.28434C17.8948 8.34439 17.8948 8.34439 17.9222 8.34697C17.9471 8.34954 17.9497 8.35212 17.9523 8.38128C17.9548 8.41217 17.9565 8.41389 17.9849 8.41389C18.0132 8.41389 18.014 8.41474 18.014 8.4482C18.014 8.48166 18.0149 8.48252 18.0432 8.48252H18.0724L18.0784 8.54257L18.0844 8.60262H18.1135C18.1419 8.60262 18.1427 8.60348 18.1427 8.63694C18.1427 8.6704 18.1436 8.67126 18.1719 8.67126H18.2011L18.2071 8.7356L18.2131 8.79994H18.2422C18.2705 8.79994 18.2714 8.8008 18.2714 8.83426C18.2714 8.86772 18.2723 8.86858 18.3006 8.86858H18.3297L18.3357 8.93292L18.3417 8.99726H18.3709H18.4001V9.05732V9.11737H18.4293H18.4584L18.4644 9.18171L18.4704 9.24606H18.4996H18.5288V9.34043V9.4348H18.5579H18.5871L18.5931 9.50343L18.5991 9.57206H18.6283H18.6575V9.66643V9.7608H18.6875H18.7175V9.84402C18.7175 9.89035 18.7201 9.94868 18.7227 9.97271C18.7278 10.0147 18.7304 10.0182 18.7518 10.0182C18.7733 10.0182 18.7759 10.0216 18.781 10.0628C18.7836 10.0877 18.7861 10.1597 18.7861 10.2215V10.3356H18.8162H18.8462V10.5261C18.8462 10.6316 18.8488 10.7611 18.8522 10.8135L18.8574 10.9104H18.8805H18.9037L18.9088 11.058C18.9165 11.2476 18.9165 12.3414 18.9097 12.4006L18.9037 12.4461H15.7843C14.0685 12.4461 12.6444 12.4486 12.6204 12.4512L12.5749 12.4572V12.5481C12.5749 12.5979 12.5775 12.6828 12.5809 12.7352L12.586 12.8321H12.6092H12.6324L12.6375 12.9797C12.6409 13.0612 12.6435 13.1907 12.6435 13.2671V13.4069H12.6735H12.7036V13.5656V13.7243H12.7336H12.7636V13.7707C12.7636 13.7955 12.7662 13.8402 12.7688 13.8693L12.7748 13.9217H12.8031H12.8323V14.016V14.1104H12.8623H12.8923V14.1593C12.8923 14.1868 12.8949 14.2296 12.8975 14.2537C12.9035 14.2983 12.9035 14.2991 12.9318 14.2991H12.9609V14.3635V14.4278H12.991C13.0201 14.4278 13.021 14.4287 13.021 14.4621C13.021 14.4956 13.0219 14.4965 13.0502 14.4965H13.0793L13.0853 14.5608L13.0913 14.6251H13.1205C13.1471 14.6251 13.1488 14.6269 13.1514 14.6569C13.154 14.6869 13.1565 14.6895 13.1814 14.6921C13.2089 14.6946 13.2089 14.6946 13.2149 14.7547L13.2209 14.8139H13.2492C13.2775 14.8139 13.2784 14.8147 13.2784 14.8482V14.8825H13.3127C13.3461 14.8825 13.347 14.8834 13.347 14.9125C13.347 14.9409 13.3487 14.9426 13.377 14.9426C13.4062 14.9426 13.4071 14.9434 13.4071 14.9769V15.0112H13.4414C13.4748 15.0112 13.4757 15.0121 13.4757 15.0412C13.4757 15.0695 13.4774 15.0713 13.5057 15.0713C13.534 15.0713 13.5357 15.073 13.5357 15.1004C13.5357 15.1287 13.5375 15.1305 13.5683 15.133C13.5984 15.1356 13.6001 15.1373 13.6027 15.1673L13.6052 15.1999H13.6644H13.7236L13.7262 15.2317C13.7288 15.2626 13.7305 15.2643 13.7614 15.2669C13.7914 15.2694 13.7931 15.2712 13.7931 15.2995V15.3286H13.8532H13.9132V15.3578V15.387L13.9767 15.393L14.0411 15.399L14.0436 15.4256L14.0462 15.453L14.1131 15.4556L14.1792 15.4582V15.4873V15.5174H14.2735H14.3679V15.5465C14.3679 15.5749 14.3688 15.5749 14.4134 15.5809C14.4374 15.5834 14.5095 15.586 14.5721 15.586H14.6853V15.616V15.6461H15.0714H15.4575V15.616V15.586H15.5716C15.6333 15.586 15.7054 15.5834 15.7303 15.5809C15.774 15.5749 15.7749 15.5749 15.7749 15.5465V15.5174H15.8392H15.9036V15.4873V15.4573H15.9979H16.0923V15.4281V15.399L16.1567 15.393L16.221 15.387V15.3587V15.3303L16.2845 15.3243L16.3488 15.3183L16.3514 15.2917C16.354 15.2669 16.3565 15.2643 16.3866 15.2617C16.4166 15.2591 16.4183 15.2574 16.4183 15.2291C16.4183 15.2008 16.4192 15.1999 16.4526 15.1999C16.4861 15.1999 16.4869 15.1991 16.4869 15.1708V15.1416L16.547 15.1356L16.6071 15.1296V15.1004C16.6071 15.073 16.6088 15.0713 16.6362 15.0713C16.6645 15.0713 16.6663 15.0695 16.6688 15.0387C16.6714 15.0086 16.6731 15.0069 16.704 15.0043L16.7357 15.0018V14.9417V14.8825H16.7701C16.8035 14.8825 16.8044 14.8817 16.8044 14.8525C16.8044 14.8242 16.8061 14.8225 16.8344 14.8225C16.8636 14.8225 16.8644 14.8216 16.8644 14.7881C16.8644 14.7547 16.8653 14.7538 16.8936 14.7538H16.9228L16.9288 14.6895L16.9348 14.6251H16.9639H16.9931V14.5608V14.4965H17.0223H17.0515L17.0575 14.4321L17.0635 14.3678H17.0926H17.1218V14.2734V14.179H17.1518H17.1819V14.125C17.1819 14.0958 17.1844 14.0512 17.187 14.0263L17.193 13.9817H17.362C17.4547 13.9817 17.555 13.9843 17.5842 13.9869C17.634 13.9929 17.6365 13.9937 17.6365 14.016C17.6365 14.0375 17.64 14.0401 17.682 14.0452C17.706 14.0478 17.791 14.0503 17.8708 14.0503H18.014V14.0804V14.1104L18.1753 14.1121L18.3357 14.1147L18.3383 14.1413L18.3409 14.1679L18.4318 14.1739C18.4816 14.1765 18.5665 14.179 18.6206 14.179H18.7175V14.2734V14.3678H18.6875H18.6575V14.4965V14.6251H18.6283C18.6 14.6251 18.6 14.626 18.594 14.6698C18.5914 14.6946 18.5888 14.7375 18.5888 14.7641V14.8139H18.5588H18.5288V14.8782V14.9426H18.4996H18.4704L18.4644 15.0069L18.4584 15.0713H18.4293H18.4001V15.1356V15.1999H18.3709H18.3417L18.3357 15.2643L18.3297 15.3286H18.3006H18.2714V15.3887V15.4487H18.2414C18.2122 15.4487 18.2113 15.4496 18.2113 15.4831V15.5174H18.177H18.1427V15.5517C18.1427 15.5851 18.1419 15.586 18.1135 15.586H18.0844L18.0784 15.6461L18.0724 15.7061H18.0432C18.0149 15.7061 18.014 15.707 18.014 15.7404C18.014 15.7739 18.0132 15.7747 17.9849 15.7747C17.9565 15.7747 17.9548 15.7765 17.9523 15.8065C17.9497 15.8374 17.948 15.8391 17.9179 15.8417C17.8871 15.8442 17.8853 15.846 17.8853 15.8743C17.8853 15.9017 17.8836 15.9034 17.8553 15.9034C17.827 15.9034 17.8253 15.9051 17.8253 15.9326C17.8253 15.9609 17.8236 15.9626 17.7935 15.9652C17.7627 15.9678 17.7609 15.9695 17.7584 15.9995C17.7558 16.0304 17.7541 16.0321 17.7258 16.0321C17.6983 16.0321 17.6966 16.0338 17.6966 16.0613V16.0905L17.6323 16.0965L17.5679 16.1025V16.1316C17.5679 16.1591 17.5662 16.1608 17.5379 16.1608C17.5096 16.1608 17.5079 16.1625 17.5079 16.19C17.5079 16.2183 17.5061 16.22 17.4761 16.2226C17.4452 16.2251 17.4435 16.2269 17.4409 16.2569C17.4384 16.2886 17.4375 16.2895 17.4041 16.2895C17.3715 16.2895 17.3706 16.2903 17.3706 16.3187V16.3478L17.3105 16.3538L17.2505 16.3598V16.389C17.2505 16.4173 17.2496 16.4182 17.2162 16.4182C17.1827 16.4182 17.1819 16.419 17.1819 16.4482V16.4774L17.1201 16.4799L17.0575 16.4825L17.0549 16.5143L17.0523 16.5469H16.9923H16.9331V16.5769C16.9331 16.6061 16.9322 16.6069 16.8987 16.6069C16.8653 16.6069 16.8644 16.6078 16.8644 16.6361V16.6644L16.8121 16.6704C16.7829 16.673 16.74 16.6755 16.7177 16.6755H16.6757V16.7056V16.7356H16.6071H16.5384V16.7648V16.7939L16.414 16.7999L16.2896 16.806V16.8351V16.8643H16.1309H15.9722V16.8943V16.9243H15.8624C15.8015 16.9243 15.6411 16.9269 15.5064 16.9303L15.2601 16.9355V16.9604V16.9844H15.1357H15.0113V16.9604V16.9355L14.8123 16.9303C14.7025 16.9269 14.5575 16.9243 14.4906 16.9243H14.3679V16.8943V16.8643H14.1792H13.9904V16.8351V16.8068L13.933 16.8017C13.9004 16.7982 13.8566 16.7957 13.8343 16.7957H13.7931V16.7656V16.7356H13.6945H13.5958V16.7056V16.6755H13.5538C13.5315 16.6755 13.4886 16.673 13.4594 16.6704L13.4071 16.6644V16.6361V16.6069H13.3427H13.2784V16.5769V16.5477L13.2166 16.5451L13.154 16.5426L13.1514 16.5151L13.1488 16.4885L13.0845 16.4825L13.021 16.4765V16.4482V16.4207L12.9609 16.4147L12.9009 16.4087V16.3787C12.9009 16.3504 12.9 16.3495 12.8666 16.3495C12.8331 16.3495 12.8323 16.3487 12.8323 16.3195V16.2895H12.7679H12.7036V16.2552C12.7036 16.2217 12.7027 16.2209 12.6735 16.2209C12.6452 16.2209 12.6435 16.2191 12.6435 16.1908C12.6435 16.1617 12.6427 16.1608 12.6092 16.1608C12.5757 16.1608 12.5749 16.1599 12.5749 16.1316C12.5749 16.1033 12.5732 16.1016 12.5431 16.099C12.5123 16.0965 12.5105 16.0947 12.508 16.0639L12.5054 16.0321H12.4453H12.3861V15.9978C12.3861 15.9643 12.3853 15.9635 12.3561 15.9635C12.3278 15.9635 12.3261 15.9618 12.3261 15.9335C12.3261 15.9043 12.3252 15.9034 12.2918 15.9034H12.2583L12.2557 15.8408L12.2532 15.779L12.2214 15.7765C12.1905 15.7739 12.1888 15.7722 12.1888 15.7439C12.1888 15.7164 12.1871 15.7147 12.1588 15.7147C12.1296 15.7147 12.1288 15.7138 12.1288 15.6804C12.1288 15.6469 12.1279 15.6461 12.0996 15.6461H12.0704L12.0644 15.586L12.0584 15.5259H12.0293C12.0009 15.5259 12.0001 15.5251 12.0001 15.4916C12.0001 15.4582 11.9992 15.4573 11.9709 15.4573H11.9417L11.9357 15.393L11.9297 15.3286H11.9006H11.8714V15.2643V15.1999H11.8371C11.8036 15.1999 11.8028 15.2008 11.8028 15.23C11.8028 15.2583 11.8011 15.26 11.7727 15.26C11.7436 15.26 11.7427 15.2609 11.7427 15.2943C11.7427 15.3278 11.7419 15.3286 11.7135 15.3286H11.6844L11.6784 15.393L11.6724 15.4573H11.6432C11.6157 15.4573 11.614 15.459 11.614 15.4873C11.614 15.5157 11.6123 15.5174 11.584 15.5174C11.5548 15.5174 11.554 15.5182 11.554 15.5517C11.554 15.5851 11.5531 15.586 11.5248 15.586C11.4965 15.586 11.4948 15.5877 11.4922 15.6177C11.4896 15.6486 11.4879 15.6503 11.4579 15.6529L11.4253 15.6555V15.7155V15.7747H11.391C11.3575 15.7747 11.3567 15.7756 11.3567 15.8048C11.3567 15.8331 11.3549 15.8348 11.3266 15.8348C11.2975 15.8348 11.2966 15.8357 11.2966 15.8691V15.9034H11.2623C11.2288 15.9034 11.228 15.9043 11.228 15.9335C11.228 15.9618 11.2263 15.9635 11.1979 15.9635C11.1688 15.9635 11.1679 15.9643 11.1679 15.9978V16.0321H11.1336C11.1001 16.0321 11.0993 16.033 11.0993 16.0613V16.0905L11.0392 16.0965L10.9792 16.1025V16.1316C10.9792 16.1599 10.9783 16.1608 10.9449 16.1608C10.9114 16.1608 10.9105 16.1617 10.9105 16.1908C10.9105 16.2191 10.9088 16.2209 10.8805 16.2209C10.8513 16.2209 10.8505 16.2217 10.8505 16.2552V16.2895H10.7861H10.7218V16.3187C10.7218 16.347 10.7201 16.3487 10.6901 16.3513C10.6592 16.3538 10.6575 16.3555 10.6549 16.3856L10.6523 16.4182H10.588H10.5245V16.4473V16.4765L10.4653 16.4825C10.4061 16.4885 10.4052 16.4885 10.4027 16.5151C10.4001 16.54 10.3967 16.5426 10.3683 16.5451C10.3375 16.5477 10.3357 16.5494 10.3357 16.5777V16.6069H10.2414H10.147V16.6361C10.147 16.6644 10.1461 16.6644 10.1024 16.6704C10.0775 16.673 10.0346 16.6755 10.008 16.6755H9.95826V16.7056V16.7356H9.8596H9.76094V16.7648V16.7931L9.70861 16.7991C9.67944 16.8017 9.6211 16.8042 9.57992 16.8042H9.50357V16.8343V16.8643H9.31483H9.12609V16.8943V16.9243H8.45263H7.77917V16.8943V16.8643H7.62046H7.46175V16.8351V16.8068L7.33306 16.7999L7.20438 16.7939V16.7648V16.7356H7.10572H7.00706V16.7064V16.6773L6.94271 16.6713L6.87837 16.6653V16.6361V16.6069H6.81403H6.74968V16.5769V16.5477L6.68791 16.5451L6.62529 16.5426L6.62271 16.5151L6.62014 16.4885L6.5558 16.4825L6.49231 16.4765V16.4482V16.4199L6.43312 16.4139C6.37392 16.4079 6.37306 16.4079 6.37049 16.3813C6.36791 16.3564 6.36448 16.3538 6.33617 16.3513C6.30529 16.3487 6.30357 16.347 6.30357 16.3187C6.30357 16.2903 6.30271 16.2895 6.26925 16.2895C6.2358 16.2895 6.23494 16.2886 6.23494 16.2603V16.2312L6.17488 16.2251L6.11483 16.2191V16.19C6.11483 16.1617 6.11397 16.1608 6.08051 16.1608C6.04706 16.1608 6.0462 16.1599 6.0462 16.1308C6.0462 16.1025 6.04448 16.1007 6.01617 16.1007C5.987 16.1007 5.98614 16.0999 5.98614 16.0664V16.0321H5.95183C5.91837 16.0321 5.91751 16.0313 5.91751 16.0021C5.91751 15.9738 5.9158 15.9721 5.88749 15.9721C5.85832 15.9721 5.85746 15.9712 5.85746 15.9377V15.9034H5.82314C5.78968 15.9034 5.78883 15.9026 5.78883 15.8734C5.78883 15.8451 5.78711 15.8434 5.7588 15.8434C5.72963 15.8434 5.72877 15.8425 5.72877 15.8091C5.72877 15.7756 5.72791 15.7747 5.6996 15.7747C5.67129 15.7747 5.66958 15.773 5.667 15.7421C5.66443 15.7121 5.66271 15.7104 5.63269 15.7078L5.60009 15.7053V15.6461V15.5869L5.56834 15.5843C5.53746 15.5817 5.53574 15.58 5.53317 15.5491C5.53059 15.5191 5.52888 15.5174 5.50057 15.5174H5.4714V15.453V15.3887H5.44223H5.41306L5.40706 15.3286L5.40105 15.2686H5.37188H5.34271V15.2042V15.1399H5.31269H5.28352L5.28094 15.073L5.27837 15.0069L5.25177 15.0043C5.22604 15.0018 5.22432 14.9992 5.21917 14.9572C5.2166 14.9323 5.21403 14.8765 5.21403 14.8328V14.7538H5.184H5.15397V14.6698C5.15397 14.6243 5.1514 14.566 5.14883 14.5411C5.14368 14.4999 5.1411 14.4965 5.11966 14.4965H5.09649L5.09135 14.3532C5.08362 14.1705 5.08362 13.7569 5.09135 13.6317L5.09649 13.5356H5.11966C5.1411 13.5356 5.14368 13.5322 5.14883 13.4901C5.1514 13.4661 5.15397 13.394 5.15397 13.3314V13.2182H5.184H5.21403V13.1641C5.21403 13.135 5.2166 13.0903 5.21917 13.0655C5.22518 13.0217 5.22518 13.0209 5.25349 13.0209H5.28266V12.9565V12.8922H5.31269H5.34271V12.8278V12.7635H5.37188H5.40105L5.40706 12.7034L5.41306 12.6434H5.44223H5.4714V12.579V12.5147H5.50057C5.52888 12.5147 5.53059 12.513 5.53317 12.4821C5.53574 12.4521 5.53746 12.4503 5.56834 12.4478C5.59923 12.4452 5.60009 12.4443 5.60009 12.4109C5.60009 12.3783 5.60094 12.3774 5.62925 12.3774H5.65842L5.66443 12.3174L5.67043 12.2573H5.6996C5.72791 12.2573 5.72877 12.2565 5.72877 12.223C5.72877 12.1895 5.72963 12.1887 5.7588 12.1887C5.78711 12.1887 5.78883 12.187 5.78883 12.1587C5.78883 12.1295 5.78968 12.1286 5.82314 12.1286C5.8566 12.1286 5.85746 12.1278 5.85746 12.0986C5.85746 12.0703 5.85917 12.0686 5.88749 12.0686C5.91665 12.0686 5.91751 12.0677 5.91751 12.0343V11.9999H5.95183C5.98529 11.9999 5.98614 11.9991 5.98614 11.9699C5.98614 11.9416 5.98786 11.9399 6.01531 11.9399C6.04362 11.9399 6.04534 11.9382 6.04791 11.9073L6.05049 11.8755L6.11312 11.873L6.17488 11.8704V11.8412C6.17488 11.8138 6.1766 11.8121 6.20749 11.8095C6.23751 11.8069 6.23923 11.8052 6.2418 11.7743C6.24438 11.7443 6.24609 11.7426 6.2744 11.7426C6.30186 11.7426 6.30357 11.7409 6.30357 11.7125V11.6825H6.36791H6.43226V11.6482V11.6139H6.4966H6.56094V11.5839V11.5538H6.62529H6.68963V11.5247V11.4955L6.75397 11.4895L6.81832 11.4835V11.4543V11.4251H6.91269H7.00706V11.396C7.00706 11.3677 7.00791 11.3677 7.05253 11.3617C7.07655 11.3591 7.11944 11.3565 7.1469 11.3565H7.1958V11.3265V11.2965H7.32877H7.46175V11.2681V11.239L7.60502 11.2338C7.68309 11.2304 7.85467 11.2278 7.98679 11.2278H8.22529V11.1978V11.1678H9.66228H11.0993V10.5286V9.88949H11.0744C11.0512 9.88949 11.0495 9.88692 11.0444 9.84402C11.0418 9.82 11.0392 9.74622 11.0392 9.68102V9.56348H11.0092H10.9792V9.4837C10.9792 9.4408 10.9766 9.38418 10.974 9.3593C10.968 9.31555 10.968 9.31469 10.9397 9.31469C10.9114 9.31469 10.9105 9.31383 10.9105 9.28037C10.9105 9.24691 10.9097 9.24606 10.8805 9.24606H10.8505V9.18171V9.11737H10.8213H10.7922L10.7861 9.05732L10.7801 8.99726H10.751C10.7227 8.99726 10.7218 8.99641 10.7218 8.96295V8.92863H10.6875C10.654 8.92863 10.6532 8.92777 10.6532 8.8986C10.6532 8.87029 10.6515 8.86858 10.6231 8.86858C10.594 8.86858 10.5931 8.86772 10.5931 8.83426V8.79994H10.5588C10.5253 8.79994 10.5245 8.79909 10.5245 8.77077V8.74161L10.4644 8.7356L10.4044 8.7296V8.70043C10.4044 8.67212 10.4035 8.67126 10.3701 8.67126C10.3366 8.67126 10.3357 8.6704 10.3357 8.64123V8.6112H10.2714H10.2071V8.57689V8.54257H10.1127H10.0183V8.51254V8.48252H9.96942C9.94196 8.48252 9.89993 8.47994 9.87505 8.47737C9.83301 8.47222 9.83043 8.47051 9.82786 8.44477L9.82529 8.41817L9.69489 8.4156L9.56362 8.41303V8.38386V8.35383H9.11751H8.6714V8.38386V8.41389H8.52813C8.44834 8.41389 8.36427 8.41646 8.33939 8.41903C8.29735 8.42418 8.29478 8.4259 8.2922 8.45163L8.28963 8.47823L8.19354 8.4808L8.0966 8.48338V8.51254V8.54257H8.03226H7.96791V8.57174V8.60091L7.90357 8.60691L7.83923 8.61292V8.64209V8.67126H7.77488H7.71054V8.70043V8.7296L7.65049 8.7356L7.59043 8.74161V8.77077C7.59043 8.79909 7.58958 8.79994 7.55698 8.79994C7.52352 8.79994 7.52266 8.8008 7.52009 8.83169C7.51751 8.86257 7.5158 8.86429 7.48577 8.86686C7.45488 8.86943 7.45317 8.87115 7.45317 8.89946C7.45317 8.92691 7.45145 8.92863 7.42314 8.92863C7.39483 8.92863 7.39312 8.93035 7.39312 8.9578C7.39312 8.98611 7.3914 8.98783 7.36137 8.9904L7.32877 8.99297L7.3262 9.05474L7.32362 9.11737H7.29446C7.26529 9.11737 7.26443 9.11823 7.26443 9.15169C7.26443 9.18515 7.26357 9.186 7.23526 9.186H7.20609L7.20009 9.24606L7.19408 9.30611H7.16491H7.13574V9.37474V9.44338H7.10572H7.07569V9.51973C7.07569 9.56091 7.07312 9.61925 7.07054 9.64842L7.06454 9.70075H7.03623H7.00706V9.85946V10.0182H6.89381C6.83118 10.0182 6.75912 10.0156 6.7351 10.013C6.69306 10.0079 6.68963 10.0053 6.68963 9.98386C6.68963 9.96155 6.68706 9.9607 6.6373 9.95469C6.60813 9.95212 6.52062 9.94954 6.44427 9.94954H6.30357V9.91952V9.88949H6.14486H5.98614V9.86118V9.83201L5.89006 9.82686C5.83687 9.82343 5.74936 9.82086 5.69703 9.82086H5.60009V9.79083V9.7608H5.53574H5.4714V9.71104C5.4714 9.68445 5.47397 9.64155 5.47655 9.61667C5.48169 9.57464 5.48427 9.57206 5.50572 9.57206H5.52974L5.53574 9.44338L5.54175 9.31469H5.57092H5.60009V9.21603V9.11737H5.63011H5.66014V9.07533C5.66014 9.05303 5.66271 9.01013 5.66529 8.98096L5.67129 8.92863H5.6996H5.72877V8.86429V8.79994H5.7588H5.78883V8.7356V8.67126H5.82314H5.85746V8.60691V8.54257H5.88749C5.9158 8.54257 5.91751 8.54086 5.91751 8.51254C5.91751 8.48423 5.91923 8.48252 5.94668 8.48252H5.97585L5.98185 8.41817L5.98786 8.35383H6.01703C6.04362 8.35383 6.04534 8.35212 6.04791 8.32123C6.05049 8.2912 6.0522 8.28949 6.08309 8.28691C6.11312 8.28434 6.11483 8.28263 6.11483 8.25431C6.11483 8.22686 6.11655 8.22515 6.14486 8.22515C6.17403 8.22515 6.17488 8.22429 6.17488 8.19083C6.17488 8.15737 6.17574 8.15651 6.20491 8.15651C6.23322 8.15651 6.23494 8.1548 6.23494 8.12649C6.23494 8.09732 6.2358 8.09646 6.26925 8.09646H6.30357V8.06214C6.30357 8.02868 6.30443 8.02783 6.33274 8.02783H6.36191L6.36791 7.96863L6.37392 7.90943L6.43312 7.90343L6.49231 7.89742V7.86825C6.49231 7.83994 6.49317 7.83909 6.52663 7.83909C6.56009 7.83909 6.56094 7.83823 6.56094 7.80992C6.56094 7.78161 6.56266 7.77989 6.59354 7.77732C6.62357 7.77474 6.62529 7.77303 6.62786 7.74214L6.63043 7.7104H6.69049H6.74968V7.68037C6.74968 7.6512 6.75054 7.65035 6.784 7.65035C6.81746 7.65035 6.81832 7.64949 6.81832 7.62118V7.59201L6.88266 7.586L6.947 7.58V7.55083V7.52252L7.00963 7.51994L7.0714 7.51737L7.07397 7.48992L7.07655 7.46332L7.14089 7.45732L7.20438 7.45131V7.42214V7.39297H7.26872H7.33306V7.3638C7.33306 7.33549 7.33392 7.33549 7.37853 7.32949C7.40255 7.32691 7.44545 7.32434 7.4729 7.32434H7.5218V7.29431V7.26429H7.61617H7.71054V7.23512V7.20681L7.83923 7.19994L7.96791 7.19394V7.16477V7.1356H8.16094H8.35397V7.10557V7.07555L8.54958 7.07297C9.01285 7.06783 9.26936 7.06697 9.53617 7.07297Z" fill="#8457ff"/>
<path id="Vector_2" d="M14.6253 8.38415V8.41418H14.4966H14.3679V8.44335C14.3679 8.47166 14.3671 8.47166 14.3233 8.47766C14.2984 8.48024 14.2538 8.48281 14.2246 8.48281H14.1706V8.51284V8.54286H14.12C14.0925 8.54286 14.0522 8.54544 14.0308 8.54801C13.9939 8.55316 13.9913 8.55573 13.9887 8.58061C13.9861 8.60463 13.9827 8.60721 13.9544 8.60978C13.9235 8.61235 13.9218 8.61407 13.9218 8.64238V8.67155H13.8583H13.794L13.7914 8.70329C13.7888 8.73418 13.7871 8.73589 13.7571 8.73847C13.7262 8.74104 13.7245 8.74276 13.7245 8.77107C13.7245 8.79852 13.7228 8.80024 13.6945 8.80024C13.6661 8.80024 13.6644 8.80195 13.6644 8.82941V8.85857L13.6001 8.86458L13.5357 8.87059V8.89975C13.5357 8.92721 13.534 8.92892 13.5057 8.92892C13.4774 8.92892 13.4757 8.93064 13.4757 8.95809C13.4757 8.9864 13.474 8.98812 13.4439 8.99069C13.4131 8.99327 13.4113 8.99498 13.4088 9.02501C13.4062 9.05589 13.4045 9.05761 13.377 9.05761C13.3496 9.05761 13.3479 9.05933 13.3453 9.08935C13.3427 9.11938 13.3401 9.12195 13.3153 9.12453C13.2878 9.1271 13.2878 9.1271 13.2818 9.18715L13.2758 9.24635H13.2475C13.2209 9.24635 13.2192 9.24807 13.2166 9.27809C13.214 9.30898 13.2123 9.31069 13.1823 9.31327C13.1505 9.31584 13.1497 9.3167 13.1497 9.35016C13.1497 9.38276 13.1488 9.38361 13.1197 9.38361H13.0896V9.44367V9.50372H13.0553H13.021V9.56807V9.63241H12.991H12.9618L12.9592 9.69418L12.9567 9.75681L12.9292 9.75938L12.9026 9.76195L12.8966 9.8263L12.8906 9.88978H12.8614H12.8323V9.98415V10.0785H12.8031H12.7748L12.7688 10.1309C12.7662 10.16 12.7636 10.2046 12.7636 10.2295V10.2758H12.7336H12.7036V10.4646V10.6533H12.6744H12.6452L12.6418 10.9081C12.6409 11.0488 12.6409 11.1784 12.6427 11.1955L12.6452 11.2281H14.9779H17.3105V10.9407V10.6533H17.2805H17.2505V10.4826C17.2505 10.3891 17.2479 10.2887 17.2453 10.2595L17.2393 10.2072H17.211H17.1819V10.0828V9.95841H17.1518H17.1218V9.90437C17.1218 9.8752 17.1192 9.83059 17.1167 9.80571C17.1115 9.76367 17.1089 9.76109 17.0866 9.76109C17.0635 9.76109 17.0635 9.76024 17.0575 9.69675L17.0515 9.63241H17.0223H16.9931V9.56807V9.50372H16.9639H16.9348L16.9288 9.43938L16.9228 9.37504H16.8936H16.8644V9.31584V9.25579L16.8327 9.25321C16.8018 9.25064 16.8001 9.24892 16.7975 9.21804C16.7949 9.18801 16.7932 9.1863 16.7649 9.1863C16.7366 9.1863 16.7357 9.18544 16.7357 9.15198C16.7357 9.11852 16.7349 9.11766 16.7066 9.11766H16.6774L16.6714 9.05761L16.6654 8.99756H16.6362C16.6079 8.99756 16.6071 8.9967 16.6071 8.96324V8.92892H16.5727C16.5393 8.92892 16.5384 8.92807 16.5384 8.89975V8.87059L16.4784 8.86458L16.4183 8.85857V8.82941C16.4183 8.80109 16.4175 8.80024 16.384 8.80024H16.3497V8.76592C16.3497 8.73246 16.3488 8.7316 16.3197 8.7316C16.2913 8.7316 16.2896 8.72989 16.2896 8.70158V8.67155H16.2253H16.1609V8.64238V8.61321L16.0966 8.60721L16.0323 8.6012V8.57203V8.54286H15.9679H15.9036V8.51284V8.48281H15.8547C15.8272 8.48281 15.7852 8.48024 15.7603 8.47766C15.7183 8.47252 15.7157 8.4708 15.7131 8.44506L15.7105 8.41847L15.5544 8.41589L15.3974 8.41418V8.38415V8.35412H15.0113H14.6253V8.38415Z" fill="#8457ff"/>
<path id="Vector_3" d="M10.3357 12.35V12.3749L9.51896 12.38C9.06941 12.3834 8.53665 12.386 8.33504 12.386H7.96786V12.416V12.4452L7.87177 12.4478L7.77483 12.4504L7.77226 12.477C7.76968 12.5027 7.76711 12.5044 7.72507 12.5096C7.70019 12.5121 7.65815 12.5147 7.63156 12.5147H7.5818V12.5447V12.5748H7.5226H7.46255L7.45998 12.6065L7.4574 12.6391L7.39563 12.6417L7.33301 12.6442V12.6734C7.33301 12.7026 7.33215 12.7034 7.29869 12.7034C7.26523 12.7034 7.26437 12.7043 7.26437 12.7326C7.26437 12.7609 7.26266 12.7626 7.23263 12.7652C7.20175 12.7678 7.20003 12.7695 7.19746 12.7995C7.19488 12.8304 7.19317 12.8321 7.16486 12.8321C7.1374 12.8321 7.13569 12.8338 7.13569 12.8613C7.13569 12.8896 7.13397 12.8913 7.10395 12.8939C7.07392 12.8965 7.07134 12.899 7.06877 12.9239C7.0662 12.9479 7.06277 12.9514 7.03874 12.954C7.01386 12.9565 7.01129 12.9591 7.00872 12.9883C7.00614 13.0192 7.00443 13.0209 6.97612 13.0209C6.94781 13.0209 6.94695 13.0217 6.94695 13.0552V13.0895H6.91263H6.87832V13.1496V13.2096H6.84829C6.82084 13.2096 6.81826 13.2122 6.81826 13.2345C6.81826 13.2474 6.81569 13.2765 6.81311 13.298C6.80797 13.3349 6.80539 13.3374 6.78051 13.34L6.75392 13.3426L6.75134 13.4387L6.74877 13.5356H6.7196H6.68958V13.9817V14.4278H6.7196H6.74963V14.5265V14.6252H6.78395H6.81826V14.6895V14.7538H6.84829H6.87746L6.88003 14.8156L6.8826 14.8782L6.91521 14.8808C6.94609 14.8834 6.94695 14.8842 6.94695 14.9177C6.94695 14.9503 6.94781 14.9512 6.97697 14.9512C7.00529 14.9512 7.007 14.9529 7.007 14.9812C7.007 15.0095 7.00872 15.0112 7.03617 15.0112C7.06448 15.0112 7.0662 15.0129 7.06877 15.043C7.07134 15.0738 7.07306 15.0756 7.10395 15.0781C7.13397 15.0807 7.13569 15.0824 7.13569 15.1107C7.13569 15.1382 7.1374 15.1399 7.16571 15.1399C7.19403 15.1399 7.19574 15.1416 7.19574 15.1699C7.19574 15.1991 7.1966 15.2 7.23006 15.2H7.26437V15.2343V15.2686H7.29869C7.33215 15.2686 7.33301 15.2694 7.33301 15.2986V15.3286H7.39306H7.45311V15.3578V15.387L7.5166 15.393L7.58094 15.399L7.58352 15.4256L7.58609 15.453L7.67874 15.4556L7.77054 15.4582V15.4874V15.5174H7.85462C7.90008 15.5174 7.95756 15.52 7.98244 15.5225C8.02448 15.5277 8.02706 15.5294 8.02963 15.5551L8.0322 15.5817L8.41826 15.5843C8.63102 15.586 8.83263 15.5843 8.86695 15.5817C8.92786 15.5757 8.92872 15.5757 8.92872 15.5526C8.92872 15.5294 8.93129 15.5285 8.98105 15.5225C9.01022 15.52 9.084 15.5174 9.14405 15.5174H9.25472V15.4874V15.4573H9.37912H9.50352V15.4282C9.50352 15.3999 9.50437 15.3999 9.54899 15.3938C9.57301 15.3913 9.6159 15.3887 9.64336 15.3887H9.69226V15.3587V15.3286H9.7566H9.82094V15.2995V15.2703L9.88529 15.2643L9.94963 15.2583V15.2291C9.94963 15.2008 9.95049 15.2 9.98394 15.2C10.0174 15.2 10.0183 15.1991 10.0183 15.1708V15.1416L10.0775 15.1356C10.1367 15.1296 10.1375 15.1296 10.1401 15.103C10.1427 15.0781 10.1461 15.0756 10.1753 15.073C10.2053 15.0704 10.207 15.0687 10.207 15.0412C10.207 15.0138 10.2087 15.0121 10.2396 15.0095C10.2696 15.0069 10.2713 15.0052 10.2739 14.9743C10.2765 14.9443 10.2782 14.9426 10.3065 14.9426C10.334 14.9426 10.3357 14.9409 10.3357 14.9126C10.3357 14.8834 10.3365 14.8825 10.37 14.8825C10.4035 14.8825 10.4043 14.8817 10.4043 14.8525C10.4043 14.8242 10.406 14.8225 10.4343 14.8225C10.4635 14.8225 10.4644 14.8216 10.4644 14.7882C10.4644 14.7547 10.4652 14.7538 10.4935 14.7538C10.5219 14.7538 10.5236 14.7521 10.5261 14.7212C10.5287 14.6912 10.5304 14.6895 10.5613 14.6869C10.5913 14.6844 10.5931 14.6826 10.5931 14.6543C10.5931 14.6269 10.5948 14.6252 10.6231 14.6252C10.6523 14.6252 10.6531 14.6243 10.6531 14.5908C10.6531 14.5574 10.654 14.5565 10.6823 14.5565H10.7115L10.7175 14.4965L10.7235 14.4364H10.7518H10.7801L10.7861 14.3729L10.7921 14.3086L10.8187 14.306L10.8461 14.3034L10.8487 14.2408L10.8513 14.179H10.8805H10.9105V14.1147V14.0504H10.9397H10.968L10.974 13.998C10.9765 13.9689 10.9791 13.9242 10.9791 13.8994V13.853H11.0091H11.0392V13.6746C11.0392 13.5768 11.0417 13.4764 11.0443 13.4515C11.0495 13.4095 11.052 13.4069 11.0735 13.4069H11.0975L11.1035 13.0783C11.1061 12.8982 11.1078 12.6674 11.1061 12.5662L11.1035 12.3817L10.7844 12.3792L10.4644 12.3774V12.3517V12.326H10.4H10.3357V12.35Z" fill="#8457ff"/>
</g>
</g>
<defs>
<clipPath id="clip0_766_3171">
<rect width="24" height="24" fill="white"/>
</clipPath>
</defs>
</svg>
