<svg width="32" height="32" viewBox="0 0 32 32" fill="none" xmlns="http://www.w3.org/2000/svg">
<g id="image-10 1" clip-path="url(#clip0_766_3182)">
<g id="Group">
<path id="Vector" d="M14.4912 0.00753021L14.1662 0.0107594V0.0419846V0.0732098L13.8713 0.0807457L13.5764 0.0882835V0.119509V0.150732H13.4188C13.3308 0.150732 13.2343 0.153963 13.2043 0.157192C13.1507 0.163652 13.1475 0.165806 13.1475 0.194878V0.226103H12.9651H12.7828V0.25625V0.287476L12.6788 0.293936C12.6209 0.298243 12.5416 0.301474 12.5019 0.301474H12.429V0.333775V0.366076H12.341C12.2917 0.366076 12.2263 0.369307 12.1962 0.372536C12.1426 0.378996 12.1394 0.381149 12.1394 0.410221V0.441446H11.9946H11.8499V0.479132V0.516815H11.7373H11.6247V0.54804C11.6247 0.577112 11.6214 0.579266 11.5689 0.585726C11.5378 0.588957 11.4745 0.592186 11.4295 0.592186H11.3458V0.624487C11.3458 0.65679 11.3448 0.65679 11.2901 0.65679C11.259 0.65679 11.2075 0.660019 11.1775 0.66325C11.1239 0.66971 11.1206 0.671864 11.1206 0.700935V0.732159H11.0134H10.9062V0.769844V0.807529H10.7989H10.6917V0.838755C10.6917 0.867826 10.6885 0.86998 10.6359 0.87644C10.6048 0.879669 10.5566 0.8829 10.5287 0.8829C10.4783 0.8829 10.4772 0.883976 10.4772 0.915201V0.947502H10.4021H10.3271V0.985188V1.02287H10.2198H10.1126V1.06056V1.09824H10.0375H9.96247V1.13054C9.96247 1.16177 9.96139 1.16285 9.90992 1.16285C9.88204 1.16285 9.83593 1.16608 9.80804 1.16931C9.76193 1.17577 9.75871 1.179 9.75871 1.20699V1.23822H9.68365H9.60858V1.2759V1.31359H9.50134H9.3941V1.35127V1.38896H9.31903H9.24397V1.42018C9.24397 1.45141 9.2429 1.45248 9.17426 1.45894C9.1067 1.46648 9.10456 1.46756 9.10456 1.4977V1.52893H9.02949H8.95442V1.56661V1.6043H8.88472H8.81501V1.63552C8.81501 1.66675 8.81394 1.66675 8.73995 1.67429C8.66702 1.68182 8.66488 1.6829 8.66488 1.71197C8.66488 1.74104 8.66273 1.74212 8.59517 1.74966C8.52654 1.75612 8.52547 1.75719 8.52547 1.78842V1.81964H8.45684H8.38713L8.38391 1.8541L8.3807 1.88963L8.30885 1.89286L8.23592 1.89609V1.9327C8.23592 1.96823 8.23378 1.97038 8.19839 1.97038C8.16407 1.97038 8.16086 1.97254 8.16086 2.00268V2.03499H8.09115H8.02145V2.07267V2.11036H7.94638H7.87131V2.14804V2.18573H7.80161H7.7319V2.21803C7.7319 2.24817 7.72869 2.25033 7.69437 2.25033C7.65898 2.25033 7.65684 2.25248 7.65684 2.28801V2.3257H7.58713H7.51743V2.36338C7.51743 2.39999 7.51635 2.40107 7.47453 2.40107C7.43378 2.40107 7.43164 2.40322 7.43164 2.43229C7.43164 2.46352 7.43056 2.4646 7.36193 2.47106C7.29437 2.47859 7.29222 2.47967 7.29222 2.50874C7.29222 2.53781 7.29008 2.53997 7.22252 2.54643C7.15496 2.55396 7.15281 2.55504 7.15281 2.58519C7.15281 2.61318 7.1496 2.61641 7.11528 2.61641C7.07989 2.61641 7.07775 2.61857 7.07775 2.6541V2.69178H7.00804H6.93834V2.72947C6.93834 2.765 6.93619 2.76715 6.9008 2.76715C6.86649 2.76715 6.86327 2.76931 6.86327 2.79945C6.86327 2.8296 6.86005 2.83176 6.82574 2.83176C6.79035 2.83176 6.7882 2.83391 6.7882 2.86944V2.90713H6.7185H6.64879V2.94481C6.64879 2.98034 6.64665 2.9825 6.61126 2.9825C6.57694 2.9825 6.57373 2.98465 6.57373 3.01372C6.57373 3.04494 6.57265 3.04602 6.50509 3.05248C6.43646 3.06002 6.43539 3.0611 6.43217 3.09447C6.42895 3.12355 6.42466 3.12785 6.39464 3.13108C6.36354 3.13431 6.35925 3.13862 6.35925 3.16661C6.35925 3.19569 6.35603 3.19784 6.32172 3.19784C6.28633 3.19784 6.28418 3.19999 6.28418 3.23553C6.28418 3.27106 6.28204 3.27321 6.24665 3.27321C6.21233 3.27321 6.20912 3.27536 6.20912 3.30443C6.20912 3.33566 6.20804 3.33673 6.13941 3.34319C6.07185 3.35073 6.06971 3.35181 6.06971 3.38196C6.06971 3.40995 6.06649 3.41318 6.03217 3.41318C5.99678 3.41318 5.99464 3.41534 5.99464 3.45087C5.99464 3.4864 5.99249 3.48855 5.9571 3.48855C5.92172 3.48855 5.91957 3.49071 5.91957 3.52624V3.56392H5.84987H5.78016V3.60161C5.78016 3.63714 5.77802 3.63929 5.74263 3.63929C5.70831 3.63929 5.70509 3.64145 5.70509 3.67052C5.70509 3.69851 5.7008 3.70282 5.67078 3.70605C5.63968 3.70928 5.63539 3.71359 5.63217 3.74373C5.62895 3.77496 5.62466 3.77927 5.59786 3.77927C5.57105 3.77927 5.56676 3.78357 5.56354 3.81372C5.56032 3.84495 5.55603 3.84925 5.52601 3.85248C5.49491 3.85571 5.49062 3.86002 5.49062 3.88694C5.49062 3.91385 5.48633 3.91816 5.45523 3.92139C5.4252 3.92462 5.42091 3.92893 5.41769 3.95908C5.41448 3.99138 5.41126 3.99461 5.37694 3.99461C5.34263 3.99461 5.34048 3.99676 5.34048 4.03229V4.06998H5.27078H5.20107V4.10766C5.20107 4.1432 5.19893 4.14535 5.16354 4.14535C5.12815 4.14535 5.12601 4.1475 5.12601 4.18303C5.12601 4.21749 5.12386 4.22072 5.09383 4.22072C5.06488 4.22072 5.06166 4.22395 5.06166 4.25302C5.06166 4.28317 5.05844 4.28532 5.02413 4.28532C4.98874 4.28532 4.9866 4.28748 4.9866 4.32301C4.9866 4.35854 4.98445 4.36069 4.94906 4.36069C4.91367 4.36069 4.91153 4.36285 4.91153 4.39838C4.91153 4.43391 4.90938 4.43606 4.87399 4.43606C4.83968 4.43606 4.83646 4.43822 4.83646 4.46836C4.83646 4.49743 4.83324 4.50067 4.80429 4.50067C4.77426 4.50067 4.77212 4.5039 4.77212 4.53835C4.77212 4.57388 4.76997 4.57604 4.73458 4.57604C4.6992 4.57604 4.69705 4.57819 4.69705 4.61372C4.69705 4.64925 4.69491 4.65141 4.65952 4.65141C4.62413 4.65141 4.62198 4.65356 4.62198 4.68909C4.62198 4.72462 4.61984 4.72678 4.58445 4.72678C4.55013 4.72678 4.54692 4.72893 4.54692 4.75908C4.54692 4.78815 4.5437 4.79138 4.51475 4.79138C4.48472 4.79138 4.48257 4.79461 4.48257 4.82906C4.48257 4.8646 4.48043 4.86675 4.44504 4.86675C4.40965 4.86675 4.40751 4.8689 4.40751 4.90443C4.40751 4.93997 4.40536 4.94212 4.36997 4.94212C4.33458 4.94212 4.33244 4.94427 4.33244 4.9798C4.33244 5.01426 4.3303 5.01749 4.30027 5.01749C4.27131 5.01749 4.2681 5.02072 4.2681 5.04979C4.2681 5.07994 4.26488 5.08209 4.23056 5.08209C4.19517 5.08209 4.19303 5.08425 4.19303 5.11978C4.19303 5.15531 4.19088 5.15746 4.1555 5.15746C4.12011 5.15746 4.11796 5.15962 4.11796 5.19515C4.11796 5.2296 4.11582 5.23283 4.08686 5.23283C4.05576 5.23283 4.05469 5.23391 4.04826 5.30282L4.04075 5.37281H4.00429C3.96997 5.37281 3.96783 5.37496 3.96783 5.41049C3.96783 5.44495 3.96568 5.44818 3.93673 5.44818C3.90885 5.44818 3.90456 5.45248 3.90134 5.48263C3.89812 5.51385 3.89383 5.51816 3.86381 5.52139C3.83271 5.52462 3.82842 5.52893 3.82842 5.55585C3.82842 5.58277 3.82413 5.58707 3.7941 5.5903C3.763 5.59353 3.75871 5.59784 3.7555 5.62799C3.75228 5.65921 3.74799 5.66352 3.72011 5.66352C3.69115 5.66352 3.68901 5.66675 3.68901 5.7012C3.68901 5.73674 3.68686 5.73889 3.65255 5.73889H3.61609L3.60858 5.80888C3.60214 5.87778 3.60107 5.87886 3.56997 5.87886C3.54102 5.87886 3.53887 5.88209 3.53887 5.91655C3.53887 5.95208 3.53673 5.95423 3.50134 5.95423C3.46595 5.95423 3.46381 5.95639 3.46381 5.99192C3.46381 6.02637 3.46059 6.0296 3.43271 6.0296C3.40268 6.0296 3.40161 6.03176 3.3941 6.09959C3.38767 6.1685 3.3866 6.16958 3.3555 6.16958C3.32654 6.16958 3.3244 6.17281 3.3244 6.20726C3.3244 6.24279 3.32225 6.24495 3.28686 6.24495C3.25147 6.24495 3.24933 6.2471 3.24933 6.28263C3.24933 6.31816 3.24718 6.32032 3.2118 6.32032C3.17641 6.32032 3.17426 6.32247 3.17426 6.358C3.17426 6.39246 3.17105 6.39569 3.14316 6.39569C3.11314 6.39569 3.11206 6.39784 3.10456 6.46567C3.09812 6.53458 3.09705 6.53566 3.06595 6.53566C3.037 6.53566 3.03485 6.53889 3.03485 6.57335C3.03485 6.60888 3.03271 6.61103 2.99732 6.61103H2.95979V6.68102V6.751H2.92225C2.88686 6.751 2.88472 6.75316 2.88472 6.78869C2.88472 6.82314 2.88257 6.82637 2.85255 6.82637C2.82252 6.82637 2.82038 6.8296 2.82038 6.86406C2.82038 6.89959 2.81823 6.90174 2.78284 6.90174H2.74531V6.97173V7.04172H2.70777C2.67239 7.04172 2.67024 7.04387 2.67024 7.0794C2.67024 7.11386 2.66702 7.11709 2.63914 7.11709C2.60912 7.11709 2.60804 7.11924 2.60054 7.18707C2.5941 7.25598 2.59303 7.25706 2.56193 7.25706C2.53298 7.25706 2.53083 7.26029 2.53083 7.29474C2.53083 7.33028 2.52869 7.33243 2.4933 7.33243H2.45576V7.40134V7.47132L2.42145 7.47456L2.38606 7.47779L2.38284 7.54992L2.37962 7.62314H2.34316C2.30777 7.62314 2.30563 7.6253 2.30563 7.66083C2.30563 7.69528 2.30349 7.69851 2.27346 7.69851H2.24129V7.7685V7.83849H2.20375H2.16622V7.9074V7.97738L2.1319 7.98061C2.09973 7.98384 2.09651 7.98707 2.0933 8.02368C2.09008 8.06029 2.08686 8.0646 2.05898 8.0646C2.02788 8.0646 2.02788 8.06567 2.02466 8.13135C2.02145 8.19919 2.02145 8.19919 1.98713 8.20242L1.95174 8.20565V8.27563V8.34454H1.91421H1.87668V8.41991V8.49528H1.83914H1.80161V8.56527C1.80161 8.63526 1.80161 8.63526 1.77051 8.63526C1.74048 8.63526 1.73941 8.63741 1.7319 8.70524C1.72547 8.77308 1.72332 8.77523 1.69437 8.77523C1.66542 8.77523 1.66434 8.77738 1.65791 8.8506C1.6504 8.92489 1.64933 8.92597 1.61823 8.92597H1.58713V8.99596V9.06594H1.55603C1.52493 9.06594 1.52493 9.06702 1.51743 9.14131C1.50992 9.2156 1.50885 9.21668 1.47882 9.21668C1.44879 9.21668 1.44879 9.21776 1.44558 9.28882L1.44236 9.36204L1.40804 9.36527L1.37265 9.3685V9.43849C1.37265 9.50739 1.37265 9.50739 1.34155 9.50739C1.3126 9.50739 1.31046 9.51063 1.30402 9.56339C1.3008 9.59461 1.29759 9.64306 1.29759 9.67106C1.29759 9.72058 1.29651 9.72274 1.26649 9.72274C1.23539 9.72274 1.23539 9.72382 1.22788 9.79811C1.22038 9.8724 1.22038 9.87348 1.18928 9.87348C1.15925 9.87348 1.15818 9.87563 1.15818 9.92409C1.15818 9.95316 1.15496 10.0016 1.15174 10.0318C1.14531 10.0856 1.14316 10.0888 1.11421 10.0888H1.08311V10.1642V10.2396H1.04558H1.00804V10.3419V10.4441H0.975871H0.944772L0.941555 10.5217L0.938338 10.6003L0.904021 10.6035L0.868633 10.6067V10.7144V10.821H0.837533C0.809651 10.821 0.806434 10.8242 0.8 10.8705C0.796783 10.8985 0.793566 10.947 0.793566 10.9782C0.793566 11.0353 0.792493 11.0363 0.762466 11.0363C0.733512 11.0363 0.731367 11.0396 0.724933 11.0923C0.721716 11.1235 0.718499 11.172 0.718499 11.2C0.718499 11.2506 0.717426 11.2517 0.686327 11.2517H0.654155V11.34C0.654155 11.3895 0.650938 11.4552 0.647721 11.4853C0.641287 11.5392 0.639142 11.5424 0.610188 11.5424H0.579088V11.6501V11.7577H0.547989C0.520107 11.7577 0.51689 11.761 0.510456 11.8073C0.507239 11.8353 0.504021 11.9009 0.504021 11.9526V12.0484H0.472922C0.443968 12.0484 0.441823 12.0517 0.435389 12.1044C0.432172 12.1357 0.428954 12.2013 0.428954 12.2498V12.3392H0.396783H0.364611V12.4598C0.364611 12.5265 0.361394 12.6073 0.358177 12.6374C0.351743 12.6912 0.349598 12.6945 0.320643 12.6945H0.289544V12.8775V13.0606H0.258445C0.229491 13.0606 0.227346 13.0638 0.220912 13.1165C0.217694 13.1478 0.214477 13.2447 0.214477 13.3319V13.4912H0.18445H0.153351L0.146917 13.6603C0.142627 13.754 0.13941 13.8702 0.13941 13.9187V14.0081H0.107239H0.075067V14.2536C0.075067 14.3892 0.0718499 14.5518 0.0675603 14.6143L0.061126 14.7295H0.0300268H0V15.8869V17.0444H0.0300268H0.061126L0.0675603 17.1596C0.0718499 17.2221 0.075067 17.404 0.075067 17.5634V17.8519H0.106166H0.137265L0.144772 18.1373L0.152279 18.4226H0.183378H0.214477V18.554C0.214477 18.6272 0.217694 18.7122 0.220912 18.7424C0.227346 18.7962 0.229491 18.7995 0.258445 18.7995H0.289544V19.0148V19.2301H0.320643C0.349598 19.2301 0.351743 19.2334 0.358177 19.2861C0.361394 19.3174 0.364611 19.383 0.364611 19.4315V19.5209H0.396783H0.428954V19.593C0.428954 19.6339 0.432172 19.7136 0.436461 19.7707L0.442895 19.8762H0.473995H0.504021V19.9892V20.1023H0.535121C0.563003 20.1023 0.56622 20.1055 0.572654 20.1518C0.575871 20.1798 0.579088 20.2455 0.579088 20.2972V20.393H0.610188C0.63807 20.393 0.641287 20.3962 0.647721 20.4425C0.650938 20.4705 0.654155 20.533 0.654155 20.5825V20.6729H0.686327C0.718499 20.6729 0.718499 20.674 0.718499 20.7311C0.718499 20.7623 0.721716 20.8108 0.724933 20.8388C0.731367 20.8851 0.734584 20.8883 0.762466 20.8883C0.793566 20.8883 0.793566 20.8894 0.793566 20.9518C0.793566 20.9863 0.796783 21.0369 0.8 21.0649C0.806434 21.1112 0.809651 21.1144 0.837533 21.1144H0.868633V21.2221V21.3297H0.899732C0.927614 21.3297 0.930831 21.333 0.937265 21.3793C0.940483 21.4073 0.9437 21.4557 0.9437 21.4869C0.9437 21.544 0.9437 21.5451 0.975871 21.5451C1.00697 21.5451 1.00697 21.5451 1.01019 21.6172L1.0134 21.6904L1.04879 21.6937L1.08311 21.6969V21.8046V21.9112H1.12064H1.15818V21.9865V22.0619H1.19035C1.22145 22.0619 1.22252 22.063 1.22252 22.1147C1.22252 22.1427 1.22574 22.189 1.22895 22.217C1.23539 22.2633 1.23861 22.2665 1.26649 22.2665H1.29759V22.3419V22.4172H1.33512H1.37265V22.4926V22.568H1.40375C1.43485 22.568 1.43592 22.569 1.44343 22.6433C1.44987 22.7176 1.45094 22.7187 1.48097 22.7187C1.50992 22.7187 1.51206 22.7209 1.51206 22.7639C1.51206 22.7898 1.51528 22.8361 1.5185 22.8662C1.52493 22.92 1.52815 22.9233 1.55496 22.9233C1.58391 22.9233 1.58499 22.9265 1.59249 22.9922C1.59893 23.0579 1.60107 23.0622 1.62788 23.0654C1.65576 23.0686 1.65684 23.0719 1.66005 23.1408L1.66327 23.214H1.69973H1.73727V23.284V23.354H1.76836C1.79946 23.354 1.79946 23.355 1.80697 23.4293C1.81448 23.5036 1.81448 23.5047 1.84558 23.5047C1.87346 23.5047 1.87668 23.5079 1.87668 23.5424C1.87668 23.5768 1.87882 23.5801 1.90777 23.5801C1.93887 23.5801 1.93995 23.5812 1.94745 23.6554C1.95389 23.7287 1.95496 23.7308 1.98391 23.7308C2.01287 23.7308 2.01501 23.733 2.02145 23.8008C2.02895 23.8686 2.03003 23.8708 2.05898 23.8708C2.08794 23.8708 2.08901 23.8729 2.09651 23.9408C2.10295 24.0097 2.10402 24.0108 2.13512 24.0108C2.16408 24.0108 2.16622 24.014 2.16622 24.0484C2.16622 24.0829 2.16836 24.0861 2.19732 24.0861C2.22842 24.0861 2.22949 24.0872 2.237 24.1615C2.24343 24.2347 2.2445 24.2369 2.27346 24.2369C2.30241 24.2369 2.30456 24.239 2.31099 24.3069C2.3185 24.3747 2.31957 24.3768 2.3496 24.3768C2.37748 24.3768 2.3807 24.3801 2.3807 24.4145C2.3807 24.4501 2.38284 24.4522 2.41823 24.4522H2.45576V24.5222V24.5922H2.4933H2.53083V24.6611V24.7311L2.56622 24.7343C2.59625 24.7375 2.60054 24.7419 2.60375 24.772C2.60697 24.8032 2.61126 24.8075 2.637 24.8075C2.66702 24.8075 2.6681 24.8097 2.67453 24.8829C2.68204 24.9572 2.68311 24.9583 2.71421 24.9583C2.74316 24.9583 2.74531 24.9615 2.74531 24.996C2.74531 25.0315 2.74745 25.0336 2.78284 25.0336H2.82038V25.1036V25.1736H2.85147C2.87936 25.1736 2.88365 25.1779 2.88686 25.2081C2.89008 25.2393 2.89437 25.2436 2.92547 25.2468C2.95657 25.2501 2.95979 25.2533 2.95979 25.2877C2.95979 25.3222 2.96193 25.3244 2.99732 25.3244H3.03485V25.3943V25.4643H3.07239C3.10777 25.4643 3.10992 25.4665 3.10992 25.502C3.10992 25.5365 3.11314 25.5397 3.14102 25.5397C3.17105 25.5397 3.17212 25.5419 3.17962 25.6097C3.18606 25.6786 3.18713 25.6797 3.21823 25.6797C3.24718 25.6797 3.24933 25.6829 3.24933 25.7174C3.24933 25.7529 3.25147 25.755 3.28686 25.755C3.32225 25.755 3.3244 25.7572 3.3244 25.7927C3.3244 25.8283 3.32654 25.8304 3.36193 25.8304C3.39732 25.8304 3.39946 25.8326 3.39946 25.8681C3.39946 25.9026 3.40268 25.9058 3.43056 25.9058C3.46059 25.9058 3.46166 25.9079 3.46917 25.9704C3.47668 26.0328 3.47775 26.035 3.50777 26.035C3.53566 26.035 3.53887 26.0382 3.53887 26.0716C3.53887 26.1061 3.54209 26.1093 3.57426 26.1125C3.60429 26.1157 3.60858 26.12 3.6118 26.1502C3.61501 26.1814 3.6193 26.1857 3.64718 26.1857C3.67614 26.1857 3.67828 26.189 3.67828 26.2234C3.67828 26.2589 3.68043 26.2611 3.71582 26.2611C3.75121 26.2611 3.75335 26.2633 3.75335 26.2988C3.75335 26.3343 3.7555 26.3365 3.79088 26.3365H3.82842V26.4065V26.4764H3.86595C3.90134 26.4764 3.90349 26.4786 3.90349 26.5141C3.90349 26.5497 3.90563 26.5518 3.94102 26.5518C3.97641 26.5518 3.97855 26.554 3.97855 26.5895C3.97855 26.624 3.9807 26.6272 4.01072 26.6272C4.03968 26.6272 4.0429 26.6304 4.0429 26.6595C4.0429 26.6896 4.04611 26.6918 4.08043 26.6918C4.11582 26.6918 4.11796 26.6939 4.11796 26.7284C4.11796 26.7628 4.12118 26.7661 4.15335 26.7693C4.18338 26.7725 4.18767 26.7768 4.19088 26.807C4.1941 26.8382 4.19839 26.8425 4.22627 26.8425C4.25523 26.8425 4.25737 26.8458 4.25737 26.8802C4.25737 26.9157 4.25952 26.9179 4.29491 26.9179C4.3303 26.9179 4.33244 26.92 4.33244 26.9556C4.33244 26.9911 4.33458 26.9933 4.36997 26.9933C4.40536 26.9933 4.40751 26.9954 4.40751 27.031C4.40751 27.0654 4.40965 27.0686 4.43968 27.0686C4.46863 27.0686 4.47185 27.0719 4.47185 27.1009C4.47185 27.1311 4.47507 27.1332 4.50938 27.1332C4.54477 27.1332 4.54692 27.1354 4.54692 27.1709C4.54692 27.2065 4.54906 27.2086 4.58338 27.2086H4.61984L4.62735 27.2775L4.63378 27.3464L4.69812 27.354C4.75925 27.3615 4.76139 27.3626 4.76139 27.3927C4.76139 27.4207 4.76461 27.424 4.79893 27.424C4.83432 27.424 4.83646 27.4261 4.83646 27.4616C4.83646 27.4972 4.83861 27.4993 4.87399 27.4993C4.90938 27.4993 4.91153 27.5015 4.91153 27.537C4.91153 27.5725 4.91367 27.5747 4.94906 27.5747C4.98338 27.5747 4.9866 27.5768 4.9866 27.607C4.9866 27.6361 4.98981 27.6393 5.01877 27.6393C5.04879 27.6393 5.05094 27.6425 5.05094 27.677C5.05094 27.7125 5.05308 27.7147 5.08847 27.7147C5.12386 27.7147 5.12601 27.7168 5.12601 27.7524C5.12601 27.7879 5.12815 27.79 5.16354 27.79C5.19785 27.79 5.20107 27.7922 5.20107 27.8213C5.20107 27.8493 5.20536 27.8536 5.23646 27.8568C5.26649 27.86 5.27078 27.8643 5.27399 27.8956C5.27721 27.9268 5.28043 27.93 5.31475 27.93C5.34906 27.93 5.35121 27.9322 5.35121 27.9677C5.35121 28.0021 5.35335 28.0054 5.38338 28.0054C5.41233 28.0054 5.41555 28.0086 5.41555 28.0377C5.41555 28.0678 5.41877 28.07 5.45308 28.07C5.48847 28.07 5.49062 28.0721 5.49062 28.1066V28.1432L5.56032 28.1507C5.62895 28.1572 5.63003 28.1583 5.63003 28.1895C5.63003 28.2186 5.63324 28.2207 5.66756 28.2207C5.70295 28.2207 5.70509 28.2229 5.70509 28.2584C5.70509 28.2939 5.70724 28.2961 5.74263 28.2961C5.77802 28.2961 5.78016 28.2982 5.78016 28.3338C5.78016 28.3693 5.78231 28.3715 5.81769 28.3715C5.85201 28.3715 5.85523 28.3736 5.85523 28.4027C5.85523 28.4307 5.85952 28.435 5.89062 28.4382C5.92064 28.4414 5.92493 28.4458 5.92815 28.4759L5.93137 28.5114H6.00107H6.06971V28.5491C6.06971 28.5836 6.07185 28.5868 6.10188 28.5868C6.13083 28.5868 6.13405 28.59 6.13405 28.6191C6.13405 28.6493 6.13727 28.6514 6.17158 28.6514C6.20697 28.6514 6.20912 28.6536 6.20912 28.6891C6.20912 28.7246 6.21126 28.7268 6.24665 28.7268C6.28096 28.7268 6.28418 28.7289 6.28418 28.758C6.28418 28.7892 6.28525 28.7903 6.35282 28.7968C6.42145 28.8043 6.42252 28.8054 6.42574 28.8388C6.42895 28.8678 6.43324 28.8721 6.46434 28.8754C6.49437 28.8786 6.49866 28.8829 6.49866 28.9087C6.49866 28.9389 6.5008 28.94 6.56836 28.9475C6.637 28.954 6.63807 28.955 6.63807 28.9863C6.63807 29.0143 6.64129 29.0175 6.67453 29.0175C6.70885 29.0175 6.71206 29.0207 6.71528 29.053C6.7185 29.0832 6.72279 29.0875 6.75389 29.0907C6.78391 29.0939 6.7882 29.0982 6.7882 29.1241C6.7882 29.1542 6.79035 29.1553 6.85791 29.1628C6.92654 29.1693 6.92761 29.1704 6.92761 29.2016C6.92761 29.2307 6.93083 29.2328 6.96515 29.2328C7.00054 29.2328 7.00268 29.235 7.00268 29.2705V29.3082H7.07131H7.14102L7.14424 29.3427C7.14745 29.375 7.15067 29.3782 7.1882 29.3814C7.22359 29.3847 7.22788 29.3879 7.22788 29.4159C7.22788 29.446 7.23003 29.4471 7.29759 29.4536C7.36515 29.4611 7.36729 29.4622 7.36729 29.4923C7.36729 29.5203 7.37051 29.5235 7.40483 29.5235C7.44021 29.5235 7.44236 29.5257 7.44236 29.5612V29.5989H7.51206H7.58177V29.6366C7.58177 29.6721 7.58391 29.6743 7.6193 29.6743C7.65362 29.6743 7.65684 29.6775 7.65684 29.7055C7.65684 29.7367 7.65791 29.7367 7.7319 29.7443C7.8059 29.7518 7.80697 29.7518 7.80697 29.783V29.8143H7.87668H7.94638V29.8519V29.8896H8.01501H8.08472L8.08794 29.9252C8.09115 29.9564 8.09437 29.9596 8.1319 29.9628C8.16729 29.9661 8.17158 29.9693 8.17158 29.9973C8.17158 30.0285 8.17265 30.0285 8.23914 30.0318C8.30563 30.035 8.30563 30.035 8.30885 30.0694L8.31206 30.105H8.38177H8.4504V30.1427V30.1803H8.52547H8.60054V30.2116C8.60054 30.2428 8.60161 30.2439 8.67024 30.2503C8.7378 30.2579 8.73995 30.2589 8.73995 30.288C8.73995 30.3171 8.74209 30.3182 8.80965 30.3257C8.87828 30.3322 8.87936 30.3332 8.87936 30.3645V30.3957H8.95442H9.02949V30.4334V30.4711H9.0992H9.1689V30.5023C9.1689 30.5335 9.16997 30.5335 9.24397 30.541C9.31796 30.5486 9.31903 30.5497 9.31903 30.5798C9.31903 30.61 9.32011 30.61 9.39196 30.6132L9.46381 30.6164L9.46702 30.6509L9.47024 30.6864H9.53995C9.60858 30.6864 9.60858 30.6864 9.60858 30.7176C9.60858 30.7456 9.6118 30.7489 9.65791 30.7553C9.68579 30.7585 9.73405 30.7618 9.76515 30.7618C9.82198 30.7618 9.82306 30.7628 9.82306 30.793C9.82306 30.8242 9.82413 30.8242 9.89812 30.8318C9.97212 30.8393 9.97319 30.8393 9.97319 30.8705C9.97319 30.9007 9.97534 30.9017 10.0257 30.9017C10.0536 30.9017 10.0997 30.905 10.1276 30.9082C10.1737 30.9147 10.1769 30.9179 10.1769 30.9459V30.9771H10.252H10.3271V31.0083C10.3271 31.0374 10.3303 31.0396 10.3839 31.046C10.4139 31.0493 10.4622 31.0525 10.4912 31.0525C10.5405 31.0525 10.5416 31.0536 10.5416 31.0848C10.5416 31.1171 10.5426 31.1171 10.5984 31.1171C10.6284 31.1171 10.6799 31.1203 10.711 31.1235C10.7635 31.13 10.7668 31.1322 10.7668 31.1612V31.1925H10.874H10.9812V31.2301V31.2678H11.0885H11.1957V31.2991C11.1957 31.3281 11.1989 31.3303 11.2525 31.3367C11.2826 31.34 11.348 31.3432 11.3973 31.3432H11.4853V31.3755C11.4853 31.4078 11.4863 31.4078 11.5421 31.4078C11.5721 31.4078 11.6236 31.411 11.6547 31.4143C11.7072 31.4207 11.7105 31.4229 11.7105 31.4519V31.4832H11.8499H11.9893V31.5209V31.5585H12.134H12.2788V31.5898C12.2788 31.6188 12.282 31.621 12.3357 31.6275C12.3657 31.6307 12.4311 31.6339 12.4804 31.6339H12.5684V31.6662V31.6985H12.6949C12.7635 31.6985 12.8461 31.7017 12.8772 31.705C12.9298 31.7114 12.933 31.7136 12.933 31.7427V31.7739H13.1475H13.3619V31.8051C13.3619 31.8331 13.3651 31.8363 13.4113 31.8428C13.4391 31.846 13.5378 31.8493 13.6311 31.8493H13.8016V31.8805V31.9117L14.0858 31.9192L14.37 31.9268V31.9569V31.986L15.1861 31.9935C15.6354 31.9978 16.3657 31.9978 16.8107 31.9935L17.6193 31.986V31.9569V31.9279L17.7887 31.9214C17.881 31.9171 17.9968 31.9139 18.0461 31.9139H18.134V31.8816V31.8493H18.3314C18.4397 31.8493 18.5501 31.846 18.578 31.8428C18.6241 31.8363 18.6273 31.8331 18.6273 31.8051V31.7739H18.8097H18.992V31.7437V31.7125L19.1067 31.7061C19.1689 31.7017 19.2515 31.6985 19.289 31.6985H19.3566V31.6662V31.6339H19.4456C19.4938 31.6339 19.5592 31.6307 19.5903 31.6275C19.6429 31.621 19.6461 31.6188 19.6461 31.5898V31.5585H19.7909H19.9357V31.5273C19.9357 31.4993 19.9389 31.4961 19.985 31.4896C20.0129 31.4864 20.0783 31.4832 20.1298 31.4832H20.2252V31.4519C20.2252 31.4229 20.2284 31.4207 20.282 31.4143C20.3121 31.411 20.3635 31.4078 20.3946 31.4078C20.4493 31.4078 20.4504 31.4078 20.4504 31.3755V31.3432H20.534C20.5791 31.3432 20.6424 31.34 20.6735 31.3367C20.726 31.3303 20.7292 31.3281 20.7292 31.2991V31.2678H20.8354H20.9426L20.9458 31.2323L20.9491 31.1978L21.0595 31.1946L21.1689 31.1914V31.1612C21.1689 31.1322 21.1721 31.13 21.2257 31.1235C21.2558 31.1203 21.304 31.1171 21.333 31.1171C21.3823 31.1171 21.3834 31.116 21.3834 31.0848V31.0525H21.4906H21.5979V31.0148V30.9771H21.7051H21.8123V30.9394V30.9017H21.8874H21.9625V30.8705C21.9625 30.8414 21.9657 30.8393 22.0193 30.8328C22.0493 30.8296 22.0976 30.8264 22.1265 30.8264C22.1759 30.8264 22.1769 30.8253 22.1769 30.7941V30.7618H22.2466H22.3164V30.7241V30.6864H22.3914H22.4665V30.6487V30.611H22.5416H22.6166V30.5798C22.6166 30.5486 22.6177 30.5475 22.6863 30.541C22.7539 30.5335 22.756 30.5324 22.756 30.5023C22.756 30.4721 22.7582 30.4711 22.8075 30.4711C22.8354 30.4711 22.8836 30.4678 22.9147 30.4646C22.9673 30.4581 22.9705 30.456 22.9705 30.4269C22.9705 30.3989 22.9737 30.3957 23.008 30.3957C23.0424 30.3957 23.0456 30.3925 23.0456 30.3645C23.0456 30.3332 23.0466 30.3332 23.1206 30.3257C23.1946 30.3182 23.1957 30.3182 23.1957 30.2869V30.2557H23.2654H23.3351V30.218V30.1803H23.4048H23.4745V30.1427V30.105H23.5496H23.6247V30.0738C23.6247 30.0425 23.6257 30.0414 23.6944 30.035C23.7619 30.0275 23.7641 30.0264 23.7641 29.9973C23.7641 29.9682 23.7662 29.9672 23.8338 29.9596C23.9024 29.9532 23.9035 29.9521 23.9035 29.9209C23.9035 29.8918 23.9056 29.8896 23.9464 29.8896C23.9871 29.8896 23.9893 29.8875 23.9893 29.8584C23.9893 29.8272 23.9903 29.8261 24.059 29.8196C24.1265 29.8121 24.1287 29.811 24.1287 29.782C24.1287 29.7529 24.1308 29.7518 24.1984 29.7443C24.267 29.7378 24.2681 29.7367 24.2681 29.7055C24.2681 29.6764 24.2713 29.6743 24.3056 29.6743C24.341 29.6743 24.3432 29.6721 24.3432 29.6366V29.5989H24.4182H24.4933V29.5612V29.5235H24.563H24.6327V29.4859C24.6327 29.4503 24.6349 29.4482 24.6702 29.4482C24.7046 29.4482 24.7078 29.4449 24.7078 29.417C24.7078 29.3868 24.7099 29.3857 24.7775 29.3782C24.8461 29.3717 24.8472 29.3707 24.8472 29.3394C24.8472 29.3104 24.8504 29.3082 24.8847 29.3082C24.9201 29.3082 24.9223 29.3061 24.9223 29.2705V29.2328H24.992H25.0617V29.2005C25.0617 29.1704 25.0649 29.1682 25.0992 29.1682C25.1346 29.1682 25.1367 29.1661 25.1367 29.1305C25.1367 29.095 25.1389 29.0929 25.1743 29.0929C25.2086 29.0929 25.2118 29.0907 25.2118 29.0616C25.2118 29.0304 25.2129 29.0293 25.2815 29.0229L25.3512 29.0153V28.9787C25.3512 28.9443 25.3534 28.9421 25.3887 28.9421C25.4231 28.9421 25.4263 28.9389 25.4263 28.9109C25.4263 28.8807 25.4284 28.8797 25.496 28.8721C25.5646 28.8657 25.5657 28.8646 25.5657 28.8334C25.5657 28.8043 25.5689 28.8021 25.6032 28.8021C25.6386 28.8021 25.6408 28.8 25.6408 28.7645C25.6408 28.7289 25.6429 28.7268 25.6783 28.7268C25.7126 28.7268 25.7158 28.7246 25.7158 28.6956C25.7158 28.6676 25.7201 28.6633 25.7512 28.66C25.7812 28.6568 25.7855 28.6525 25.7887 28.6234C25.792 28.59 25.793 28.589 25.8617 28.5814C25.9292 28.575 25.9303 28.5739 25.9303 28.5427C25.9303 28.5136 25.9335 28.5114 25.9678 28.5114C26.0032 28.5114 26.0054 28.5093 26.0054 28.4738C26.0054 28.4382 26.0075 28.4361 26.0429 28.4361C26.0772 28.4361 26.0804 28.4339 26.0804 28.4048C26.0804 28.3736 26.0815 28.3725 26.1501 28.3661C26.2177 28.3585 26.2198 28.3575 26.2198 28.3273C26.2198 28.3015 26.2241 28.2972 26.2552 28.2939C26.2853 28.2907 26.2895 28.2864 26.2928 28.2552C26.296 28.224 26.2992 28.2207 26.3335 28.2207C26.3678 28.2207 26.37 28.2186 26.37 28.183C26.37 28.1486 26.3721 28.1454 26.4021 28.1454C26.4311 28.1454 26.4343 28.1421 26.4343 28.1131C26.4343 28.0829 26.4375 28.0807 26.4718 28.0807C26.5072 28.0807 26.5094 28.0786 26.5094 28.0431C26.5094 28.0075 26.5115 28.0054 26.5469 28.0054C26.5823 28.0054 26.5844 28.0032 26.5844 27.9677C26.5844 27.9322 26.5866 27.93 26.622 27.93C26.6563 27.93 26.6595 27.9279 26.6595 27.8988C26.6595 27.8676 26.6606 27.8665 26.7292 27.86L26.7989 27.8525V27.8159C26.7989 27.7825 26.8021 27.7793 26.8311 27.7793C26.8601 27.7793 26.8633 27.776 26.8633 27.747C26.8633 27.7168 26.8665 27.7147 26.9008 27.7147C26.9362 27.7147 26.9383 27.7125 26.9383 27.677C26.9383 27.6414 26.9405 27.6393 26.9759 27.6393C27.0113 27.6393 27.0134 27.6371 27.0134 27.6016C27.0134 27.5661 27.0155 27.5639 27.0509 27.5639C27.0853 27.5639 27.0885 27.5618 27.0885 27.5327C27.0885 27.5047 27.0928 27.5004 27.1239 27.4972C27.1539 27.4939 27.1582 27.4896 27.1614 27.4595C27.1646 27.4283 27.1689 27.424 27.1968 27.424C27.2257 27.424 27.2279 27.4207 27.2279 27.3863C27.2279 27.3507 27.23 27.3486 27.2654 27.3486C27.3008 27.3486 27.3029 27.3464 27.3029 27.3109C27.3029 27.2754 27.3051 27.2732 27.3405 27.2732C27.3748 27.2732 27.378 27.2711 27.378 27.242C27.378 27.214 27.3823 27.2097 27.4134 27.2065C27.4434 27.2032 27.4477 27.1989 27.4509 27.1677C27.4542 27.1375 27.4584 27.1332 27.4863 27.1332C27.5153 27.1332 27.5174 27.13 27.5174 27.0956C27.5174 27.06 27.5196 27.0579 27.555 27.0579C27.5903 27.0579 27.5925 27.0557 27.5925 27.0202C27.5925 26.9847 27.5946 26.9825 27.63 26.9825C27.6654 26.9825 27.6676 26.9803 27.6676 26.9448C27.6676 26.9104 27.6697 26.9071 27.6997 26.9071C27.7287 26.9071 27.7319 26.9039 27.7319 26.8748C27.7319 26.8458 27.7351 26.8425 27.7684 26.8425H27.8048L27.8123 26.7725C27.8188 26.7036 27.8198 26.7026 27.8509 26.7026C27.8799 26.7026 27.882 26.6993 27.882 26.6649C27.882 26.6293 27.8842 26.6272 27.9196 26.6272C27.955 26.6272 27.9571 26.625 27.9571 26.5895C27.9571 26.554 27.9592 26.5518 27.9946 26.5518C28.03 26.5518 28.0322 26.5497 28.0322 26.5141C28.0322 26.4797 28.0343 26.4764 28.0643 26.4764C28.0933 26.4764 28.0965 26.4732 28.0965 26.4441C28.0965 26.414 28.0997 26.4118 28.134 26.4118C28.1694 26.4118 28.1716 26.4097 28.1716 26.3752C28.1716 26.3408 28.1748 26.3375 28.207 26.3343C28.237 26.3311 28.2413 26.3268 28.2445 26.2956C28.2477 26.2654 28.252 26.2611 28.2777 26.2611C28.3078 26.2611 28.3088 26.2589 28.3164 26.1911C28.3228 26.1222 28.3239 26.1211 28.355 26.1211C28.3839 26.1211 28.3861 26.1179 28.3861 26.0834C28.3861 26.0479 28.3882 26.0458 28.4236 26.0458C28.459 26.0458 28.4611 26.0436 28.4611 26.0081C28.4611 25.9736 28.4633 25.9704 28.4922 25.9704C28.5201 25.9704 28.5244 25.9661 28.5276 25.9349C28.5308 25.9047 28.5351 25.9004 28.5651 25.8972C28.5984 25.8939 28.5995 25.8929 28.6059 25.824C28.6134 25.7572 28.6145 25.755 28.6445 25.755C28.6724 25.755 28.6756 25.7518 28.6756 25.7174C28.6756 25.6818 28.6777 25.6797 28.7131 25.6797C28.7485 25.6797 28.7507 25.6775 28.7507 25.642C28.7507 25.6075 28.7528 25.6043 28.7818 25.6043C28.8129 25.6043 28.8139 25.6032 28.8204 25.5343C28.8279 25.4665 28.829 25.4643 28.859 25.4643C28.8847 25.4643 28.889 25.46 28.8922 25.4288C28.8954 25.3986 28.8997 25.3943 28.9308 25.3911C28.9619 25.3879 28.9651 25.3847 28.9651 25.3502C28.9651 25.3157 28.9673 25.3136 29.0027 25.3136H29.0402V25.2436V25.1736H29.0777C29.1131 25.1736 29.1153 25.1715 29.1153 25.1359C29.1153 25.1015 29.1185 25.0982 29.1464 25.0982C29.1764 25.0982 29.1775 25.0961 29.185 25.0283C29.1914 24.9593 29.1925 24.9583 29.2236 24.9583C29.2525 24.9583 29.2547 24.955 29.2547 24.9206C29.2547 24.8851 29.2568 24.8829 29.2922 24.8829H29.3298V24.8129V24.7429H29.3619C29.392 24.7429 29.3941 24.7397 29.3941 24.7052C29.3941 24.6697 29.3962 24.6676 29.4316 24.6676H29.4692V24.5976V24.5276H29.5067C29.5432 24.5276 29.5442 24.5265 29.5442 24.4845C29.5442 24.4436 29.5464 24.4414 29.5753 24.4414C29.6064 24.4414 29.6075 24.4404 29.6139 24.3715C29.6214 24.3036 29.6225 24.3015 29.6515 24.3015C29.6804 24.3015 29.6826 24.2993 29.689 24.2315C29.6965 24.1637 29.6976 24.1615 29.7276 24.1615C29.7555 24.1615 29.7587 24.1583 29.7587 24.1238C29.7587 24.0894 29.7609 24.0861 29.7898 24.0861C29.8209 24.0861 29.822 24.0851 29.8295 24.0108C29.8359 23.9375 29.837 23.9354 29.866 23.9354C29.8949 23.9354 29.8971 23.9332 29.9035 23.8654C29.911 23.7976 29.9121 23.7954 29.941 23.7954C29.97 23.7954 29.971 23.7933 29.9786 23.7254C29.985 23.6576 29.9861 23.6554 30.0161 23.6554C30.044 23.6554 30.0472 23.6511 30.0504 23.6145C30.0536 23.5801 30.0579 23.5747 30.0815 23.5715C30.1051 23.5682 30.1115 23.5618 30.1169 23.5284C30.1201 23.5069 30.1233 23.4756 30.1233 23.4584C30.1233 23.4336 30.1276 23.4293 30.1544 23.4293C30.1855 23.4293 30.1866 23.4283 30.193 23.3593C30.2005 23.2915 30.2016 23.2894 30.2316 23.2894C30.2617 23.2894 30.2617 23.2883 30.2649 23.2161L30.2681 23.144L30.3035 23.1408L30.3378 23.1375V23.0676V22.9986H30.3689C30.4 22.9986 30.4011 22.9976 30.4086 22.9233C30.415 22.8501 30.4161 22.8479 30.445 22.8479C30.4718 22.8479 30.4751 22.8436 30.4815 22.7908C30.4847 22.7607 30.4879 22.7144 30.4879 22.6886C30.4879 22.6455 30.4901 22.6433 30.519 22.6433C30.5491 22.6433 30.5501 22.6423 30.5566 22.568C30.5641 22.4937 30.5651 22.4926 30.5962 22.4926H30.6273V22.4172V22.3419H30.6649H30.7024V22.2719V22.2019H30.7346C30.7657 22.2019 30.7668 22.2008 30.7668 22.1502C30.7668 22.1222 30.77 22.0737 30.7732 22.0425C30.7796 21.9898 30.7818 21.9865 30.8107 21.9865H30.8418V21.9112V21.8358H30.8794H30.9169V21.7281V21.6205H30.9544H30.992V21.5128V21.4051H31.0241C31.0552 21.4051 31.0563 21.404 31.0563 21.3534C31.0563 21.3254 31.0595 21.277 31.0627 21.2458C31.0692 21.193 31.0713 21.1898 31.1003 21.1898C31.1303 21.1898 31.1314 21.1887 31.1314 21.1316C31.1314 21.1004 31.1346 21.0519 31.1378 21.024C31.1442 20.9777 31.1475 20.9744 31.1753 20.9744H31.2064V20.8668V20.7591H31.2375C31.2665 20.7591 31.2686 20.7558 31.2751 20.702C31.2783 20.6719 31.2815 20.6202 31.2815 20.589C31.2815 20.534 31.2826 20.533 31.3126 20.533H31.3437L31.3512 20.3876L31.3587 20.2423H31.3898H31.4209V20.1346V20.0269H31.4584H31.496V19.8816V19.7362H31.526H31.5571L31.5635 19.6307C31.5678 19.5736 31.571 19.4939 31.571 19.453V19.3809H31.6032H31.6354V19.2861C31.6354 19.2344 31.6386 19.1666 31.6418 19.1354C31.6483 19.0826 31.6504 19.0794 31.6794 19.0794H31.7105V18.8641V18.6487H31.7416C31.7705 18.6487 31.7727 18.6455 31.7791 18.5916C31.7823 18.5615 31.7855 18.4614 31.7855 18.3709V18.2073H31.8166H31.8477L31.8552 17.9165L31.8627 17.6258H31.8938H31.9249V17.3373C31.9249 17.1779 31.9282 16.9023 31.9324 16.7235L31.9389 16.3984H31.97H32V16.0754V15.7523H31.97H31.9389L31.9324 15.5822C31.9282 15.4896 31.9249 15.2258 31.9249 14.9954V14.5787H31.8928H31.8606V14.4732C31.8606 14.4161 31.8574 14.2708 31.8531 14.1502L31.8466 13.9327H31.8155H31.7855V13.6969C31.7855 13.5677 31.7823 13.4396 31.7791 13.4116C31.7727 13.3653 31.7694 13.362 31.7416 13.362H31.7105V13.1736V12.9852H31.6804H31.6493L31.6429 12.8797C31.6386 12.8226 31.6354 12.7429 31.6354 12.702V12.6299H31.6032H31.571V12.5351C31.571 12.4834 31.5678 12.4156 31.5646 12.3844C31.5582 12.3316 31.556 12.3284 31.5271 12.3284H31.496L31.4938 12.1529L31.4906 11.9785L31.4563 11.9752L31.4209 11.972V11.8643V11.7577H31.3898C31.3609 11.7577 31.3587 11.7545 31.3523 11.7007C31.3491 11.6705 31.3458 11.6048 31.3458 11.5553V11.467H31.3137C31.2815 11.467 31.2815 11.4659 31.2815 11.41C31.2815 11.3798 31.2783 11.3281 31.2751 11.2969C31.2686 11.2441 31.2665 11.2409 31.2375 11.2409H31.2064V11.1332V11.0256H31.1753C31.1475 11.0256 31.1442 11.0223 31.1378 10.976C31.1346 10.948 31.1314 10.8996 31.1314 10.8684C31.1314 10.8113 31.1303 10.8102 31.1003 10.8102C31.0713 10.8102 31.0692 10.807 31.0627 10.7532C31.0595 10.723 31.0563 10.6746 31.0563 10.6455C31.0563 10.596 31.0552 10.5949 31.0241 10.5949H30.992V10.4872V10.3795H30.9544H30.9169V10.2719V10.1642H30.8794H30.8418V10.0888V10.0135H30.8107C30.7818 10.0135 30.7796 10.0102 30.7732 9.95639C30.77 9.92624 30.7668 9.87779 30.7668 9.84871C30.7668 9.79918 30.7657 9.79811 30.7346 9.79811H30.7024V9.72812V9.65814H30.6649H30.6273V9.58277V9.50739H30.5962C30.5684 9.50739 30.5651 9.50417 30.5587 9.45787C30.5555 9.42987 30.5523 9.38142 30.5523 9.35019C30.5523 9.29313 30.5512 9.29205 30.5212 9.29205C30.4901 9.29205 30.489 9.29098 30.4826 9.22206C30.4751 9.15423 30.474 9.15208 30.444 9.15208H30.4129V9.07671V9.00134H30.3753H30.3378V8.93135V8.86137H30.3067C30.2756 8.86137 30.2756 8.86029 30.2681 8.786C30.2606 8.71278 30.2595 8.71063 30.2306 8.71063C30.2016 8.71063 30.2005 8.70847 30.193 8.64064C30.1866 8.57173 30.1855 8.57065 30.1544 8.57065H30.1233V8.49528V8.41991H30.0858H30.0483V8.351V8.28102L30.0139 8.27779C29.9818 8.27456 29.9786 8.27133 29.9753 8.23364C29.9721 8.19811 29.9689 8.1938 29.941 8.1938C29.9099 8.1938 29.9099 8.19273 29.9067 8.12597C29.9035 8.05921 29.9035 8.05921 29.8692 8.05598L29.8338 8.05275V7.98277V7.91386H29.7962H29.7587V7.84387V7.77388H29.7276C29.6987 7.77388 29.6954 7.77065 29.6922 7.73297C29.689 7.69636 29.6858 7.69313 29.6547 7.6899C29.6204 7.68667 29.6204 7.68667 29.6172 7.61991C29.6139 7.55316 29.6139 7.55316 29.5796 7.54992L29.5442 7.5467V7.47671V7.4078H29.5067C29.4713 7.4078 29.4692 7.40565 29.4692 7.37011C29.4692 7.33566 29.466 7.33243 29.4381 7.33243C29.408 7.33243 29.407 7.33028 29.3995 7.26244C29.393 7.19353 29.392 7.19246 29.3609 7.19246C29.3319 7.19246 29.3298 7.18923 29.3298 7.15477C29.3298 7.11924 29.3276 7.11709 29.2922 7.11709H29.2547V7.04818V6.97819L29.2204 6.97496C29.1893 6.97173 29.185 6.96742 29.1818 6.9362C29.1786 6.90605 29.1743 6.90174 29.1485 6.90174C29.1185 6.90174 29.1174 6.89959 29.1099 6.83176C29.1035 6.76285 29.1024 6.76177 29.0713 6.76177C29.0434 6.76177 29.0402 6.75854 29.0402 6.72516C29.0402 6.69071 29.037 6.68748 29.0059 6.68425C28.9748 6.68102 28.9705 6.67671 28.9673 6.64548C28.9641 6.61534 28.9598 6.61103 28.934 6.61103C28.904 6.61103 28.9029 6.60888 28.8954 6.54104C28.889 6.47321 28.8879 6.47106 28.8579 6.47106C28.83 6.47106 28.8268 6.46675 28.8236 6.43014C28.8204 6.39353 28.8172 6.3903 28.7861 6.38707C28.756 6.38384 28.7517 6.37954 28.7485 6.34939C28.7453 6.31924 28.741 6.31493 28.711 6.3117L28.6756 6.30847V6.24495V6.18142L28.6413 6.17819C28.6102 6.17496 28.6059 6.17065 28.6027 6.13943C28.5995 6.10928 28.5952 6.10497 28.5673 6.10497C28.5383 6.10497 28.5362 6.10174 28.5362 6.06729C28.5362 6.03176 28.534 6.0296 28.4987 6.0296H28.4611V5.95962V5.88963H28.4236C28.3882 5.88963 28.3861 5.88748 28.3861 5.85302C28.3861 5.81857 28.3828 5.81534 28.3517 5.81211C28.3206 5.80888 28.3164 5.80457 28.3131 5.77334C28.3099 5.7432 28.3056 5.73889 28.2777 5.73889C28.2488 5.73889 28.2466 5.73566 28.2466 5.7012C28.2466 5.66567 28.2445 5.66352 28.2091 5.66352C28.1737 5.66352 28.1716 5.66137 28.1716 5.62583C28.1716 5.59138 28.1694 5.58815 28.1405 5.58815C28.1094 5.58815 28.1083 5.58707 28.1019 5.51816L28.0944 5.44818H28.0579C28.0247 5.44818 28.0214 5.44495 28.0214 5.41587C28.0214 5.3868 28.0182 5.38357 27.9893 5.38357C27.9592 5.38357 27.9571 5.38034 27.9571 5.34589C27.9571 5.31036 27.955 5.3082 27.9196 5.3082C27.8842 5.3082 27.882 5.30605 27.882 5.2716C27.882 5.23714 27.8788 5.23391 27.8477 5.23068C27.8166 5.22745 27.8123 5.22314 27.8091 5.19192C27.8059 5.16177 27.8016 5.15746 27.7737 5.15746C27.7448 5.15746 27.7426 5.15423 27.7426 5.11978C27.7426 5.08425 27.7405 5.08209 27.7051 5.08209C27.6697 5.08209 27.6676 5.07994 27.6676 5.04441C27.6676 5.00887 27.6654 5.00672 27.63 5.00672C27.5957 5.00672 27.5925 5.00457 27.5925 4.97442C27.5925 4.94535 27.5893 4.94212 27.5603 4.94212C27.5303 4.94212 27.5282 4.93889 27.5282 4.90443C27.5282 4.8689 27.526 4.86675 27.4906 4.86675C27.4552 4.86675 27.4531 4.8646 27.4531 4.82906C27.4531 4.79353 27.4509 4.79138 27.4156 4.79138C27.3802 4.79138 27.378 4.78923 27.378 4.75369C27.378 4.71816 27.3759 4.71601 27.3405 4.71601C27.3062 4.71601 27.3029 4.71386 27.3029 4.68371C27.3029 4.65464 27.2997 4.65141 27.2708 4.65141C27.2408 4.65141 27.2386 4.64818 27.2386 4.61372C27.2386 4.57819 27.2365 4.57604 27.2011 4.57604C27.1657 4.57604 27.1635 4.57388 27.1635 4.53835C27.1635 4.50282 27.1614 4.50067 27.126 4.50067C27.0906 4.50067 27.0885 4.49851 27.0885 4.46298C27.0885 4.42745 27.0863 4.42529 27.0509 4.42529C27.0166 4.42529 27.0134 4.42314 27.0134 4.39299C27.0134 4.36392 27.0102 4.36069 26.9812 4.36069C26.9512 4.36069 26.9491 4.35746 26.9491 4.32301C26.9491 4.28748 26.9469 4.28532 26.9115 4.28532C26.8761 4.28532 26.874 4.28317 26.874 4.24764C26.874 4.21211 26.8718 4.20995 26.8365 4.20995C26.8021 4.20995 26.7989 4.2078 26.7989 4.17873C26.7989 4.15073 26.7946 4.14643 26.7646 4.1432C26.7335 4.13997 26.7292 4.13566 26.726 4.10443C26.7228 4.07321 26.7196 4.06998 26.6853 4.06998C26.6509 4.06998 26.6488 4.06783 26.6488 4.03229C26.6488 3.99784 26.6466 3.99461 26.6166 3.99461C26.5877 3.99461 26.5844 3.99138 26.5844 3.96231C26.5844 3.93216 26.5812 3.93001 26.5469 3.93001C26.5115 3.93001 26.5094 3.92785 26.5094 3.8934V3.85679L26.4397 3.84925C26.371 3.84279 26.37 3.84171 26.37 3.81049C26.37 3.78142 26.3668 3.77927 26.3324 3.77927C26.2971 3.77927 26.2949 3.77711 26.2949 3.74158C26.2949 3.70605 26.2928 3.7039 26.2574 3.7039C26.222 3.7039 26.2198 3.70174 26.2198 3.66621C26.2198 3.63068 26.2177 3.62852 26.1823 3.62852C26.148 3.62852 26.1448 3.62637 26.1448 3.5973C26.1448 3.56931 26.1405 3.565 26.1105 3.56177C26.0794 3.55854 26.0751 3.55423 26.0718 3.52301L26.0686 3.48855H26.0054H25.9421L25.9389 3.45302C25.9357 3.42287 25.9314 3.41857 25.9013 3.41534C25.8702 3.41211 25.866 3.4078 25.866 3.3798C25.866 3.35073 25.8627 3.34858 25.8284 3.34858C25.793 3.34858 25.7909 3.34643 25.7909 3.31089C25.7909 3.27536 25.7887 3.27321 25.7534 3.27321C25.719 3.27321 25.7158 3.27106 25.7158 3.24199C25.7158 3.21076 25.7147 3.20968 25.6472 3.20322C25.5786 3.19569 25.5775 3.19461 25.5743 3.16123C25.571 3.13216 25.5668 3.12785 25.5367 3.12462C25.5056 3.12139 25.5013 3.11709 25.5013 3.08909C25.5013 3.06002 25.4981 3.05787 25.4638 3.05787C25.4284 3.05787 25.4263 3.05571 25.4263 3.02018V2.9825H25.3566H25.2869V2.94481C25.2869 2.90928 25.2847 2.90713 25.2493 2.90713C25.215 2.90713 25.2118 2.9039 25.2118 2.8759C25.2118 2.84575 25.2097 2.84468 25.1421 2.83714C25.0735 2.83068 25.0724 2.8296 25.0724 2.79838C25.0724 2.76931 25.0692 2.76715 25.0349 2.76715C24.9995 2.76715 24.9973 2.765 24.9973 2.72947C24.9973 2.69286 24.9962 2.69178 24.9544 2.69178C24.9137 2.69178 24.9115 2.68963 24.9115 2.66056C24.9115 2.62933 24.9105 2.62826 24.8418 2.6218C24.7743 2.61426 24.7721 2.61318 24.7721 2.58411C24.7721 2.55504 24.77 2.55289 24.7024 2.54643C24.6349 2.53889 24.6327 2.53781 24.6327 2.50766C24.6327 2.47967 24.6295 2.47644 24.5952 2.47644C24.5598 2.47644 24.5576 2.47429 24.5576 2.43876V2.40107H24.4879H24.4182V2.36338C24.4182 2.32785 24.4161 2.3257 24.3807 2.3257C24.3464 2.3257 24.3432 2.32247 24.3432 2.29447C24.3432 2.26433 24.341 2.26325 24.2735 2.25571C24.2048 2.24925 24.2038 2.24817 24.2038 2.21695V2.18573H24.1287H24.0536V2.14804C24.0536 2.11251 24.0515 2.11036 24.0161 2.11036C23.9818 2.11036 23.9786 2.1082 23.9786 2.07913C23.9786 2.04791 23.9775 2.04683 23.9088 2.04037C23.8413 2.03283 23.8391 2.03176 23.8391 2.00268C23.8391 1.97361 23.837 1.97254 23.7641 1.965C23.6901 1.95746 23.689 1.95746 23.689 1.92624V1.89501H23.6193H23.5496V1.85733V1.81964H23.481H23.4113L23.408 1.78411L23.4048 1.74966L23.333 1.74643C23.2601 1.7432 23.2601 1.7432 23.2601 1.71197C23.2601 1.68182 23.2568 1.67967 23.2225 1.67967C23.1871 1.67967 23.185 1.67752 23.185 1.64198V1.60538L23.1131 1.60215C23.0434 1.59892 23.0402 1.59784 23.037 1.56985C23.0338 1.54293 23.0295 1.54077 22.9641 1.53431C22.8976 1.52678 22.8954 1.5257 22.8954 1.49555C22.8954 1.4654 22.8933 1.46433 22.845 1.46433C22.8161 1.46433 22.7678 1.4611 22.7378 1.45787C22.6842 1.45141 22.681 1.44925 22.681 1.42018C22.681 1.38896 22.681 1.38896 22.6113 1.38896H22.5416V1.35127V1.31359H22.4665H22.3914V1.28236C22.3914 1.25437 22.3882 1.25114 22.3421 1.24468C22.3142 1.24145 22.266 1.23822 22.2349 1.23822C22.178 1.23822 22.1769 1.23714 22.1769 1.20699C22.1769 1.17577 22.1759 1.17577 22.1019 1.16823C22.0279 1.16069 22.0268 1.16069 22.0268 1.12947C22.0268 1.09932 22.0247 1.09824 21.9743 1.09824C21.9464 1.09824 21.9003 1.09501 21.8724 1.09178C21.8263 1.08532 21.8231 1.08209 21.8231 1.0541V1.02287H21.748H21.6729V0.991648C21.6729 0.962576 21.6697 0.960423 21.6172 0.953962C21.5861 0.950733 21.5378 0.947502 21.5099 0.947502C21.4595 0.947502 21.4584 0.946426 21.4584 0.915201C21.4584 0.8829 21.4574 0.8829 21.4005 0.8829C21.3694 0.8829 21.3212 0.879669 21.2933 0.87644C21.2472 0.86998 21.244 0.866749 21.244 0.838755C21.244 0.808607 21.2429 0.807529 21.1861 0.807529C21.155 0.807529 21.1067 0.804298 21.0799 0.801069C21.037 0.794609 21.0306 0.790302 21.0273 0.765537C21.0241 0.738619 21.0209 0.737543 20.9469 0.734312C20.8686 0.731083 20.8686 0.731083 20.8686 0.700935C20.8686 0.672939 20.8643 0.66971 20.8193 0.66325C20.7914 0.660019 20.7292 0.65679 20.6799 0.65679H20.5898V0.624487C20.5898 0.592186 20.5887 0.592186 20.534 0.592186C20.5029 0.592186 20.4515 0.588957 20.4214 0.585726C20.3678 0.579266 20.3646 0.577112 20.3646 0.54804V0.516815H20.2745C20.2252 0.516815 20.163 0.513586 20.1351 0.510355C20.089 0.503895 20.0858 0.500666 20.0858 0.472672V0.441446H19.941H19.7962V0.410221C19.7962 0.381149 19.793 0.378996 19.7405 0.372536C19.7094 0.369307 19.644 0.366076 19.5957 0.366076H19.5067V0.333775V0.301474H19.4188C19.3694 0.301474 19.304 0.298243 19.274 0.295013C19.2204 0.288551 19.2172 0.286398 19.2172 0.257328V0.226103H19.0038H18.7893L18.7861 0.190571L18.7828 0.156116L18.5984 0.152885L18.4129 0.150732V0.118431V0.0861301H18.3088C18.2509 0.0861301 18.1062 0.0828991 17.9871 0.0785923L17.7694 0.0721321V0.0430603V0.0139904L17.2847 0.00753021C16.8365 -7.62939e-06 15.245 0.00107002 14.4912 0.00753021ZM16.9759 1.13054V1.16285H17.1614C17.2643 1.16285 17.4424 1.16608 17.5582 1.17038L17.7694 1.17684V1.20807V1.23822H18.0032C18.1308 1.23822 18.2617 1.24145 18.2928 1.24468C18.3453 1.25114 18.3485 1.25329 18.3485 1.28236V1.31359H18.5308H18.7131V1.34481C18.7131 1.3728 18.7164 1.37604 18.7625 1.3825C18.7903 1.38573 18.8697 1.38896 18.9394 1.38896H19.067V1.42018V1.45141L19.2118 1.45894L19.3566 1.46648V1.4977V1.52893H19.4842C19.5539 1.52893 19.6332 1.53216 19.6601 1.53539C19.7029 1.54185 19.7094 1.54616 19.7126 1.57092C19.7158 1.59892 19.7158 1.59892 19.8263 1.60215L19.9357 1.60538V1.63552C19.9357 1.66459 19.9389 1.66675 19.9925 1.67321C20.0225 1.67644 20.0879 1.67967 20.1373 1.67967H20.2252V1.71197C20.2252 1.74427 20.2263 1.74427 20.2831 1.74427C20.3142 1.74427 20.3625 1.7475 20.3903 1.75073C20.4365 1.75719 20.4397 1.76042 20.4397 1.78842V1.81964H20.5458H20.6531L20.6563 1.8541L20.6595 1.88963L20.77 1.89286L20.8794 1.89609V1.92624C20.8794 1.95423 20.8836 1.95746 20.9287 1.96392C20.9566 1.96715 21.0048 1.97038 21.0359 1.97038C21.0928 1.97038 21.0938 1.97038 21.0938 2.00268C21.0938 2.03391 21.0938 2.03391 21.1668 2.03714L21.2386 2.04037L21.2418 2.07482L21.245 2.11036H21.3458H21.4466L21.4499 2.14481L21.4531 2.18034L21.526 2.18357C21.5979 2.1868 21.5979 2.1868 21.5979 2.21803C21.5979 2.24925 21.6 2.25033 21.6493 2.25033C21.6772 2.25033 21.7255 2.25356 21.7566 2.25679C21.8091 2.26325 21.8123 2.2654 21.8123 2.29447C21.8123 2.32462 21.8134 2.32462 21.8853 2.32785L21.9571 2.33108L21.9603 2.36554L21.9635 2.40107H22.0332C22.1019 2.40107 22.1019 2.40107 22.1019 2.43229C22.1019 2.46136 22.1051 2.46352 22.1587 2.46998C22.1887 2.47321 22.237 2.47644 22.266 2.47644C22.3142 2.47644 22.3164 2.47752 22.3164 2.50766C22.3164 2.53889 22.3174 2.53889 22.3914 2.54643C22.4643 2.55396 22.4665 2.55504 22.4665 2.58411C22.4665 2.61318 22.4686 2.61426 22.5362 2.6218C22.6048 2.62826 22.6059 2.62933 22.6059 2.66056V2.69178H22.6745H22.7442L22.7475 2.72624L22.7507 2.76177L22.8236 2.765C22.8944 2.76823 22.8954 2.76823 22.8954 2.79838C22.8954 2.82853 22.8976 2.8296 22.9651 2.83714C23.0338 2.8436 23.0349 2.84468 23.0349 2.8759C23.0349 2.90497 23.037 2.90713 23.0777 2.90713C23.1185 2.90713 23.1206 2.90928 23.1206 2.93835C23.1206 2.96958 23.1217 2.97065 23.1903 2.97711C23.2579 2.98465 23.2601 2.98573 23.2601 3.0148C23.2601 3.04387 23.2622 3.04602 23.3298 3.05248C23.3973 3.06002 23.3995 3.0611 23.3995 3.09017C23.3995 3.11924 23.4016 3.12032 23.4692 3.12785C23.5378 3.13431 23.5389 3.13539 23.5389 3.16661C23.5389 3.19569 23.541 3.19784 23.5818 3.19784C23.6236 3.19784 23.6247 3.19892 23.6247 3.23553V3.27321H23.6944H23.7641V3.31089C23.7641 3.34643 23.7662 3.34858 23.8016 3.34858C23.8359 3.34858 23.8391 3.35073 23.8391 3.38088V3.41318H23.9088H23.9786V3.45087V3.48855H24.0472H24.1169L24.1201 3.52301C24.1233 3.55531 24.1265 3.55854 24.1641 3.56177C24.1995 3.565 24.2038 3.56823 24.2038 3.59622C24.2038 3.62637 24.2059 3.62745 24.2735 3.63391C24.341 3.64145 24.3432 3.64252 24.3432 3.67267C24.3432 3.70067 24.3464 3.7039 24.3807 3.7039C24.4161 3.7039 24.4182 3.70605 24.4182 3.74158V3.77927H24.4879H24.5576V3.81695C24.5576 3.85248 24.5598 3.85464 24.5952 3.85464C24.6295 3.85464 24.6327 3.85679 24.6327 3.88586C24.6327 3.91385 24.637 3.91816 24.6681 3.92139C24.6981 3.92462 24.7024 3.92893 24.7056 3.95908L24.7088 3.99461H24.7786H24.8472V4.03229C24.8472 4.06783 24.8493 4.06998 24.8847 4.06998C24.9201 4.06998 24.9223 4.07213 24.9223 4.10766C24.9223 4.1432 24.9244 4.14535 24.9598 4.14535C24.9941 4.14535 24.9973 4.1475 24.9973 4.17657C24.9973 4.2078 24.9984 4.20888 25.067 4.21534C25.1346 4.22287 25.1367 4.22395 25.1367 4.2541C25.1367 4.28209 25.1399 4.28532 25.1743 4.28532C25.2097 4.28532 25.2118 4.28748 25.2118 4.32301C25.2118 4.35854 25.2139 4.36069 25.2493 4.36069C25.2847 4.36069 25.2869 4.36285 25.2869 4.39838C25.2869 4.43283 25.289 4.43606 25.319 4.43606C25.348 4.43606 25.3512 4.43929 25.3512 4.46836C25.3512 4.49851 25.3544 4.50067 25.3887 4.50067C25.4241 4.50067 25.4263 4.50282 25.4263 4.53835V4.57604H25.496H25.5657V4.61372C25.5657 4.64925 25.5678 4.65141 25.6021 4.65141C25.6365 4.65141 25.6397 4.65464 25.6429 4.68586C25.6461 4.71708 25.6504 4.72139 25.6815 4.72462C25.7115 4.72785 25.7158 4.73216 25.7158 4.76015C25.7158 4.78923 25.719 4.79138 25.7534 4.79138C25.7887 4.79138 25.7909 4.79353 25.7909 4.82906C25.7909 4.8646 25.793 4.86675 25.8284 4.86675C25.8627 4.86675 25.866 4.86998 25.866 4.89797C25.866 4.92812 25.8681 4.9292 25.9292 4.93674C25.9914 4.94427 25.9936 4.94535 25.9968 4.97765C26 5.0078 26.0043 5.01211 26.0343 5.01534C26.0643 5.01857 26.0686 5.02287 26.0718 5.05302C26.0751 5.08317 26.0794 5.08748 26.1105 5.09071C26.1405 5.09394 26.1448 5.09824 26.1448 5.12624C26.1448 5.15531 26.148 5.15746 26.1823 5.15746C26.2177 5.15746 26.2198 5.15962 26.2198 5.19515C26.2198 5.23068 26.222 5.23283 26.2574 5.23283C26.2928 5.23283 26.2949 5.23499 26.2949 5.27052C26.2949 5.30497 26.2971 5.3082 26.326 5.3082C26.3539 5.3082 26.3582 5.31251 26.3614 5.34266C26.3646 5.37388 26.3689 5.37819 26.4 5.38142C26.43 5.38465 26.4343 5.38896 26.4343 5.41695C26.4343 5.44602 26.4375 5.44818 26.4718 5.44818C26.5072 5.44818 26.5094 5.45033 26.5094 5.48586C26.5094 5.52032 26.5115 5.52355 26.5405 5.52355C26.5684 5.52355 26.5727 5.52785 26.5759 5.558C26.5791 5.58923 26.5834 5.59353 26.6145 5.59676C26.6445 5.59999 26.6488 5.6043 26.6488 5.63229C26.6488 5.66137 26.652 5.66352 26.6863 5.66352C26.7217 5.66352 26.7239 5.66567 26.7239 5.7012C26.7239 5.73674 26.726 5.73889 26.7614 5.73889H26.7989V5.80888V5.87886H26.8365C26.8718 5.87886 26.874 5.88102 26.874 5.91655C26.874 5.95208 26.8761 5.95423 26.9115 5.95423C26.9469 5.95423 26.9491 5.95639 26.9491 5.99192C26.9491 6.02637 26.9512 6.0296 26.9812 6.0296C27.0102 6.0296 27.0134 6.03283 27.0134 6.0619C27.0134 6.09205 27.0166 6.09421 27.0509 6.09421C27.0863 6.09421 27.0885 6.09636 27.0885 6.13189C27.0885 6.16742 27.0906 6.16958 27.126 6.16958C27.1614 6.16958 27.1635 6.17173 27.1635 6.20726C27.1635 6.24172 27.1657 6.24495 27.1957 6.24495C27.2257 6.24495 27.2279 6.24818 27.2279 6.28263C27.2279 6.31816 27.23 6.32032 27.2654 6.32032C27.3008 6.32032 27.3029 6.32247 27.3029 6.358C27.3029 6.39353 27.3051 6.39569 27.3405 6.39569H27.378V6.46567V6.53566H27.4156C27.4509 6.53566 27.4531 6.53781 27.4531 6.57335C27.4531 6.6078 27.4552 6.61103 27.4842 6.61103C27.5121 6.61103 27.5164 6.61534 27.5196 6.64548C27.5228 6.67671 27.5271 6.68102 27.5582 6.68425C27.5882 6.68748 27.5925 6.69178 27.5925 6.7187C27.5925 6.74562 27.5968 6.74993 27.6279 6.75316C27.6622 6.75639 27.6622 6.75639 27.6654 6.82314C27.6686 6.8899 27.6686 6.8899 27.7029 6.89313C27.733 6.89636 27.7373 6.90067 27.7405 6.93081C27.7437 6.96204 27.748 6.96634 27.7759 6.96634C27.8048 6.96634 27.807 6.96958 27.807 7.00403C27.807 7.03956 27.8091 7.04172 27.8445 7.04172H27.882V7.11063V7.18061L27.9174 7.18384C27.9475 7.18707 27.9517 7.19138 27.955 7.22153C27.9582 7.25275 27.9625 7.25706 27.9903 7.25706C28.0193 7.25706 28.0214 7.26029 28.0214 7.29474C28.0214 7.33028 28.0236 7.33243 28.059 7.33243H28.0965V7.40242V7.4724H28.134C28.1694 7.4724 28.1716 7.47456 28.1716 7.50901C28.1716 7.54346 28.1748 7.5467 28.207 7.54992C28.2413 7.55316 28.2413 7.55316 28.2445 7.61991C28.2477 7.68667 28.2477 7.68667 28.282 7.6899C28.3131 7.69313 28.3164 7.69636 28.3196 7.73297C28.3228 7.76958 28.326 7.77388 28.3528 7.77388C28.3828 7.77388 28.3839 7.77604 28.3914 7.84387C28.3979 7.91278 28.3989 7.91386 28.43 7.91386C28.459 7.91386 28.4611 7.91709 28.4611 7.95154C28.4611 7.986 28.4633 7.98923 28.4922 7.98923C28.5233 7.98923 28.5244 7.9903 28.5308 8.05921C28.5383 8.12704 28.5394 8.1292 28.5694 8.1292C28.5973 8.1292 28.6005 8.13243 28.6005 8.16688C28.6005 8.20242 28.6027 8.20457 28.6381 8.20457H28.6756V8.27456V8.34454H28.7131H28.7507V8.41991V8.49528H28.7882H28.8257V8.56527V8.63526H28.8579C28.8879 8.63526 28.8901 8.63848 28.8901 8.67294C28.8901 8.70847 28.8922 8.71063 28.9276 8.71063H28.9641L28.9673 8.78277L28.9705 8.85598L29.0059 8.85921L29.0402 8.86244V8.93243V9.00134H29.0713C29.1024 9.00134 29.1035 9.00242 29.1099 9.07133C29.1174 9.13916 29.1185 9.14131 29.1485 9.14131C29.1786 9.14131 29.1786 9.14239 29.1818 9.21345L29.185 9.28667L29.2204 9.2899L29.2547 9.29313V9.36204V9.43095L29.2901 9.43418L29.3244 9.43741L29.3276 9.50955C29.3308 9.58169 29.3308 9.58277 29.3609 9.58277C29.3909 9.58277 29.392 9.58492 29.3995 9.65275C29.4059 9.72166 29.407 9.72274 29.4381 9.72274H29.4692V9.79811V9.87348H29.5067H29.5442V9.98115V10.0888H29.5818H29.6193V10.1588V10.2288H29.6504C29.6815 10.2288 29.6815 10.2299 29.689 10.3042C29.6965 10.3785 29.6965 10.3795 29.7276 10.3795C29.7576 10.3795 29.7587 10.3806 29.7587 10.4377C29.7587 10.4689 29.7619 10.5174 29.7651 10.5453C29.7716 10.5916 29.7748 10.5949 29.8027 10.5949H29.8338V10.6702V10.7456H29.8649C29.8938 10.7456 29.896 10.7488 29.9024 10.8016C29.9056 10.8328 29.9088 10.8813 29.9088 10.9093C29.9088 10.9599 29.9099 10.961 29.941 10.961C29.9732 10.961 29.9732 10.962 29.9732 11.0191C29.9732 11.0503 29.9764 11.0988 29.9796 11.1268C29.9861 11.1731 29.9893 11.1763 30.0172 11.1763H30.0483V11.284V11.3916H30.0858H30.1233V11.5047V11.6178H30.1544C30.1823 11.6178 30.1855 11.621 30.192 11.6673C30.1952 11.6953 30.1984 11.7577 30.1984 11.8073V11.8977H30.2306C30.2627 11.8977 30.2627 11.8988 30.2627 11.9537C30.2627 11.9849 30.266 12.0366 30.2692 12.0667C30.2756 12.1206 30.2777 12.1238 30.3067 12.1238H30.3367L30.3399 12.2659L30.3432 12.4091L30.371 12.4124C30.3957 12.4156 30.4 12.4221 30.4064 12.4651C30.4097 12.4921 30.4129 12.5577 30.4129 12.6094V12.7052H30.445C30.4772 12.7052 30.4772 12.7052 30.4772 12.7677C30.4772 12.8032 30.4804 12.8829 30.4847 12.9454L30.4912 13.0606H30.5223H30.5523V13.2264C30.5523 13.3168 30.5555 13.4137 30.5587 13.4417C30.5651 13.488 30.5684 13.4912 30.5962 13.4912H30.6273V13.712V13.9327H30.6584C30.6874 13.9327 30.6895 13.9359 30.696 13.9887C30.6992 14.0199 30.7024 14.1653 30.7024 14.3117V14.5787H30.7324H30.7635L30.77 14.92C30.7743 15.1074 30.7775 15.3712 30.7775 15.5069V15.7523H30.8097H30.8418V16.0754V16.3984H30.8097H30.7775V16.6482C30.7775 16.786 30.7743 17.0476 30.77 17.2296L30.7635 17.5612H30.7324H30.7024V17.7475C30.7024 17.8509 30.6992 17.979 30.696 18.0328L30.6885 18.1319H30.6584H30.6273V18.3526V18.5733H30.5962C30.5673 18.5733 30.5651 18.5766 30.5587 18.6293C30.5555 18.6606 30.5523 18.7435 30.5523 18.8124V18.9394H30.5201H30.4879V19.0116C30.4879 19.0525 30.4847 19.1322 30.4804 19.1892L30.474 19.2947H30.4429H30.4129V19.3906C30.4129 19.4423 30.4097 19.5079 30.4064 19.5349C30.4 19.5779 30.3957 19.5844 30.371 19.5876L30.3432 19.5908L30.3399 19.733L30.3367 19.8762H30.3067C30.2777 19.8762 30.2756 19.8794 30.2692 19.9322C30.266 19.9634 30.2627 20.0151 30.2627 20.0452C30.2627 20.1012 30.2627 20.1023 30.2306 20.1023H30.1984V20.1852C30.1984 20.2315 30.1952 20.295 30.192 20.3252C30.1855 20.379 30.1834 20.3822 30.1544 20.3822H30.1244L30.1212 20.4921L30.118 20.603L30.0836 20.6062L30.0483 20.6094V20.7171V20.8237H30.0172C29.9893 20.8237 29.9861 20.8269 29.9796 20.8732C29.9764 20.9012 29.9732 20.9497 29.9732 20.9809C29.9732 21.0379 29.9732 21.039 29.941 21.039C29.9099 21.039 29.9099 21.039 29.9067 21.1112L29.9035 21.1844L29.8692 21.1876L29.8338 21.1908V21.2985V21.4051H29.7962H29.7587V21.5128V21.6205H29.7276C29.6965 21.6205 29.6965 21.6215 29.689 21.6958C29.6815 21.7701 29.6815 21.7712 29.6504 21.7712H29.6193V21.8412V21.9112H29.5818H29.5442V21.9865V22.0619H29.5131C29.4853 22.0619 29.482 22.0651 29.4756 22.1114C29.4724 22.1394 29.4692 22.1857 29.4692 22.2137C29.4692 22.2643 29.4681 22.2665 29.4381 22.2665C29.407 22.2665 29.407 22.2676 29.3995 22.3419C29.392 22.4161 29.392 22.4172 29.3609 22.4172H29.3298V22.4872V22.5572H29.2922H29.2547V22.6326V22.7079H29.2172H29.1796V22.7779V22.8479H29.1485C29.1174 22.8479 29.1174 22.849 29.1099 22.9233C29.1024 22.9976 29.1024 22.9986 29.0713 22.9986C29.0434 22.9986 29.0402 23.0019 29.0402 23.0363C29.0402 23.0708 29.0381 23.074 29.0091 23.074C28.978 23.074 28.9769 23.0751 28.9705 23.144C28.963 23.2118 28.9619 23.214 28.933 23.214C28.904 23.214 28.9029 23.2161 28.8954 23.2894C28.8879 23.3626 28.8869 23.3647 28.8579 23.3647C28.829 23.3647 28.8279 23.3669 28.8204 23.4347C28.8139 23.5026 28.8118 23.5047 28.7828 23.5047C28.7539 23.5047 28.7528 23.5069 28.7453 23.5747C28.7389 23.6436 28.7378 23.6447 28.7067 23.6447C28.6777 23.6447 28.6756 23.6468 28.6756 23.6877C28.6756 23.7287 28.6735 23.7308 28.6445 23.7308C28.6134 23.7308 28.6123 23.7319 28.6059 23.8008C28.5984 23.8686 28.5973 23.8708 28.5673 23.8708C28.5416 23.8708 28.5373 23.8751 28.534 23.9052C28.5308 23.9365 28.5265 23.9408 28.4965 23.944L28.4611 23.9472V24.0172V24.0861H28.4236C28.3882 24.0861 28.3861 24.0883 28.3861 24.1238C28.3861 24.1583 28.3828 24.1615 28.355 24.1615C28.3249 24.1615 28.3239 24.1637 28.3164 24.2315C28.3099 24.3004 28.3088 24.3015 28.2777 24.3015C28.2488 24.3015 28.2466 24.3047 28.2466 24.3392C28.2466 24.3747 28.2445 24.3768 28.2091 24.3768H28.1716V24.4458V24.5157L28.1373 24.519C28.1062 24.5222 28.1019 24.5265 28.0987 24.5567C28.0954 24.5879 28.0912 24.5922 28.0654 24.5922C28.0354 24.5922 28.0343 24.5943 28.0268 24.6622C28.0204 24.7311 28.0193 24.7322 27.9882 24.7322C27.9592 24.7322 27.9571 24.7354 27.9571 24.7698C27.9571 24.8054 27.955 24.8075 27.9196 24.8075C27.8842 24.8075 27.882 24.8097 27.882 24.8452C27.882 24.8797 27.8788 24.8829 27.8509 24.8829C27.8209 24.8829 27.8198 24.8851 27.8123 24.9518C27.8059 25.0207 27.8048 25.0218 27.7716 25.025C27.7416 25.0283 27.7373 25.0326 27.734 25.0627C27.7308 25.0939 27.7265 25.0982 27.6987 25.0982C27.6697 25.0982 27.6676 25.1015 27.6676 25.1359C27.6676 25.1715 27.6654 25.1736 27.63 25.1736C27.5946 25.1736 27.5925 25.1758 27.5925 25.2113C27.5925 25.2458 27.5903 25.249 27.5614 25.249C27.5303 25.249 27.5292 25.2501 27.5228 25.319C27.5153 25.3868 27.5142 25.389 27.4842 25.389C27.4563 25.389 27.4531 25.3922 27.4531 25.4266C27.4531 25.4622 27.4509 25.4643 27.4156 25.4643C27.3802 25.4643 27.378 25.4665 27.378 25.502C27.378 25.5375 27.3759 25.5397 27.3405 25.5397C27.3051 25.5397 27.3029 25.5419 27.3029 25.5774C27.3029 25.6118 27.3008 25.6151 27.2718 25.6151C27.244 25.6151 27.2397 25.6194 27.2365 25.6495C27.2332 25.6807 27.229 25.6851 27.1989 25.6883C27.1668 25.6915 27.1657 25.6937 27.1582 25.7561C27.1507 25.8175 27.1496 25.8196 27.1196 25.8196C27.0917 25.8196 27.0885 25.8229 27.0885 25.8573C27.0885 25.8929 27.0863 25.895 27.0509 25.895C27.0155 25.895 27.0134 25.8972 27.0134 25.9316C27.0134 25.9661 27.0102 25.9693 26.9791 25.9725C26.948 25.9758 26.9437 25.9801 26.9405 26.0102C26.9373 26.0414 26.933 26.0458 26.9062 26.0458C26.8794 26.0458 26.8751 26.0501 26.8718 26.0802C26.8686 26.1114 26.8643 26.1157 26.8343 26.119C26.8032 26.1222 26.7989 26.1265 26.7989 26.1534C26.7989 26.1803 26.7946 26.1847 26.7646 26.1879C26.7335 26.1911 26.7292 26.1954 26.726 26.2256C26.7228 26.2568 26.7185 26.2611 26.6906 26.2611C26.6617 26.2611 26.6595 26.2643 26.6595 26.2988C26.6595 26.3343 26.6574 26.3365 26.622 26.3365C26.5866 26.3365 26.5844 26.3386 26.5844 26.3742C26.5844 26.4097 26.5823 26.4118 26.5469 26.4118C26.5115 26.4118 26.5094 26.414 26.5094 26.4495C26.5094 26.484 26.5072 26.4872 26.4772 26.4872C26.4483 26.4872 26.445 26.4904 26.445 26.5195C26.445 26.5497 26.4418 26.5518 26.4075 26.5518C26.3721 26.5518 26.37 26.554 26.37 26.5895C26.37 26.625 26.3678 26.6272 26.3324 26.6272C26.2971 26.6272 26.2949 26.6293 26.2949 26.6649C26.2949 26.7004 26.2928 26.7026 26.2574 26.7026C26.2231 26.7026 26.2198 26.7047 26.2198 26.7338C26.2198 26.7618 26.2155 26.7661 26.1855 26.7693C26.1544 26.7725 26.1501 26.7768 26.1469 26.807C26.1437 26.8382 26.1394 26.8425 26.1126 26.8425C26.0858 26.8425 26.0815 26.8468 26.0783 26.877C26.0751 26.9082 26.0708 26.9125 26.0408 26.9157C26.0097 26.919 26.0054 26.9233 26.0054 26.9502C26.0054 26.9771 26.0011 26.9814 25.971 26.9847C25.9399 26.9879 25.9357 26.9922 25.9324 27.0223C25.9292 27.0525 25.9249 27.0568 25.8949 27.06C25.8649 27.0633 25.8606 27.0676 25.8574 27.0977C25.8542 27.13 25.8509 27.1332 25.8166 27.1332C25.7834 27.1332 25.7802 27.1365 25.7802 27.1645C25.7802 27.1946 25.778 27.1957 25.7169 27.2032C25.6547 27.2108 25.6525 27.2118 25.6493 27.2441C25.6461 27.2743 25.6418 27.2786 25.6118 27.2818C25.5807 27.2851 25.5764 27.2894 25.5764 27.3174C25.5764 27.3464 25.5732 27.3486 25.5389 27.3486C25.5035 27.3486 25.5013 27.3507 25.5013 27.3863C25.5013 27.4218 25.4992 27.424 25.4638 27.424C25.4284 27.424 25.4263 27.4261 25.4263 27.4616C25.4263 27.4972 25.4241 27.4993 25.3887 27.4993C25.3544 27.4993 25.3512 27.5015 25.3512 27.5305C25.3512 27.5618 25.3501 27.5628 25.2815 27.5693C25.2139 27.5768 25.2118 27.5779 25.2118 27.6081C25.2118 27.6361 25.2086 27.6393 25.1743 27.6393C25.1389 27.6393 25.1367 27.6414 25.1367 27.677C25.1367 27.7125 25.1346 27.7147 25.0992 27.7147C25.0638 27.7147 25.0617 27.7168 25.0617 27.7524C25.0617 27.7879 25.0595 27.79 25.0241 27.79C24.9898 27.79 24.9866 27.7922 24.9866 27.8213C24.9866 27.8525 24.9855 27.8536 24.9169 27.86C24.8493 27.8676 24.8472 27.8686 24.8472 27.8988C24.8472 27.9268 24.844 27.93 24.8097 27.93C24.7743 27.93 24.7721 27.9322 24.7721 27.9677C24.7721 28.0032 24.77 28.0054 24.7346 28.0054C24.7003 28.0054 24.6971 28.0075 24.6971 28.0366C24.6971 28.0678 24.696 28.0689 24.6273 28.0754C24.5598 28.0829 24.5576 28.084 24.5576 28.1141C24.5576 28.14 24.5534 28.1443 24.5233 28.1475C24.4922 28.1507 24.4879 28.155 24.4847 28.1852L24.4815 28.2207H24.4118H24.3432V28.2584C24.3432 28.2939 24.341 28.2961 24.3056 28.2961C24.2713 28.2961 24.2681 28.2982 24.2681 28.3273C24.2681 28.3585 24.267 28.3596 24.1984 28.3661C24.1308 28.3736 24.1287 28.3747 24.1287 28.4048C24.1287 28.4328 24.1255 28.4361 24.0912 28.4361C24.0558 28.4361 24.0536 28.4382 24.0536 28.4738V28.5114H23.985H23.9153L23.9121 28.5459C23.9088 28.5782 23.9056 28.5814 23.8692 28.5847C23.8327 28.5879 23.8284 28.5911 23.8284 28.6191C23.8284 28.6503 23.8273 28.6503 23.7619 28.6536C23.6944 28.6568 23.6944 28.6568 23.6912 28.6912L23.6879 28.7268H23.6182H23.5496V28.7645C23.5496 28.8 23.5475 28.8021 23.5121 28.8021C23.4777 28.8021 23.4745 28.8054 23.4745 28.8334C23.4745 28.8635 23.4724 28.8646 23.4048 28.8721C23.3373 28.8786 23.3351 28.8797 23.3351 28.9098C23.3351 28.9389 23.333 28.94 23.2601 28.9475C23.1861 28.955 23.185 28.955 23.185 28.9863V29.0175H23.1153H23.0456V29.0552C23.0456 29.0907 23.0434 29.0929 23.008 29.0929C22.9737 29.0929 22.9705 29.0961 22.9705 29.1241C22.9705 29.1553 22.9694 29.1553 22.8954 29.1628C22.8214 29.1704 22.8204 29.1704 22.8204 29.2016V29.2328H22.7507H22.681V29.2705V29.3082H22.6059H22.5308V29.3394C22.5308 29.3707 22.5298 29.3717 22.4611 29.3782C22.3936 29.3857 22.3914 29.3868 22.3914 29.4159C22.3914 29.4428 22.3882 29.446 22.3357 29.4525C22.3046 29.4557 22.2563 29.4589 22.2284 29.4589C22.1791 29.4589 22.1769 29.46 22.1769 29.4902C22.1769 29.5203 22.1748 29.5214 22.1072 29.5289C22.0386 29.5354 22.0375 29.5365 22.0375 29.5677V29.5989H21.9625H21.8874V29.6366V29.6743H21.8123H21.7373V29.7055C21.7373 29.7346 21.734 29.7367 21.6815 29.7432C21.6504 29.7464 21.6043 29.7497 21.5796 29.7497C21.5357 29.7497 21.5335 29.7507 21.5335 29.782V29.8143H21.4584H21.3834V29.8455C21.3834 29.8735 21.3802 29.8767 21.334 29.8832C21.3062 29.8864 21.2579 29.8896 21.2268 29.8896C21.17 29.8896 21.1689 29.8907 21.1689 29.9209C21.1689 29.9499 21.1657 29.9521 21.1131 29.9585C21.082 29.9618 21.0338 29.965 21.0059 29.965C20.9555 29.965 20.9544 29.9661 20.9544 29.9973C20.9544 30.0296 20.9534 30.0296 20.8965 30.0296C20.8654 30.0296 20.8172 30.0328 20.7893 30.0361C20.7432 30.0425 20.7399 30.0458 20.7399 30.0738C20.7399 30.105 20.7389 30.105 20.6767 30.105C20.6424 30.105 20.592 30.1082 20.5641 30.1114C20.518 30.1179 20.5147 30.1211 20.5147 30.1491V30.1803H20.4075H20.3003V30.2116C20.3003 30.2406 20.2971 30.2428 20.2445 30.2493C20.2134 30.2525 20.1619 30.2557 20.1319 30.2557C20.0761 30.2557 20.0751 30.2557 20.0751 30.288V30.3203H19.9925C19.9464 30.3203 19.8831 30.3235 19.8531 30.3268C19.7995 30.3332 19.7962 30.3354 19.7962 30.3645V30.3957H19.7008C19.6493 30.3957 19.5839 30.3989 19.5571 30.4021C19.5142 30.4086 19.5078 30.4129 19.5046 30.4377L19.5013 30.4657L19.3598 30.4689L19.2172 30.4721V30.5023V30.5335L19.0724 30.541L18.9276 30.5486V30.5798V30.611H18.8021C18.7324 30.611 18.6499 30.6143 18.6198 30.6175C18.5662 30.624 18.563 30.6261 18.563 30.6552V30.6864H18.311H18.059V30.7176C18.059 30.7467 18.0558 30.7489 18.0032 30.7553C17.9721 30.7585 17.8413 30.7618 17.7137 30.7618H17.4799V30.7919V30.8231L17.1024 30.8296C16.8944 30.8339 16.6359 30.8371 16.5287 30.8371H16.3324V30.8694V30.9017H15.9678H15.6032V30.8705V30.8393L15.0241 30.8318L14.445 30.8242V30.793V30.7618H14.2123C14.0836 30.7618 13.9528 30.7585 13.9228 30.7553C13.8692 30.7489 13.866 30.7467 13.866 30.7176V30.6864H13.6461H13.4263V30.6552C13.4263 30.6272 13.4231 30.624 13.3769 30.6175C13.3491 30.6143 13.2525 30.611 13.1625 30.611H12.9973V30.5798V30.5486L12.8525 30.541L12.7078 30.5335V30.5023V30.4711H12.6198C12.5705 30.4711 12.5051 30.4678 12.4751 30.4646C12.4214 30.4581 12.4182 30.456 12.4182 30.4269V30.3957H12.2788H12.1394V30.3645C12.1394 30.3354 12.1362 30.3332 12.0836 30.3268C12.0525 30.3235 12.0011 30.3203 11.971 30.3203C11.9153 30.3203 11.9142 30.3203 11.9142 30.288V30.2557H11.8241C11.7748 30.2557 11.7126 30.2525 11.6847 30.2493C11.6386 30.2428 11.6354 30.2396 11.6354 30.2116V30.1803H11.5228H11.4102V30.1427V30.105H11.3029H11.1957V30.0738C11.1957 30.0458 11.1925 30.0425 11.1464 30.0361C11.1185 30.0328 11.0702 30.0296 11.0391 30.0296C10.9823 30.0296 10.9812 30.0296 10.9812 29.9973C10.9812 29.965 10.9802 29.965 10.9233 29.965C10.8922 29.965 10.844 29.9618 10.8161 29.9585C10.77 29.9521 10.7668 29.9489 10.7668 29.9209V29.8896H10.6917H10.6166V29.8584C10.6166 29.8304 10.6134 29.8272 10.5673 29.8207C10.5394 29.8175 10.4912 29.8143 10.4601 29.8143C10.4032 29.8143 10.4021 29.8132 10.4021 29.783C10.4021 29.754 10.3989 29.7518 10.3464 29.7454C10.3153 29.7421 10.267 29.7389 10.2391 29.7389C10.1898 29.7389 10.1877 29.7378 10.1877 29.7066C10.1877 29.6754 10.1877 29.6754 10.1158 29.6721L10.0429 29.6689L10.0397 29.6334L10.0365 29.5989H9.96676H9.89812V29.5612V29.5235H9.82306H9.74799V29.4923C9.74799 29.4622 9.74584 29.4611 9.67828 29.4536C9.60965 29.4471 9.60858 29.446 9.60858 29.4148V29.3836H9.53351H9.45844V29.3459V29.3082H9.38874H9.31903V29.277C9.31903 29.2458 9.31796 29.2447 9.24397 29.2371C9.16997 29.2307 9.1689 29.2296 9.1689 29.1995C9.1689 29.1682 9.1689 29.1682 9.0992 29.1682H9.02949V29.1305V29.0939L8.95764 29.0907L8.88472 29.0875L8.8815 29.0519L8.87828 29.0175H8.80858H8.73995V28.9798V28.9421H8.67024H8.60054V28.9098C8.60054 28.8797 8.59732 28.8775 8.563 28.8775C8.52761 28.8775 8.52547 28.8754 8.52547 28.8398V28.8032L8.45362 28.8L8.3807 28.7968L8.37748 28.7612L8.37426 28.7268H8.30456H8.23592V28.6891C8.23592 28.6536 8.23378 28.6514 8.19839 28.6514C8.16407 28.6514 8.16086 28.6482 8.16086 28.6202C8.16086 28.59 8.15871 28.589 8.09115 28.5814C8.02252 28.575 8.02145 28.5739 8.02145 28.5427C8.02145 28.5136 8.01823 28.5114 7.98391 28.5114C7.9496 28.5114 7.94638 28.5093 7.94638 28.4802C7.94638 28.449 7.94531 28.4479 7.87668 28.4414C7.80912 28.4339 7.80697 28.4328 7.80697 28.4038C7.80697 28.3747 7.80483 28.3736 7.7319 28.3661C7.65791 28.3585 7.65684 28.3575 7.65684 28.3284C7.65684 28.3015 7.65255 28.2972 7.62252 28.2939C7.59142 28.2907 7.58713 28.2864 7.58391 28.2552C7.5807 28.224 7.57748 28.2207 7.54316 28.2207C7.50992 28.2207 7.5067 28.2175 7.5067 28.1895C7.5067 28.1583 7.50563 28.1572 7.437 28.1507L7.36729 28.1432V28.1066C7.36729 28.0721 7.36515 28.07 7.32976 28.07C7.29544 28.07 7.29222 28.0668 7.29222 28.0388C7.29222 28.0086 7.29008 28.0075 7.22252 28C7.15389 27.9935 7.15281 27.9925 7.15281 27.9612C7.15281 27.9322 7.1496 27.93 7.11528 27.93C7.07989 27.93 7.07775 27.9279 7.07775 27.8923C7.07775 27.8568 7.0756 27.8546 7.04021 27.8546C7.0059 27.8546 7.00268 27.8525 7.00268 27.8234C7.00268 27.7922 7.00161 27.7911 6.93298 27.7847C6.86542 27.7771 6.86327 27.776 6.86327 27.7459C6.86327 27.7179 6.86005 27.7147 6.82574 27.7147C6.79035 27.7147 6.7882 27.7125 6.7882 27.677C6.7882 27.6414 6.78606 27.6393 6.75067 27.6393C6.71528 27.6393 6.71314 27.6371 6.71314 27.6016C6.71314 27.5661 6.71099 27.5639 6.6756 27.5639C6.64129 27.5639 6.63807 27.5607 6.63807 27.5327C6.63807 27.5026 6.63592 27.5015 6.57373 27.4939C6.51153 27.4864 6.50938 27.4853 6.50938 27.4552C6.50938 27.4272 6.50617 27.424 6.47185 27.424C6.43646 27.424 6.43432 27.4218 6.43432 27.3863C6.43432 27.3507 6.43217 27.3486 6.39786 27.3486C6.36354 27.3486 6.36032 27.3454 6.3571 27.3131C6.35389 27.2829 6.3496 27.2786 6.31957 27.2754C6.28847 27.2721 6.28418 27.2678 6.28418 27.2398C6.28418 27.2108 6.28096 27.2086 6.24665 27.2086C6.21126 27.2086 6.20912 27.2065 6.20912 27.1709C6.20912 27.1354 6.20697 27.1332 6.17158 27.1332C6.13727 27.1332 6.13405 27.13 6.13405 27.102C6.13405 27.0719 6.1319 27.0708 6.07078 27.0633C6.00858 27.0557 6.00643 27.0546 6.00322 27.0223C6 26.9922 5.99571 26.9879 5.96568 26.9847C5.93566 26.9814 5.93137 26.9771 5.92815 26.947C5.92493 26.9168 5.92064 26.9125 5.89062 26.9093C5.85952 26.9061 5.85523 26.9017 5.85523 26.8737C5.85523 26.8447 5.85201 26.8425 5.81769 26.8425C5.78231 26.8425 5.78016 26.8404 5.78016 26.8048C5.78016 26.7693 5.77802 26.7672 5.74263 26.7672C5.70724 26.7672 5.70509 26.765 5.70509 26.7295C5.70509 26.6939 5.70295 26.6918 5.66756 26.6918C5.63324 26.6918 5.63003 26.6896 5.63003 26.6595C5.63003 26.6304 5.62681 26.6272 5.59786 26.6272C5.56783 26.6272 5.56568 26.624 5.56568 26.5895C5.56568 26.554 5.56354 26.5518 5.52815 26.5518C5.49276 26.5518 5.49062 26.5497 5.49062 26.5141C5.49062 26.4786 5.48847 26.4764 5.45308 26.4764C5.41877 26.4764 5.41555 26.4743 5.41555 26.4441C5.41555 26.4151 5.41233 26.4118 5.38338 26.4118C5.35335 26.4118 5.35121 26.4086 5.35121 26.3742C5.35121 26.3386 5.34906 26.3365 5.31367 26.3365C5.27828 26.3365 5.27614 26.3343 5.27614 26.2988C5.27614 26.2633 5.27399 26.2611 5.23861 26.2611C5.20322 26.2611 5.20107 26.2589 5.20107 26.2234C5.20107 26.189 5.19893 26.1857 5.16997 26.1857C5.14209 26.1857 5.1378 26.1814 5.13458 26.1502C5.13137 26.12 5.12708 26.1157 5.09705 26.1125C5.06702 26.1093 5.06273 26.105 5.05952 26.0748C5.0563 26.0447 5.05201 26.0404 5.02198 26.0371C4.98981 26.0339 4.98874 26.0318 4.98123 25.9693C4.97373 25.9079 4.97265 25.9058 4.94263 25.9058C4.91475 25.9058 4.91153 25.9026 4.91153 25.8681C4.91153 25.8326 4.90938 25.8304 4.87399 25.8304C4.83861 25.8304 4.83646 25.8283 4.83646 25.7927C4.83646 25.7583 4.83432 25.755 4.80429 25.755C4.77426 25.755 4.77212 25.7518 4.77212 25.7174C4.77212 25.6818 4.76997 25.6797 4.73458 25.6797C4.6992 25.6797 4.69705 25.6775 4.69705 25.642C4.69705 25.6065 4.69491 25.6043 4.65952 25.6043C4.62413 25.6043 4.62198 25.6021 4.62198 25.5666C4.62198 25.5322 4.61877 25.5289 4.59088 25.5289C4.56086 25.5289 4.55979 25.5268 4.55228 25.4643C4.54477 25.4019 4.5437 25.3997 4.51367 25.3997C4.48579 25.3997 4.48257 25.3965 4.48257 25.362C4.48257 25.3265 4.48043 25.3244 4.44504 25.3244C4.40965 25.3244 4.40751 25.3222 4.40751 25.2867C4.40751 25.2511 4.40536 25.249 4.36997 25.249C4.33458 25.249 4.33244 25.2468 4.33244 25.2113C4.33244 25.1768 4.32922 25.1736 4.30134 25.1736C4.27131 25.1736 4.27024 25.1715 4.26273 25.1036C4.2563 25.0347 4.25523 25.0336 4.22413 25.0336C4.19517 25.0336 4.19303 25.0304 4.19303 24.996C4.19303 24.9604 4.19088 24.9583 4.1555 24.9583C4.12011 24.9583 4.11796 24.9561 4.11796 24.9206C4.11796 24.8851 4.11582 24.8829 4.08043 24.8829H4.0429V24.814V24.744L4.00858 24.7408C3.97748 24.7375 3.97319 24.7332 3.96997 24.702C3.96676 24.6719 3.96247 24.6676 3.93458 24.6676C3.90563 24.6676 3.90349 24.6643 3.90349 24.6299C3.90349 24.5943 3.90134 24.5922 3.86595 24.5922H3.82842V24.5222V24.4522H3.79088C3.7555 24.4522 3.75335 24.4501 3.75335 24.4145C3.75335 24.3801 3.75013 24.3768 3.72225 24.3768C3.69223 24.3768 3.69115 24.3747 3.68365 24.3069C3.67721 24.239 3.67614 24.2369 3.64611 24.2369C3.61823 24.2369 3.61501 24.2326 3.6118 24.196C3.60858 24.1593 3.60536 24.1561 3.57426 24.1529L3.53887 24.1497V24.0861V24.0226L3.50456 24.0194C3.47239 24.0161 3.46917 24.0129 3.46595 23.9752C3.46273 23.9397 3.45952 23.9354 3.43271 23.9354C3.40268 23.9354 3.40161 23.9332 3.3941 23.8654C3.38767 23.7976 3.38552 23.7954 3.35657 23.7954C3.32761 23.7954 3.32654 23.7933 3.31903 23.7254C3.3126 23.6565 3.31153 23.6554 3.28043 23.6554C3.25147 23.6554 3.24933 23.6522 3.24933 23.6178C3.24933 23.5833 3.24611 23.5801 3.21823 23.5801C3.18713 23.5801 3.18713 23.579 3.17962 23.5047C3.17212 23.4315 3.17105 23.4293 3.14209 23.4293C3.11314 23.4293 3.11206 23.4272 3.10456 23.3593C3.09812 23.2915 3.09598 23.2894 3.06702 23.2894C3.03807 23.2894 3.037 23.2872 3.02949 23.2194C3.02306 23.1505 3.02198 23.1494 2.99088 23.1494C2.96193 23.1494 2.95979 23.1472 2.95979 23.1063C2.95979 23.0654 2.95764 23.0633 2.92869 23.0633C2.89759 23.0633 2.89651 23.0622 2.89008 22.9933C2.88257 22.9254 2.8815 22.9233 2.85147 22.9233C2.82145 22.9233 2.82145 22.9222 2.81823 22.8501L2.81501 22.7779L2.7807 22.7747L2.74531 22.7715V22.7015V22.6326H2.71421C2.68311 22.6326 2.68204 22.6315 2.6756 22.5626C2.6681 22.4947 2.66702 22.4926 2.63807 22.4926C2.60912 22.4926 2.60804 22.4904 2.60054 22.4172C2.59303 22.3429 2.59196 22.3419 2.56193 22.3419C2.5319 22.3419 2.5319 22.3408 2.52869 22.2686L2.52547 22.1965L2.49115 22.1933L2.45576 22.19V22.0877V21.9865H2.41823H2.3807V21.9112V21.8358H2.3496C2.3185 21.8358 2.31743 21.8347 2.31099 21.7658C2.30349 21.698 2.30241 21.6958 2.27239 21.6958H2.24129V21.5892V21.4816L2.2059 21.4783L2.17158 21.4751L2.16836 21.4019C2.16515 21.3308 2.16515 21.3297 2.13512 21.3297C2.10617 21.3297 2.10402 21.3265 2.09759 21.2727C2.09437 21.2425 2.09115 21.1941 2.09115 21.165C2.09115 21.1155 2.09008 21.1144 2.05898 21.1144C2.02681 21.1144 2.02681 21.1133 2.02681 21.0563C2.02681 21.025 2.02359 20.9766 2.02038 20.9486C2.01394 20.9023 2.01072 20.8991 1.98284 20.8991H1.95174V20.7925V20.6848L1.91743 20.6816L1.88204 20.6783L1.87882 20.5674L1.8756 20.4576H1.84558C1.81769 20.4576 1.81448 20.4533 1.80804 20.4081C1.80483 20.3801 1.80161 20.3316 1.80161 20.3004C1.80161 20.2433 1.80161 20.2423 1.76944 20.2423H1.73727V20.1529C1.73727 20.1044 1.73405 20.0388 1.73083 20.0075C1.7244 19.9548 1.72225 19.9515 1.6933 19.9515H1.6622V19.8439V19.7362H1.6311C1.60214 19.7362 1.6 19.733 1.59357 19.6791C1.59035 19.649 1.58713 19.5833 1.58713 19.5338V19.4455H1.55496H1.52279V19.3723C1.52279 19.3324 1.51957 19.2528 1.51528 19.1946L1.50885 19.0902H1.47775H1.44772V18.9567C1.44772 18.8834 1.4445 18.8016 1.44129 18.7736C1.43485 18.7273 1.43164 18.7241 1.40375 18.7241H1.37265V18.5087V18.2934H1.34155C1.3126 18.2934 1.31046 18.2902 1.30402 18.2363C1.3008 18.2062 1.29759 18.0899 1.29759 17.9779V17.7766H1.26756H1.23646L1.23003 17.558C1.22574 17.4385 1.22252 17.2598 1.22252 17.1596V16.9798H1.19035H1.15818V15.8546V14.7295H1.19035H1.22252V14.6186C1.22252 14.5583 1.22574 14.4108 1.23003 14.2902L1.23646 14.0727H1.26756H1.29759V13.8756C1.29759 13.768 1.3008 13.6538 1.30402 13.6226C1.31046 13.5698 1.3126 13.5666 1.34155 13.5666H1.37265V13.3513V13.1359H1.40375C1.43164 13.1359 1.43485 13.1327 1.44129 13.0864C1.4445 13.0584 1.44772 12.9787 1.44772 12.9087V12.7806H1.47882H1.50992L1.51743 12.6299L1.52493 12.4791H1.55603H1.58713V12.3898C1.58713 12.3413 1.59035 12.2756 1.59357 12.2444C1.6 12.1916 1.60214 12.1884 1.6311 12.1884H1.6622V12.0484V11.9085H1.6933C1.72225 11.9085 1.7244 11.9052 1.73083 11.8514C1.73405 11.8213 1.73727 11.7696 1.73727 11.7384C1.73727 11.6834 1.73727 11.6824 1.76944 11.6824C1.80161 11.6824 1.80161 11.6813 1.80161 11.6242C1.80161 11.593 1.80483 11.5445 1.80804 11.5165C1.81448 11.4702 1.81769 11.467 1.84558 11.467H1.87668V11.3604V11.2528L1.91206 11.2495L1.94638 11.2463L1.9496 11.1354L1.95281 11.0256H1.98284C2.01072 11.0256 2.01394 11.0213 2.02038 10.976C2.02359 10.948 2.02681 10.8996 2.02681 10.8684C2.02681 10.8113 2.02681 10.8102 2.05898 10.8102C2.09008 10.8102 2.09008 10.8102 2.0933 10.737L2.09651 10.6649L2.1319 10.6616L2.16622 10.6584V10.5561V10.4549H2.20375H2.24129V10.3795V10.3042H2.27346C2.30456 10.3042 2.30563 10.3031 2.30563 10.2525C2.30563 10.2245 2.30885 10.176 2.31206 10.1448C2.3185 10.0921 2.32064 10.0888 2.3496 10.0888C2.37962 10.0888 2.37962 10.0877 2.38284 10.0156L2.38606 9.94347L2.42038 9.94024L2.45576 9.93701V9.86702C2.45576 9.79811 2.45576 9.79811 2.48686 9.79811C2.51475 9.79811 2.51796 9.79488 2.5244 9.74858C2.52761 9.72058 2.53083 9.67213 2.53083 9.64091C2.53083 9.58384 2.5319 9.58277 2.56193 9.58277C2.59196 9.58277 2.59303 9.58061 2.60054 9.51278C2.60697 9.44495 2.60912 9.44279 2.63807 9.44279C2.66702 9.44279 2.6681 9.44064 2.67453 9.36742C2.68204 9.29313 2.68311 9.29205 2.71421 9.29205H2.74531V9.22206V9.15208H2.78284C2.8193 9.15208 2.82038 9.151 2.82038 9.10901C2.82038 9.0681 2.82252 9.06594 2.85255 9.06594C2.88365 9.06594 2.88365 9.06487 2.88686 8.99811C2.89008 8.93135 2.89008 8.93135 2.92547 8.92812L2.95979 8.92489V8.85598V8.78707L2.99517 8.78384L3.02949 8.78061L3.03271 8.7074L3.03592 8.63526H3.07239H3.10992V8.56527V8.49528H3.14209C3.17212 8.49528 3.17426 8.49205 3.17426 8.4576C3.17426 8.42207 3.17641 8.41991 3.2118 8.41991H3.24826L3.25147 8.34669L3.25469 8.27456L3.29008 8.27133L3.3244 8.2681V8.19811V8.1292H3.36193C3.39732 8.1292 3.39946 8.12704 3.39946 8.09151C3.39946 8.05706 3.40268 8.05383 3.43056 8.05383C3.46059 8.05383 3.46166 8.05168 3.46917 7.98384C3.4756 7.91493 3.47668 7.91386 3.50777 7.91386C3.53673 7.91386 3.53887 7.91063 3.53887 7.87617C3.53887 7.84172 3.54102 7.83849 3.56997 7.83849C3.60107 7.83849 3.60214 7.83741 3.60858 7.7685C3.61609 7.70067 3.61716 7.69851 3.64718 7.69851C3.67507 7.69851 3.67828 7.69528 3.67828 7.66083C3.67828 7.6253 3.68043 7.62314 3.71582 7.62314H3.75335V7.55316V7.48317H3.79088C3.82627 7.48317 3.82842 7.48102 3.82842 7.44656C3.82842 7.41211 3.83164 7.40888 3.86381 7.40565C3.89812 7.40242 3.89812 7.40242 3.90134 7.33566C3.90456 7.2689 3.90456 7.2689 3.93887 7.26567C3.9689 7.26244 3.97319 7.25813 3.97641 7.22691C3.97962 7.19676 3.98391 7.19246 4.0118 7.19246C4.04075 7.19246 4.0429 7.18923 4.0429 7.15477C4.0429 7.11924 4.04504 7.11709 4.08043 7.11709H4.11796V7.04818V6.97819L4.15335 6.97496C4.18338 6.97173 4.18767 6.96742 4.19088 6.9362C4.1941 6.90605 4.19839 6.90174 4.22627 6.90174C4.25523 6.90174 4.25737 6.89851 4.25737 6.86406C4.25737 6.82853 4.25952 6.82637 4.29491 6.82637C4.3303 6.82637 4.33244 6.82422 4.33244 6.78869C4.33244 6.75423 4.33458 6.751 4.36354 6.751C4.39464 6.751 4.39571 6.74993 4.40214 6.68102L4.40965 6.61103H4.44611C4.48043 6.61103 4.48257 6.60888 4.48257 6.57335C4.48257 6.53889 4.48472 6.53566 4.51367 6.53566C4.54155 6.53566 4.54584 6.53135 4.54906 6.50013C4.55228 6.46998 4.55657 6.46567 4.58767 6.46244C4.61877 6.45921 4.62198 6.45598 4.62198 6.42153C4.62198 6.38707 4.62413 6.38492 4.65952 6.38492C4.69491 6.38492 4.69705 6.38276 4.69705 6.34723C4.69705 6.31278 4.70027 6.30955 4.72815 6.30955C4.75818 6.30955 4.75925 6.3074 4.76676 6.24495C4.77426 6.1825 4.77533 6.18034 4.80536 6.18034C4.83324 6.18034 4.83646 6.17711 4.83646 6.14266C4.83646 6.10713 4.83861 6.10497 4.87399 6.10497C4.90938 6.10497 4.91153 6.10282 4.91153 6.06729C4.91153 6.03176 4.91367 6.0296 4.94906 6.0296C4.98445 6.0296 4.9866 6.02745 4.9866 5.99192C4.9866 5.95746 4.98874 5.95423 5.01769 5.95423C5.04558 5.95423 5.04987 5.94993 5.05308 5.9187C5.0563 5.88855 5.06059 5.88425 5.09169 5.88102C5.12172 5.87778 5.12601 5.87348 5.12601 5.84548C5.12601 5.81641 5.12922 5.81426 5.16354 5.81426C5.19893 5.81426 5.20107 5.81211 5.20107 5.77658C5.20107 5.74104 5.20322 5.73889 5.23861 5.73889C5.27399 5.73889 5.27614 5.73674 5.27614 5.7012C5.27614 5.66675 5.27828 5.66352 5.30724 5.66352C5.33512 5.66352 5.33941 5.65921 5.34263 5.62799C5.34584 5.59784 5.35013 5.59353 5.38016 5.5903C5.41019 5.58707 5.41448 5.58277 5.41769 5.55262C5.42091 5.52247 5.4252 5.51816 5.4563 5.51493C5.48633 5.5117 5.49062 5.50739 5.49062 5.4794C5.49062 5.45248 5.49491 5.44818 5.52172 5.44818C5.5496 5.44818 5.55389 5.44387 5.5571 5.41264C5.56032 5.3825 5.56461 5.37819 5.59464 5.37496C5.62466 5.37173 5.62895 5.36742 5.63217 5.33727C5.63539 5.30713 5.63968 5.30282 5.67078 5.29959C5.7008 5.29636 5.70509 5.29205 5.70509 5.26513C5.70509 5.23822 5.70938 5.23391 5.74048 5.23068C5.77051 5.22745 5.7748 5.22314 5.77802 5.19192C5.78123 5.16069 5.78445 5.15746 5.81877 5.15746C5.85308 5.15746 5.85523 5.15531 5.85523 5.11978C5.85523 5.08532 5.85737 5.08209 5.88633 5.08209C5.91421 5.08209 5.9185 5.07779 5.92172 5.04656C5.92493 5.01641 5.92922 5.01211 5.96032 5.00887C5.99035 5.00565 5.99464 5.00134 5.99464 4.97334C5.99464 4.94427 5.99786 4.94212 6.03217 4.94212C6.06756 4.94212 6.06971 4.93997 6.06971 4.90443C6.06971 4.8689 6.07185 4.86675 6.10724 4.86675C6.14263 4.86675 6.14477 4.8646 6.14477 4.82906C6.14477 4.79353 6.14692 4.79138 6.18231 4.79138C6.21662 4.79138 6.21984 4.78815 6.21984 4.76015C6.21984 4.73001 6.22198 4.72893 6.28418 4.72139C6.34638 4.71386 6.34853 4.71278 6.34853 4.68263C6.34853 4.65464 6.35174 4.65141 6.38606 4.65141C6.42145 4.65141 6.42359 4.64925 6.42359 4.61372C6.42359 4.57819 6.42574 4.57604 6.46005 4.57604C6.49437 4.57604 6.49759 4.57281 6.5008 4.5405C6.50402 4.51036 6.50831 4.50605 6.53941 4.50282C6.56944 4.49959 6.57373 4.49528 6.57373 4.46729C6.57373 4.43822 6.57694 4.43606 6.61126 4.43606C6.64665 4.43606 6.64879 4.43391 6.64879 4.39838V4.36069H6.7185H6.7882V4.32301C6.7882 4.28748 6.79035 4.28532 6.82574 4.28532C6.86113 4.28532 6.86327 4.28317 6.86327 4.24764C6.86327 4.21211 6.86542 4.20995 6.9008 4.20995C6.93512 4.20995 6.93834 4.2078 6.93834 4.17873C6.93834 4.15073 6.94263 4.14643 6.97373 4.1432C7.00375 4.13997 7.00804 4.13566 7.01126 4.10443L7.01448 4.06998H7.08418H7.15281V4.03229C7.15281 3.99676 7.15496 3.99461 7.19035 3.99461C7.22466 3.99461 7.22788 3.99246 7.22788 3.96338C7.22788 3.93216 7.22895 3.93108 7.29759 3.92462C7.36515 3.91709 7.36729 3.91601 7.36729 3.88586C7.36729 3.86002 7.37158 3.85571 7.40268 3.85248C7.43271 3.84925 7.437 3.84495 7.44021 3.81372C7.44343 3.7825 7.44665 3.77927 7.48097 3.77927C7.51421 3.77927 7.51743 3.77604 7.51743 3.74804C7.51743 3.71682 7.5185 3.71574 7.58713 3.70928L7.65684 3.70174V3.66513C7.65684 3.63068 7.65898 3.62852 7.69437 3.62852C7.72869 3.62852 7.7319 3.62637 7.7319 3.59622V3.56392H7.80161H7.87131V3.52624C7.87131 3.49071 7.87346 3.48855 7.90885 3.48855C7.94316 3.48855 7.94638 3.48532 7.94638 3.45733C7.94638 3.42718 7.94853 3.4261 8.01609 3.41857C8.08365 3.41211 8.08579 3.40995 8.08579 3.38088C8.08579 3.35181 8.08794 3.35073 8.1555 3.34319C8.22413 3.33673 8.2252 3.33566 8.2252 3.30443C8.2252 3.27536 8.22735 3.27321 8.2681 3.27321C8.30992 3.27321 8.31099 3.27213 8.31099 3.23553V3.19784H8.37962H8.44933L8.45255 3.16231C8.45576 3.12785 8.45576 3.12785 8.52332 3.12462C8.58874 3.12139 8.58981 3.12139 8.58981 3.09017C8.58981 3.06217 8.5941 3.05894 8.63056 3.05571C8.66702 3.05248 8.67024 3.04925 8.67346 3.01695L8.67668 2.9825H8.74638H8.81501V2.94481V2.90713H8.88365H8.95335L8.95657 2.87159L8.95979 2.83714L9.03271 2.83391C9.10349 2.83068 9.10456 2.83068 9.10456 2.80053C9.10456 2.77038 9.1067 2.76931 9.17426 2.76177C9.2429 2.75531 9.24397 2.75423 9.24397 2.72301V2.69178H9.3126H9.38231L9.38552 2.65625L9.38874 2.6218L9.46166 2.61857C9.53244 2.61534 9.53351 2.61534 9.53351 2.58519C9.53351 2.55504 9.53458 2.55396 9.60858 2.54643C9.68257 2.53889 9.68365 2.53889 9.68365 2.50766V2.47644H9.75335H9.82306V2.43876V2.40107H9.89812H9.97319V2.36984C9.97319 2.34185 9.97641 2.33862 10.0225 2.33216C10.0504 2.32893 10.0987 2.3257 10.1298 2.3257C10.1866 2.3257 10.1877 2.32462 10.1877 2.29447C10.1877 2.26325 10.1887 2.26217 10.2574 2.25571C10.3249 2.24817 10.3271 2.2471 10.3271 2.21695V2.18573H10.4343H10.5416V2.14804V2.11036H10.6166H10.6917V2.07913C10.6917 2.05006 10.6949 2.04791 10.7485 2.04145C10.7786 2.03822 10.8268 2.03499 10.8558 2.03499C10.9051 2.03499 10.9062 2.03391 10.9062 2.00268C10.9062 1.97146 10.9072 1.97038 10.9576 1.97038C10.9855 1.97038 11.0338 1.96715 11.0649 1.96392C11.1174 1.95746 11.1206 1.95531 11.1206 1.92624C11.1206 1.89609 11.1217 1.89501 11.1786 1.89501C11.2097 1.89501 11.2579 1.89178 11.2858 1.88855C11.3319 1.88209 11.3351 1.87886 11.3351 1.85087V1.81964H11.4102H11.4853V1.78842C11.4853 1.75935 11.4885 1.75719 11.5421 1.75073C11.5721 1.7475 11.6375 1.74427 11.6869 1.74427H11.7748V1.71197C11.7748 1.67967 11.7759 1.67967 11.8316 1.67967C11.8617 1.67967 11.9131 1.67644 11.9442 1.67321C11.9968 1.66675 12 1.66459 12 1.63552V1.6043H12.1394H12.2788V1.57307C12.2788 1.544 12.282 1.54185 12.3357 1.53539C12.3657 1.53216 12.4311 1.52893 12.4804 1.52893H12.5684V1.49663V1.46433H12.6359C12.6735 1.46433 12.756 1.4611 12.8182 1.45679L12.933 1.45033V1.4191V1.38896H13.0542C13.1196 1.38896 13.2 1.38573 13.2311 1.3825C13.2836 1.37604 13.2869 1.37388 13.2869 1.34481V1.31359H13.4692H13.6515V1.28236C13.6515 1.25329 13.6547 1.25114 13.7083 1.24468C13.7383 1.24145 13.852 1.23822 13.9603 1.23822H14.1555V1.20807V1.17684L14.4214 1.17038C14.5673 1.16608 14.7475 1.16285 14.8236 1.16285H14.9598V1.13054V1.09824H15.9678H16.9759V1.13054Z" fill="#8457FF"/>
<path id="Vector_2" d="M8.31104 13.4267V18.5734H10.874H13.437V21.1079V23.6415L13.4864 23.649C13.5143 23.6522 15.821 23.6555 18.6124 23.6555H23.6891V18.5411V13.4267H21.0949H18.5019L18.4944 13.3696C18.4912 13.3394 18.488 12.1809 18.488 10.7962V8.27995H13.3995H8.31104V13.4267ZM17.6301 15.9623V17.6258H15.9679H14.3057V15.9623V14.2988H15.9679H17.6301V15.9623Z" fill="#8457FF"/>
</g>
</g>
<defs>
<clipPath id="clip0_766_3182">
<rect width="32" height="32" fill="white"/>
</clipPath>
</defs>
</svg>
