<svg width="30" height="32" viewBox="0 0 30 32" fill="none" xmlns="http://www.w3.org/2000/svg">
<g id="svg_1">
<path id="svg_2" d="M12.7968 0.0953827C8.91065 0.721127 5.8725 2.47485 3.2131 5.62826L2.77673 6.14697H1.42644C0.603096 6.14697 0.0761549 6.1799 0.0761549 6.2293C0.0761549 6.27047 0.372559 6.81388 0.734831 7.43139C1.0971 8.04889 1.39351 8.58407 1.39351 8.617C1.39351 8.65817 1.2453 9.04514 1.06417 9.48975C0.701897 10.4037 0.389026 11.4987 0.18319 12.6102C-0.03088 13.7464 -0.00617963 16.4141 0.224357 17.6903C0.965367 21.7082 3.29543 25.265 6.66291 27.5045C8.49074 28.7231 10.5162 29.4888 12.978 29.9087L13.8095 30.0487L14.3694 31.0285C14.6823 31.5636 14.954 32 14.9787 32C15.0034 32 15.2833 31.5636 15.588 31.0285C15.9008 30.5015 16.189 30.0404 16.2384 30.0157C16.2796 29.9828 16.5431 29.9334 16.823 29.9087C17.0947 29.8758 17.7451 29.7605 18.2638 29.6452C21.689 28.8795 24.8012 26.8953 26.8843 24.1371C28.9097 21.453 29.9636 18.3489 29.9636 15.0391C29.9636 13.1948 29.6919 11.7128 28.992 9.71205L28.5804 8.53467L29.2308 7.40669C29.5848 6.78094 29.8812 6.24577 29.8812 6.21284C29.8812 6.17167 29.2637 6.14697 28.498 6.14697H27.123L26.6949 5.58709C26.2009 4.94489 24.793 3.55343 24.0767 3.01003C22.3312 1.67621 20.2316 0.729359 17.9921 0.25182C17.1441 0.0706825 16.7324 0.0377502 15.2669 0.00481606C14.0236 -0.0116501 13.332 0.0130482 12.7968 0.0953827ZM17.7781 1.19867C19.6388 1.61034 21.6066 2.46662 23.0475 3.4958C23.7803 4.02274 25.8468 5.97407 25.8468 6.14697C25.8468 6.2293 18.6179 6.31164 18.5026 6.2293C18.4697 6.2046 18.9802 6.007 19.6388 5.77646C20.2893 5.55416 20.8162 5.33186 20.7997 5.28246C20.7503 5.12602 19.3918 4.26151 18.5602 3.84984C14.0566 1.6268 8.57307 2.31841 4.76922 5.57886L4.15171 6.1058L4.51398 5.66943C4.71159 5.42242 5.18089 4.95312 5.54316 4.61555C7.68386 2.64775 10.1951 1.48684 13.3732 1.0093C13.5131 0.99283 14.3777 0.984596 15.308 1.00106C16.6501 1.02576 17.1606 1.06693 17.7781 1.19867ZM5.9219 7.20085C5.9219 7.24202 5.81487 7.37375 5.6749 7.50549C5.54316 7.63722 5.4279 7.77719 5.4279 7.81836C5.4279 7.91716 6.90992 10.5025 7.00048 10.5519C7.03342 10.5766 7.43686 9.88495 7.89793 9.02868C8.36724 8.16416 8.76244 7.48079 8.78714 7.50549C8.81184 7.53019 8.96828 7.90893 9.13295 8.35353C9.29762 8.78991 9.92336 10.486 10.5326 12.1162C11.1337 13.7464 11.6606 15.1132 11.7018 15.1544C11.7347 15.2038 11.7677 13.6723 11.7677 11.7539V8.2712L11.2654 7.70309L10.7632 7.13498H12.6239H14.4847V18.0196C14.4847 24.3841 14.4518 28.8713 14.4106 28.8219C14.3694 28.7807 13.7601 27.7515 13.0521 26.5248L11.7594 24.3017L10.0222 18.95C9.06708 16.0106 8.2602 13.5653 8.2355 13.5324C8.20257 13.4994 7.88146 13.9934 7.52743 14.6274C7.17339 15.2696 6.85228 15.7554 6.81935 15.7225C6.74525 15.6484 6.71231 15.5907 3.97058 10.7989C2.90846 8.93811 2.00278 7.39022 1.96161 7.34082C1.92045 7.29965 1.88751 7.23378 1.88751 7.20085C1.88751 7.16792 2.79319 7.13498 3.90471 7.13498C5.01622 7.13498 5.9219 7.16792 5.9219 7.20085ZM28.0452 7.23378C27.9793 7.40669 22.7181 16.4717 22.6358 16.554C22.5946 16.5952 21.549 16.2329 20.1658 15.6978C18.8484 15.1873 17.7534 14.7921 17.7287 14.8086C17.7122 14.8333 17.704 16.1588 17.7122 17.7561L17.7369 20.6625L18.799 18.8182C19.3754 17.8055 19.8858 16.941 19.927 16.8999C19.9682 16.8505 20.4128 16.9822 21.0303 17.221L22.0595 17.6162L21.8701 17.9537C21.6972 18.2584 20.9809 19.4934 16.93 26.4836C16.2137 27.7268 15.588 28.7807 15.5468 28.8219C15.5056 28.8713 15.4727 25.4544 15.4727 20.2426C15.4727 15.352 15.5056 11.581 15.5468 11.581C15.588 11.581 16.963 12.0998 18.6096 12.7337C20.2563 13.3677 21.6231 13.8535 21.656 13.8205C21.7301 13.7464 24.1178 9.61325 24.1755 9.46505C24.2084 9.37448 23.6238 9.35801 20.9562 9.35801H17.6957V10.2719C17.6957 11.1035 17.6793 11.1776 17.5558 11.1364C17.4734 11.1117 16.9794 10.9224 16.4607 10.7248L15.5139 10.3625L15.4892 8.74874L15.4727 7.13498H21.7795C26.7937 7.13498 28.0781 7.15968 28.0452 7.23378ZM3.75651 12.5114C4.62925 14.0593 5.4526 15.5249 5.59257 15.7554C5.73253 15.9942 5.8231 16.1918 5.80663 16.1918C5.78193 16.1918 5.32909 15.8048 4.79392 15.3355C3.82237 14.471 3.82237 14.471 3.74827 14.6933C3.61654 15.1297 3.64947 17.9043 3.80591 18.7441C4.61278 23.0585 7.46156 26.5495 11.5618 28.262C12.1464 28.5008 12.3522 28.6161 12.1464 28.5831C11.0596 28.402 9.10001 27.6363 7.90616 26.9364C2.66969 23.816 0.059688 17.715 1.44291 11.828C1.64874 10.9553 2.05218 9.68735 2.13452 9.68735C2.15922 9.68735 2.89199 10.9553 3.75651 12.5114ZM28.6627 12.4456C28.9344 13.7629 28.9262 16.1588 28.6627 17.5091C27.6335 22.6139 24.159 26.5824 19.3177 28.1632C18.3956 28.4679 16.9959 28.7725 16.9053 28.6902C16.8806 28.6572 17.4817 27.5869 18.2391 26.3025C18.9966 25.018 19.8447 23.5936 20.1164 23.1326C20.3881 22.6715 20.6268 22.301 20.6433 22.3175C20.6598 22.3422 20.561 22.8938 20.421 23.5525C20.281 24.2194 20.1658 24.771 20.1658 24.7957C20.1658 24.9933 21.8042 24.1947 22.8334 23.4948C23.7638 22.8609 25.1223 21.56 25.8139 20.6378C26.8513 19.2464 27.6253 17.5668 28.0452 15.7883C28.3004 14.7015 28.391 12.5608 28.2428 11.4905C28.1851 11.1117 28.1275 10.6836 28.1028 10.5519C28.0369 10.0496 28.4898 11.5728 28.6627 12.4456Z" fill="#24201F"/>
</g>
</svg>
