<svg width="32" height="32" viewBox="0 0 32 32" fill="none" xmlns="http://www.w3.org/2000/svg">
<g id="Frame">
<path id="Vector" d="M23.1009 13.1711L23.13 13.1595C23.2167 13.1247 23.2804 13.1057 23.3305 13.0998L23.3855 13.091C23.4984 13.0692 23.6149 13.0584 23.7314 13.0584C24.4322 13.0584 25.0173 12.8537 25.4237 12.4665C25.716 12.1877 25.9 11.826 25.9643 11.4072L26 11.4076V9H21.7202V10.7419C21.7098 10.8674 21.7107 10.9829 21.7116 11.0851C21.7125 11.1974 21.7132 11.3035 21.6987 11.3839L21.6947 11.4095C21.6463 11.7498 21.4709 12.0656 21.2009 12.2989C20.9244 12.538 20.795 12.5905 20.7524 12.6018C20.7095 12.6133 20.6472 12.608 20.467 12.5852C20.3117 12.5655 20.0988 12.5386 19.8392 12.5386C18.73 12.5386 17.8004 13.3237 17.6767 14.3655C17.6491 14.6024 17.6647 14.7796 17.676 14.9087C17.6887 15.0523 17.6925 15.0957 17.6394 15.2387C17.5342 15.5197 17.3103 15.7806 17.0089 15.9729C16.7075 16.1652 16.3605 16.2713 16.0323 16.2713L16.0002 16.2709L15.9681 16.2713C15.6399 16.2713 15.2929 16.1654 14.9916 15.9729C14.69 15.7806 14.466 15.5197 14.3613 15.2393C14.3079 15.0957 14.3116 15.0521 14.3245 14.9083C14.3358 14.7791 14.3513 14.6022 14.3238 14.3646C14.2003 13.3235 13.2707 12.5384 12.1615 12.5384C11.9019 12.5384 11.689 12.5653 11.5326 12.5852C11.3538 12.6078 11.2912 12.6131 11.2483 12.6016C11.2057 12.5901 11.0763 12.5378 10.7998 12.2985C10.5298 12.0654 10.3546 11.7495 10.306 11.4093L10.302 11.3837C10.295 11.3446 10.2916 11.2996 10.29 11.2507V9H6.00926V11.0407C6.00429 11.6155 6.20047 12.1086 6.57613 12.4667C6.98225 12.8539 7.56741 13.0584 8.26815 13.0584C8.38464 13.0584 8.50091 13.0695 8.61423 13.0912L8.66909 13.0998C8.71899 13.106 8.78265 13.125 8.87001 13.1597L8.89869 13.1711C9.18878 13.2795 9.44298 13.4611 9.63374 13.6965C10.1033 14.2754 10.1047 15.0854 9.63735 15.666C9.48429 15.8563 9.28517 16.0152 9.0619 16.1255L9.04181 16.1358C8.98063 16.1673 8.926 16.1908 8.87588 16.2072C8.85353 16.2145 8.83344 16.2205 8.8147 16.2256L8.79348 16.2316C8.62462 16.2828 8.44785 16.3086 8.26838 16.3086C6.91159 16.3086 6 17.0975 6 18.2716C6 19.1882 6.44202 19.6637 6.81271 19.9013C7.26513 20.1911 7.81077 20.2733 8.33317 20.3185L8.36929 20.3224C8.5079 20.3395 8.62484 20.3663 8.75917 20.412L8.82396 20.4353L8.83502 20.4392C9.18674 20.5527 9.48136 20.7847 9.6649 21.0927C9.76852 21.2667 9.84031 21.4944 9.86694 21.7336C9.87733 21.8278 9.88433 21.9189 9.8911 22.009C9.89629 22.0775 9.90216 22.1544 9.91007 22.2316V23.9993H14.1899V21.6389L14.1597 21.6385C14.0892 21.1845 13.8612 20.7687 13.5005 20.4458C13.4686 20.4176 13.4393 20.3937 13.4158 20.3747L13.4013 20.363C12.9408 19.9856 12.3419 19.9756 11.9044 19.9681H11.8996C11.8265 19.9668 11.7572 19.9655 11.696 19.9628L11.6303 19.9531L11.4897 19.9235L11.3571 19.8848L11.2142 19.8311C11.0646 19.7668 10.9248 19.6832 10.8009 19.5835L10.7731 19.5608C10.3772 19.2261 10.1807 18.8136 10.1726 18.2998C10.1737 17.9327 10.2979 17.5848 10.5318 17.2935C10.7598 17.0096 11.0829 16.7983 11.4414 16.6984C11.8044 16.5974 12.4814 16.5949 12.8079 16.6935C13.4027 16.873 13.8249 17.3891 13.858 17.9777C13.8608 18.0264 13.8587 18.0774 13.8565 18.1372C13.8497 18.3098 13.8404 18.5463 13.9459 18.8454C14.2441 19.6774 15.069 20.2385 16.0009 20.2419C16.9304 20.2385 17.755 19.6771 18.0539 18.8439C18.1589 18.5466 18.1496 18.3101 18.1428 18.1366C18.1406 18.0774 18.1386 18.0264 18.1413 17.978C18.1745 17.3893 18.5966 16.873 19.1915 16.6937C19.518 16.5951 20.1948 16.5976 20.5578 16.6986C20.9165 16.7987 21.2398 17.01 21.4676 17.2939C21.7014 17.5852 21.8256 17.9332 21.8267 18.3003C21.8186 18.814 21.6222 19.2266 21.226 19.5615L21.2007 19.5822C21.0747 19.6833 20.9348 19.7672 20.7851 19.8315L20.6424 19.8852L20.5099 19.9239L20.3948 19.9491L20.3036 19.9632C20.2426 19.9659 20.1731 19.9672 20.0999 19.9685H20.0952C19.6577 19.976 19.0587 19.986 18.5994 20.3625L18.5835 20.3756C18.5601 20.3946 18.531 20.4182 18.4984 20.447C18.151 20.758 17.9266 21.1569 17.8483 21.593H17.8099V24H22.0897V22.2323C22.0976 22.1552 22.1035 22.0782 22.1087 22.0096C22.1155 21.9211 22.1225 21.8295 22.1329 21.7347C22.1595 21.495 22.2312 21.2673 22.3349 21.0933C22.5185 20.7856 22.8131 20.5536 23.1648 20.4398L23.2406 20.4127C23.3749 20.3672 23.4919 20.3403 23.6307 20.323L23.6666 20.3192C24.189 20.2739 24.7346 20.1917 25.1871 19.9019C25.8589 19.4716 25.9998 18.7782 25.9998 18.2723C25.9998 17.0982 25.0882 16.3093 23.7314 16.3093C23.5519 16.3093 23.3752 16.2833 23.2063 16.2322L23.1851 16.2262C23.1663 16.2211 23.1463 16.2151 23.1252 16.2083C23.0738 16.1916 23.0192 16.168 22.9566 16.1358L22.9379 16.1261C22.7146 16.0158 22.5155 15.857 22.3622 15.6666C21.8949 15.0861 21.8963 14.276 22.3659 13.6972C22.5566 13.462 22.8108 13.2801 23.1009 13.1719V13.1711Z" fill="black"/>
</g>
</svg>
