<svg width="32" height="32" viewBox="0 0 32 32" fill="none" xmlns="http://www.w3.org/2000/svg">
<g id="Frame 513383">
<path id="Vector" d="M23.869 6C23.1283 6 22.4406 6.38405 22.0525 7.01539L17.872 13.2222C17.7358 13.4268 17.7911 13.7026 17.9957 13.8387C18.1615 13.9493 18.3808 13.9356 18.5318 13.8057L22.6468 10.2365C22.7152 10.1749 22.8206 10.1812 22.8821 10.2496C22.9101 10.2809 22.9249 10.3214 22.9249 10.363V21.5379C22.9249 21.6302 22.8502 21.7043 22.7579 21.7043C22.7084 21.7043 22.6616 21.6826 22.6303 21.6444L10.1913 6.75442C9.78622 6.27635 9.19136 6.00057 8.56517 6H8.13042C6.95382 6 6 6.95385 6 8.13048V23.8695C6 25.0462 6.95382 26 8.13042 26C8.87114 26 9.55887 25.616 9.9469 24.9846L14.1274 18.7778C14.2636 18.5732 14.2083 18.2974 14.0038 18.1613C13.838 18.0507 13.6186 18.0644 13.4676 18.1943L9.35261 21.7635C9.28424 21.8251 9.17883 21.8188 9.11729 21.7504C9.08937 21.7191 9.07456 21.6786 9.07513 21.637V10.4593C9.07513 10.367 9.14977 10.2929 9.24207 10.2929C9.29107 10.2929 9.33837 10.3145 9.3697 10.3527L21.807 25.2456C22.2121 25.7236 22.8069 25.9994 23.4331 26H23.8679C25.0445 26.0006 25.9989 25.0473 26 23.8707V8.13048C26 6.95385 25.0462 6 23.8696 6H23.869Z" fill="black"/>
</g>
</svg>
