<svg width="20" height="20" viewBox="0 0 20 20" fill="none" xmlns="http://www.w3.org/2000/svg">
<g id="Profile-Logo 1" clip-path="url(#clip0_8402_7183)">
<path id="Vector" d="M10 20C15.5228 20 20 15.5228 20 10C20 4.47715 15.5228 0 10 0C4.47715 0 0 4.47715 0 10C0 15.5228 4.47715 20 10 20Z" fill="black"/>
<path id="Vector_2" d="M7.08507 12.6579C6.48963 12.6579 6.00179 12.5177 5.62151 12.2375C5.24623 11.9523 5.05859 11.5471 5.05859 11.0217C5.05859 10.9116 5.07111 10.7765 5.09611 10.6163C5.16119 10.2561 5.25375 9.82327 5.37383 9.31791C5.71407 7.94191 6.59223 7.25391 8.00827 7.25391C8.39355 7.25391 8.73879 7.31895 9.04403 7.44903C9.34927 7.57411 9.58943 7.76427 9.76455 8.01947C9.93967 8.26963 10.0273 8.56987 10.0273 8.92011C10.0273 9.02519 10.0148 9.15779 9.98971 9.31791C9.91467 9.76323 9.82459 10.1961 9.71951 10.6163C9.54439 11.3019 9.24167 11.8147 8.81135 12.155C8.38103 12.4902 7.80563 12.6579 7.08507 12.6579ZM7.19015 11.5771C7.47039 11.5771 7.70803 11.4945 7.90319 11.3294C8.10335 11.1643 8.24595 10.9116 8.33099 10.5713C8.44607 10.101 8.53367 9.69067 8.59371 9.34043C8.61371 9.23535 8.62371 9.12779 8.62371 9.01767C8.62371 8.56235 8.38603 8.33467 7.91071 8.33467C7.63047 8.33467 7.39031 8.41723 7.19015 8.58235C6.99503 8.74751 6.85491 9.00019 6.76987 9.34043C6.67979 9.67567 6.58971 10.086 6.49967 10.5713C6.47963 10.6714 6.46963 10.7765 6.46963 10.8865C6.46963 11.3469 6.70983 11.5771 7.19015 11.5771Z" fill="white"/>
<path id="Vector_3" d="M10.3722 12.582C10.3171 12.582 10.2746 12.5645 10.2446 12.5294C10.2195 12.4894 10.2121 12.4444 10.2221 12.3944L11.2578 7.51576C11.2678 7.46072 11.2953 7.41568 11.3404 7.38064C11.3854 7.34564 11.4329 7.32812 11.483 7.32812H13.4795C14.0349 7.32812 14.4802 7.4432 14.8154 7.67336C15.1557 7.90356 15.3258 8.23628 15.3258 8.6716C15.3258 8.79668 15.3108 8.9268 15.2808 9.06188C15.1557 9.63732 14.903 10.0626 14.5227 10.3378C14.1475 10.613 13.6321 10.7506 12.9766 10.7506H11.9633L11.6181 12.3944C11.6081 12.4494 11.5805 12.4944 11.5355 12.5294C11.4905 12.5645 11.4429 12.582 11.3929 12.582H10.3722ZM13.0291 9.71488C13.2393 9.71488 13.4219 9.65732 13.577 9.54224C13.7371 9.42716 13.8422 9.26204 13.8923 9.04688C13.9073 8.9618 13.9148 8.88676 13.9148 8.82172C13.9148 8.6766 13.8723 8.56652 13.7872 8.49148C13.7021 8.4114 13.557 8.3714 13.3519 8.3714H12.4512L12.166 9.71488H13.0291Z" fill="white"/>
</g>
<defs>
<clipPath id="clip0_8402_7183">
<rect width="20" height="20" fill="white"/>
</clipPath>
</defs>
</svg>
