<svg width="18" height="20" viewBox="0 0 18 20" fill="none" xmlns="http://www.w3.org/2000/svg">
<g id="Layer_1" clip-path="url(#clip0_8402_7191)">
<path id="Vector" d="M16.9535 4.41879L9.6669 0.211954C9.17755 -0.0706513 8.56967 -0.0706513 8.08033 0.211954L0.793286 4.41879C0.303943 4.70139 0 5.22772 0 5.79293V14.2071C0 14.7723 0.303943 15.2986 0.793286 15.5812L8.08033 19.7885C8.325 19.9298 8.59907 20.0005 8.87361 20.0005C9.14815 20.0005 9.42222 19.9298 9.6669 19.7885L16.9539 15.5812C17.4433 15.2986 17.7472 14.7723 17.7472 14.2071V5.79293C17.7472 5.22772 17.4433 4.70139 16.9539 4.41879H16.9535ZM9.03198 18.6884C8.9343 18.7449 8.81292 18.7449 8.71524 18.6884L1.4282 14.4816C1.33052 14.4252 1.26983 14.3199 1.26983 14.2071V8.13343H8.87361C9.35916 8.13343 9.80251 8.31978 10.1349 8.62562C10.5067 8.96702 10.7404 9.45684 10.7404 10.0002C10.7404 10.5436 10.5067 11.0335 10.1349 11.3749H11.6921C11.8955 10.9595 12.0098 10.4929 12.0098 10.0002C12.0098 9.50757 11.8955 9.04099 11.6921 8.62562C11.6072 8.45207 11.5067 8.28754 11.3919 8.13343C10.8201 7.36338 9.90398 6.86361 8.87314 6.86361H1.26983V6.37189H8.87361C10.1918 6.37189 11.3483 7.07888 11.9837 8.13343C12.078 8.28991 12.161 8.45444 12.2312 8.62562C12.4057 9.04953 12.502 9.51421 12.502 10.0002C12.502 10.4863 12.4057 10.9505 12.2312 11.3749H13.5769C13.7054 10.9339 13.7713 10.472 13.7713 10.0002C13.7713 8.692 13.262 7.46201 12.3369 6.5369C11.4118 5.6118 10.1818 5.10254 8.87361 5.10254H2.14941L8.71524 1.31155C8.76408 1.28358 8.81861 1.26935 8.87361 1.26935C8.92861 1.26935 8.98314 1.28358 9.03198 1.31155L16.319 5.51839C16.4167 5.57481 16.4774 5.68008 16.4774 5.79293V11.8666H8.87361C8.38806 11.8666 7.94471 11.6802 7.61232 11.3744C7.24057 11.033 7.0068 10.5432 7.0068 9.99976C7.0068 9.45636 7.24057 8.96655 7.61232 8.62514H6.05515C5.85173 9.04052 5.73745 9.5071 5.73745 9.99976C5.73745 11.7291 7.14431 13.1359 8.87361 13.1359H16.4774V13.6281H8.87361C6.87309 13.6281 5.24526 12.0003 5.24526 9.99976C5.24526 9.51374 5.34152 9.04953 5.51554 8.62514H4.16985C4.04135 9.06612 3.97496 9.52796 3.97496 9.99976C3.97496 11.308 4.48422 12.538 5.40933 13.4631C6.33443 14.3882 7.56443 14.8979 8.87266 14.8979H15.5964L9.03104 18.6884H9.03198Z" fill="black"/>
</g>
<defs>
<clipPath id="clip0_8402_7191">
<rect width="17.7467" height="20" fill="white"/>
</clipPath>
</defs>
</svg>
