<svg width="33" height="32" viewBox="0 0 33 32" fill="none" xmlns="http://www.w3.org/2000/svg">
<g id="Frame 513383">
<path id="Vector" d="M24.6178 16.6141C24.8975 16.3383 25.0757 15.9369 24.9675 15.4029C24.8765 14.9563 24.4992 14.5828 24.062 14.5409C23.7718 14.5131 23.5271 14.5898 23.2614 14.7293C23.2614 14.7293 22.5693 14.328 21.6289 13.78C22.5062 13.2704 23.3417 12.7889 23.9884 12.4154C24.1387 12.328 24.394 12.1536 24.6178 11.9338C24.8975 11.6581 25.0757 11.2567 24.9675 10.7227C24.8765 10.2761 24.4992 9.90255 24.062 9.86075C23.7718 9.83287 23.5271 9.90952 23.2614 10.0491C23.2614 10.0491 16.5358 6.14031 16.4556 6.09477C16.3715 6.04949 16.2913 6.00743 16.1864 6.00046C16.0675 5.9935 15.959 6.06666 15.8718 6.11568C13.051 7.75629 9.83133 9.62684 7.40551 11.0333C7.33198 11.0751 7.2622 11.1206 7.19216 11.1659C7.09072 11.2321 7.00698 11.3195 7.00698 11.4416C7.00698 11.5638 7.09097 11.6405 7.16076 11.693C7.22705 11.7383 7.25522 11.7557 7.39504 11.836C7.93339 12.1501 9.3002 12.9424 10.7368 13.7765C9.5447 14.4675 8.40519 15.1307 7.40202 15.7135C7.32849 15.7553 7.25871 15.8008 7.18867 15.8461C7.08723 15.9123 7.00349 15.9997 7.00349 16.1218C7.00349 16.244 7.08748 16.3207 7.15727 16.3732C7.22357 16.4185 7.25173 16.4359 7.39155 16.5163C7.9299 16.8303 9.29672 17.6226 10.7333 18.4568C9.54121 19.1478 8.40171 19.8109 7.39853 20.3937C7.325 20.4355 7.25522 20.4811 7.18518 20.5263C7.08374 20.5925 7 20.6798 7 20.8021C7 20.9243 7.08399 21.0008 7.15378 21.0534C7.22008 21.0987 7.24824 21.1161 7.38806 21.1965C8.48221 21.8318 12.9425 24.4212 14.5681 25.3705C14.7288 25.4649 15.068 25.6602 15.2427 25.7406C15.5713 25.8941 15.9907 26.0268 16.3404 25.9954C16.8474 25.9536 17.2038 25.7127 17.6758 25.437C19.3257 24.4772 22.3004 22.7463 23.9889 21.7723C24.1392 21.6849 24.3945 21.5105 24.6183 21.2908C24.898 21.0151 25.0762 20.6137 24.968 20.0797C24.877 19.633 24.4997 19.2595 24.0625 19.2177C23.7723 19.1898 23.5276 19.2664 23.2619 19.4061C23.2619 19.4061 22.5698 19.0047 21.6294 18.4568C22.5067 17.9471 23.3422 17.4656 23.9889 17.0921C24.1357 17.0117 24.3905 16.8373 24.6178 16.6141ZM7.83544 11.4416C7.83893 11.3578 7.87732 11.316 7.93688 11.2811L15.9663 6.61834C16.0991 6.54145 16.2669 6.54145 16.3997 6.61834L22.7931 10.3283C22.7931 10.3283 18.116 13.0472 16.3892 14.0453C16.2494 14.1256 15.9837 14.2931 15.8858 14.3768C15.7599 14.4815 15.6689 14.6176 15.6236 14.7851C15.5361 15.127 15.6936 15.3923 15.8788 15.497C16.1549 15.6505 16.3753 15.5388 16.3718 15.3992C16.1657 15.3223 16.1165 15.1583 16.1445 14.9873C16.1724 14.8373 16.2878 14.7221 16.473 14.6943C16.7456 14.6524 16.9939 14.8234 17.0602 15.1758C17.1265 15.5177 16.9973 15.811 16.7736 15.975C16.3157 16.31 15.7178 16.1355 15.3053 15.8947C14.9277 15.6747 9.35578 12.4395 7.94012 11.6158C7.8808 11.5775 7.83195 11.5252 7.83544 11.4416ZM22.7896 19.6888C22.7896 19.6888 18.1124 22.4076 16.3857 23.4057C16.2459 23.4861 15.9802 23.6535 15.8823 23.7372C15.7565 23.8419 15.6655 23.978 15.6201 24.1455C15.5326 24.4874 15.6901 24.7527 15.8753 24.8574C16.1515 25.0109 16.3718 24.8993 16.3683 24.7596C16.1622 24.6828 16.1131 24.5188 16.141 24.3478C16.169 24.1978 16.2843 24.0825 16.4695 24.0547C16.7422 24.0129 16.9904 24.1839 17.0567 24.5362C17.123 24.8781 16.9939 25.1714 16.7701 25.3354C16.3123 25.6704 15.7143 25.4959 15.3018 25.2551C14.9242 25.0351 9.3523 21.7999 7.93663 20.9763C7.87732 20.9414 7.82821 20.8924 7.8317 20.8088C7.83519 20.7249 7.87358 20.6831 7.93314 20.6483L11.2086 18.7461C11.0548 18.6553 13.7463 20.2225 14.5643 20.7005C14.7251 20.7948 15.0643 20.9902 15.239 21.0706C15.5675 21.2241 15.987 21.3568 16.3366 21.3253C16.8436 21.2836 17.2 21.0427 17.6721 20.767C18.6857 20.1772 21.3039 18.6556 21.1502 18.7461L22.7896 19.6888ZM16.3857 18.7255C16.2459 18.8058 15.9802 18.9733 15.8823 19.0569C15.7565 19.1617 15.6655 19.2978 15.6201 19.4653C15.5326 19.8072 15.6901 20.0724 15.8753 20.1772C16.1515 20.3308 16.3718 20.219 16.3683 20.0794C16.1622 20.0025 16.1131 19.8385 16.141 19.6676C16.169 19.5175 16.2843 19.4023 16.4695 19.3744C16.7422 19.3327 16.9904 19.5036 17.0567 19.8559C17.123 20.1978 16.9939 20.4913 16.7701 20.6553C16.3123 20.9902 15.7143 20.8158 15.3018 20.5748C14.9242 20.3549 9.3523 17.1197 7.93663 16.296C7.87732 16.2612 7.82821 16.2122 7.8317 16.1286C7.83519 16.0447 7.87358 16.0029 7.93314 15.9681L11.2086 14.0659C12.5228 14.8303 13.8338 15.5911 14.5643 16.0203C14.7251 16.1146 15.0643 16.31 15.239 16.3903C15.5675 16.5438 15.987 16.6765 16.3366 16.6452C16.8436 16.6033 17.2 16.3625 17.6721 16.0868C18.6822 15.5005 21.2969 13.9788 21.1502 14.0659L22.7896 15.0153C22.7896 15.0083 18.1124 17.7273 16.3857 18.7255Z" fill="black"/>
</g>
</svg>
