<svg width="20" height="13" viewBox="0 0 20 13" fill="none" xmlns="http://www.w3.org/2000/svg">
<g id="Frame" clip-path="url(#clip0_8402_7218)">
<path id="Vector" d="M18.4993 3.17323C18.4993 3.17323 17.2525 2.33986 15.4619 2.33986C10.9708 2.33986 8.32733 8.54725 4.28153 8.54725C2.04234 8.54725 0.00390625 6.67915 0.00390625 4.3504C0.00390625 2.02166 1.81052 -0.00079125 4.6008 0.00743C5.60158 -0.0092875 8.35533 0.00743 8.35533 0.00743L7.13398 2.34297C7.13398 2.34297 5.60133 2.32089 4.6008 2.34297C3.3903 2.34646 2.40746 3.12205 2.40746 4.3504C2.40746 5.4508 3.46482 6.1906 4.28153 6.1929C7.13398 6.1929 9.68583 0.00743 15.1693 0.00743C16.8454 0.00743 18.4993 0.742125 18.4993 0.742125V3.17323Z" fill="black"/>
<path id="Vector_2" d="M1.50195 9.82712C1.50195 9.82712 2.74877 10.6605 4.53934 10.6605C9.03043 10.6605 11.6739 4.45312 15.7197 4.45312C17.9589 4.45312 19.9973 6.32122 19.9973 8.64997C19.9973 10.9787 18.1907 13.0012 15.4004 12.9929C14.3997 13.0097 11.6459 12.9929 11.6459 12.9929L12.8673 10.6574C12.8673 10.6574 14.3999 10.6795 15.4004 10.6574C16.6109 10.6539 17.5938 9.87832 17.5938 8.64997C17.5938 7.54957 16.5364 6.80977 15.7197 6.80747C12.8673 6.80747 10.3154 12.9929 4.83195 12.9929C3.1559 12.9929 1.50195 12.2582 1.50195 12.2582V9.82712Z" fill="black"/>
</g>
<defs>
<clipPath id="clip0_8402_7218">
<rect width="20" height="13" fill="white"/>
</clipPath>
</defs>
</svg>
