<svg width="20" height="20" viewBox="0 0 20 20" fill="none" xmlns="http://www.w3.org/2000/svg">
<path d="M7.5 3.5H4.5C3.94772 3.5 3.5 3.94772 3.5 4.5V7.5C3.5 8.05228 3.94772 8.5 4.5 8.5H7.5C8.05228 8.5 8.5 8.05228 8.5 7.5V4.5C8.5 3.94772 8.05228 3.5 7.5 3.5Z" stroke="#888A90" stroke-linecap="round" stroke-linejoin="round"/>
<path d="M7.5 11.5H4.5C3.94772 11.5 3.5 11.9477 3.5 12.5V15.5C3.5 16.0523 3.94772 16.5 4.5 16.5H7.5C8.05228 16.5 8.5 16.0523 8.5 15.5V12.5C8.5 11.9477 8.05228 11.5 7.5 11.5Z" fill="#888A90" fill-opacity="0.1" stroke="#888A90" stroke-linecap="round" stroke-linejoin="round"/>
<path d="M15.5 3.5H12.5C11.9477 3.5 11.5 3.94772 11.5 4.5V7.5C11.5 8.05228 11.9477 8.5 12.5 8.5H15.5C16.0523 8.5 16.5 8.05228 16.5 7.5V4.5C16.5 3.94772 16.0523 3.5 15.5 3.5Z" stroke="#888A90" stroke-linecap="round" stroke-linejoin="round"/>
<path d="M15.5 11.5H12.5C11.9477 11.5 11.5 11.9477 11.5 12.5V15.5C11.5 16.0523 11.9477 16.5 12.5 16.5H15.5C16.0523 16.5 16.5 16.0523 16.5 15.5V12.5C16.5 11.9477 16.0523 11.5 15.5 11.5Z" stroke="#888A90" stroke-linecap="round" stroke-linejoin="round"/>
</svg>
