<svg width="20" height="20" viewBox="0 0 20 20" fill="none" xmlns="http://www.w3.org/2000/svg">
<path d="M16.0934 11.3515C15.3208 11.7654 14.4378 12.0001 13.5 12.0001C10.4624 12.0001 8 9.53764 8 6.50007C8 5.56223 8.23473 4.67921 8.64866 3.90656C6.24386 4.66403 4.5 6.91173 4.5 9.56673C4.5 12.8436 7.15641 15.5 10.4333 15.5C13.0882 15.5 15.3359 13.7562 16.0934 11.3515Z" fill="#2A2B2E" stroke="#2A2B2E" stroke-linecap="round" stroke-linejoin="round"/>
<path d="M11.5 6.5C13.5 6.5 13.5 4.5 13.5 4.5C13.5 4.5 13.5 6.5 15.5 6.5C13.5 6.5 13.5 8.5 13.5 8.5C13.5 8.5 13.5 6.5 11.5 6.5Z" fill="#2A2B2E" stroke="#2A2B2E" stroke-linecap="round" stroke-linejoin="round"/>
</svg>
