<svg width="20" height="20" viewBox="0 0 20 20" fill="none" xmlns="http://www.w3.org/2000/svg">
<path fill-rule="evenodd" clip-rule="evenodd" d="M16.0934 11.3514C15.3208 11.7653 14.4378 12 13.5 12C10.4624 12 8 9.53758 8 6.50001C8 5.56217 8.23473 4.67914 8.64866 3.90649C6.24386 4.66397 4.5 6.91167 4.5 9.56667C4.5 12.8435 7.15641 15.4999 10.4333 15.4999C13.0882 15.4999 15.3359 13.7561 16.0934 11.3514Z" fill="#888A90" fill-opacity="0.1"/>
<path d="M16.0934 11.3514L16.5703 11.5017C16.6314 11.3078 16.569 11.0962 16.4125 10.9665C16.256 10.8367 16.0365 10.8147 15.8573 10.9107L16.0934 11.3514ZM8.64866 3.90649L9.0894 4.14261C9.18539 3.96342 9.16334 3.74394 9.03362 3.58743C8.9039 3.43092 8.69233 3.36852 8.49844 3.42959L8.64866 3.90649ZM15.8573 10.9107C15.1555 11.2866 14.3534 11.5 13.5 11.5V12.5C14.5222 12.5 15.486 12.244 16.3295 11.7922L15.8573 10.9107ZM13.5 11.5C10.7386 11.5 8.5 9.26144 8.5 6.50001H7.5C7.5 9.81372 10.1863 12.5 13.5 12.5V11.5ZM8.5 6.50001C8.5 5.64655 8.71342 4.84442 9.0894 4.14261L8.20792 3.67038C7.75605 4.51387 7.5 5.47778 7.5 6.50001H8.5ZM5 9.56667C5 7.13617 6.59627 5.07719 8.79887 4.3834L8.49844 3.42959C5.89144 4.25076 4 6.68718 4 9.56667H5ZM10.4333 14.9999C7.43255 14.9999 5 12.5674 5 9.56667H4C4 13.1197 6.88027 15.9999 10.4333 15.9999V14.9999ZM15.6165 11.2012C14.9227 13.4037 12.8637 14.9999 10.4333 14.9999V15.9999C13.3127 15.9999 15.7491 14.1086 16.5703 11.5017L15.6165 11.2012Z" fill="#888A90"/>
<path d="M11.5 6.5C13.5 6.5 13.5 3.5 13.5 3.5C13.5 3.5 13.5 6.5 15.5 6.5C13.5 6.5 13.5 9.5 13.5 9.5C13.5 9.5 13.5 6.5 11.5 6.5Z" fill="#888A90" stroke="#888A90" stroke-linecap="round" stroke-linejoin="round"/>
</svg>
